<svg id="Layer_1" data-name="Layer 1" xmlns="http://www.w3.org/2000/svg" viewBox="0 0 462 619.72"><defs><style>.cls-1{fill:#ea2c00;}</style></defs><title>BeAHeroLogoV</title><path d="M122.53,351c.49-1.76,1.1-3.48,1.42-5.27a4.78,4.78,0,0,0-.7-3.2c-.44-.84-1.58-3.27,1.36-3.7.77-.11.47-1.84-.35-1.73-2.32.31-2.44-1-2.25-2.61a8.86,8.86,0,0,1,.37-1.34c.36.27.73.53,1.06.83s.71.69,1.07,1a4.8,4.8,0,0,0,.47-1.29c0-1.67-.11-3.35.06-5a10.8,10.8,0,0,1,1-4.05c.86-1.54-1.77-2.56-.19-4.32.75-.84.09-2.89.15-4.39,0-.61.15-1.71.39-1.76,3-.58,1.56-1.74.42-2.83-.81-.77-1.24-1.43-.29-2.46.3-.34.2-1.11.16-1.67-.06-.91-2.47-.76-1-2.56.39-.48-.49-1.9-.64-2.91-.23-1.55.22-2.09,1.57-.84.15-.73,1.82-.58.79-2.18-1.56-2.42-2.33-5.19-.61-8.09.44-.75.08-1.94.26-2.89.14-.74.4-1.88.89-2.06,2.09-.77,2.26-2.28,2.11-4.12a5.25,5.25,0,0,1,.31-2.36c.4-1,1.71-2.33,1.46-2.69a3.83,3.83,0,0,1-.79-2.71c.07-.72-.4-1.83,1-1.79.72,0,1.91-.5,2,.76.09,1.7,1.42,1.47,2.07,1.15,1.93-.93,2.82-.53,3,1.6a7.54,7.54,0,0,0,.37,1.35c.47-.39,1.24-.71,1.36-1.18.52-2.14.81-4.33,1.3-6.48.1-.46.68-.82,1-1.22.31.29.82.54.89.88,1.12,5.73,4,11.17,3,17.25-.3,1.76,2,4-.88,5.34-.12.06,0,.88.2,1.3s.67.51.65.71c-.26,1.69-1.3,3.68-.74,5,.8,1.84,1.09,3.19,0,4.86a1.75,1.75,0,0,0-.19,1.39c.79,2.08,1.42,3.92.09,6.25-1.05,1.84.91,4.56-1.07,6.56-.17.17,0,1,.32,1.29,1,1.21,1.21,2-.73,2.22-.4,0-.82.55-1.08.95a1.33,1.33,0,0,0,0,1c3.23.82.89,3.29,1.33,4.9.24.89-1.34,2.08.44,3.07a2.23,2.23,0,0,1,.61,2.11c-1.53,2.27-.77,4.75-.91,7.14-.1,1.66.48,3.57-.17,4.92-.56,1.16.33,2.41-.73,3.42-.35.33-.15,1.66.23,2.25,1,1.57.6,2.81.07,4.49-.67,2.12-.36,4.55-.38,6.84,0,.3.6.89.85.85,1.74-.25,3.62.76,5.26-.56.33-.27,1.22-.47,1.28-.36,1.29,2.14,2.51.22,3.72,0,3.54-.76,6.24-3.32,9.67-4.44,2.33-.76,2.76-3.62,3.06-5.61.89-6.11,1.81-12.2,2.92-18.28a77.35,77.35,0,0,1,2.34-10.59c1.08-3.24,1.36-6.66,2.72-9.86.66-1.55.75-2.76,2.68-3.39,1.75-.58,1.79-1.82.39-3.35-2.16-2.35.42-1.16,1-1.48.32-.17.86-.49.83-.66-.11-.64-3,.18-.89-1.83.69-.67.48-2.27,1.17-2.95,1.76-1.74.51-3.79.95-5.64.35-1.48-1.18-3.77,1.75-4.23.11,0,.29-1.08.08-1.27-2.08-1.93.49-3,.8-4.41,2.21,0,.86-.77.43-1.55-.15-.27.42-1,.77-1.43.15-.19.8-.1.84-.25.44-1.45,1.45-3.2,1-4.32-.36-.86-2.43-.23-3.89.1-3.51.78-7,1.55-10.52,2.41-2.14.54-4.57.28-6.52,1.16s-3.48,1.48-5.26-.08c-.2-.17-1.25.16-1.26.32-.35,3.53-2.09-.62-2.83.52l.23-1.77a11,11,0,0,1-2.44-.16,1.75,1.75,0,0,1-1.11-1.09c-.1-.68-.48-1.74.86-1.87.63-.06,1.74-.06,1.8-.31.61-2.28,2.31-3.32,4.26-4.16-1.91-.6,3.15-2-.32-2.58-1.2-.2.07-.82.12-1.25.27-2.24,3.48,2,3.29-1.6-.12-2.21,2.6-2,3.75-3.3s2.77-2.12,4.11-3.25c.75-.64,1.33-.76,2.1-.07a1,1,0,0,0,1-.05c1.78-2.71,5.39-2.81,7.37-5.26a3,3,0,0,1,2-1,2.73,2.73,0,0,1,2,.9c.37.48,3.41,1.5,0,2.09a.81.81,0,0,0-.06.66c.15.28.51.73.67.69,1.57-.39,2.57.48,3.56,1.44,0,0,.29-.21.33-.35a1.67,1.67,0,0,0,.08-.95,20.24,20.24,0,0,0-2.17-3c-1.39-2-.7-2.26,1-3,.75-.3,1.53-1.19,2-.23.37.77,1.08,2.32-.88,2.6-1.09.15-.85.54-.28,1.14,1.07,1.12,2.14,1.37,3.43.33s2.79-2.13,4.17-3.2a2.49,2.49,0,0,0,.7-.71c.67-1.2,1.6-1.36,1.91-.12.75,3,1.77,1.45,2.85.38,1.63-1.62,1.35,0,1.29.81-.12,1.67,1.08,1.57,1.94,1.31a7.32,7.32,0,0,0,3.25-1.71c1.28-1.36,2.29-1.66,3.62-.24a12.45,12.45,0,0,0,1.22,1.07,7.14,7.14,0,0,1-1.37.92,16,16,0,0,1-3.08,1,5.35,5.35,0,0,0-3.32,1.76c1.37.8,2.32-.18,3.5-.66a41.14,41.14,0,0,1,5.05-1.11,3.16,3.16,0,0,0,1.17-1c-1.78-2.34.81-3.75,1.69-3.79,3.62-.16,6.52-2.09,9.75-3.17a8.28,8.28,0,0,0,1.72-.66c.32-.19.47-.67.7-1a4.72,4.72,0,0,0-.87-.3,10.1,10.1,0,0,1-1.47-.09.89.89,0,0,1-.43-.76c.08-.41.4-1.11.6-1.1a8.45,8.45,0,0,1,3.28.46c.91.43,1.14.31,1.06-.54-.14-1.42.21-2,1.83-2a67.16,67.16,0,0,0,7.58-1,1.25,1.25,0,0,0,.1-.94c-.71-1.2-1.88-1.14-3-1a9.83,9.83,0,0,0-1.42.47,6.75,6.75,0,0,1,0-2c.08-.28.81-.6,1.18-.53,1.38.24,3,1.26,4,.8a8.47,8.47,0,0,1,3.67-.84c2,0,2.81.63,2,2.15-1.09,2-.49,2,1.19,1.87.95-.08,1.61-.12,2.07,1.31.4,1.22,2.07,1,3.22-.11.23-.22,1.06.2,1.62.33a8.89,8.89,0,0,1-.86,1.43,3.82,3.82,0,0,1-1,.62c.44.13,1,.51,1.31.36,2-.89,4.14-.59,6.07-1.11a36.83,36.83,0,0,1,6.11-.92,5.12,5.12,0,0,0,2.38-1.44,1.33,1.33,0,0,1,2.09,0c.62.6,1,.91.19,1.84s-1.2,2.48-1.86,3.7a1.92,1.92,0,0,1-1,.75c-3.17-2.7-2.09.46-2.5,1.72-.08.26-.88.23-1.25.47a38.19,38.19,0,0,1-5.08,2.22c-1.66.77-3.18.38-4.68.81s-1,2.87-3.17,3.06c-1.61.14-3.11,1.27-4.69,1.89a18.66,18.66,0,0,0-3.06,1c-3.65,2.29-7.67,3.16-11.8,4.2-4,1-8.17,1.7-11.94,3.71a21.16,21.16,0,0,1-6.62,2.14c-1.3.21-2.4,1.53-3.71,1.85s-3.08-.24-4.42.22a15.62,15.62,0,0,0-4.82,2.78c-2.1,1.73-2.41,4.33-2.66,6.88-.1,1.1-.24,1.22-.89.73-.38-.28-.82-1-.71-1.36.42-1.32,1.12-2.54,1.57-3.85a1.35,1.35,0,0,0-.45-1.23,1.49,1.49,0,0,0-1.31.24c-.84.63-2.12,3.82-2.17,5.57a19.45,19.45,0,0,1-.92,4.11c-1,4-2.24,7.93-2.17,12.15,0,2-.69,4-.92,6.08s.43,3.93-1,5.59c.07,4.72-1.7,9.32-1,14.08a10.7,10.7,0,0,0,.66,2.22c.11.29.45.48.69.72.21-.32.57-.62.62-1a28.9,28.9,0,0,1,.83-5.64,29.28,29.28,0,0,0,1.07-10c-.07-2.27,1.84-3.55,1.92-5.19s-1-3.17-.25-5.34c1-2.75,1.9-5.75,1.49-8.91a9.25,9.25,0,0,1,1.88-6.2c.14-.22.46-.33.69-.49a3,3,0,0,1,.38.84c.19,1.95-1.68,3.53-1,5.58-2.09.89,1.1,2.32-.4,3.55-.85.69-1.12,2.17-1.43,3.35-.13.49.29,1.13.49,1.69.1.29.42.64.34.84-2.16,5.43-.44,11.07-.95,16.59-.23,2.44.3,5.13-.57,7.28-.93,2.3.65,4.95-1.4,6.94-.34.32,0,1.29-.06,2-.32,3.87-.5,7.75-1.09,11.57-.17,1.09-1.37,1.93.79,1.71.64-.06,1.52.17,1.91-.17,4.53-4,11-3.31,15.81-6.6.92-.62,2.58-.32,3.87-.2a16,16,0,0,0,8.42-1.42c1.19-.58,1.42-.05,1.77.46.17.25-.18.95-.44,1.36a6.89,6.89,0,0,1-1,1.08c.43.16.89.51,1.29.46,1.38-.21,2.41.6,3.61.95,1.55.45.57.72.32,1.44-.38,1.11-1,2.54,1.3,2.78.77.08,1.44,1.3,2.12,2a.72.72,0,0,1,0,.66,7,7,0,0,1-.93.17c-.63.17-.72-1.76-1.72-.33-1.77,2.54-1.84,2.49-5.63,1.32-.63-.19-1.32.37-1,.79,1,1.21,1.2,1.73-.66,2.32-1.07.34-1.83,1.73-2.67,2.71-.12.14.07.61.21.87,0,.07.44-.05.67-.11.58-.14,1.39-.62,1.67-.41,1.8,1.39,3.67,1.12,5.43.25,1.25-.62,1.26.58,1.74.95.21.16,0,1.36-.29,1.6-2.24,1.56-4.57,2.89-7.51,2.52a3.77,3.77,0,0,0-2.37.55,36.28,36.28,0,0,1-7.55,3.52c-.87.34-1.35.53-2.11-.1-1-.83-.71.26-.95.69s-.71.87-.91.8c-1-.35-2.19-1.47-2.3.79-3.29,0-5.25,3-8.61,3.52a13.06,13.06,0,0,0-8.57,4.57c-1.34,1.73-2.81,3.17-1.6,5.55a1.66,1.66,0,0,1,0,1c-.29,1.56-1.6,3.11,0,4.67-2.13,4.57-.16,9.47-1.09,14.07-1,4.87-.37,9.79-1,14.58-.62,4.39-1.54,8.75-1.83,13.19-.07,1.11-2.16,1.88-.38,3.34,1.56,1.29-1.47,2-.67,3.43.14.25-.1.72,0,1a4.41,4.41,0,0,1,0,4.7,2.4,2.4,0,0,0,0,1.48c.13.74.18,1.86.63,2.09a2.85,2.85,0,0,0,2.25-.36c2-1.2,3.95-2.56,5.92-3.86,6.12-4.05,11.89-8.6,18.61-11.78,3.51-1.66,6.53-4.36,9.77-6.6A134,134,0,0,1,236,411.44c1.88-.95,4.24.28,5.94-1.4.06-.06,1,.45,1,.68,0,.77,0,1.83-.49,2.24-3.46,3-5.85,7.19-10.15,9.26-.28.13-.47.47-.71.69q-6.33,5.83-12.67,11.67c-1.62,1.48-3.35,2.84-4.9,4.4s-2.92,3.54-4.62,5c-3.32,3-6.46,6.15-10.65,8a13.92,13.92,0,0,0-4.57,3.37c-1.78,2-4.1,2.95-6.3,4.2a8,8,0,0,0-2.71,1.8c-1.26,1.8-3.44,2.17-5,2.39-3.64.51-7.48.64-11-.84-.71-.3-1.72-.75-1.89-1.34-1-3.41-2.8-6.64-3.16-10.17-.52-5.09-2.35-10-2.07-15.17-2.33-3.27.4-7.44-1.91-10.71,1.93-2.4-.76-4.65-.21-7.16s.12-5.31.12-8V403c0-2.67-.18-5.35.06-8,.2-2.2,1.27-4.26,1-6.59-.18-1.38-.79-1.95-1.79-1s-2.3,1-2.68.57c-2.27-2.44-2.86,0-3.09,1.23-.36,1.8-1.89,2.27-2.91,2.62a30.43,30.43,0,0,1-7,1.2c-2.13.21-3.32,1.11-3.54,3.35-.13,1.32,0,2.66,0,4,0,1.14.3,2.77-.3,3.31-1.38,1.24.72,1.58.3,2.36a5.46,5.46,0,0,1-1.06,1.55c-1.06.93-1.39,1.78-.13,2.81a1.06,1.06,0,0,1,.18.87c-1.76,1.1.33,2.15,0,3.2a.81.81,0,0,1-.29.38c-2,1.56.86,3.65-.65,5.42a3.94,3.94,0,0,0-.29,5.26c.41.6-.71,2.18-1,3.34-.4,1.34-.41,2.91-1.15,4-1.09,1.61-.54,2.68.44,3.87-1.52,1.44,1.2,3.88-1.28,5.2-.48.26-.68,1.41-.68,2.15a18.53,18.53,0,0,0,.4,4.83c.43,1.59-.65,2.8-.53,4.35a18.7,18.7,0,0,1-.79,8.12c-.85,2.33.61,5.18-1.09,7.56a1.55,1.55,0,0,0,0,1.45c1.08,1.13,1.36,2,0,3.29-.25.24.72,1.61.87,2.51.1.58-.51,1.28-.41,1.86.75,4.2.7,5.85-.46,8.42a2.51,2.51,0,0,0,.95,3.13c1,.81,1.41,1.47-.46,1.53-.21,0-.4,1.07-.57,1.65-.49,1.71,1.13,3.32.28,5,1.47,1.12.48,1.87-.3,2.8-.45.54-1,1.48-.8,2a17,17,0,0,1,.22,9.57,12.66,12.66,0,0,0,0,3.69c0,.25.36.47.56.71-2.72,1.12-1,3.18-.88,4.78.13,1.86-.67,3.4-1,5.1a5.2,5.2,0,0,0,.32,3.32,4.13,4.13,0,0,1,0,4.5c-.56,1-.18,2.56-.4,3.84s-.73,2.37-.95,3.59c-.72,3.88-1.33,7.78-2,11.66a15.27,15.27,0,0,1-1.06,4.06,5.63,5.63,0,0,1-2.39,2.46c-1.83.9-1.36-1.23-2-1.89-3.63-3.69-4.63-8.72-6.5-13.29a51,51,0,0,1-2.83-8.29c-.61-2.76-.93-5.53-2.13-8.16-.38-.83-.58-2.49,1.45-2.33,0,0,.45-1.35.21-1.59-2.54-2.49-2.76-5.63-2.74-8.89,0-5.33,0-10.67,0-16a14.34,14.34,0,0,1,.45-4.31c.48-1.47-1.09-2.42-.52-3.88a25.7,25.7,0,0,0,1-4.57c.27-1.38-.51-2.91.87-4.2.34-.32,0-2.11-.57-2.54-1.46-1.13-1.34-2.55-1.27-4,0-.95.26-1.89.39-2.83l1.59,2.17.54.7c.15-.26.46-.55.44-.8-.14-1.74,1-4-1.92-4.66a3.33,3.33,0,0,1,.27-1.28c.35-.52,1.14-.92-.14-1.23-.45-.11-1.2.3-.84-.94a42.46,42.46,0,0,0,.67-5.23c.28-1.72-.85-3.65.8-5.18a1,1,0,0,0,.16-.89c-2-2.42,0-4.84-.14-7.19-.23-5.28,1.39-10.36,1.14-15.59a30.07,30.07,0,0,1,1.72-10.28c.83-2.71.88-5.65,1.32-8.47a4.2,4.2,0,0,1,.54-1.16c.69.72,1.37,1.53,2.41.47a2.73,2.73,0,0,1-1-2.57,14.45,14.45,0,0,0-.37-2.84,12.54,12.54,0,0,1-.56-2.25c0-1.15.52-.66,1.14-.27.41.26,1.11,0,1.68,0a3.92,3.92,0,0,0-.09-1.34c-1.61-3.65-2-3.59-6.19-2.49a12,12,0,0,0-5.83,2.88A4.78,4.78,0,0,1,104.3,406c-1.88.27-3.74-.29-5.46,1.49-1.06,1.09-3,1.28-4.47,2.44s-3.7,1.41-5.57,2.13c-3,1.17-6.45,1.64-8.67,4.39a4.49,4.49,0,0,0-1.09,2c-.42,3.52-.29,7.16-1.15,10.56-1,3.88-.22,7.87-1.07,11.57-.76,3.26-.56,6.42-.85,9.62a49.6,49.6,0,0,1-1,5.09c-.34,1.7.8,3.65-.88,5.15-.18.16-.16.63-.11.94.75,4.61-1.35,9-1.05,13.59.21,3.05-1.45,5.9-1,9.09.39,3-1,5.81-1.84,8.69-.77,2.56-.68,5.37-1.12,8a45.9,45.9,0,0,1-1.25,5c-.16.59-.59,1.11-.7,1.7-.68,3.61-1.62,4.44-4.72,3.22-1.7-.67-2.9-1.73-3.53.95-.05.25-1.15.29-1.78.36-.9.1-2.15-.4-2,1.31,0,.08-.75.36-.85.26-2.3-2.27-5.7-3.17-7.37-6.26-1.44-2.65-2.66-5.26-2.78-8.37-.15-3.7.46-7.39-.79-11.14-.61-1.84.58-4.3,1-6.46a14.47,14.47,0,0,0,.77-2.66A46.5,46.5,0,0,1,47,463a6.69,6.69,0,0,0,0-1.49c.32-4,.13-8.2,1.15-12,.91-3.43.1-6.9,1-10.09.83-2.92.72-5.74.85-8.63a10.16,10.16,0,0,0,0-2,2.12,2.12,0,0,0-2.92-1.29,16.85,16.85,0,0,0-4.59,2.33c-2,1.59-4.79,2.42-7.18,3a19.59,19.59,0,0,0-7,3.66c-3.64,2.61-8,3.43-11.74,5.57a14.21,14.21,0,0,1-2.08,1c-1,.36-2,.63-3.06.94-.27-1.79,1.57-1.44,2.17-2.19.85-1.06.92-2.78,2.84-2.78a1.86,1.86,0,0,0,0-1c-.24-.37-.69-.88-1-.86s-.73.57-1.13.86c-1.88,1.35-3.77-.46-5.68-.05-.12,0-.46-.7-.61-1.11-.2-.59-.12-1.46-.51-1.76-2.84-2.19-1-4.16.14-6.23,2.42-4.38,6.67-6.79,10.27-9.93a36.06,36.06,0,0,1,8.56-5.79c3.36-1.55,5.81-4.3,9-6.1,1.34-.76,12.59-5.76,14-6,2.15-.41,4.35-3,4.54-5.49.1-1.32,0-2.66,0-4a19.49,19.49,0,0,1,.83-6.64,10.85,10.85,0,0,0,.32-5.64,26.85,26.85,0,0,1-.06-10c1.79-8.86-.15-17.83,1.06-26.59,1.15-8.23.62-16.41.8-24.61s0-16.33,0-24.49c0-2,.12-4,0-6s.69-3.93-.61-5.74c-1.16-1.62.67-4-1.3-5.51a5.15,5.15,0,0,1,1.09-1.94c1.06-1.12,1.69,0,2.39.63.34.31.7.58,1.06.87a9.12,9.12,0,0,0,.38-1.33,14.64,14.64,0,0,1,.05-1.49c.1-.39.4-1,.7-1a1.51,1.51,0,0,1,1.24.48c.37.47.42,1.17.77,1.66.68,1,1.51,1.21,2.39.17.22-.25.51-.45.7-.71.61-.84,1.19-1.7,1.78-2.55,1.4,1.85,1.65-.46,2.47-.69.23-.06.6-.21.69-.11,1.1,1.19,2.67,2.27,3.09,3.69a21.83,21.83,0,0,0,1.87,4.24c.15.27,3.49,4.39,3.76,4.78.42.64.72,1.36,1.08,2.05.89,1.69,1,3.67,1.64,5.33.76,2,1.15,3.47-.16,5.28a1.94,1.94,0,0,0,.1,1.87c1.08,1.05,1,1.74.07,2.89-.38.47,0,1.85.4,2.61.75,1.41.65,2.56-.63,3.41s-.37,1.37-.06,2.22c.48,1.3,1.32,2.43.25,4.25-.88,1.49-.16,3.9-.19,5.9,0,1-.25,1.2-.9.7a2.07,2.07,0,0,1-.69-1.39c0-.39.65-.89.55-1.21-.37-1.35-2.24-2.68-1.3-3.88,1.29-1.66-.68-2.73-.15-4.26.29-.86-1-2.27-1.69-3.39,0,0-1.22.34-1.3.66a20.28,20.28,0,0,0-.49,3.8c0,1,0,2-1,2.6a16.45,16.45,0,0,1,1.66,1.79c.23.33.36,1.17.19,1.29-1.21.84-.93,2-.86,3.16a4.13,4.13,0,0,1-1.18,3,4.65,4.65,0,0,0,.13,5.73c.29.39,1,.7,1,1.08.13,2.9,2.36.75,3.38,1.45a8.92,8.92,0,0,0,.63-2.13c.09-2,0-4,.07-6a1.22,1.22,0,0,1,.89-.81,1.33,1.33,0,0,1,1,.67c.18.43,0,1,.05,1.48.4,2.86-1,5.92,1,8.59a4.23,4.23,0,0,0-.13,4.24c.66,1.34.27,3.28.1,4.93-.25,2.4.79,4.89-.64,7.23s1,4.52.73,6.95.41,5.11-.15,7.47c-1.58,6.68-.66,13.41-.88,20.11-.13,3.93.24,4,4.09,2.3,6.5-2.81,13.06-5.5,19.64-8.12,4.15-1.65,8.26-3.4,12.45-4.94,1.17-.44,2.36-1.23.79-2.66,2.29-4-.37-8.75,2-12.64.78-1.25-1.76-1.57-.44-2.91.53-.54.34-1.83.39-2.79.05-1.16,0-2.33,0-3.5,0-.66,0-1.33,0-2,0-.12.28-.36.32-.33.24.12.61.3.61.47,0,1.78,0,3.56,0,5.34Zm68.74-19.28-.27-.05a8.12,8.12,0,0,0,0-1.48c-.13-.71-.37-1.39-.56-2.08a11.6,11.6,0,0,0-1,2.06c-.25.9-.23,1.88-.41,2.81-.36,1.84.71,3.78-.87,5.63-.66.77,0,2.57-.16,3.87s-.66,2.36-.93,3.56c-.06.24.2.56.32.84.23-.13.55-.21.69-.41a10.91,10.91,0,0,0,1.69-2.76c.25-.82-.29-1.84-.15-2.72C190.07,337.86,190.69,334.78,191.27,331.69ZM176.74,437.62l.26.05c0,1.33-.08,2.67,0,4a3.47,3.47,0,0,0,.81,1.64,1.61,1.61,0,0,0,1,.3c.43-1,1.41-2.45,1.06-2.94-1.77-2.47-.48-5.14-.91-7.66a4.08,4.08,0,0,0-.34-.85c-.36.25-1,.45-1,.77C177.26,434.47,177,436.05,176.74,437.62ZM203,360.5c0-.6,0-.9,0-.91a2.29,2.29,0,0,0-1-.07c-1.61.46-3.2,1.32-4.82,1.38a4.35,4.35,0,0,0-3.28,1.72,8.51,8.51,0,0,0-.74,1c.61.11,1.32.48,1.82.3,2.16-.81,4-2.31,6.59-2.11C202.07,361.9,202.67,360.83,203,360.5Zm-126.8,29A30.33,30.33,0,0,1,78,386.66c.93-1.13,1.28-1.79-.72-1.7-.83,0-1.15-.3-.91-.77.87-1.62-.5-1.73-1.32-2.15-.17-.08-.62.38-.94.59,1.67,1.65.49,3.75.9,5.59C75.11,388.57,75.57,388.83,76.2,389.5ZM180,428c0-1.62.21-2.52-.06-3.25s-1-1.07-1.56-1.59c-.45.8-1.48,2.05-1.27,2.31,1.07,1.34,1.38,2.46.19,3.86-.1.13.46,1.11.88,1.29a1.52,1.52,0,0,0,1.32-.65A8.5,8.5,0,0,0,180,428Zm26.36-68.5c2.29-1,4.4-1.87,6.46-2.85.17-.08.17-1,0-1.26s-1.16-.43-1.26-.29c-1.31,2-3.59,1.23-5.33,2-.46.19-.79.71-1.18,1.07ZM140,283c0,2.5-.05,4,.05,5.46,0,.22.78.58,1.14.52s.83-.78.77-.88a7.89,7.89,0,0,1-1-4.06c-.1-1.27.84-2.77-.61-3.83ZM115.48,396.14a13.41,13.41,0,0,0-3.48-1.05c-.64,0-1.27.85-1.91,1.32a13.3,13.3,0,0,0,3.18,1.49C113.74,398,114.43,397,115.48,396.14ZM178.15,263a4.66,4.66,0,0,0,3.84-3.07c0-.15,0-.41-.05-.46s-.55-.29-.68-.2c-1.29.9-2.55,1.84-3.8,2.8a1,1,0,0,0-.19.66A4.1,4.1,0,0,0,178.15,263ZM183,380.5a1.6,1.6,0,0,0,0-.49c-.2-.62-.43-1.23-.65-1.85a7.65,7.65,0,0,0-1.29,1.91,6.61,6.61,0,0,0,0,2.43c0,.19.5.5.73.46.43,0,1.09-.24,1.17-.52A7,7,0,0,0,183,380.5ZM64.92,506.67a12.22,12.22,0,0,0-2.44-1.62c-.63-.2-1.65,2-1.45,3.17,0,.19.63.5.78.42C62.65,508.19,63.42,507.64,64.92,506.67Zm59,14.68c.57,1.56-.8,3.25.79,4.48a33.1,33.1,0,0,0,.28-4.32c-.06-1.11.7-2.45-.62-3.34C124.17,519.27,124,520.38,123.88,521.35Zm56.12-108-.59-.42a25.47,25.47,0,0,0-1.36,3.32c-.17.66-.37,1.82.95,1.67.37,0,.9-.75.95-1.2A27,27,0,0,0,180,413.37Zm-32.77-24.95c.37-.69.83-1.16.73-1.38-.45-1-1.06-1.93-1.61-2.89-.44.78-1.32,1.63-1.21,2.31S146.36,387.66,147.23,388.42ZM125.1,532.16c-.12-.8-.28-1.9-.44-3-1.3.91-.52,2.24-.62,3.37a18.61,18.61,0,0,0,.3,3.31C125.64,534.93,124.68,533.58,125.1,532.16Zm-23-128.82c.52-1.83.87-2.48.81-3.09,0-.44-.58-1.15-1-1.19-1.32-.14-1,1-.94,1.69A11.8,11.8,0,0,0,102.13,403.34ZM79.35,293.58c-.45-.81-.73-1.55-.88-1.52-.84.13-2.07-.72-2.43.72-.09.35.31,1.16.5,1.16A18.78,18.78,0,0,0,79.35,293.58ZM21.51,438A8.72,8.72,0,0,0,23,436.19c.23-.49,0-1.22-.11-1.84,0-.12-.22-.23-.33-.34a7.29,7.29,0,0,1-.68,1.62c-.47.63-1.12,1.13-1.65,1.74-.05.06.2.44.37.62S20.86,438,21.51,438Zm155-172.85L173.5,263c-.17.25-.53.66-.47.73a19.45,19.45,0,0,0,2,2.23C175.15,266.05,175.73,265.6,176.55,265.15ZM140,315a6.28,6.28,0,0,0,0-1,5.37,5.37,0,0,0-.3-.85,5.65,5.65,0,0,0-.68.8,9,9,0,0,0-1,2c-.06.24.42.86.73.91a1.33,1.33,0,0,0,1.17-.49C140.16,316.07,140,315.5,140,315ZM96.48,403.83,95,402c-.33.42-.87.81-.94,1.27-.11.7-.36,1.81,1,1.69C95.44,404.91,95.82,404.35,96.48,403.83Zm84,17L179,419c-.33.42-.87.81-.94,1.27-.11.7-.36,1.81,1,1.69C179.44,421.91,179.82,421.35,180.48,420.83Z" transform="translate(-5.99 -5.01)"/><path d="M327,147c.26-.33.46-.8.8-1,4.52-2.36,9.2-4.45,13.52-7.13a10.94,10.94,0,0,0,4.47-5.48c.5-1.62,1.68-1.19,2.34-1.94.54-.6,2-1.47,1.87-1.75-.33-.86-1.06-1.79-.92-2.57a17.89,17.89,0,0,1,1.64-5.29c1.74-3.28,2.53-7,4.9-10,.1-.12.36-.27.33-.34-1.26-4.14,3.34-6.42,3.2-10.19,2.57-4.77,3.82-10.13,6.18-14.92,2-4,3.34-8.56,6.66-11.67,1.3-1.22-.18-3.79,2.64-4,1.37-.11,1.11-2.94,3.13-3l-.59-1.41c.62-.11,1.24-.24,1.87-.33,2.23-.3-.53-1.14.22-1.83,1.76-1.61,3.45-3.21,3.83-5.91.32-2.26,3-3.62,3-6.27,0-.51.57-1.14,1-1.54,1.31-1.13,2.36-2.32,1.92-4.21s3-.78,2.09-3.12a3.34,3.34,0,0,1,1.17-4c1.07-.83,1.63-2.31,2.54-3.4s2.69-.82,2.36-3c-.12-.81,1.6-1.92,2.51-2.87,1.67-1.73,3.59-3.25,4.36-5.69.15-.45.82-1.14,1.12-1.08,1.65.33,1.5-1.43,2.22-1.79,3-1.53,4.15-4.77,6.6-6.75.39-.32.68-1,1.07-1,1.56-.19,3.14-.19,4.7-.27-.78.92-1.46,2.5-2.36,2.64-2.76.42-.41,4.12-3.07,4.31,0,.24,0,.63.1.68.28.13.77.25.92.11,1.7-1.58,3.42-3.15,5-4.85,1.08-1.15,1.76-1.4,3.21-.26,1.19.93,2.47,0,2.43-1.61,0-1.72,0-3.24,1.59-4.38.78-.56.75-1.41-.27-1.87s-2-.74-3-1.26a1.31,1.31,0,0,1-.2-1.28A1.62,1.62,0,0,1,425.33,5c1.67,2.34,5.25,1.76,6.75,4.44.24.43,1.55,3.24,2.05-.1l3.47,1.73a9.65,9.65,0,0,1-1,1.75c-.53.62-.81,1.11.29,1.12s2.12,0,2.56,1c.82,2,2.66,3.64,2.5,5.95-.22,3.36.89,6.85-.92,10.1-.28.51,0,1.33-.05,2-.31,2.2.45,4.39-.86,6.66-.95,1.65.59,4.21-1.12,6-.08.09,0,.32,0,.49-.33,5-.92,10-.92,15.08,0,4.58-1.83,9-1.08,13.58-1.63,2.54-.74,5.38-1,8.08-.17,1.55-.73,3-1,4.59-.24,1.71.75,3.28.12,5.22S435,97,435,99.2v6a21.28,21.28,0,0,0,0,3c.18,1.3.65.32,1.18.16,1.79-.55,3.63-.91,5.45-1.36.44-.11,1.11-.18,1.26-.47,1-1.91,2.32-.46,3.48-.61.91-.11,2.6,2.48,2.81-.62,1.62-.09,3.57-.81,4.81-.16,2.56,1.33,5.11.6,7.65.86a7.42,7.42,0,0,0,1.49,0c1.55-.15,2.92.08,3.81,1.54-1.27.91-1.85,2.63-4,2.55s-2.58.52-1.66,2.58c.45,1,.28,1.27-.3,1.82-.35.33-.66.7-1,1.06a5.32,5.32,0,0,0,1.31.44c1,.07,2-.06,3,.07.26,0,.72.94.62,1-2.09,2.5-.33,4.35.91,6.36.18.29-.2,1.28-.58,1.5-2.81,1.64-6,2.43-8.6,4.67-.77.69-2.55.53-3.79.31a31.75,31.75,0,0,0-5.68-.09c-4.55,0-8.72,1.85-13.16,2.2a1.66,1.66,0,0,0-1,1.19c-.42,4.86-1.55,9.66-1,14.58-2,8.46-.72,17.05-.95,25.58s-.75,17.07.15,25.47c.87,8.07.46,16.08.84,24.1.07,1.54.73,3,.93,4.59s-.22,2.89,1,4.13c.33.34.12,1.29,0,1.95-.74,5.92.37,11.83,1.24,17.55,1.23,8.08.27,16.09.74,24.11a5.07,5.07,0,0,1-.56,1.7,6.7,6.7,0,0,1-1.66-.79c-2.45-2.16-7.65-9.9-8.68-13.88-1.61-6.31-4.69-12.1-6.14-18.47a89.46,89.46,0,0,0-3-11.24c-.91-2.48-.33-5.15-1.34-7.44-1.16-2.61.09-5.28-.64-7.74-1.18-4-.38-8.14-1.06-12.08-.95-5.55-1.22-11.17-2.11-16.65-.93-5.77-.64-11.43-.69-17.12-.05-5.4-1.56-10.63-1.16-16.09.38-5.3.09-10.66.07-16,0-1.43-.72-2-1.65-1.27-2.93,2.37-7,1.5-10,3.76-4.22-.2-7.8,2.17-11.7,3.21-2.38.63-5,.5-7.25,1.74-1.74.94-4.15.93-5.55,2.16-2,1.74-4.68-.3-6.3,1.81-4.79-.06-6,3.74-7.55,7.11-.2.41.14,1.32-.07,1.43-3.46,1.88-2.78,5.89-4.48,8.69a35.33,35.33,0,0,0-3.89,8.86c-1.61,5.85-4.91,11-6.51,16.8a9.9,9.9,0,0,1-1.28,3c-1.44,2.19-3.2,4.48-3.67,6.94-1,5.32-4,9.43-7,13.62a38.56,38.56,0,0,1-3.2,4.16c-2,2.17-3.49,2.19-5.06-.31-.81-1.27-2.13-2.64-1-4.86.8-1.61-.14-3.84-.73-5.73-.16-.53-.13-.53,1.17-.83.25-.06.68-.2.68-.29,0-1.23-1.08-2.32,0-3.72a14.22,14.22,0,0,0,1.57-3.82,1.49,1.49,0,0,0-.12-1.05c-.42-.79-3-1.94.42-2a1.66,1.66,0,0,0,1.15-1.06c.8-3.18,1.3-6.45,2.35-9.54.32-.94.32-1.2-.22-1.84-.19-.22,0-1,.24-1.3a15.12,15.12,0,0,0,2.62-8c0-1.76,1.2-2.86,1.64-4.34.16-.53.29-1.48.05-1.63-.74-.47-1.55-.48-1.66.78a2.72,2.72,0,0,1-.36.85c-.2-.33-.59-.67-.59-1,0-1.23.62-2.58,3.81-4.65.37,0-.49-.16-1.34-.18-.16,0-.56.79-.46.92a22,22,0,0,0,1.71,1.78c.5-.59,1-1.18.09-2.52a31.26,31.26,0,0,1-2.87-2.81c-1.15-.95-1.63.26-2.45.47-9.39,2.48-18.2,6.7-27.6,9.17-2.35.61-4.46,2.05-6.76,2.89-1.15.42-2.68-.46-3.59,1-.19-1.2-.4-2.4-.56-3.61-.06-.49.07-1,0-1.49-.89-4.9.48-7.73,4.75-10.08,6.76-3.72,13.47-7.55,20.27-11.22a44.67,44.67,0,0,1,9-3.53c0,.48-.16,1,0,1.41.53,1,.84,0,1.28-.19a3.19,3.19,0,0,1,1.34-.2c1,.06,1.66-.4,1.27-1.31C328.73,147.28,327.67,147.23,327,147Zm85-46c0-2.34-.13-4.68,0-7s.75-4.38.94-6.59c.41-4.85.68-9.71,1-14.57,0-.2.65-.58.76-.5a3.26,3.26,0,0,1,.88,4.51,1.26,1.26,0,0,0-.22,1c.21.42.87,1.08,1,1,.55-.32,1.3-.78,1.4-1.3q.74-4,1.15-8c.41-3.85.68-7.71,1-11.57a2.86,2.86,0,0,1,.34-.86c1.46-3.16.37-6.47.54-9.71,0-.66-.61-1.39-1-2a1.23,1.23,0,0,0-1,.27,4.72,4.72,0,0,0-.58,2c0,.41,1.24.85,0,1.23-.35.1-1.2-.25-1.22-.47-.33-2.49-1.37-1.67-2.46-.57A11.12,11.12,0,0,0,413,49.76c-3.15,5-5.54,10.42-8.94,15.31-1.82,2.62-2.94,5.75-4.31,8.68-1.45,3.1-4.51,5.3-5,9-4,4.69-5.59,10.7-8.72,15.89-2,3.26-2.63,7.38-4.83,10.44-3.09,4.3-3.55,9.58-6.2,14-.25.4.17,1.21.28,1.83a12,12,0,0,0,1.7-.39,2.12,2.12,0,0,0,.71-.69c.88-1.06,1.22-.71,1.26.47a5.56,5.56,0,0,0,0,1c.26,1.25,1.32.84,2,.74,1.88-.28.18-.88.08-1.39-.46-2.37,1.81-2.28,3-3.07s1.42.63,1.91,1.24a5.54,5.54,0,0,1,.54,1.24c.16-.43.2-1,.5-1.27.66-.64,1.46-1.64,2.17-1.61,1.68.07,2.23-1.22,3.21-2,1.5,1.63,2-.26,2.83-.83.65-.43,1.32-1.22,2-1.2,2.16.06,3.88-1.18,5.85-1.64,1.81-.42,3.6-1,5.4-1.43,1.63,1.87,2.33.13,2.47-.93.27-2,1.54-3.83,1.15-6.08A36.13,36.13,0,0,1,412,101Zm-72.16,41.4s-.07-.2-.13-.19a11.86,11.86,0,0,0-2.69.34c-.32.1-.62.92-.55,1.34s.65.72,1,1.07C338.26,144.13,339,143.28,339.84,142.41Z" transform="translate(-5.99 -5.01)"/><path d="M288.84,422.66c-.59.59-.81.71-.81.82.54,11-1.69,22-1.09,33.08.11,2.17-.73,4.37-.9,6.58s.55,4.56-.2,6.43c-.82,2.07-.32,4.19-1.07,6.06-.64,1.57-1.31,3.12-1.91,4.71-1.41,3.74-5.48,4.59-9.42,2.73a3.23,3.23,0,0,1-1.53-1.32,26.15,26.15,0,0,1-3.8-9.93c-1-4.81-2.52-9.58-2.18-14.65a11.41,11.41,0,0,0-1-5.54c-1.52-3.09-.16-6.47-1.32-9.46s-.22-6.18-.6-9.25c-.26-2.06-1.6-3.88-.17-6.27.66-1.1-.76-3.28-.78-5-.11-8.17-.75-16.41.15-24.48s.13-16.11,1-24.08c.41-3.87.19-7.85,1-11.56.75-3.42.58-6.75.85-10.12.15-1.88.76-3.72.93-5.59s-.5-3.88.14-5.46c1.75-4.3.25-9.08,2.71-13.4,1.39-2.43.77-6,1.22-9a28.85,28.85,0,0,1,1.42-5.9c1.39-3.71,1.66-7.65,2.64-11.42,1.46-5.67,3.22-11.33,6.24-16.38,1.24-2.08,3.45-3.58,5.2-5.37.16-.15.15-.46.22-.69a7.49,7.49,0,0,0-.9-.24c-.33,0-.81-.15-1,0-2.4,2.4-5.89,2-8.6,3.37-1.34.69-2.52.49-3.76.57-1,.06-1.53.16-1.59,1.32,0,.26-.95.58-1.5.7-3.51.76-6.94,1.28-10,3.8-1.73,1.43-4.78,1.63-6.52,3.3-2.39,2.28-5.56,2.89-8.1,4.67-2,1.42-4.26,1.25-6.49,1.24-.83,0-2.41-2.38-1.9-2.86,2.16-2,2.77-4.87,4.17-7.29.67-1.17,1-2.31,2.7-1.88.7.18,1.92.27,1.67-1-.64-3.38,1.86-4.3,4.1-4.83,1.9-.45,3-.95,3-3,0-.37.81-1.09,1.13-1,1.95.35,2.65-.9,3.57-2.23a6.26,6.26,0,0,1,2.65-1.93c5.48-2.48,10.77-5.38,16.2-8,5.74-2.73,11.51-5.44,18-6.13.67-.07,1.11-.76,1.84,0,.17.18,1.48-.22,1.5-.44.24-2.37,2-1.68,2.79-1,1.7,1.51,2.64.16,3.08-.81s.61-1.48,1.85-1.62c2.15-.25,4.24-1,6.38-1.43a11.48,11.48,0,0,1,3.69-.19c.5.08.73.72,1.46.08,1-.89,8.28-2.54,9.66-2.37.41.06,1,.33,1.1.63a1.64,1.64,0,0,1-.41,1.28c-.65.74-1.49,2-2.11,2-2.32-.27-3.1,1.58-4.49,2.62-.4.3-1.11.17-1.68.24.19-.35.6-.79.51-1a3.25,3.25,0,0,0-1-1.39c-.12-.11-.73.23-1,.48-.6.54-1.12,1.16-1.68,1.75,1,.82,1.91,2.16,3,2.34a26.66,26.66,0,0,0,7,0c.71-.07,1.41-1.12,1.94-1.85a7.21,7.21,0,0,0,.68-1.91c.47.47,1,.92,1.41,1.41.79.85,1.51,1.77,2.9,1.45a38.64,38.64,0,0,1,4.59-1c1.48-.17,3,.17,4.48-.13.75-.15,1.39-1.14,2-1.85,1-1.25,2.88-1.44,2.85-.56-.09,2.24,2,1.24,2.73,2.33.38.6,2.07.27.61-1.16.29-.23.58-.62.89-.64,3.87-.27,6.17,1.63,7,5.57.21,1,.77,2,1,3.09.52,3,.47,3,3.59,3.31.32,0,.82-.09.94.07a2.51,2.51,0,0,1,.45,1.29c0,.2-.46.64-.6.6-.58-.18-1.1-.57-1.68-.75a4.67,4.67,0,0,0-1.35,0,3.59,3.59,0,0,0,.41,1.05c.9,1.07,1.83,2.17,3.36.81.09-.08.74.21.77.39.07.43.09,1.1-.16,1.3-.66.51-2,.13-1.74,1.74a8.34,8.34,0,0,1-1.94,6.69c-2.18,2.93-2.64,6.57-3.63,10-.08.3.18.7.28,1.05.46,1.6.61,3-.71,4.48a14.75,14.75,0,0,0-2.85,5.27c-.29.91-2.39,1.63-.7,2.79.23.15,1.89-1.16,2.34-2.06a82.75,82.75,0,0,1,6-11,3.16,3.16,0,0,0,.2-1.41c.07-1-.24-2.26.28-2.83s1.8-.4,2.76-.4,1.59-2.15,2.9-.58c-1.79,1.07-.26,3.13-1.3,4.4-.53.64-1.19,1.17-1.76,1.79-.86.93-2.57,1.67-.88,3.3-1.26,1.29-.54,3.38-2,4.69a18.84,18.84,0,0,0-2.51,3.42c-2.48,3.48-4.92,7-7.44,10.41-.85,1.15-2.35,1.85-2.07,3.68.06.34-.43.81-.75,1.16-4,4.35-7.33,9.28-11,13.93-1.59,2-3.39,3.87-5,5.9-3.47,4.35-7.42,8.32-11.23,12.38-1.77,1.87-3.14,4.18-5.05,5.76-3.13,2.59-4.87,6.63-8.88,8.25-.51.21-1.65.89-.32,1.72-.38.26-.75.7-1.15.73-.88.06-1.56,0-1.63,1.25a3,3,0,0,1-.84,2.09c-1.51,1.08-3.73,1.52-3.11,4.16-1.69,1-1.89,2.84-2.47,4.48a7.23,7.23,0,0,0,.22,5.47c1.77,4.43,3.37,8.93,5.28,13.31.49,1.13,1.36,2.09,2,3.19a75.54,75.54,0,0,0,15.16,18.7,13.06,13.06,0,0,0,2.75,1.77c1.06.58,2.11,1,2.49,2.41.2.75,1.12,1.71,2.07.3.11-.17.86-.17.9-.07a3.07,3.07,0,0,0,3.12,2.13c1.2.06,2.32,1.49,3.48,2.31-2.33,2.51,1.94,1.08,1.48,2.48,2.83,0,4.59,2,6.49,3.59,1.06.88,1.69,1.56,3,.53.41-.32,1.3.05.53.95a3.12,3.12,0,0,0-.29.7c2.91.25,4.85,2.78,7.64,3.27a2.65,2.65,0,0,0,2.68-.87c.14-.16,1.35.51,1.94,1,.14.1-.15,1-.42,1.35-.89,1.31-1.89,2.54-2.8,3.84-.53.77-.94,1.61-1.43,2.41-.08.13-.25.33-.35.31-2.75-.35-4,2.4-6.26,3a35.29,35.29,0,0,1-3.59,1,6.52,6.52,0,0,1-3,0c-4.71-1.62-9.77-1.39-14.46-3.74-3.61-1.81-8-2.49-11.68-4.33-3.07-1.52-5.59-4.29-8.75-5.42-3.5-1.27-5.6-4.11-8.5-6-2.49-1.59-4.12-4.5-6.1-6.86A18.71,18.71,0,0,1,288.84,422.66ZM291.05,342c-.35,2.69.6,5.49-1,8.11-.44.73-.1,2-.05,2.95,0,.29.22.77.39.8a2.06,2.06,0,0,0,1.33-.16,6.24,6.24,0,0,0,1.42-1.39c2.61-3.24,5.27-6.44,7.75-9.77,3.11-4.18,6.27-8.34,9-12.75,2.26-3.61,6-6.16,7.24-10.47a.65.65,0,0,1,.35-.32c3.09-1.36,4.45-4.45,6.36-6.84,3.51-4.38,6.28-9.35,9.47-14,2.23-3.24,4.14-6.66,6.49-9.85,3-4.16,3.44-9.39,3.27-14.63a5.14,5.14,0,0,0-2.5-4.44,10,10,0,0,0-4.45-1.36c-2.7-.29-5,.94-7.58,1.12s-5-.16-7.64.83-6.26-.88-8.61,2.15c-.06.08-.32,0-.48,0-3.27-.39-6.4.76-9.58.89a15,15,0,0,0-9,3.54c-2.3,1.9-4,4.65-3.23,8.06,0,.14.43.24.68.29.07,0,.23-.22.28-.36.16-.44.28-.88.42-1.33a4.62,4.62,0,0,1,.57,1.07c.21.93.08,2.51.53,2.69,1.57.61,2.15-1.14,3-2,.46-.45.12-1.66.54-2.22a8.89,8.89,0,0,1,2.22-1.64,5.84,5.84,0,0,0,.76,2c1,1.15.44,2.14,0,3.19-.32.7-.95,1.39-.95,2.09,0,3.37.25,6.77-2.05,9.65-.4,4.92-2.31,9.64-2,14.65a9.85,9.85,0,0,1-1.5,6.38c-.25.38-.61,1.11-.48,1.24,2.11,2.11-.12,4.2.07,6.19C292.61,331.73,290.4,336.76,291.05,342ZM283,452.72c-.38-3.52-.67-6.21-1-8.9-.08-.72.36-2-.95-1.77-2.32.4.36,1.12,0,1.81a6.76,6.76,0,0,0-.6,2.23c-.12.89-.47,2.07-.05,2.65a1.73,1.73,0,0,1,0,2.52c-.49.67-.72,2.31-.29,2.73,1.46,1.44-.36,2.53-.08,3.75a36.51,36.51,0,0,1,.95,4.08,6,6,0,0,1-.53,2.25c-.09.29-.47.65-.39.81a22.29,22.29,0,0,0,1.31,2c.22-.47.62-.93.63-1.4C282.08,460.91,281.54,456.32,283,452.72ZM350.12,305c-.19-.39-.29-.65-.31-.65-.36.13-.85.18-1,.44q-4.92,6.89-9.73,13.85c-.16.23.15.91.4,1.27a.93.93,0,0,0,.9.09,2.69,2.69,0,0,0,1.09-.93,60,60,0,0,1,5.48-7.69C348.41,309.5,349.13,307,350.12,305ZM311.4,255a58.24,58.24,0,0,0-6,1c-3.09.84-6.27,1.49-9.07,3.16a1.34,1.34,0,0,0-.3,1.27c.16.31,1,.63,1.19.49,1.45-1.06,2.68-2.85,4.75-1,.1.1.79-.18.79-.3.08-1.95,1.45-1.73,2.72-1.67,2.4.13,4.52-1.68,7-1.05a1.06,1.06,0,0,0,.44-.74,2.15,2.15,0,0,0-.57-1.18C312.23,254.86,311.76,255,311.4,255ZM287,319.77c0,.61,0,1.43,0,2.26a2.51,2.51,0,0,0,.35.84c.35-.26.86-.45,1-.8a6.73,6.73,0,0,0,.6-2.22c.21-3.4,1.18-6.7,1.15-10.15,0-1.12,1.68-2.23.27-3.6-.8,1.32-2.38,2.72-2.25,3.94C288.49,313.37,286.82,316.33,287,319.77Zm9.59,72.41c-.32,1.26-.48,1.79-.58,2.32-.28,1.45.63,1.68,1.7,1.46.47-.1.86-.6,1.29-.92Zm3.94,5.66c-.8-.44-1.38-.89-1.48-.8-.73.68-1.38,1.45-2.05,2.2.33.25.85.79.95.72C298.77,399.39,299.5,398.71,300.53,397.84Z" transform="translate(-5.99 -5.01)"/><path d="M362,473.71c0-4.22.08-7.22,0-10.21-.07-1.72.72-3.61-.92-5.14-.33-.31-.26-1.37,0-1.93,1.74-3.94.77-8.06.94-12.1.15-3.66,0-7.33,0-11,0-2.11.27-4.21.46-6.31s-.22-4.91.87-6.59c1.28-2-.61-4.45,1.59-5.88-.88-4.78,2.74-8.86,2.14-13.65-.17-1.3.59-2.71.92-4.08l3.3-13.63c1.82-1.32-.09-2.77.16-4.11.28-1.5,1.68-2.58,1.58-4.35-.25-4.05,2.88-7.24,3-11.25a2,2,0,0,1,1.35-1.34c1.91,0,1.51-1.23,1.6-2.33a10.57,10.57,0,0,1,.46-1.8,9.22,9.22,0,0,0,1.07,1c1.72,1.17,1.48,2.47.5,4-.24.38.2,1.19.32,1.81.35-.27.72-.51,1.05-.8s.72-.71,1.07-1.06a7.61,7.61,0,0,1,.5,1.27c.37,1.82-.41,3.43-1,5.09-.13.39.14.92.23,1.39.24-.41.49-.81.74-1.21.66-1.06,2.52-1.57,1.93-3.14-.41-1.1,2.09-1.74.22-2.76,1.2-1.63,2.12-3.61,3.66-4.79s2.7-2,2.22-4.08c0-.21.31-.52.47-.78.12.12.36.28.34.35-.45,1.35,2.31,2.13.57,3.8-1.41,1.36.32,2,1,2.7s2.51-.59,2.53-1.57c.07-2.31-.06-4.62-.12-6.94l-1.76.24c0-.66-.06-1.31-.08-2a3,3,0,0,1,0-1c.9-2.73,1.27-4.52.95-6.75-.17-1.2-.45-3.12-1.17-3.39-2.71-1-2.12-3.31-1.65-4.74A38.09,38.09,0,0,0,395,327a3.25,3.25,0,0,1,.67-1.21,11.64,11.64,0,0,0,1.28-2,64.75,64.75,0,0,1,11-18.92c1.26-1.5,2.58-3,4-4.34.36-.35,1.11-.29,1.68-.42a6.78,6.78,0,0,1,.25,2.33c-.09.35-1.15.38-1.59.77a1.33,1.33,0,0,0-.2,1.27c.2.31,1.1.57,1.23.43,1.64-1.79,5.18-1.13,5.68-4.39,0-.22.5-.35.69-.58.92-1.1,2.41.17,3.25-.71s1.55-2.64,2.69-3.3a21.85,21.85,0,0,1,5.68-1.91c.37-.08,1,.75,1.44,1.23,1.16,1.29.88.12,1.27-.56.81-1.4,2.31-.52,3.51-.68-.06.35,0,.92-.2,1-2.29,1.3-4.36,3.07-7.29,3a23.43,23.43,0,0,0-3.93.57,3.36,3.36,0,0,1-1.06-.2c0,.32-.2.77-.05.94a4.87,4.87,0,0,0,1.75,1.59c1.75.59,7.64-.39,9.09-1.32s5.11-.21,4.94.83c-.59,3.41,2.75,2,3.59,3.44s2.26,1.08,3.54,1.08a2.7,2.7,0,0,0,.87-.29c-.28-.23-.52-.56-.84-.67-1.65-.6-2.22-1.5-1-3a.51.51,0,0,0,0-.48c-.63-.71-1.71-1.4-.56-2.39.78-.67,2,.36,2.57,2.11.19.58.35,1.16.53,1.73.47-.17,1.22-.64,1.37-.49,3.07,3,6.6,5.77,7.1,10.53,2.26,2.5,2.79,5.86,4.31,8.7a25.83,25.83,0,0,1,2.81,8.88c.49,3.56,1.94,7,1.88,10.68,1.63,1.23.9,2.45,0,3.67s1.55,1.94.33,3.33c-.76.87-.53,2.08.41,3.06.24.26,0,1.21-.27,1.64a2.21,2.21,0,0,0,.09,3.08c.73.78.44,1.35-.13,2.09A2.79,2.79,0,0,0,467,359c.09,1,.55,1.95.55,2.93a21.58,21.58,0,0,1-.57,3.24c-.19,1.08.48,2.36-.77,3.21,0,0,.45.65.6,1,.88,2.1.86,2.1-.16,4.48-.25.56-.72,1.18-.64,1.71.57,3.63-1.11,7-1.09,10.59,0,1.36-1.34,3.28-.8,4,1.21,1.58-.45,2.52-.2,3.79a5.71,5.71,0,0,1-.87,4.12c-.44.73-.08,2-.08,2.95a14.51,14.51,0,0,1-.9,5.12A31.58,31.58,0,0,0,460.51,420c0,.25.3.66.26.69-2.52,1.56-1.14,4.26-1.91,6.23a19.17,19.17,0,0,0-.89,6.13,8.65,8.65,0,0,1-.72,2.19c-1.41,4.08-3.73,7.75-4.43,12.21-.45,2.9-3,5.41-4,8.3-1.44,4.31-4.9,7.58-5.86,12.08,0,.16.07.4,0,.49-2.9,2.87-3.92,6.65-5.24,10.33-.56,1.59-1.27,3.16-1.91,4.71-1,2.56-3.06,4.74-4.74,7-2.91,4-6.08,7.77-8.72,11.9a37.13,37.13,0,0,1-3.29,4.12c-.91,1.08-2.51,1.75-2.14,3.64.06.25-.49.64-.78.95-.72.74-1.46,1.46-2.17,2.21a22.55,22.55,0,0,1-3,3.23c-4,2.81-7.79,6.11-12.19,8-3.62,1.52-7,4.27-11.51,3.68-5.85-.75-10.94-2.89-14.2-7.72-3.54-5.24-7.22-10.54-8.31-17-.09-.58-.73-1.1-.75-1.67-.12-2.89-.65-5.76-.86-8.59C362.68,486.22,361.09,479.41,362,473.71Zm45.91-103.26c.82,4-1.68,7.67-.94,11.64a5.16,5.16,0,0,1-.38,1.82c-.53-.55-1.27-1-1.56-1.68a114,114,0,0,1-5-12.89,2.3,2.3,0,0,0-1-1.28c-.21-.12-.83.33-1.16.64a4.28,4.28,0,0,0-.83,1.14c-1.62,2.82-1.31,6.5-4,8.87-.25.22,0,1,0,1.46.07,3.06-1,5.92-1.6,8.85a1.46,1.46,0,0,0,1.19,1.76c1.45-1.34,1.55-.41,1.31.78-.14.74-.82,1.4-.86,2.12a74.34,74.34,0,0,1-.85,8.11,20.52,20.52,0,0,1-2.91,7.32c-.57,1-1.32,1.37-.39,2.65.38.52-.8,2-.59,2.9s1.07,1.12-.43,1.4a3.8,3.8,0,0,0-1.82,1.49c-.17.22.19.87.32,1.32l1.41-.59a17.22,17.22,0,0,0-.6,2.06c-.13.8-.11,1.62-.18,2.43-.22,2.38.68,4.91-1,7.08,1.73,1.21-.93,3.1.68,4.42.25.2-.06,1.09-.11,1.66,0,.35-.05.7-.08,1.06,1.41-.06,1.86.22.64,1.44a3.65,3.65,0,0,0-1.08,2,23.22,23.22,0,0,0,0,4.49c.13,1.41-.28,2.79.5,4.29.49.95-.31,2.56-.53,3.87-.13.76.89,1,.34,2.32-1.13,2.73.35,6.1-1.34,8.93,1.1,1.06,1.47,2,0,3.22-.67.58,2,2.51-.82,2.77a3,3,0,0,0-.05,1.29c.06.27.51.44.66.72,1,1.91-1.45,5,2.07,6-.3.51-.9,1.07-.84,1.53.14,1.06,1.18,2.38.83,3-.92,1.68-1,2.88.59,4,.18.13.37.6.3.68-1.35,1.44-.81,2.81-.26,4.46s.33,3.53.49,5.3a3.32,3.32,0,0,0,5.44,2.51c1.94-1.54,4-3.21,5.25-5.29,3.39-5.85,8.4-10.38,12.26-15.85a100.81,100.81,0,0,0,7.35-11.49,73.43,73.43,0,0,0,3.65-8.48c1.08-2.92,4-4.95,4-8.33,2.23-1.61,2.91-4.13,3.45-6.55a54.54,54.54,0,0,1,2.73-7.38c2-5.2,3.45-10.55,5.43-15.74,1.85-4.84,3.65-9.74,3.4-15.08a4.07,4.07,0,0,1,.17-1.43A29.17,29.17,0,0,0,443,394.6c0-.67-.28-1.69.05-2,1.95-1.53.19-3.84,1.29-5.49,1.31-2,.4-4.16.65-6.23.08-.66-.27-1.55.06-2,1.26-1.58.29-3.73,1.09-5,1.24-2,.65-3.52-.11-5.27a1.5,1.5,0,0,1,.22-1.36c1.43-1.23.84-2.87.67-4.2-.34-2.68.75-5.07,1.16-7.58.13-.78,1.47-1.23.55-2.45-1.11-1.46,1-1.55,1.21-2.46,0-.16-.29-.59-.45-.59-2.08,0-.64-.7-.52-1.54.18-1.32,2.32-2.59.22-4.25-.57-.45,0-2.23-.11-3.39a7.31,7.31,0,0,0-.48-2.79,82.4,82.4,0,0,1-4.9-12c-1.09-3.36-3.83-5.45-5.92-8.07-1.45-1.81-3.32-.88-4.92-1.54-4.47-1.83-9.72.68-12.84,4.62-2.27,2.88-3.64,6.24-5.74,9.13A26.1,26.1,0,0,0,409,343.09c-1.93,1.08,1.1,2.83-.54,4-.07,3.57-.75,7.27,0,10.65.51,2.32.15,4.52.55,6.73C407,366.17,408.48,368.5,407.91,370.45ZM459,321.2a27.4,27.4,0,0,0-1.4-4c-.31-.57-1.5-1.28-1.91-1.09-1.35.62-.55,1.43.1,2.23.9,1.09,1.65,2.29,2.5,3.42.05.07.47-.09.67-.22S459,321.22,459,321.2Zm-.65,9.94c-.12.3-.38.62-.31.85a29.06,29.06,0,0,0,1,3,3.44,3.44,0,0,0,.65.85c.11-.44.39-.92.3-1.31a22.14,22.14,0,0,0-1-3C458.91,331.35,458.57,331.27,458.34,331.14Z" transform="translate(-5.99 -5.01)"/><path d="M78,34.74a1.65,1.65,0,0,1,2.61.23c.27.29.4.14,1.43-1.44.15-.23.59-.56.7-.5,1.36.79,2.47.77,3.47-.65a1.67,1.67,0,0,1,1.61,0c1.9,1.87,2.66-1.21,4.16-.88a3.29,3.29,0,0,0,0-1,10.91,10.91,0,0,0-.59-1.42c.91-.24,1.51-.16,1.65,1s1,1.07,1.77.55a17,17,0,0,1,8.88-2.59c2.13-.06,2.56-.8,2.31-2.58a.9.9,0,0,1,0-.49c.2-.3.45-.56.68-.84l.31.87c.47,1.45,1.29,1.33,2,.26.35-.55-.29-1.36,1.26-.82s3.56-.31,5.35-.61c.18,0,.3-.51.43-.79,1-2.31,1-2.37,3-1.6.14.05.23.32.36.33,1.47.07,3,0,4.42.2s2.72.85,4.1.93c2.73.15,2.72.06,4.14,1.36a2.69,2.69,0,0,0,1.11.66c3.55.86,3.55.85,7,4.64,3.68.65,3.08,4.94,5.59,6.59.12,4.16,3.06,8.48,0,12.41-2,2.64-1.66,5.9-3.32,8.67-2.87,4.8-5.59,9.69-8.61,14.41-3.42,1.91-4.82,5.79-7.94,8.09a20.7,20.7,0,0,0-4.62,5.53c-2.7,4.21-6.46,7.42-10,10.81-1.43,1.37-1.92,3.64-4.1,4.28-.13,0-.25.72-.11.89s.8.75,1.07.66A42,42,0,0,1,122.78,100a6.44,6.44,0,0,1,2.26.57c.36.15.57.67.85,1-.28.13-.58.4-.84.37-2.4-.32-4.91.79-7.25-.6-.24-.14-1.07.34-1.35.73-.8,1.07.46.61.73.91,1.85,2,4.88-.08,6.74,1.94.08.1,1-.26,1.17-.6,1.22-1.89,2.64-1.18,4-.35,4.16,2.48,8.27,5,8.89,10.5,3.81,6.14,3.38,12.79,2.49,19.54-.12.92.51,1.94.44,2.88s-1,1.78-.88,2.58c.63,4.79-1.19,9.36-1.12,14.09a10.12,10.12,0,0,1-1.14,5c-2.37,4.09-2.94,8.8-4.85,13-1.47,3.22-1.93,6.91-4.57,9.63-.8.82-.93,2.26-1.48,3.36-2,4-3.79,8.13-6.05,12a122.15,122.15,0,0,1-7,10.09c-2,2.79-3.91,5.76-6,8.46-3,3.9-5.43,8.48-10.11,10.94a12.84,12.84,0,0,0-3.25,3c-1.26,1.43-2.36,3-3.56,4.51a40.85,40.85,0,0,0-3.31,4.1,13.15,13.15,0,0,1-5.81,5,23.29,23.29,0,0,0-6.62,4.56,17.74,17.74,0,0,1-3.46,2.48c-4.72,2.7-9,6.1-14,8.34a23.24,23.24,0,0,0-8.11,5.8,10,10,0,0,1-2.85,2.77,53.84,53.84,0,0,1-6.43,2.14c0-2.39,1.6-4,3-5.48,1.16-1.26,2.17-2.7,4-3.46,1.49-.62,2.55-2.41,3.65-3.81,1.74-2.22,3.26-4.62,5-6.8,2-2.4,4-4.7,6.19-6.94q12.69-13.26,25.46-26.44c1.37-1.41,1.57-4,4.16-4.24.08,0,.16-.58.16-.89,0-1.92,1.34-3.1,2.25-4.58,2.63-4.23,4.53-8.9,7.76-12.77.5-4.32,3.23-7.68,5.06-11.39A206.09,206.09,0,0,0,116,160.18c1.22-3.4,2.87-6.81,2-10.64,1.39-2.57,1.08-5.37,1-8.09-.12-2.53-.74-5-.91-7.58s.12-5-.08-7.49c-.23-2.81-2.49-4.4-4.32-6.18a1.47,1.47,0,0,0-1.31,0c-4.54,2.39-9.81,2.67-14.37,5.18-2.51,1.38-5.65,1.59-8.38,2.66s-5.94,1.73-8.34,4.08c-2.25,2.21-3.7,4.38-3.32,7.71.16,1.47-.63,3-.91,4.57s.58,3-1,4.1c-.07.05,0,.32,0,.48-.33,3.86-.65,7.73-1,11.59a50.55,50.55,0,0,1-1.78,9.75,5.32,5.32,0,0,0-.17,2.41c.16.89.84,1.71.9,2.59s-.83,2.18-.58,2.37c1.5,1.17-.53,1.5-.43,2.39.22,2.14-.05,4.33.12,6.49.1,1.28-2.21,2.26-.33,3.86.36.31-.28,2.48-1,3.23-1.3,1.29-.37,2.8-.93,4.15a23.29,23.29,0,0,0-1.83,8.77c0,2.69-.73,5.38-.89,8.08s.33,5.73-.13,8.48a36.68,36.68,0,0,1-3.23,10.64c-.62,1.23-1.74,1.17-2.44-.07-.46-.8-1.19-1.66-1.17-2.48a17.71,17.71,0,0,0-1.62-7.36c-.14-.33.58-1,.51-1.39-.46-3,1-6.15-.86-9.15a3.46,3.46,0,0,1,.77-4c-1.51-1.12-.53-2.77-.89-4.13-.93-3.52-.34-7.3-1.91-10.71-.19-.41,0-1-.08-1.46-.18-1.73,1.33-3.18.18-5.27-.85-1.53-.17-3.9-.17-5.9v-6a59.79,59.79,0,0,0,0-6c-.17-1.73.87-3.66-.73-5.19.42-.24,1-.78,1.22-.66.75.43,1.55,1.83,1.56-.41,0-1.79.34-3.7-1.64-4.85a3.17,3.17,0,0,1,.37-1c.43-.83.57-1.53-.63-1.78-2.13-.45-.74-2.13-1-3.21,0-.13.89-.61,1.42-.77,1.42-.45,2.54-3.52,1.53-4.47s-1.87-1.51-2.81-2.26c-.83,1.5-2.63.3-3.86,1.68-2.8,3.12-7,3.77-10.87,5-.68.22-1.55-.19-2.34-.31.14-.9,0-2.28.48-2.62,2.14-1.41,2.26-4.43,5.12-5.48,2.3-.84,3.48-3.66,5.95-4.91,1.9-1,3.08-3.27,5.5-3.63.16,0,.43-.09.43-.14.12-3.26,3.69-5,3.45-8.61-.36-5.46,1.6-10.73,2-16.15a3,3,0,0,1,1-1.58c.93-.9,1.4-1.54.32-2.85-.64-.77-1.26-2.63,1.12-2.67a7.29,7.29,0,0,0,0-6,5.34,5.34,0,0,1,.11-5.06A2.63,2.63,0,0,1,66.79,91c1.23.09,1.41-.73,1.18-1.58-.46-1.67-1.24-3.24-1-5.09.13-1.09.53-1.24,1.5-1.38,1.4-.21,2.64-2.41,2.31-3.69-.24-.9-1-2-.68-2.64,1.42-3,2-6.19,3.11-9.22,1.23-3.31,3.15-6.36,4.47-9.64a23.41,23.41,0,0,1,3.34-5c.17-.23.36-.46.54-.69.16.27.42.54.44.82a22.89,22.89,0,0,0,0,2.49,1.36,1.36,0,0,0,2.32.76c1.21-1.49,3.14-2.33,3.72-4.46.27-1,.86-.54.92.3s1.42,1.61.09,2.76c-.51.44.24,2.17-.24,2.82-.94,1.25-.92,1.48.65,1.57a2.83,2.83,0,0,1,.45,2.15c-2,3.19-2.06,6.66-1.94,10.21,0,.33.14.78,0,1-1.15,1.37-2.64,3.12-1.84,4.61,1,1.88-.23,3.21-.27,4.74-.1,3.6-1.84,7-1.87,10.67-1.55,1.07-.86,2.68-1,4.09-.18,1.72.5,3.55-.94,5.14-.41.46-.17,1.63,0,2.44.24,1.43,1.74,2,3.18,1.14a19.66,19.66,0,0,0,3.11-2.13c1.26-1.08,2.24-2.55,3.6-3.44A8.48,8.48,0,0,0,94.72,97c.26-.44,1.09-.59,1.24-1a13.71,13.71,0,0,1,4.29-5.57c2.52-2.22,3.1-5.64,5.57-7.75.66-4.28,3.66-7.5,5.08-11.39.92-2.51,2.94-4.3,3.55-7.06.51-2.31,2.31-4.35,3.56-6.49a3.12,3.12,0,0,1,.9-1.12c2.87-1.74,3-5.11,4.61-7.59.91-1.39.62-2.34-.4-3.45-1.39-1.5-3.62-2.53-3.2-5.16-1.8-1.56-3-3.73-6.09-3.53-4.17.27-8.29.17-12.24,1.92-1.26.56-3,.06-4.31.47-8.72,2.62-16.9,6.81-25.85,8.79-7,4.38-14.91,6.86-21.7,11.6-2.11,1.47-5,1.85-7,3.43-2.26,1.8-5.17,1.27-7.37,2.85-.16.11-1.23-.52-1.27-.87a5.34,5.34,0,0,1,.27-2.85c2.15-4.21,3.94-8.74,7.76-11.75S50,44.69,54.09,42A103.92,103.92,0,0,1,67.58,34.8c2.72-1.24,5.29-2.59,8.34-2.84A15,15,0,0,0,79,31a25.67,25.67,0,0,0-1,3.74c.63-1.35-1.49-.85-2.26-1.32-1.17-.73-.4,1-.95,1.34s-1.28.73-.11,1.25c.56.24,1.08.58,1.65.81C77.63,37.34,78.12,36.77,78,34.74Zm56-4.05c-.06-2.6-2.42-5.43-4.55-5.67a1.66,1.66,0,0,0-1.28.38,1.33,1.33,0,0,0,0,1.27c1.33,1.45,2.73,2.83,4.15,4.19a8.1,8.1,0,0,0,1.38.88Zm-59,47.94-.42-1.5c-.47.38-1.14.67-1.36,1.16-.84,1.79-1.54,3.65-2.25,5.5a1.29,1.29,0,0,0,.2.89.82.82,0,0,0,.66-.09C73.55,83.07,75,81.39,75.05,78.63Zm45.17-50.37c-.34-.53-.54-1.18-.81-1.21A24.39,24.39,0,0,0,116,27a2.67,2.67,0,0,0-.84.33,4.94,4.94,0,0,0,.9.64,23.07,23.07,0,0,0,3,1C119.35,29,119.75,28.56,120.22,28.26ZM65.9,40.05c1-.49,2-1,3.08-1.58.14-.08.1-.64,0-.92s-.51-.43-.61-.37c-1,.63-2,1.3-3,2-.1.07,0,.45,0,.66S65.63,40,65.9,40.05Zm59.55-14c-.6,0-.83-.07-.91,0s-.42.53-.36.63c.64,1,1.31,2,2,3,.07.1.44,0,.65,0a.46.46,0,0,0,.14-.4C126.46,28.08,125.9,26.94,125.45,26Z" transform="translate(-5.99 -5.01)"/><path d="M160,204.78c0-3.41,0-6.08,0-8.74,0-1.09.29-2.19-.59-3.28a3,3,0,0,1-.31-2.76c1.57-2.46.57-5.1.94-7.63.41-2.8.85-5.61,1.52-8.36s.64-3.09-2.21-4c-.49-.17-1.17-.55-1.28-1-.55-2-.49-2-1.89-2a8.18,8.18,0,0,1-2.87-.3c-.62-.28-1.92-1-.43-2.06a3.1,3.1,0,0,0,.7-.7c.76-1,.77-2-.74-1.88-2.53.24-2.14-2-2.7-3.17a3,3,0,0,1,1.33-3.84,25.72,25.72,0,0,0,4.69-3.09c2.12-2.1,4.9-2.75,7.43-3.85,1.56-.68,2.26-1.3,2.48-3,.55-4.24,2.3-8.29,1.95-12.68,2.32-6.47,1.62-13.68,4.93-19.95.61-1.16.17-2.68.89-4.14s.49-3.14,2.63-3.37a6.66,6.66,0,0,0,0-1c-1.78.09-1.3-.36-.59-1.49s.78-2.66,1.13-4c.12-.45.18-1.26.37-1.29,3.23-.54,2.62-2.32,1.69-4.49-.36-.84-.49-2.35,0-2.9,2.45-2.71,1.42-6.4,2.92-9.33.21-.4.16-1,.39-1.33.77-1.3,1.61-2.56,2.43-3.84-1.62-.1-3.25-.3-4.87-.27-.73,0-1.44.61-2.19.68-2.21.2-4.11,1.55-6.48,1.37a9.69,9.69,0,0,0-5.51,1c-2.08,1.29-4.11.68-6.16.85-1.17.09-2.76.56-2.79-1.6,0-.13-.86-.21-1.28-.38s-1-.5-1.53-.76c.35-.41.63-1,1.08-1.2a3.21,3.21,0,0,0,2-2.45c.12-.61,1.7-.81,2.2-1.5a7.11,7.11,0,0,0,.68-2.69c.22-1.1.21-1.11,2.21-1.69.23-.06.67,0,.68-.11.34-2.7,2.88-3.19,4.57-4.51a22.46,22.46,0,0,0,2.71-1.82c.91-1,1.59-1.19,2.63-.3.15.13.94-.22,1.18-.53.47-.6.65-1.83,1.14-1.94,2.55-.56,4.39-2.32,6.57-3.49,1.94,1.36,2.93-.15,4.16-1.27a3.46,3.46,0,0,1,2.18-.66c.33,0,1,.9.9,1.22a3,3,0,0,1-1.22,1.47c-1.3.92-.06,1.31.36,1.77.67.73,1.82.77,1.85-.19C190,54.4,192,55.19,192.58,54a11.2,11.2,0,0,1,2.42-2.5c.87-.82.79,0,1.05.55a1.74,1.74,0,0,0,1.32.88c.82,0,1.73-.71,2.42-.51.51.14.7,1.29,1.1,2,.55.9.9.15,1.42-.15A39,39,0,0,0,206,52.39c1.22-.86,1.86-.18,2.42.6.92,1.28-.64,1.39-1.12,2-.13.16-.67-.08-1,0-1.13.46-2.24,1-3.36,1.49,1.29,1.05,2.26.48,3.47-.35.68-.47,2.05.14,2.87-.25.61-.3,2.53-.87.8-2.36a1.81,1.81,0,0,1,.52-1.49c1.13-.49,2.39-.65,3.55-1.08,1.88-.68,4-.65,5.6-2.22.49-.49,1.44-.49,2.16-.77s2,.62,1.7-.66c-.15-.74-1.24-2.19-2.64-.87-.79.75-1.09.33-1-.49,0-.35.46-.73.8-.94s.65,0,1,0a10.72,10.72,0,0,0,1.5,0c1.11-.17,2.86.77,2.82-1.57A1.74,1.74,0,0,1,227.4,43c2.06.61,3.65-1.09,5.59-1.1.34,0,.67-.8,1-1.22a6,6,0,0,0-1.08-.7c-.29-.11-.78.12-1,0-.72-.63-1.49,2.31-1.87.05-.28-1.61,1.35-1,2.17-1a60.37,60.37,0,0,1,7,0c1.3.1.23.71.08,1.2s0,1.57.14,1.62c1.53.38,3.67-.55,4.12,2.11a3,3,0,0,0,1.88,0c.82-.5,1.52-1.74,1.57.42,0,.22.44.62.63.6,1.4-.18,2.57-1.51,4.29-.11.58.47,2.53-.73,3.85-1.16.73-.23,1.47-.45,2.2-.7,1.27-.43,2.65-2,3.79-.49.46.62-.48,2.27-.79,3.46a2.36,2.36,0,0,1-2.34,2c-.47,0-1.3.06-1.35.25-.51,2-1.65,2.75-3.81,2.86-1.59.09-3.08,1.39-4.7,1.82-1.29.35-3.07-.41-3.13,1.89-5.51,2.39-10.91,5.11-16.58,7a33.19,33.19,0,0,1-7.13,2A25.2,25.2,0,0,0,214.28,66c-2.26,1-4.68,1.56-7,2.31A74.49,74.49,0,0,0,199.39,71c-.85.37-2.19.89-2.28,1.49-.27,1.85-.85,1.95-2.17.94-1-.77-1.72-.81-2,.72-.26,1.7-.6,3.4-1,5.08-.35,1.51-.46,3.25-1.31,4.43-1.27,1.76.06,3.72-.76,5.2-1.38,2.5-.27,5.23-1,7.58-.84,2.57-.31,5.2-1,7.59-1.19,4.21-.75,8.41-.87,12.62a4,4,0,0,0,.45,1.3,7.58,7.58,0,0,0,.52-1.22c.94-4,2.14-8,2.07-12.17a17.31,17.31,0,0,1,.94-4.08,37.09,37.09,0,0,0,1-4.59c.17-1.65,0-3.34.1-5,0-.34.86-.62,1.32-.92.21.39.69,1,.58,1.14-1.48,1.88-.91,4-.94,6.11-.07,4.17,0,8.33,0,12.5,0,2.06.26,4.09-.88,6.14-.89,1.58.7,3.83-1,5.62-.5.54-.06,1.92-.14,2.9-.22,2.88.63,5.84-.94,8.62a1.78,1.78,0,0,0,1,2.46c.5.19,1.29-.22,1.87-.5,4-2,8.67-2.3,12.52-4.83.82-.54,2.26-.19,3.41-.14.9,0,1.37-1,2.79-.23,1.58.82,3.82-.66,5.65-1.57a3.48,3.48,0,0,1,1.34-.06c0,.57.22,1.33-.06,1.67-1.18,1.41.48,1.76.94,2.06A3.82,3.82,0,0,0,222,132c2.21-.35,1.72.41,1.11,1.91s.12,2.38,1.52,2c.54-.15,1.17-1.69,1.36.16.08.69.45,2.08-.76,1.89-1.85-.3-2.08.84-2.66,2s-1.31,1.11-2.14.11c-.25-.3-1-.19-1.29-.45-1.37-1.08-1.37.7-2.09.94.88.8,1.53,1.33-.42,1.58-.79.1-1.47,1.24-2.13,2-.12.14.12.61.2.92,2.39-.92,4.78,2.6,7.17,0,.38.38,1.08.73,1.11,1.13.13,1.74-1.41,3.33-3.54,3.86a1.2,1.2,0,0,1-.5,0c-3.95-.81-7.11,1.43-10.16,3.17-1.54.87-2.42.18-3.61.25-1,.07-2.64.4-2.93,1.06-.44,1.05-.92,1.17-1.84,1.62-3.63,1.79-7.82,2.05-11.23,4.29-1.45,1-3.42,1.88-3.92,3.26-.35,1-1.75,2.61-.31,4.17.28.3-.86,1.65-.84,2.5,0,1,1.17,2.4.8,3a6.25,6.25,0,0,0-.89,3.16c-.29,7-.6,14.06-1,21.09a32.17,32.17,0,0,1-1,4.58c-.29,1.39.53,2.87-.75,4.23-.51.55-.24,1.88-.24,2.86,0,3.16,0,6.33,0,9.49,0,1,.26,2.24-.24,2.87-.86,1.06-1.22,2.32-.44,3,1.11,1,2.22.09,3.37-.74,2.91-2.11,6-4,9-5.9,2.91-1.79,5.75-3.67,8.78-5.3a65.87,65.87,0,0,0,8.33-5.2c5-3.81,10.63-6.57,15.89-9.93,2.46-1.57,5.28-.84,7.57-2.31.06,0,.61.41.68.7.12.47.23,1.3,0,1.45-3.06,1.92-3.7,6-7.19,7.68-2.25,1.08-4.16,3-6,4.7-5.1,4.66-10.51,9.06-15,14.24-3.19,3.65-7.17,6-10.79,9a133,133,0,0,1-11.64,8A18.38,18.38,0,0,1,171,244c-2.5-.25-4.36-1.2-5.39-3.8a42.94,42.94,0,0,1-2.5-8.93c-.79-5-2.42-10-2.11-15.15C159,212.23,160.54,208.05,160,204.78Zm17,15.94c0-1.87,0-3.52-.05-5.17,0-.21-.76-.46-1.19-.51-.23,0-.72.3-.73.48a25.55,25.55,0,0,0,0,4.95c.26,1.52-1.31,3.59,1.18,4.53C177.91,223.74,176.55,222,177,220.72ZM187,127c0-2,.05-3,0-4,0-.3-.42-.58-.64-.87a5,5,0,0,0-.32.86c-.21,1.3-1,3-.47,3.8,1.38,1.9-.6,3-.47,4.4.18,2-.79,3.71-1,5.57,0,.35.34.76.53,1.14a5.79,5.79,0,0,0,.69-.71,2.9,2.9,0,0,0,.72-1.18C186.39,132.72,186.74,129.38,187,127Zm3.9,27c1.33-.67,2.66-1.84,4.06-1.92,1.78-.1,2.53-1.24,3.58-2.18.15-.14.14-.45.21-.69-.29-.08-.65-.32-.87-.23-2.54,1-5.07,2.08-7.56,3.22-.24.11-.28.86-.24,1.3C190.1,153.71,190.57,153.85,190.9,154ZM208,146.39c-.39-.16-.73-.43-1-.37-2.21.66-4.41,1.34-6.58,2.12-.26.1-.49.91-.36,1.26a1.28,1.28,0,0,0,1.13.56c2-.79,4-1.67,5.9-2.58C207.44,147.21,207.65,146.75,208,146.39Zm-30-84.6c-.17-.26-.34-.76-.5-.75a6.56,6.56,0,0,0-2.25.32c-.14,2.07-1.62,1.54-2.83,1.67-.41,0-.77.48-1.16.73.5.42,1.18,1.28,1.46,1.17,1.81-.76,3.53-1.73,5.27-2.65C178.06,62.24,178,62,178,61.79ZM176,202c0,1.14-.06,2.3.05,3.43,0,.23.77.57,1.13.52s.81-.83.78-.86c-1.49-1.56-.31-3.06,0-4.61.08-.43-.47-1-.72-1.47-.41.34-1,.61-1.18,1.05A6.26,6.26,0,0,0,176,202Zm.24,12.42A15,15,0,0,0,177,213a10.83,10.83,0,0,0,.64-2.2,7.48,7.48,0,0,0,0-2.67c-.09-.39-.87-.62-1.33-.93-.15.63-1.69.64-.77,1.75a2.36,2.36,0,0,1,0,3.07C175.32,212.42,175.86,213.24,176.24,214.41ZM179,169c0,.65,0,1.31,0,2a3.89,3.89,0,0,0,.27.86c.24-.24.57-.45.7-.75a7.84,7.84,0,0,0,1-2.53c.05-.82.69-2.25-.68-2.44-2.09-.29-1,1.52-1.25,2.41A1.59,1.59,0,0,0,179,169Z" transform="translate(-5.99 -5.01)"/><path class="cls-1" d="M311.54,523.88c26.88-9,26.29-9,25.73-8.87-.81.2-2.31-.65-2.17,1,0,.57,1.25,1.42,2,1.49,3,.29,5.85,2.9,9,.52.3-.23,1,0,1.45,0a4.8,4.8,0,0,1-.54,1.4,23.44,23.44,0,0,1-2.1,2.13c-.73.67-1.63.77-1.86-.3-.42-2-1.14-1.64-2.27-.59-.51.48-1.55.69-1.71,1.21-.36,1.22.93.88,1.53,1.25a24.42,24.42,0,0,1,2.25,1.84,6.45,6.45,0,0,0,1.06.6,8.27,8.27,0,0,0-1.33.43,1.18,1.18,0,0,0-.56.7c-.91,4.27-4.66,4.62-7.81,5.14-2,.33-3.89,1.29-6,1.42-.41,0-.77.64-1.19.69a48.54,48.54,0,0,0-4.85.39c-1.33.29-2.51,1.44-3.82,1.57-4.26.43-8,2.46-12.13,3.4-5.58,1.28-11.05,3-16.54,4.69-3.41,1-6.63,2.68-10.25,3-1.24,1.67-3.09.57-4.58,1s-3.09,1.4-4.69,1.93-3.09.58-4.57,1c-4.56,1.44-9.13,2.89-13.62,4.53a39.79,39.79,0,0,1-5.36,1.6,38,38,0,0,0-8.75,2.92c-4,2-8.38,3.11-12.46,4.95-4.63,2.1-9.21,4.43-14.06,5.85-4.18,1.23-7.95,3.33-12.13,4.59-5.13,1.53-10.47,2.75-15.18,5.54-2.08-.78-2.54,1.73-4.16,2a19.41,19.41,0,0,0-3.89,1.44c-4.8,2.1-9.57,4.25-14.37,6.33a5.82,5.82,0,0,1-1.93.18c-1.78.07-2.21-.46-1.29-1.88a55.24,55.24,0,0,1,5-6.93c2.65-3,5.67-5.63,8.42-8.54s5.43-6.07,8.14-9.11c-.5-1.88,1.55-1.2,2.07-2.06a9.61,9.61,0,0,1,1.8-2.72c1.65-1.29,2.16-3.1,2.76-4.89a5.62,5.62,0,0,0,.08-1.7,4,4,0,0,0-1.34,0c-4.44,1.76-9,3.18-13.12,5.76a12.77,12.77,0,0,1-3.56,1c-.46.12-1.09,0-1.37.28-3.08,3-7.21,3.53-11,4.94-.28.11-.44.53-.72.68-6.08,3.36-12.55,5.91-18.73,9.09s-12.48,6.08-18.62,9.33c-6.85,3.62-13.33,7.93-20.34,11.25-3.48,1.64-7.12,2.92-10.64,4.47-1,.44-1.73,1.45-2.72,1.89-6.28,2.75-12,6.54-17.88,9.94-4.18,2.4-8.24,5-12.44,7.38-2.55,1.44-5.26,2.59-7.86,3.93a15.92,15.92,0,0,0-2.13,1.56c-.86-1.54.62-2.06,1.34-2.74a28.05,28.05,0,0,1,5.13-4.41c1.74-1,2.37-3.43,4.56-4.5S59,610,60.94,608.63a5.1,5.1,0,0,1,3.93-.87c1.58.19,3.67-1.35,5.06-2.63a18.19,18.19,0,0,1,5.15-3.59c.85-.36,2,.29,2.85-.86.61-.82,1.83-1.16,2.68-1.85.29-.24.23-.88.4-1.31s.54-1.47.76-1.45c2.73.17,3-1.49,3.48-3.65a5.19,5.19,0,0,1,2.55-2.93,88.52,88.52,0,0,0,14-9.69c5.65-5,12.31-8.51,19.06-11.83,6-2.94,11.67-6.49,17.54-9.61,4.32-2.29,8.12-5.83,13.25-6.61a7.06,7.06,0,0,0,2.77-1.73,9.93,9.93,0,0,1,4.64-2.12c1.61-.28,2.48-2.69,4.71-1.94.32.11.89-.25,1.24-.52A26.33,26.33,0,0,1,175.7,541a7.56,7.56,0,0,0,2-1.18c.41-.26,1-1.34,1.25-.11.7,3,3.93,1.36,5.28,3.06.25-.22.71-.44.72-.67,0-.62,0-1.47-.32-1.81s-1.26-.08-1.85-.29c-.87-.3-2.34-.72-2.38-1.19-.13-1.62,1.43-.28,2-.8,1.77-1.71,5-.27,6.27-3,2.86,1.7,4.13-1.57,6.33-2.07,2.39-.53,4.64-1.67,7-2.38,7.25-2.18,14.07-5.45,21.12-8.14a3.07,3.07,0,0,1,1.32-.37,6.42,6.42,0,0,1,1.59.67c-.33.43-.63,1.18-1,1.23-1.36.17-1.13,1.22-.93,1.84a14.51,14.51,0,0,0,1.67,3.19,1.8,1.8,0,0,0,1.21-.47c.95-1.9,3.37-.94,4.59-2.39.12-.15,1.35.51,1.94,1,.13.1-.12,1-.42,1.33-1.12,1.23-2.35,2.36-3.49,3.58a1.07,1.07,0,0,0,0,1c2.77,2.2-.18,4-.79,5.48s-2.71,2.68-4.41,3.46c-2.59,1.19-5.26,2.13-7.17,4.4-.21.25-.46.6-.73.65-5.57.89-9.13,5.29-13.69,7.94-1.87,1.08-4.18,1.27-5.72,3.34-1.23,1.66-3.62,2.41-5.34,3.77a46.22,46.22,0,0,0-4.28,4.12c-.13.13.08.76.3,1s.77.65,1,.56c2.3-.88,4.79-1.51,6.79-2.86,3.63-2.45,7.6-4.21,11.41-6.3s7.46-4.48,11.39-6.29c5.31-2.45,11.06-3.92,16-7.13,2.55.74,4-1.72,6.12-2.09s3.72-2.49,6.12-2.15c4.89-2.74,10.33-4,15.54-5.93,3.94-1.44,8.07-2.23,12-3.7,2.18-.82,4.59.8,6.7-1.38,1.44-1.48,3.95-1.57,6.13-2,2.84-.56,5.46-2.18,8.29-2.83,5.46-1.25,10.59-3.42,15.9-5.09a99.58,99.58,0,0,0,10.57-3.43c1.89-.85,4,.59,5.49-1.23,4,.31,7.75-1.93-15.65,8.57-27.69,8.71-27.81,8.23-28,8.2-1.1-.13-2.33.16-3-1.08-.17.17-.43.31-.48.5s-.14.89,0,1a28.69,28.69,0,0,0,3.35,1.49C283.49,534,283.87,533.3,311.54,523.88ZM155.6,552a3.81,3.81,0,0,0-.59,0c-.72.14-1.78-.48-2,.78s.67,1.18,1.51,1.32c.22,0,.24.87.5,1.23.14.19.6.15.92.22a7.06,7.06,0,0,1,.09-2c.25-.76,2.49-2,3.51-3.69-1.06.36-2.27-.53-2.58,1.1-.22,1.16.94,1.06,1.23,1.7.65-.56,1.29-1.14,2-1.69a5.25,5.25,0,0,1,.8-.47C160.42,550.3,159.89,550.06,155.6,552Zm21.25-10c-.19.07-1.59.22-1.73.73-.28,1-.6,1.38-1.6,1.28a6.06,6.06,0,0,0-5.08,2.11c-1.63,1.7-4.21,0-5.72,1.87-.19.23-.66.36-.69.57a6.84,6.84,0,0,0,0,2c0,.19.6.51.76.44a8.11,8.11,0,0,1,4.59-1.05c.17,0,.47-1,.72-1.56.28.14.81.25.82.41.11,1.12.16,1.09,1.33.61,1.77-.73,3.6-.88,4.14-3.21.12-.51,1.22-.95,1.94-1.13a8.94,8.94,0,0,1,2.48,0c1.27,0,1.27-.84,1.11-1.64a2.21,2.21,0,0,0-.91-1.32C178.69,541.82,178.08,542,176.85,542ZM182,575.51a9.6,9.6,0,0,1-.71-.72,2.16,2.16,0,0,0-3-.51,69.85,69.85,0,0,0-6.86,5c-.44.37-.06,1.72-.06,2.62.56-.13,1.39-.07,1.65-.43,1.7-2.29,4.22-3.27,6.64-4.42a18,18,0,0,0,1.65-.81A4.19,4.19,0,0,0,182,575.51Zm1.33-1.58c1-.56,1.94-1,2.81-1.61.3-.21.45-.66.67-1a10.36,10.36,0,0,0-1.31-.31c-1.34-.17-2,.78-2.47,1.75C182.89,573.05,183.24,573.59,183.34,573.93Zm14.31-39.13c-.65.34-1.32.65-2,1a4,4,0,0,0-.69.67c.25.17.52.49.76.47a8.24,8.24,0,0,0,2.2-.48c.41-.16.7-.65,1-1Z" transform="translate(-5.99 -5.01)"/><path d="M90.23,28.09c-.5-.2-.88-.24-1-.45a1.13,1.13,0,0,1-.16-.9c.06-.29.34-.52.51-.78,1-1.61,2.72-.61,4-1.06s1.46-3,3.48-1.39a1.06,1.06,0,0,0,1-.12c.88-.75,1.63-1.65,2.54-2.35.21-.16.9.15,1.27.39a1,1,0,0,1,.09.91,2.26,2.26,0,0,1-.93,1.08C97.4,25,93.73,26.59,90.23,28.09Z" transform="translate(-5.99 -5.01)"/><path d="M369,275.62c0,.5.2,1.16,0,1.47-.48.62-1.47,1.6-1.76,1.45-.75-.38-1.71-1.05-1-2.32A10.61,10.61,0,0,0,367,274c.3-.94-.69-2.18.68-2.86.44,1,.94,1.94,1.29,3A4.56,4.56,0,0,1,369,275.62Z" transform="translate(-5.99 -5.01)"/><path d="M331,249a2.44,2.44,0,0,1-1.75,3c-.62.21-1.47-.25-2.21-.41a6.34,6.34,0,0,1,.63-1.64,7.46,7.46,0,0,1,1.71-1.7,1.76,1.76,0,0,1,1.28,0C330.83,248.25,330.89,248.71,331,249Z" transform="translate(-5.99 -5.01)"/><path d="M369,267.48a14.2,14.2,0,0,1,0,2,.85.85,0,0,1-.69.52c-.43,0-1.2-.26-1.21-.46-.08-1.12.11-2.27-1-3.07-.06,0,.44-1.32.74-1.35a3.13,3.13,0,0,1,2.16.51C369.26,265.86,369,266.83,369,267.48Z" transform="translate(-5.99 -5.01)"/><path d="M193,87.11a10.73,10.73,0,0,1,0-1.62,52.64,52.64,0,0,1,1.41-5.32c.14-.4,1,2.68.55,4.32-.12.41-.71.68-.94,1.09-.15.24,0,.64,0,1-.09.77-.23,1.54-.34,2.31Z" transform="translate(-5.99 -5.01)"/><path d="M361.77,257.84a6.65,6.65,0,0,1-1.59,1.11c-.3.1-.89-.25-1.15-.56s-.18-1-.46-1.26a5.32,5.32,0,0,0-1.47-.73l.35-.35c.69-.62,1.25-1.73,2.4-.69a22.24,22.24,0,0,1,1.74,1.76C361.73,257.27,361.71,257.56,361.77,257.84Z" transform="translate(-5.99 -5.01)"/><path d="M365.26,283.09a8.94,8.94,0,0,1-1.86-.24c-.21-.08-.36-.5-.38-.78s.09-.75.27-.82a20.9,20.9,0,0,1,3.33-1.09c.26-.05.77.58,1,1a1,1,0,0,1-.27,1A19.58,19.58,0,0,1,365.26,283.09Z" transform="translate(-5.99 -5.01)"/><path d="M334.21,251a8.78,8.78,0,0,1-1.45,0,2.42,2.42,0,0,1-.76-.48c.95-.83,1.76-2,2.87-2.41,1.68-.58.61,1.91,1.85,2.13-.19.26-.35.71-.58.74A11.25,11.25,0,0,1,334.21,251Z" transform="translate(-5.99 -5.01)"/><path d="M79,276l-.34.82a8.32,8.32,0,0,1-2.58-1.47c-.33-.37.11-1.46.3-2.2,0-.13.63-.25.86-.15A2.6,2.6,0,0,1,79,276Z" transform="translate(-5.99 -5.01)"/><path d="M193.88,251l-.73-.31c.13-.23.21-.54.4-.68a10.69,10.69,0,0,1,2.75-1.65c.41-.12,1.12.76,1.7,1.19a7.52,7.52,0,0,1-1,.48C196,250.32,195,250.62,193.88,251Z" transform="translate(-5.99 -5.01)"/><path d="M233.82,237h.48c.73.06,1.91-.24,1.65,1-.45,2.2-1.13-.42-1.76,0-.37.24-.87.29-1.21.55-1.11.85-1.1-.63-1.72-.78a4.17,4.17,0,0,1,1.11-.73A5.38,5.38,0,0,1,233.82,237Z" transform="translate(-5.99 -5.01)"/><path d="M253.21,235a3.93,3.93,0,0,1,1,0,3.33,3.33,0,0,1,.79.45c-.21.23-.38.54-.63.67a6.4,6.4,0,0,1-2.09.8c-.39,0-.83-.6-1.25-.93a9.06,9.06,0,0,1,1.25-1C252.49,234.89,252.88,235,253.21,235Z" transform="translate(-5.99 -5.01)"/><path d="M421.83,9.21c-.11.29-.13.61-.3.73-.89.61-1.8,1.2-2.74,1.74-.16.1-.61,0-.66-.1-.13-.27-.25-.74-.1-.91a17.23,17.23,0,0,1,2.37-2.46C420.52,8.11,421.32,8.84,421.83,9.21Z" transform="translate(-5.99 -5.01)"/><path d="M200.14,248l-1-.32a8.46,8.46,0,0,1,1.31-.66c.29-.1.73.11.95,0,.74-.5,1.26-1.62,2.38-.65a.42.42,0,0,1,0,.33c-.78.46-1.55.93-2.37,1.32C201.2,248.11,200.82,248,200.14,248Z" transform="translate(-5.99 -5.01)"/><path d="M196.16,77.3c-.21.56-.42,1.12-.64,1.68-.5-.74-1.31-1.44-1.41-2.24-.07-.5.91-1.14,1.41-1.72C195.73,75.75,195.93,76.48,196.16,77.3Z" transform="translate(-5.99 -5.01)"/><path d="M81.58,29A3.13,3.13,0,0,1,82,30.15c0,.71.43,1.87-.89,1.8A6.45,6.45,0,0,1,79,31l1.28-1Z" transform="translate(-5.99 -5.01)"/><path d="M415,65.3c.08-2.08-.17-4.44.92-6.79.75-1.59-.64-3.69.74-5.35a44.09,44.09,0,0,1,.28,5.84c-.13,1.87.88,3.91-.86,5.66-.32.32.59,1.7.63,2.6a24,24,0,0,1-.5,2.41c0,.4,1.32.85.16,1.28-1,.37-1.44-.28-1.39-1.35C415.05,68.28,415,66.94,415,65.3Z" transform="translate(-5.99 -5.01)"/></svg>