<svg xmlns="http://www.w3.org/2000/svg" class="logo dark" viewBox="0 0 2052 834">
  <path fill="#000" d="M888 0c1.79 1.61 3.45 4.37 5.4 4.61 6.64.78 8.87 6.24 12.54 10.27 1.1 1.19 2.82 1.82 4.25 2.7l1.16-1.18-2.15-6.48 5.45 4.23-2.57 5.31 4.34 1.54c.51.18 1.34.14 1.53.48 3.1 5.69 8.67 10.33 6.32 18.21-1.06 3.53 0 7.63-.41 11.42-1.08 10.44-2.41 20.85-3.67 31.27-.65 5.37-1.4 10.73-2 16.1q-1.2 10.49-2.25 21c-1.34 13.58-2.68 27.15-3.93 40.74-.78 8.52-1.66 17.06-2 25.61-.57 13.76-.69 27.54-1.11 41.3a51.43 51.43 0 0 1-1.15 6.76c2.19 0 4 .33 5.68-.07 4-.94 7.53-3.49 12.22-2.07 1.39.42 3.83-2.6 5.48-3.82 4.3.15 8.16 5 12.6-.7 1.17-1.49 6-.19 9.13-.06 6.81.27 13.61.62 20.41.92.83 0 1.79-.27 2.47 0 1.78.83 3.43 1.92 5.12 2.9-1.42 1.62-2.55 3.87-4.34 4.69-2.43 1.11-5.36 1.13-7.93 1.59l-2.64 14.8c2.86-.38 5.22-.85 7.6-1s3.18.46 2.81 3.5c-.44 3.53.52 7.41 1.6 10.9.85 2.73 1.37 4.37-1.81 5.88-6 2.86-11.76 6.4-17.82 9.19-2 .91-4.63.38-7 .49-6.43.28-12.9.17-19.27.94-7.61.91-15.13 2.6-22.69 3.91-3.94.69-5.69 2.43-5.64 6.95.07 6-1.29 12.05-1.79 18.1s-.9 12.25-1 18.39c-.15 11.16.1 22.33-.12 33.49-.09 4.74-1.1 9.45-1.41 14.19-.16 2.38.52 4.8.44 7.2-.22 7.1-.93 14.21-.88 21.31.07 11.27.32 22.56 1 33.81.48 7.67 1.87 15.28 2.82 22.92a29.13 29.13 0 0 1 .07 3.5c0 8.53-.33 17.08.12 25.6.33 6.33 1.67 12.61 2.56 18.92.07.49.26 1 .29 1.45.69 9.54 1.25 19.09 2.06 28.62 1.21 14.25 3 28.47 3.76 42.75.54 10.31-.19 20.68-.35 31l-2 .69c-3.42-4-7.58-7.54-10.09-12a224.94 224.94 0 0 1-13-26.81 415.5 415.5 0 0 1-12.17-35.14c-4.8-16.07-9.79-32.15-11-49-.68-9.21-1-18.45-2.06-27.61-1.23-10.88-3.23-21.67-4.5-32.55-.67-5.63-.48-11.36-.7-17a21 21 0 0 0-.32-2.83c-.79-4.46-2.17-8.9-2.31-13.38-.57-18.59-.84-37.2-1.07-55.8-.15-11.88 0-23.75 0-35.63 0-6.24-1.12-6.94-7-5.18-18.59 5.52-37.23 10.92-55.82 16.48-9.77 2.91-19.47 6.06-29.21 9.09a1613 1613 0 0 1-13 4c-5.72 1.7-6.74 7.05-9 11.45-1.49 2.86-3.2 5.61-4.81 8.41a49 49 0 0 0-3.11 5.55c-3.64 9.07-7.18 18.18-10.7 27.29-3.94 10.17-7.57 20.47-11.8 30.52-4.48 10.65-9.48 21.08-14.29 31.59-3.71 8.12-6.94 16.51-11.37 24.22-3.79 6.62-8.81 12.58-13.66 18.53-1.26 1.55-3.91 2-5.93 2.91-1.25-3-6.69-2.14-6.28-6.93.31-3.67 0-7.38 0-11.08 0-1.15.18-3.15-.27-3.33-4.64-1.77-2.23-5.37-2.51-7.31l5.56-1.56-3.26-6.17c3.85-3.53 10.35-7.38 5.43-14.51 1.27-1.24 3.41-2.37 3.92-4 2.13-6.83 3.84-13.79 5.56-20.75.5-2 .53-4.16 1.45-6 .56-1.73 1.23-3.44 1.66-5.21.17-.72-.41-1.61-.24-2.32a610.26 610.26 0 0 1 4.79-18.35c.91-3.23 2.19-6.35 3.31-9.52l-1.31-1.27-5.44 3.85c.76-2.47 1.74-5.14 2.37-7.9s1-5.77 1.42-8.79c-6.12-2-11 .44-16.07 2.21-17.54 6.12-35.15 12-52.7 18-8.13 2.81-16.17 5.86-25.7 9.32v-9c0-.66.3-1.52 0-2-5.92-8.51.71-14 5.53-18.76 4.14-4.11 10.11-6.37 15.3-9.4 10.17-5.93 20.29-11.93 30.56-17.68 2.8-1.57 6.17-2.12 9.09-3.52a2783.54 2783.54 0 0 0 39.57-19.4c4.79-2.4 9.77-4.75 13.86-8.1s7.51-8 11.08-12.25a54.77 54.77 0 0 0 3.65-5.31l3.23 2.57 1.55-.72c-.53-2.86-1.78-5.82-1.44-8.57a59.69 59.69 0 0 1 3.47-13.66c1.07-2.81 4.64-4.71 2.75-8.51a1.21 1.21 0 0 1 0-1c2.12-3.93 4.25-7.85 6.47-11.72.53-.93 2-1.58 2.08-2.48 1.62-12.33 9-22.55 12.48-34.18 1.17-3.84 3.27-7.39 5-11.08 2.79-6.15 5.5-12.33 8.38-18.44 2.79-5.94 4.86-12.55 9-17.42 2.75-3.26 4.76-6.06 4.8-10.54 5.25.83 6.18-2.22 5.85-6.35l5.26 1.72c-.58-2.63-1-4.44-1.38-6.3l4.63-.28-1-.89c1.46-2.48 3.09-4.88 4.35-7.45a49.78 49.78 0 0 0 4.48-12.44c1.23-1 3.15-1.76 3.58-3 2.6-7.63 8.79-13.74 10.44-22.66 2.53-.15 3.72-2.37 3.75-6a14.82 14.82 0 0 1 1.91-6.31c2.63-5.1 5.21-10.13 11.26-12.47 1.41-.55 1.61-4.2 2.23-6 2.54-2.84 4.82-5.67 7.4-8.2 3-3 4.76-8 7.57-9.69 4.65-2.74 7.55-7 11.67-10.05 4.63-3.43 8.19-8.31 12.19-12.58 3.07-3.27 6.51-3.37 10.34-.9 3.38 2.19 6.9 4.46 10.7 5.62 4.56 1.39 5.88-.51 5.09-5.19a11.12 11.12 0 0 1 .78-6.08c3-6.76 3-7.84-3.93-10.45C885.05 2.29 885 1.75 886 0zM784.24 268.62c3.36-2 6.06-3.75 8.94-5.18 4.51-2.24 4.09 3.89 7 4.7 1.25-4.62 1.27-4.54 6.05-6a90.49 90.49 0 0 0 10.68-3.84c3.48-1.59 6.57-4.08 10.1-5.47a115.86 115.86 0 0 1 13.84-4.12c2.86-.73 5.92-1.72 8.72-1.33 3.63.49 5.32-.61 6-3.93a50 50 0 0 0 1.13-6.37c1.92-27.85 3.77-55.71 5.71-83.56.07-1.1.81-2.16 1.49-3.88l4.62 9.84a8.36 8.36 0 0 0-2.06 1.81 9.23 9.23 0 0 0-1.37 3.8c0 .52 1.58 1.77 2 1.6 1.45-.55 3.64-1.43 3.86-2.51 1.08-5.5 1.79-11.09 2.32-16.68.78-8.25 1.21-16.53 2-24.79.8-8.87 1.93-17.72 2.56-26.6.1-1.46-1.41-3.23-2.58-4.48-.43-.45-2.77-.09-3 .42a16 16 0 0 0-.78 4.91 9.8 9.8 0 0 0 .47 2.46 6.91 6.91 0 0 1-2.56-3c-1.94-3.67-4.48-3.84-6.59-.3-5 8.4-9.88 16.88-14.88 25.28-3.46 5.84-7.13 11.56-10.56 17.42-5.68 9.72-11.25 19.51-16.86 29.28a55.91 55.91 0 0 0-1.86 3.51c-2.63 5.54-5.11 11.15-7.88 16.62-5.77 11.41-12 22.59-17.46 34.15-6.57 14-12.5 28.25-18.71 42.4-1.23 2.79-1.65 5.31 2.17 7.06 1.61-4.95 4.51-5.71 7.49-3.22zM0 132c2.57-5 5.2-10 7.71-15.08 5.19-10.44 14.15-17.25 23.49-23.35C43.65 85.45 56.53 78 69.34 70.44A68.64 68.64 0 0 1 93.55 62c1.8-.29 3.41-1.76 5.14-2.7.41 7.36 3.34 9.41 12.19 8.46-.23-3.6.09-5.6 5.18-5s10.6-1.2 16.29-2l-1.25-5.82c3.23 4.71 6.7 3.15 10.86 1.35a49.22 49.22 0 0 1 14.46-4c5.19-.51 7.83-2.42 7.77-8.79 3.44.54 6.56 1 9.69 1.49.81.12 2.15.3 2.4-.09 2.86-4.38 7.44-2.18 11.84-3.14l-1.26-6.36c6.77 4.91 15.41-.12 22.31 5.16 1.08.83 3.34.82 4.81.37 6.44-2 7.51-1.49 8.33 5 9.85-3.47 13.86 4 18.69 10a71.43 71.43 0 0 0 7 8.1c8.07 7.43 5.4 17.51 6.86 26.56a7.71 7.71 0 0 1-.79 3.76c-5.2 13.15-10.37 26.22-18.07 38.31-3.74 5.87-7.31 11.82-11.66 17.25-3.83 4.78-7.86 9.4-12 13.93-2 2.19-4.38 4-6.55 6a24.62 24.62 0 0 0-3.79 3.85c-2.77 4.09-5.12 8.46-8 12.43-1.47 2-4 3.21-5.73 5-4.22 4.47-8.21 9.16-12.43 13.64-2.7 2.86-5.68 5.45-8.45 8.25-1.41 1.42-2.63 3-3.93 4.55l.8 1.44a39.3 39.3 0 0 1 6.3-1c2.9 0 5.69-3.54 8.77-.25.21.23 1.91-.85 2.86-1.41 6.15-3.57 12.85-2.45 19.39-2.13 1.31.07 2.54 1.68 3.81 2.58l-.37 1.36c-5.06-.45-10.11-1.11-15.18-1.24-1.59 0-3.22 1.35-4.83 2.08 1 1.15 1.81 3 3.05 3.34 4.94 1.44 10 2.92 15.06 3.36 2.51.22 5.22-1.81 8.93-3.25 12.91 4.39 21.43 14.33 26 28.55a88 88 0 0 1 3.07 38.94c-.49 3.66.17 7.47-.2 11.16-1.16 11.58-1.66 23.33-4.12 34.65s-6.45 22.58-10.75 33.47c-4.74 12-10.57 23.51-16 35.21-3.41 7.37-6.69 14.82-10.48 22a148.1 148.1 0 0 1-9.14 14.36c-7.55 11-15.06 22-22.93 32.77-2.8 3.83-6.71 6.83-9.84 10.44-1.33 1.54-1.54 4.13-3 5.48-5.33 5-11.12 9.55-16.39 14.63-2.95 2.84-5.09 6.51-7.83 9.61-6.35 7.29-12.52 14.7-19.44 21.29-3.42 3.29-8.59 4.67-12.37 7.67C81.8 556.05 63.32 566.73 44.5 577c-5.15 2.81-8.93 8-13.78 11.5-3.93 2.82-8.5 4.76-12.87 6.94-.82.41-2 .06-3.88.06a73 73 0 0 1 17.32-19.27c3.32-2.59 6.79-5.49 8.9-9 9.65-16.13 23.18-28.8 36.16-42 10.45-10.63 20-22.18 30.83-32.4 7.71-7.28 15.31-14.45 21.15-23.36.89-1.35 2.75-2.07 3.24-3.49 1.49-2.89 2.93-5.82 4.48-8.68 8.64-15.95 17.54-31.77 25.87-47.88Q170.38 393 177.49 376a495.1 495.1 0 0 0 12.25-33.5 47.41 47.41 0 0 0 1.87-12.6c.4-8 .46-16 .53-24.06.07-7.83.22-15.67-.13-23.49-.35-8-2.16-15.69-8.52-21.26a6.54 6.54 0 0 0-5.39-1.09c-21.79 7.21-43.59 14.4-65.2 22.14-8.9 3.14-12.9 10.4-14.07 19.8-1.59 13.14-4 26.17-5.81 39.29-1.27 9.26-2.07 18.59-3.13 27.88-.15 1.28-.79 2.5-.92 3.77-.32 3.27-4.28 6.31.39 10.07 1.43 1.16-.22 6.15-.47 9.39-.32 4.1-.52 8.22-1 12.3-.37 3-1.18 5.95-1.73 8.94-.18 1-.54 2.2-.13 2.93 2.3 4-.76 6.71-2.12 9.91-.74 1.73-.54 3.84-.8 5.78-.11.84-.29 1.68-.45 2.52-1.58 8.31-3.75 16.57-4.57 25-1 10-.13 20.27-1.37 30.26-1 8.34-3.82 16.49-6.17 24.63-.43 1.52-2.47 2.58-4.44 4.51-2.75-8.5-6.73-16.44-7.44-24.67-.38-4.48.5-9.77.33-14.63-.49-14.29-1.37-28.55-4.64-42.57-1-4.12-1-8.48-1.18-12.74a5 5 0 0 1 1.13-3.64c2.53-2.2 2.42-3.59-.26-5.7-1.24-1-1.88-3.42-1.86-5.19.18-13.6.69-27.2.84-40.81 0-3.39-.85-6.8-1.36-10.49l3.2 3.32c.74-1.51 2.16-3.07 2.07-4.53-.2-3.34-1.17-6.63-1.78-9.94a3.34 3.34 0 0 1 0-2c2.48-4.29.11-5.57-3.84-6v-5.23c2.17-1.33 5.62-2.95 5.47-3.43-1.08-3.42 4.34-7.81-1.62-10.52-1.65-.75-2.72-4.2-4-4.15-2.59.11-5.15 1.66-7.68 2.74-1 .44-1.87 1.33-2.9 1.82-6.76 3.18-13.5 6.37-20.33 9.39a10.08 10.08 0 0 1-4.81.68c-1.46-.15-2.85-1-4.27-1.58a36.3 36.3 0 0 1 2.41-4 47.61 47.61 0 0 1 3.57-3.82c6.54-6.73 12.84-13.69 21.11-18.5 4.47-2.59 9.28-5.41 12.37-9.36 3.68-4.71 7-10.46 8.15-16.23 2.54-12.66 3.48-25.63 5.45-38.41.32-2.1 2.19-4.33 4-5.77 3.09-2.53 1.84-4.17-.33-6.24a40 40 0 0 1-3.59-4.48l1.1-.71 4.1 1.66c2-5.86 2.62-11.15.08-16.62a9.91 9.91 0 0 1 1.34-10.89c.74-.92 2.26-1.19 3.39-1.82s3-1.23 3.18-2.1c.36-1.9.61-5-.44-5.77-3.73-2.7-2.52-5.42-1.24-8.45 6 .15 9.7-6.05 7.09-11.56-.47-1-1-2.37-.62-3.25 6.6-17.11 11.8-34.81 21.29-50.69 1.11-1.87 3-3.29 5.36-5.85-.28 2.2-.79 3.55-.52 4.72.41 1.77 1 3.85 2.18 5 1.74 1.68 3.48 1.32 5.18-1 2.45-3.42 5.6-6.36 9.56-10.73-.61 5-.91 9.08-1.65 13-.4 2.07-2.09 4 1.46 5 .53.15.85 2.75.5 4-.82 2.94-2.15 5.74-3.17 8.63a4.65 4.65 0 0 0-.4 2.85c2.49 6.22-1 11.45-2.56 17A39.43 39.43 0 0 0 118 162c-.26 2.83.39 5.8-.16 8.55-1.89 9.44-5.18 18.71-6 28.21-.81 9.93-5.39 19.83-1.64 30.09 7.81 1.42 11.1-5.12 15.94-8.54 3.48-2.47 6.41-5.72 10.13-7.82l8.43-13c3.23-3.45 7.22-6.62 9.77-10.69 3.47-5.55 8.75-10.21 8.89-17.73 0-2.28 3.28-4.36 4.59-6.78 8.73-16.22 17.25-32.54 26-48.73 2.49-4.6 5.88-8.73 8.36-13.34 3.35-6.23 2.36-9.73-2.35-15a34.25 34.25 0 0 1-5.73-9.08 10.18 10.18 0 0 0-7.21-6.46c-10.95-3.2-21.29-.14-31.75 2.22-6.35 1.43-12.86 2.35-19 4.4-14.17 4.78-28.4 9.6-42.27 15.24q-23.56 9.58-46.47 20.74c-11.16 5.43-21.62 12.28-32.63 18.05-4.51 2.35-9.38 4.93-14.9 2.67zM2052 283c-1.35 3.13-2.94 6.19-4 9.42-.54 1.69.16 3.74-.15 5.55-1.19 7-2.74 13.86-3.81 20.84-.7 4.56-.28 9.33-1.27 13.8-1.68 7.66-1.17 15.5-3.6 23.21-2.69 8.52-5.09 17.54-3.34 26.84a4.11 4.11 0 0 1-.29 2.91c-3.69 4.75-3.16 10.34-3.8 15.82a94.31 94.31 0 0 1-3.77 16.06 264.25 264.25 0 0 1-7.3 21.69c-2.28 5.73-5.4 11.11-8.1 16.67-4.27 8.78-8.49 17.58-12.78 26.35a26.78 26.78 0 0 1-3 5.06c-5.74 7.15-7.29 16.17-10.75 24.31-3.34 7.87-9.1 13.76-14 20.43-4.06 5.58-7.31 11.76-11.27 17.43-2.84 4.07-6.25 7.76-9.43 11.59-2.65 3.19-6 5.48-7.12 10.27-.86 3.48-5 6.51-8.28 9-13.26 10.11-26.78 20-42.76 25.43-10 3.41-19.06-.57-27.43-5.63-9.23-5.57-14-15-19.07-24a83.23 83.23 0 0 1-10.85-38.86c-.44-13.27-2.76-26.47-3.65-39.75-.6-9-.15-18-.15-27 0-15-.35-30.06.09-45.07.48-16.74 1.83-33.41 5.56-49.86 2.91-12.86 4.62-26 7.44-38.87 2.22-10.13 5.31-20.08 8-30.11.29-1.08 1-2.22.83-3.25-1.67-13.18 5.23-24.32 8.72-36.24.45-1.56 2.75-2.59 4.8-3.23l1.73-7.17c7.51 3.43.31 7.7.81 12.71l8.6-3c-1.62 5.06-3 9.47-4.55 14.2 2.09.34 3.7 1.65 5.41-2 1.94-4.1 3.75-7.86 4.64-12.49.7-3.68 4.47-7 7.47-9.9 1.93-1.85 4.94-2.58 7.47-3.8l-1.18-2.06a14.49 14.49 0 0 0-.56 3.74 26.4 26.4 0 0 0 1.58 7.16c.17.42 3.32.14 4.7-.58 2.54-1.35 2.67-3.48 1.81-6.36-.57-1.93.48-4.5 1.24-6.63 1-2.77-1.22-6.43-5.49-6.12 1.18-2.46 2.07-4.35 3-6.22.21-.43.84-1 .73-1.22-3.09-6.15 1.17-14.54-6.13-19.6-1.28-.89-1.64-4.26-1.24-6.24 2.83-14.17 8.92-27.12 15.41-39.91 5.49-10.81 12.71-20.39 20.74-29.38a12.94 12.94 0 0 1 6.76-3.71c-.9 1.43-1.58 3.84-2.74 4.1-3.44.78-3.06 2.76-2.54 5.12 5 .88 13.3-3.33 16-7.48 1.29-2 3.25-4 6.34-2.2.84.48 2.18.07 3.85.07-3.29-5.7 1.65-7 4.41-8.8a16.53 16.53 0 0 1 8.72-2.57c2.47 0 4.92 1.87 7.39 2.92l-.16 1.65c-4.47.29-9 .16-13.37 1-2 .39-3.62 2.71-5.42 4.16 1.49.93 2.92 2.56 4.47 2.67a127.16 127.16 0 0 0 14.63.13c1.23-.05 2.49-1 3.59-1.75 3.81-2.57 8.48-.58 9.43 4 .15.76.45 1.93 1 2.1 4.86 1.66 9.74 3.34 14.73 4.53 1 .25 2.56-1.52 3.85-2.36l-.72-1.38-4.79-.44-1.25-11.09c1.36 1.3 3.36 2.39 4.07 4 1 2.46 2.61 3.5 4.75 5.05a44.34 44.34 0 0 1 11.86 12.74c4 6.63 6.66 14 9.73 21.2 5.75 13.62 10.37 27.4 10.75 42.4.12 4.19.63 8.28.51 12.55-.18 6.37 1.48 13.05 1.34 19.68 0 2.6-.92 5.22-.77 7.79.11 2 1.23 4 1.9 6v2c-3 4.2-2.71 9.19-2.9 13.92-.07 1.65 1.87 3.38 2.9 5.08zm-35.94-44.28l-3.64-1.62c1.11-3.32 3.92-8.53 2.94-9.37-3.33-2.89-.49-5.79-1.35-8.42-.92-2.83-1.55-5.76-2.67-8.5s-2.88-5.09-4-7.78c-1.93-4.77-3.37-9.75-5.34-14.51-5.35-12.88-14-21-29-21-7.17 0-14 1.93-17.93 7.13-9.48 12.46-19.51 24.91-23.27 40.64-1.88 7.87-3.64 15.95-3.92 24-.43 12.18 1.08 24.42.64 36.59-.38 10.66-2.31 21.26-3.55 31.89l-1.52.31-14.78-35.7c-8.31 16.78-14 32.75-15.38 50.71l4.15-1.19c-.47 5-.84 9.68-1.34 14.32-.46 4.27-.54 8.67-1.75 12.73-1.3 4.36-3 9-5.87 12.35-2.26 2.58-1.88 3.55-.51 4.57l-1.79 9c-1.62.89-5.36 1.48-3.17 5.68h2.07l-2.7 37.71 2.76 1.38c-1.26 2.55-2.93 4.6-3.21 6.83-.45 3.66-.06 7.43.1 11.14.12 2.75.5 5.48.64 8.23.12 2.58.08 5.16.09 7.74 0 .89 0 1.77-.12 2.65-.24 2.88-.54 5.75-.74 8.62-.16 2.29-.23 4.58-.28 6.86s0 4.55 0 7.8l-3.25 2.43 4.55 4.31c-5.51-.75-4.14 2.47-4 4.8.23 3.58.64 7.15 1 11.29l3 1.76-1.55.61 2.27 10c-2.34 4-2.33 4.08 1.91 7.57-.58 3-1.79 6-1.49 8.74.41 3.8 2.42 7.43 2.9 11.24.41 3.29-.61 7.59 3.64 8.09 3 .35 6.38-1.71 9.53-2.85.68-.25 1.13-1.19 1.66-1.83 4.84-5.91 9.69-11.81 14.49-17.75 5.52-6.84 11-13.75 16.53-20.56 1.89-2.31 4.69-4.05 6-6.6 5.91-11.13 11.36-22.51 17.12-33.72 4.62-9 10.46-17.5 14-26.88 12.77-33.7 26.17-67.26 30.48-103.5 1.72-14.51 3.8-29 5.88-43.46.51-3.55 2.06-7 2.37-10.53.64-7.38.46-14.84 1.21-22.2.54-5.32 2-10.53 3.19-16.14l-1.78-1.56z"></path>
  <path class="bolt" fill="#ed5f2a" d="M1143 834a53.33 53.33 0 0 1 16-15.86c8.17-5.48 15.1-12.77 23-18.78 2.73-2.09 6.52-3.13 10-3.8 3.16-.6 4.89-1.67 7.25-4.24 3.26-3.53 9-4.88 13.73-6.93 4-1.73 7.93-3.39 9.65-8a6 6 0 0 1 3-2.91c4.41-1.94 4.88-3.8 1.5-7.16 8.65-5.64 17.45-11.05 25.9-17 8-5.56 15.44-11.78 23.32-17.44a146.31 146.31 0 0 1 15-9.51c23.51-12.88 46.84-26.14 70.81-38.11 10.09-5 19.77-11 30.39-15 9.76-3.68 19.52-7.32 29.2-11.2 4.95-2 9.68-4.52 14.56-6.7 3.66-1.62 7.64-4.74 11-4.24 6.68 1 9.82-4.78 15.19-6s10.49-3.73 15.71-5.68c13.45-5.06 26.88-10.17 40.37-15.13 2.09-.76 4.42-.86 7.37-1.41-.62 4.38-8.29 4.46-4.05 10.63l19.66-.91.51 1.11c-2.48 2.67-4.89 5.41-7.47 8-1.65 1.63-3.4 2.94-.17 4.71.38.21.43 1.33.36 2-.76 7.08-5.19 11.35-11 14.76-15.67 9.18-31.45 18.19-46.78 27.9-10 6.32-19.28 13.69-28.76 20.76-1.33 1-2 2.93-2.9 4.43l.91 1.23c2.19-.34 4.57-.23 6.52-1.11 6.43-2.9 12.73-6.1 19-9.29 18.18-9.22 36.07-19.09 54.58-27.59s37.52-16.27 56.69-23.29c16.08-5.89 32.59-10.74 49.15-15.15 14.52-3.87 28.74-8.55 43-13.15 18.69-6 37.24-12.58 56.14-17.83 10.32-2.87 21.26-3.52 31.92-5.16l.3 1.68a48.81 48.81 0 0 0-6.52 1.13c-1.21.36-2.19 1.51-3.27 2.31.78.83 1.41 2.1 2.35 2.4 6.73 2.18 13.28 6.26 20.75 2.18.85-.47 2.33.22 3.51.37l.51 1.43c-2.6 1.83-5.22 3.63-7.77 5.51-1.5 1.11-2.9 2.35-4.35 3.53l3.87 3.31c-1.9 2.66-3.42 6.6-6.28 8.4-4.59 2.89-10 4.63-15.2 6.38-14.54 4.88-30 6-44.49 11.67-15.63 6.1-32.31 9.48-48.46 14.28-27.12 8.08-54.07 16.71-81.3 24.41-23.54 6.66-45.79 16.7-68.67 25.07q-36.69 13.41-73 27.76c-13.12 5.19-25.84 11.42-38.83 17a50.26 50.26 0 0 1-12.33 3.15 52.23 52.23 0 0 1 13.47-22.15c7.18-7 14.35-14 21.24-21.28 6.31-6.66 12.18-13.72 18.37-20.5 3.52-3.86 6.3-10.34 5.86-14.92-1-.07-2.29-.54-3.2-.16-15.06 6.39-30.21 12.6-45.08 19.42a2739.7 2739.7 0 0 0-69.58 32.82c-14.29 7-27.95 15.35-42.09 22.69-12.93 6.71-26.23 12.73-39.2 19.36a1391.8 1391.8 0 0 0-40.41 21.49c-16.38 9.14-32.54 18.65-48.76 28.08-3.31 1.92-6.42 4.18-9.63 6.29z"></path>
  <path fill="#000" d="M1481.23 226.37c2.64-.39 5-.35 7.06-1.1 10.22-3.74 20.26-8 30.58-11.4 4.44-1.46 9.46-1.05 14.15-1.85 4.15-.71 8.2-2 12.31-2.89a34.29 34.29 0 0 1 4.5-.39l-2.77 5.75c1.63.54 3.24 1.16 4.9 1.59 2.2.57 4.45 1 7 1.53a8.36 8.36 0 0 1-.72 2.15c-2.39 3.49-1.51 5.87 2.63 7.27a6.63 6.63 0 0 1 3.87 3l-5.08-1.27c-1.66 6.62-3.25 7.33-9.19 5.14-1.41-.52-3.26.14-4.91.26l.32 4.21c-2 2.77-8.1 3.19-8 9 3.51.6 6.74 1.37 10 1.65a27.19 27.19 0 0 0 8.72-.78c3.82 2 2.69 4.62-.92 5.6-4.35 1.19-8 4.39-13.31 3.37-2.73-.52-6.06 1.83-9.06 3.05-3.58 1.46-7.07 3.17-10.67 4.6a5 5 0 0 1-3.09 0c-3.14-1-3.11-1-4.1 2.81-2.68-.61-6.09-2.4-5.84 1.61-3.67 2-6.56 3.92-9.73 5.1-4 1.51-8.35 2.31-12.48 3.6a17.79 17.79 0 0 0-3.5 2.09c-1.05.63-2.05 1.62-3.18 1.79-6.85 1-12.87 9.57-11.28 16.21.11.47.48.94.44 1.38-.49 5.23-1.16 10.45-1.53 15.68-.31 4.33-.23 8.69-.42 13-.28 6.61-.65 13.21-1 19.81-.49 9.32-.48 18.59-3.58 27.71-1.69 5-.92 10.82-1.46 16.25-.27 2.73-1.28 5.4-1.41 8.12-.15 3.29.59 6.61.39 9.89-.37 5.88-1.21 11.73-1.7 17.61-.09 1.13.35 3.27.8 3.34 2.1.33 4.73.86 6.36-.08 5.51-3.18 10.61-7.08 16-10.47 27.19-17.11 54.26-34.4 81.74-51 5.78-3.49 13.08-4.45 19.69-6.58l1.28 1.32c-1.66 2.11-3.24 4.29-5 6.31a118.54 118.54 0 0 1-8.37 9.11c-5.17 4.84-10.56 9.44-15.92 14.07-6.59 5.7-13.53 11-19.81 17.07-7.46 7.17-13.89 15.46-21.67 22.23-7.34 6.39-15.9 11.36-23.81 17.11-3.65 2.66-7 5.74-10.57 8.52-2.31 1.8-4.74 3.47-7.18 5.1-3.66 2.45-7.16 5.32-11.14 7.05a36.33 36.33 0 0 1-12.63 3.1 48.92 48.92 0 0 1-15-1.69 11.05 11.05 0 0 1-6.49-5.83c-5.28-14-8-28.57-9.37-43.44-.41-4.55-1.8-9-2.21-13.55-.55-6-.52-12-.84-18-.21-3.93-.72-7.85-.87-11.78-.4-11.17-1.12-22.35-.86-33.51.18-7.63 1.8-15.22 2.76-22.83a6.36 6.36 0 0 0 .06-2c-.51-2.34-.46-6-1.84-6.65-1.67-.85-4.59.8-7.62 1.52-3.75-3.48-6.08-2.81-8.84 2.79a9.67 9.67 0 0 1-5.08 4.67 70.19 70.19 0 0 1-13.47 2.42c-4.93.48-7.58 2.61-8.3 7.34-.91 5.9-3.21 11.93-2.57 17.64.76 6.79-3.77 13.36-.2 20 .23.43-.29 1.36-.63 2s-1.57 1.58-1.41 1.9c2.59 5.35-3.3 9.79-2 14.35 2.08 7.09-3.11 12.75-2.47 19.34.07.75-.79 1.59-.69 2.32 1.09 7.81-1.23 15.3-2 22.94-.69 6.93-.51 13.95-1.12 20.89-.77 8.82-2.08 17.59-2.88 26.4-.37 4 .15 8.07-.14 12.08-.2 2.57-1.19 5.08-1.74 7.64a3.7 3.7 0 0 0 0 2.44c4 6.14 2.75 12.38.47 18.62-1.24 3.4-1 4.22 2.45 6.73-3.71 6.16-2.53 12.46-.79 19.45-2.54 2.91-5.85 6.43-1.78 9.58 0 4.27.06 7.43 0 10.58-.05 1.73-.5 3.44-.57 5.17-.13 3-.12 6-.11 9 0 .26.38.52.59.79-4.91 3.66.16 8.23-1.1 12.57-1.62 5.59-.87 11.84-1.39 17.78a208.9 208.9 0 0 1-2 16.58c-1.78 9.94-4.22 19.77-5.72 29.75a18.6 18.6 0 0 1-7.49 12.78c-9.77-10.39-12.89-24-17.34-36.82-3.6-10.4-6.2-21.15-9.33-32.08l5.41-1.31c-1.65-2.22-3.12-3.73-4-5.53a15.27 15.27 0 0 1-2-6.18c-.26-8.36 0-16.74-.21-25.1-.14-6.61-1-13.22-.83-19.8.27-9.36 1-18.72 2.07-28 .34-3 2.45-5.69 3.92-8.9-9.22-1.9-3.45-9.05-5.32-13.68l1.28-.41 1.23 4.92c3.68-.32 3.52-.33 3.76-4.84.21-3.91-.34-6.79-5.59-5.82.87-2.46 5.24-4.88-.13-6.77-.39-.13-.37-1.86-.3-2.83q1.92-25.87 3.93-51.73c.67-8.7.94-17.47 2.16-26.1 1.2-8.44 3.46-16.73 5.06-25.12.4-2.1.06-4.35.06-6.53l5.6 1.52c-.33-3.69-.32-6.8-1-9.77-.59-2.75-1.86-5.36-3.21-9.06 1.76 1.09 2.72 2.18 3.49 2.05 1.32-.2 2.52-1.16 3.78-1.8-1.64-3.1-2.84-6.59-5.06-9.19-1.85-2.16-4.44-2.09-7.46-.17a133.77 133.77 0 0 1-18.12 9.36c-4.15 1.81-8.83 2.37-13.07 4-5.87 2.27-11.51 5.12-17.31 7.54-5.5 2.3-11 4.51-16.66 6.51-4.24 1.5-6.08 4.14-6.55 8.72-1.11 10.74-2.94 21.41-4.22 32.15-.55 4.61-.34 9.31-.69 14-.57 7.39-1.15 14.8-2 22.16-1.89 15.91-4.1 31.79-5.91 47.71-1 8.51-1.17 17.1-2.14 25.61-.5 4.37-2 8.63-2.9 13-2.2 10.66-3.37 21.52-7.38 31.79-2.3 5.91-4.07 7-9.78 4.28-5-2.42-6-2-7.47 3.45-6.4-.29-6.4-.29-7.83 3.11-3.07-2.28-5.88-4.79-9.07-6.66-8.94-5.24-10.84-14.26-12.14-23.21a109.21 109.21 0 0 1-1-23.27c.89-12.56 2.79-25 4.34-37.56.74-6 1.7-12 2.48-18 1.17-8.93 2.57-17.85 3.33-26.82a1024.5 1024.5 0 0 0 2.57-40c.16-3.25-1.64-5.45-5.52-3.6-4.26 2-8.51 4.06-12.86 5.87-3.44 1.44-7.26 2.11-10.52 3.86-7.44 4-14.47 8.8-22 12.67-5.91 3.05-12.27 5.23-18.44 7.76a10.52 10.52 0 0 1-5.85.84l7.13-6.75v-2.9l-17.14 1.22c-1.56-3.52-2.33-6.37-4-8.63-2.31-3.24-1.1-5.95.7-8.43 6.4-8.84 14.82-15.47 23.15-22.46 7.77-6.52 17.28-9.57 25-15.76 4-3.16 7.9-6.52 12.37-8.78 8.66-4.38 17.47-8.73 26.64-11.79 7-2.36 9.85-6.14 10.28-14.16.44-8.22.55-16.28 2.73-24.44 1.41-5.3-.68-11.46-.55-17.21.51-22 0-44.2 2.4-66 1.52-14 .29-27.81 1.71-41.59.73-7-.51-13.63-.85-20.43-.55-11.15 1.32-22.4 1.49-33.61a240.89 240.89 0 0 0-1.3-26.71c-.51-5.27-2.44-10.4-3.13-15.67-.19-1.41 1.85-3.11 3.16-5.13l5.74 6.77 1.77-10.65c2.89 4.06 5 8.49 9.41 6 2.52-1.45 3.67-5.28 5.45-8.07 1 1.36 1.78 2.47 2.57 3.57l3-4.77c2.24 2.77 4.91 5 6.21 7.9 2.19 4.82 3 10.27 5.4 15 1.09 2.18 4.38 3.26 6.67 4.85.7.49 1.78.89 2 1.55 1.15 3.38 2.11 6.83 3.09 10.27 2.24 7.77 1.47 15.55.15 23.37-.28 1.66 1.14 3.68.72 5.25-1.72 6.33-.78 12.54.06 18.83a42.41 42.41 0 0 1 0 8.58 49.11 49.11 0 0 1-1.17 6c-1.25-4.18-3.65-8.08-3.08-11.47s1-6.46-.43-9.72c-1.2-2.79-2-5.76-3.27-8.53-.16-.36-2.71-.31-2.93.14-1.34 2.79-4.26 5.23-2.19 9 .55 1 .08 2.59.08 3.62l-3.88 2.61c1.16.61 2.93.95 3.33 1.88a9.52 9.52 0 0 1 .89 5.69c-1.42 5.56-3.43 11-5 16.47-.87 3 3.61 13.67 6.27 14 2.07.29 4.4-1.23 6.36-1.86l2.25-17.55 1.37.1c.51 4.11 1.27 8.21 1.46 12.33.49 10.6.88 21.2 1 31.81.05 5.33-1 10.69-.83 16s1.22 10.43 1.81 15.66a11.07 11.07 0 0 1 0 4 73.45 73.45 0 0 0-2.22 24.19c.66 9.28-.76 18.72-1.45 28.07-.23 3.06 1.51 4.66 4.62 3.39 8.76-3.59 17.39-7.47 26.17-11a1613.04 1613.04 0 0 1 43.22-17c4.11-1.54 6.19-3.37 6.05-8-.24-8.38-.46-16.78 2.7-24.89.73-1.86-.79-4.48-.72-6.73.18-5.24.71-10.48 1.12-16.1 2.06 4.06-1.79 9.63 3.82 12.38 1.05-5.93 2.32-11.32 2.81-16.78.21-2.39-.94-5-1.93-7.36-1.38-3.26-.17-4.14 2.91-4.19.72 0 1.42-.89 2.12-1.37-.78-.57-1.61-1.68-2.34-1.62-5 .42-4.91-2.63-4.35-6.32l4.77 3.41c0-3.85-.25-6.48.07-9a43.67 43.67 0 0 1 2-9 15.71 15.71 0 0 0-.37-11.33c1.74-1.68 2.74-11.58.86-15.19 4.79-1.21 4.66-1.12 1.86-5.18-1-1.38-1.09-3.33-1.62-5.09 1.39-.49 4.8.18 2.51-3.48a26 26 0 0 1-4.2-14.08l3.51.93c.39-2 1.81-5.27 1-6-7-6.16-1.15-12.93-1.13-19.28 0-3.07-.11-7.59 5.15-8 .37 0 1.07-1.21.93-1.6-2.71-7.37 7.23-13.71 1.75-21.4-.47-.67.81-2.59 1.4-4.24 4.33 1.16 7.09 9.79 12.57 2l3.15 10.26 2.11-.28c1-6.11 5.92-11 4.75-17.87-.12-.69 1.47-1.67 1.65-1.86.68 2.08 1.35 3.7 1.74 5.38 1.44 6.19 3 12.35 4.08 18.61.76 4.52.74 9.16 1.05 13.76.23 3.31 2.2 7.09-2.58 9.11-.43.19-.58 2.79-.06 3.16 3.32 2.37 1.26 5.59 1.79 8.37 1.41 7.3-2.36 14.66.68 21.95.65 1.57-.82 4-1.13 6-.63 4-1.11 8.11-1.69 12.16-.52 3.62-2.56 7.47 3.83 10.49l-8.82.76c1.36 2.45 2.77 4.22 3.33 6.23s.2 4.15.28 6.24c.09 2.39.35 4.77.31 7.15-.1 6.08-.3 12.16-.5 18.24 0 1.14-.33 2.27-.4 3.41-.28 5-.52 10-.79 14.93-.06 1-.52 2.11-.19 2.93 3.28 8.16-1.26 15.93-1.13 23.94.07 4 1.92 5 5.14 4.72 6.21-.54 12.41-1.24 18.59-2a15.67 15.67 0 0 0 4.6-1.57c6.14-3 12.53-5.63 18.19-9.36 2.39-1.58 4-5.39 4.58-8.46 2.78-14.08 4.83-28.3 7.61-42.38a941.98 941.98 0 0 1 8.64-38.58c.85-3.53 1-8.28 6.93-7.89.54 0 2.29-3.57 1.79-4.77-2-4.65-1.26-8.93.87-13.42 3.9-1.13 5.23-5.38 4.51-9.7s.15-8.88.82-13.26c.15-.94 2.44-1.56 4.4-2.71-7.41-5.41 4.06-10.61.19-16.44 2.67-.61 7.07-6.41 6.22-9-.37-1.11-2.36-2.57-3.42-2.43-5.49.71-10.94 1.84-16.37 2.93-8 1.59-16.07 2.82-23.85 5.11-4.22 1.25-7.94.22-11.9.08-1.13-.05-2.31 1.22-4.11 2.26l-2.47-.72c.33-1.17 1.1-2.44.81-3.38-.2-.68-1.82-1-2.85-1.31-.21-.07-.55.34-.87.42-2 .48-4.55 2.37-5.47-.89-.19-.66 3-2.33 4.75-3.47a3.94 3.94 0 0 1 1.42-.29l-.94-1.16c2.6-2.2 5.53-4.1 7.66-6.67 1.42-1.71 2-4.3 2.38-6.6.24-1.36-.52-2.91-1-5.4l5.84 2.41c.88-7.34 7.7-7.83 11.91-11.24 1-.84 2.27-1.41 3.32-2.22 2.16-1.67 3.44-5.39 7.29-2.94.33.2 1.3.07 1.39-.14 2.45-6 9.21-5.59 13.38-9 3.4-2.77 6.76-5.53 11.23-.94 2-5.33 4.9-8.15 11.11-7.2a59.15 59.15 0 0 0-4.67 5.59c-.36.56.21 2.58.62 2.66 2.48.52 5.82 1.82 7.4.73 4.13-2.85 7.43-6.87 11.23-10.22.53-.47 2.7-.19 3 .35 2.91 5.24 5.37 3.48 8.15-.21-.32 1.52-.64 3-.92 4.41 4 5 8.35 2.26 11.31-.25 3.52-3 6.48-2.69 10.7-.94l-10.49 5.5 1.11 2.6c4.4-1.26 8.83-2.45 13.17-3.89a2.86 2.86 0 0 0 1-2.58c-2.81-4.64 1-5.35 3.78-6.29 7.83-2.67 15.78-5 23.59-7.73.93-.32 1.33-2.17 2-3.31-1.27-.62-2.49-1.55-3.82-1.77-1.15-.2-2.44.4-3.74-.1 3.75-4.19 8.2 1.18 12.59-.74l-.41-4c6-1.16 12.23-2.29 18.36-3.59.77-.16 1.9-1.31 1.85-1.93-.06-.87-1-2.27-1.69-2.38-2.81-.43-5.69-.44-8.92-.62 0-.38-.06-1.3-.08-1.77 5.3-.35 10.39-.69 15.49-1 3.15-.21 6.34-1.08 6.55 4.16.06 1.52 3.25 2.92 5 4.38l1.24-1 .84 5.32 6.42-1-.9 4.14 32.7-5 3.22-4.15 2 .81-4.49 14.23c-3.69-2.25-5.88-4.15-7.85 1.52-1 2.91-6.65 4.58-10.5 6-3.51 1.3-7.43 1.45-11.13 2.27a4.56 4.56 0 0 0-2.08 1.61 22 22 0 0 1-10 6.6c-10.41 3.63-20.38 8.56-30.81 12.13-9.06 3.11-18.62 4.76-27.78 7.61-7.88 2.45-15.48 5.82-23.28 8.55-4.87 1.7-10 2.8-14.83 4.48-4.16 1.43-7.77 3.68-8 8.38-1.2-1.46-2.35-4.08-3.62-4.14-2.39-.11-4 1.43-4.6 4.6-1.38 7.29-4 14.35-5.48 21.63s-2.29 14.54-3.34 21.83c-1.64 11.5-3.55 23-4.74 34.5-.72 7-.36 14-.31 21 0 3.3 2.17 3.63 4.31 3.08 1.67-11.36 3.26-22.37 4.91-33.38 1.62-10.73 3.31-21.46 5-32.18l1.53.27c-.87 10.61-1.85 21.22-2.56 31.84-.17 2.57.66 5.19.88 7.8 1.1 13.18-2.72 25.8-4.46 38.66-.52 3.87.78 7.6-1 11.76-2.34 4.53-1.91 9.97-2.6 15.82zm-13 4.43l1.86.86c1.09-1.44 2.76-2.74 3.15-4.35.73-3.09.61-6.38 1.08-9.54.83-5.57 2-11.09 2.71-16.68a72 72 0 0 0 .06-8.94l-2.08-.15c-4.07 12.6-2.73 26.19-6.74 38.8zm-15.11 177.28c-3.87-.5-5.13 1-5.12 4.13 0 5.39-.25 10.79-.08 16.18 0 1.36 1.26 2.69 2.63 5.4 4.85-9.33 1.2-17.68 2.61-25.71zm.57-19.3l-5.51 2.2c.31 3.5 1.26 6.56.66 9.26-.94 4.18.69 4.9 4.85 4.89z"></path>
  <path fill="#000" d="M1767.74 395.3a16.12 16.12 0 0 0 9.94 9c4.36 1.52 8.06 4.87 12.18 7.17a70 70 0 0 0 7.59 3.16c0-.06-.12 1.87.61 2.26 7 3.8 14.4 6.37 22.61 5.21a8.45 8.45 0 0 1 2 .21c.08.59.38 1.27.17 1.54-3.49 4.44-6.4 9.68-10.76 13-5.09 3.89-11.19 7.46-17.35 8.66-6.42 1.26-13.63.45-20.13-1-18.2-4.17-35.74-10.35-51.79-20.22-5.08-3.13-10.81-5.34-15.52-8.92-5.45-4.15-10.09-9.36-15.1-14.09-4.26-4-8.55-8-12.83-12.05l-1.43 1c0 7.81.22 15.63-.08 23.43-.18 4.55-1.56 9.05-1.75 13.61-.34 7.68 0 15.39-.23 23.08-.16 6.43-.43 12.87-1 19.27-.77 8.16-1.06 16.51-3.14 24.35-1.93 7.24-2.5 16.07-10.71 19.85-6 2.77-14.1 1.88-17.37-6.6a167.28 167.28 0 0 1-10.63-47c-.67-7.94-3-15.73-4-23.66-1.27-10.13-2.59-20.31-2.7-30.49-.1-9.64-1-19.12-1.9-28.7-.9-9.25.12-18.72.65-28.07.4-7.27 1.64-14.49 2-21.76.36-8.37-.23-16.79.2-25.16.61-12 1.8-24 2.69-35.95.46-6.26.63-12.54 1.26-18.77 1.17-11.59 2.18-23.22 4-34.71 2.22-14 5.12-27.92 7.91-41.83 2.56-12.78 4.88-25.64 8.2-38.23 3.16-12 7.12-23.83 14.9-33.85 1.48-1.9 3.56-3.33 5.27-5.07 1.49-1.52 2.85-3.17 4.28-4.76l-1.23-2c-2.71.92-5.41 1.88-8.13 2.77q-3.45 1.14-6.93 2.13c-5.76 1.63-13 1.62-16.88 5.25s-10.19-.45-12.46 5.26c-.13.34-1.55.2-2.38.23-1.16 0-2.54-.36-3.46.11-5.7 3-11.69 5.54-16.84 9.29a116.82 116.82 0 0 1-29.7 15.4c-2 .72-4.75-.61-8.63-1.23 4-7.91 7.78-15.26 11.49-22.52 6.46.28 5.91.2 6.91-6.23.33-2.15 4.2-5.19 6.58-5.3 6.79-.34 9.13-3.84 9.11-10.32 4.64.87 7.42-1.12 10.14-4.46 2.06-2.54 5.36-4.35 8.44-5.73 18.42-8.25 36.9-16.4 55.48-24.31a56.9 56.9 0 0 1 13.17-3.45c1.44-.24 3.2 1.42 4.17 1.9l4.62-6.4.79 2.1 9 .7c-.65-3.89.69-5.14 4.15-5.61 5-.66 9.74-3.21 14.66-3.4 3.87-.15 6.64.23 10.65-2.19 4.76-2.86 11.94-1.68 18.39-2.28-.76 3.79-2.22 5.85-6.15 6.19-2.26.19-4.92.77-5.74 4.12-.33 1.35-2.82 2.17-4.43 3.3l.66-5.63c-2 0-3.69-.48-4.85.12a9.15 9.15 0 0 0-4.09 3.9c-.36.82 1.13 3 2.29 3.86 5.93 4.57 15.9 4.32 24.57-.46l-.75-4.5c2.53 2.28 4.42 5.3 6.88 5.85 2.72.62 5.93-1.27 9-1.57 3.33-.33 6.78.32 10.06-.22 2.28-.37 4.44-1.89 6.48-3.16a20.77 20.77 0 0 0 3.25-3.12l3.12 4.29c2.31-.6 6 2.1 7.88-2.56.23-.58 3-.7 4.24-.18 2.68 1.13 5.7 2.33 7.52 4.42s2.4 5.12 3.14 7.86c.91 3.3 1 6.88 2.26 10 .65 1.58 3.14 2.42 4.31 3.25-.34.34-2.16 1.29-2.34 2.48-.39 2.59 1.07 3.14 10.92 4.52-6.86 1.72-6.79 5.45-5.28 10.14.39 1.23-1.25 3.17-2.08 4.72-1.84 3.44-4.21 6.68-5.54 10.3-1.66 4.53-2.5 9.38-3.7 14.08-.13.48-.47 1-.43 1.4 1.16 13.25-7.59 21.93-14.44 31.52-4.47 6.24-8.74 12.63-13 19-1.93 2.84-3.87 5.67-5.52 8.67-.79 1.45-.9 3.26-1.41 5.25 5.34.78 7.35-3.27 8.72-5.81 4.89-9 13.46-15.84 15.8-26.33 0-.17 0-.43.08-.49 8.27-5.15 9.92-14.91 15.17-22.18 2.88-4 4.37-9.18 5.59-14.06.79-3.16 1.32-5.32 5.12-4.86a38.51 38.51 0 0 0 4.44 0c1.09 6.69-2 11.94-8.55 13.35 2.48 6.62.5 11.66-5.22 15.79-1.53 1.1-1.37 4.3-2.65 6.06-5.55 7.64-11.47 15-17 22.67-3.86 5.32-7 11.18-11 16.39-6.74 8.78-13.88 17.25-20.87 25.84-6.39 7.85-12.61 15.85-19.29 23.44-4.38 5-9.44 9.36-14.23 14-.33.33-1.17.31-1.31.64-3.44 8.41-11.11 13-17.18 19-2 2-4.26 3.63-6.07 5.72-.83 1-.84 2.62-1.38 4.55l-2.87.43c-2.78 3.4-4.78 6.17-7.1 8.65-9.06 9.65-10.61 19.9-5.21 32.76 2.71 6.44 4.51 13.27 7.42 19.59 2.54 5.52 6.06 10.57 9.15 15.83.17.28.43.51.62.78 4.45 6.33 8.63 12.87 13.43 18.92a172.39 172.39 0 0 0 13.62 14.74c1.42 1.41 3.77 1.86 5.64 2.85 1.51.81 2.94 1.76 4.4 2.66 1.81 1.11 3.53 2.38 5.41 3.31 2.7 1.48 5.67 2.67 9.34 4.3zm-85.19-148.86l1.35.81c2.33-2.05 5.07-3.78 6.9-6.21 12.65-16.71 25.11-33.55 37.6-50.38 4-5.42 7.8-11 12-16.35s9-10.09 13-15.52c7-9.51 13.54-19.32 20.23-29 4.19-6.1 8.47-12.16 12.39-18.45 6.42-10.3 7.69-21.81 7.23-33.63-.17-4.62-3.22-8.5-7.89-8.88a145.36 145.36 0 0 0-17.71.06c-4.3.18-8.58 1-12.88 1.26-6.4.44-12.82.68-19.23 1.08a10.91 10.91 0 0 0-2.28.88c-3 1-5.94 2.07-9 2.88-3.67 1-7.4 1.72-11.1 2.59-1.44.34-3.07 1.4-4.28 1-5.92-1.8-10.1.83-15.14 3.73-7.46 4.29-10.51 10.43-11.85 18.15-.16.91.4 2 .8 3.68l3.07-3.37 2.14 7.07 2 .5c1.56-2.75 3.09-5.53 4.69-8.26.93-1.58 1.72-3.38 3.06-4.51.73-.61 3.53-.22 3.59.07a19.46 19.46 0 0 1 .49 6.86c-.73 4.4-2 8.7-3 13.07-.88 4-1.61 8.07-2.42 12.1-1.8 9-3.85 17.88-5.33 26.89-.82 5 .3 10.54-1.34 15.17-1.35 3.82-2.23 7.08-1.24 10.95a12.9 12.9 0 0 1 .11 4.43c-1.5 13.78-3.07 27.55-4.58 41.33-.43 3.88-.76 7.78-1 11.68-.18 2.76-.25 5.54-.38 8.32zm-18.37 228.32l2.12.1q.42-20.13.81-40.25a5.93 5.93 0 0 0-.46-2.35c-.67-1.56-1.48-3.05-2.24-4.57l-1.69.36c.54 15.57-1.72 31.19 1.46 46.71zm19.54-328.11c-8.23 5.45-3.8 14.9-6.91 22-1.71 3.91-.31 9.18-.31 14.49 3.59-3.14 8.86-31.93 7.22-36.49zM367.19 153.68c-.38-.27-1.66-1.81-2.48-1.59-1.7.44-4.14 1.52-4.54 2.85-1.47 5-2.12 10.17-3.29 15.24-.84 3.62-2.39 7.11-3 10.76q-2.75 17.2-5 34.48c-1.44 11.05-2.57 22.13-3.92 33.19-.59 4.85 2 8.44 5.26 7.93l9.63-63.21 1 .07c0 5 .23 10-.06 14.92s-1.42 10.09-1.63 15.15c-.19 4.41.6 8.86.54 13.29a95.83 95.83 0 0 1-1 13.44c-1 6.76-3.75 13.52-3.45 20.17.33 7.52-1.16 14.51-2.3 21.71-.52 3.29 3.53 4.87 7.11 3.45q17.23-6.82 34.65-13.2a9.3 9.3 0 0 1 5.43-.16c5.3 1.51 9.8-.95 14.56-2.33a23.38 23.38 0 0 1 4.79-.37c-1 2.16-2.65 4.49-2.28 4.87a10.4 10.4 0 0 0 5 2.64 32.17 32.17 0 0 0 6 .4c0 3.28-.63 6.07.28 8.21.43 1 3.78.82 6.29 1.25v3.61l-5-1.64c-2.06 6.68-2.41 6.84-9.27 4.32-2.83-1.05-5.17.82-5.1 3.79a4.24 4.24 0 0 1-1.54 2.57c-1.55 1.44-3.45 2.54-4.91 4.07-1.86 1.93-1.31 3.89 1.24 4.38a96.73 96.73 0 0 0 10.8 1.12c1.16.1 2.33-.08 3.5-.09s2.63.06 3.94.09c-.72 1.38-1.11 3.53-2.22 4-4.19 1.78-7.92 5.21-13.35 3.15-1.75-.66-4.61 1.17-6.8 2.2-4.9 2.3-9.7 4.81-14.67 7.31-1.73-2.48-3.17-4.86-5.23.12-.76 1.86-4 2.89-6.22 3.91a124.32 124.32 0 0 1-12.32 4.9c-3.28 1.07-7 1.05-10.1 2.43a50.42 50.42 0 0 0-12.05 7.1c-4 3.32-4.61 8.29-4.62 13.47 0 10.29-.15 20.62-1 30.87-1.25 14.87-3.27 29.68-4.79 44.53-.62 6.08-.72 12.2-1.17 18.3-.84 11.32-1.8 22.63-2.62 33.95-.08 1 .32 2.95.69 3 1.65.22 3.72.49 5-.3 5.83-3.63 11.32-7.79 17.15-11.42 26.6-16.56 53.2-33.12 80-49.35 3.84-2.33 8.81-2.79 13.25-4.16 2-.6 3.89-1.32 7.46-2.55-1.27 2.71-1.67 4.54-2.77 5.74-10.89 11.92-23.21 22.23-35.88 32.22-5.67 4.48-10.15 10.44-15.65 15.19-12.68 10.94-23.1 24.36-38.41 32.49-10.09 5.36-18.85 13.18-28.49 19.46a28.47 28.47 0 0 1-10.77 3.75 39.53 39.53 0 0 1-12.88.27c-5.67-1-10.4-3.85-11.7-10.29-3-15-6.89-29.94-8.93-45.1-2-15-2.25-30.24-3.2-45.39-.42-6.59-1.4-13.26-.86-19.79 1-11.74 2.88-23.39 4.4-35.08.15-1.14.39-2.28.43-3.43.24-8.08.18-8.14-7.65-9 .62-2 1.24-4 1.84-6-5.26-2.15-11.14 1.6-15.38-2.78l4.19-7.47c-7.15-.27-8.8-4.79-9.48-9.63-.21-1.52 1.06-3.91 2.4-4.88 5.68-4.12 11.56-8 17.53-11.67a48.75 48.75 0 0 1 8.83-4.15c5.31-2 8-5.51 8.81-11.19 1.49-10.84 3.09-21.7 5.32-32.41q4.83-23.21 10.71-46.19c2.19-8.5 5.45-16.72 8.36-25 .31-.89 1.61-1.38 2.28-2.2 2-2.38 4.08-4.41 2.75-8.3-1.87-5.46-.33-10.56 2.61-15.66 1.67-2.9 1.26-7 2-10.48.39-2 1.15-3.83 2-6.44l2.56-.25c.34-1.7.66-3.29 1-4.88s1.34-4.35.81-4.7a7.93 7.93 0 0 0-5.61-1.18c-5.73 1.18-11.34 3-17 4.29-8.09 1.87-16.17 3.86-24.37 5.09-3.61.54-7.6-1.71-11 1.39l-2.77-4c-2.06-2.43-6.46 1.58-8.34-1.89 3.83-3.78 7.2-7.08 10.53-10.42 2.46-2.46 5.91-4 4.45-9-.4-1.39 3.9-4.6 6.48-6.29 3.64-2.39 8-3.75 11.47-6.29 2.26-1.64 3.56-4.61 5.29-7l1.26 1.32 4.7 2.44c.05-5.06 2.73-6.71 6.61-7.87 3.06-.92 5.65-3.29 8.62-4.64 1.69-.77 3.77-.64 5.6-1.17a21.71 21.71 0 0 0 4-1.88c2.69-1.44 5.36-2.92 8-4.39l1.28 1.47c-.81 1.17-1.57 2.38-2.44 3.5s-2.48 2.32-2.28 2.7c.7 1.3 1.89 2.82 3.19 3.19a6.78 6.78 0 0 0 5-.58 99 99 0 0 0 8.3-6.94c.35-.29.92-.36 1.2-.69.89-1.05 1.68-2.18 2.51-3.28l3.06 4.68 6.7-3.41c.29 1.17.61 5 1.38 5.11a14.24 14.24 0 0 0 7.82-1.4c3.39-1.73 6.31-4 10.49-2.14 1.13.52 2.93 0 4.3-.48 4.61-1.5 9.13-3.3 13.75-4.74 8.89-2.77 8.91-2.7 9.47-12.69l11.29 1 .85-4c2.79-.39 5.31-.57 7.74-1.11 3.44-.76 6.84-1.69 10.19-2.76.69-.22 1.68-1.56 1.52-2-.37-.91-1.33-2.11-2.16-2.21a64.43 64.43 0 0 0-7.5-.1l-.41-2.38h21c-.44 1.06-.95 2.19-1.38 3.36-1.17 3.24.3 4.8 3.29 3.7 4.34-1.59 5.35.51 5.41 4.07h7.71c-.32 4.84 3.08 3.41 6 3 2.6-.35 5.28-.28 7.84-.82A93.15 93.15 0 0 0 505.07 87c3.48-1.16 6.87-2.61 11.62-3.23l-5.28 12.76c-3.22-2-5.61-2.72-6.59 1.67-.28 1.28-1.36 3-2.45 3.38-6.22 2-12.56 3.56-18.85 5.35a8.68 8.68 0 0 0-2.72 1.4c-2.78 2-5.26 4.67-8.3 6.18-6.84 3.4-13.75 6.86-21 9.21-10 3.26-20.49 5.18-30.56 8.33s-19.59 7.12-29.43 10.54c-4.72 1.64-9.8 2.39-14.35 4.39-3.69 1.68-6.85 4.56-9.97 6.7zM130.27 47.09l-.67 4.54h-4.41c.91-3.63 2.5-6.13 6.51-6.94 3-.6 5.7-2.19 8.56-3.27.8-.3 2.14-.82 2.46-.49 2.52 2.59 3.67.7 5.28-1.13 1.21-1.36 3-2.18 4.67-3.33-1.16 5.29-14.75 11.7-22.4 10.62zM1841 89.76l2.58-13.15 1-.31a94.15 94.15 0 0 1 1.12 10.8c-.02.72-2.5 1.46-4.7 2.66zM1491.13 116.53c-2.47-2.16-.78-12.31 3.95-19.94l-3.95 19.94z"></path>
  <path fill="#000" d="M359.71 187.85l4.86-18.43 1.37.38-4.29 18.93zM1844.83 60.19L1846.2 71c-4.09-1.48-4.88-6.63-1.37-10.81zM1767.55 28c-1 1.68-1.68 3.63-3 4.93-.67.65-2.49.11-4.77.11l5.71-6.32zM1244.83 85.4a39.35 39.35 0 0 1-5.33-2.59c-.7-.49-.9-1.71-1.33-2.59.79-.37 1.68-1.18 2.34-1 3.11.78 3.85 3.08 4.32 6.18zM867.29 149c-1-.66-2.54-1.11-2.9-2a10.68 10.68 0 0 1-.49-4.91c1.27-12.06 2.66-24.11 4-36.17h1.41c.06 1.42.19 2.84.18 4.27 0 5.87-.06 11.75-.24 17.62 0 1.1-.79 2.17-1.13 3.27-1 3.08-4 5.75-.55 9.51 1.14 1.17-.06 4.52-.28 8.41z"></path>
</svg>