<svg id="Layer_1" data-name="Layer 1" xmlns="http://www.w3.org/2000/svg" viewBox="0 0 385.26 418.09"><title>Black Voters Matter Logo</title><path d="M24.85,168.41v-144H59.56q22.68,0,28.92,5.15t6.23,24.63V69.29q0,10-3.25,15.1T81,91.1q7.71,3,10.69,8.06t3,15.93v23.37q0,19.65-6.28,24.8t-28.69,5.15Zm39.3-97.65v-16q0-4.5-1.25-5.8c-.84-.86-2.59-1.3-5.24-1.3H55.32V77.77a13.31,13.31,0,0,1,1.39.13A10.72,10.72,0,0,0,58,78c2.2,0,3.77-.37,4.72-1.12a4.26,4.26,0,0,0,1.43-3.55Zm0,67.18V110.76c0-3-.42-4.94-1.25-5.8s-2.59-1.3-5.24-1.3H55.32V145c.29,0,.75,0,1.39.09s1.06.08,1.29.08c2.2,0,3.77-.36,4.72-1.08a4.23,4.23,0,0,0,1.43-3.59Z" transform="translate(-23.94 -23.58)"/><path d="M178.23,168.41l18.44-144h36.88l18.62,144H223.42L221.09,140H208.88l-2.34,28.39Zm32.21-51.77h9.26l-4.59-55.49Z" transform="translate(-23.94 -23.58)"/><path d="M256.58,53.36q0-20.08,5.8-24.93t28.91-4.85q23.64,0,29.35,5.19t5.71,24.59v20H295.88V54.22q0-4.15-1-5.62c-.69-1-2-1.48-3.89-1.48a3.37,3.37,0,0,0-3,1.3q-.87,1.3-.87,5.8v84.24c0,2.66.33,4.53,1,5.63a3.67,3.67,0,0,0,3.42,1.64,4.23,4.23,0,0,0,3.24-1.25,5,5,0,0,0,1.17-3.51V107.21h30.47v32.12q0,19.81-5.88,25t-29,5.15q-23.39,0-29.14-5.28t-5.75-24.84Z" transform="translate(-23.94 -23.58)"/><path d="M363.84,99.42v69H334.75v-144h29.09V82.27l11.51-57.83h30.13L389.72,89.2l19.48,79.21H378.55Z" transform="translate(-23.94 -23.58)"/><path d="M40.9,304.57l-17-130h26L56.14,261l6.41-86.44H88.42l-17.11,130Z" transform="translate(-23.94 -23.58)"/><path d="M91.66,200.7q0-18.13,5.32-22.51t26-4.38q21.18,0,26.42,4.69t5.24,22.2v77.61q0,17.9-5.32,22.55t-26.18,4.65q-21.1,0-26.3-4.77t-5.2-22.43Zm27.51.78v76c0,2.45.3,4.15.9,5.12a3.35,3.35,0,0,0,3.09,1.44,4,4,0,0,0,3-1,4.07,4.07,0,0,0,1-2.93V201.48q0-3.75-.93-5.08c-.63-.88-1.8-1.33-3.52-1.33a3.26,3.26,0,0,0-2.62,1.06,4.37,4.37,0,0,0-.9,2.93Z" transform="translate(-23.94 -23.58)"/><path d="M174.23,304.57V196H160.16V174.6h55.49V196H201.58V304.57Z" transform="translate(-23.94 -23.58)"/><path d="M221.94,304.57v-130h43.69v20.94H249.29v27h16.34v21.19H249.29v39.7h16.34v21.1Z" transform="translate(-23.94 -23.58)"/><path d="M274.88,304.57v-130h31.34q20.47,0,26.11,4.65T338,201.48v13.45q0,14.15-2.77,18.91t-10,7.35q7,2,9.92,6.68T338,262.29v42.28H310.36V259.94c0-2.7-.44-4.53-1.32-5.47s-2.56-1.4-5-1.4h-1.64v51.5Zm35.48-84.17V202.58q0-4.85-1.09-5.94c-.73-.73-2.21-1.1-4.45-1.1h-2.43v33.3a12.93,12.93,0,0,1,1.33.08c.57.05,1,.07,1.25.07q3.13,0,4.26-1.05c.76-.7,1.13-2.05,1.13-4Z" transform="translate(-23.94 -23.58)"/><path d="M346,252.36h27.59v25.48a9.74,9.74,0,0,0,.93,4.93,3.5,3.5,0,0,0,3.21,1.48,4.11,4.11,0,0,0,3-1.13,3.82,3.82,0,0,0,1.17-2.86v-21.8q0-3.91-1.09-5.67a11.31,11.31,0,0,0-4.3-3.48l-18.45-10.23a22.1,22.1,0,0,1-9.18-9Q346,224.7,346,215.71V200.54q0-17.41,5.27-22.07t26.15-4.66q19.6,0,25.48,4.15t5.86,14.69v27.28h-27v-18.6c0-2.56-.32-4.26-.94-5.12a3.9,3.9,0,0,0-3.36-1.29,3.21,3.21,0,0,0-2.93,1.4q-.9,1.41-.9,5v12.34a8.28,8.28,0,0,0,5.39,9.07l17,9.15q7,3.66,9.89,8.71t2.93,13.72v29.62a48.61,48.61,0,0,1-.74,9.89,13.73,13.73,0,0,1-2.62,5.58,13.12,13.12,0,0,1-7.7,4.77q-5.21,1.33-19.81,1.33-21.35,0-26.62-4.85t-5.27-22Z" transform="translate(-23.94 -23.58)"/><path d="M49.74,366.79v74.88h-24v-130H58.15l9.33,65.81,9.17-65.81H109.1v130H85V366.79L74.91,441.67H59.82Z" transform="translate(-23.94 -23.58)"/><path d="M115.58,441.67l16.15-130H164l16.3,130H155.16l-2-25.64H142.42l-2,25.64Zm28.2-46.74h8.12l-4-50.1Z" transform="translate(-23.94 -23.58)"/><path d="M192.72,441.67V333.11H179.08V311.69H232.9v21.42H219.26V441.67Z" transform="translate(-23.94 -23.58)"/><path d="M249.39,441.67V333.11H235.75V311.69h53.82v21.42H275.93V441.67Z" transform="translate(-23.94 -23.58)"/><path d="M296,441.67v-130h42.38v20.95H322.52v27h15.84v21.18H322.52v39.71h15.84v21.1Z" transform="translate(-23.94 -23.58)"/><path d="M347.65,441.67v-130h30.4q19.86,0,25.32,4.65t5.46,22.24V352q0,14.14-2.69,18.92t-9.74,7.34q6.83,2,9.62,6.68t2.81,14.42v42.29H382.07V397q0-4.07-1.29-5.47t-4.85-1.41h-1.59v51.51Zm34.42-84.18V339.67c0-3.23-.36-5.21-1.06-5.94s-2.15-1.09-4.32-1.09h-2.35v33.29c.3,0,.73,0,1.28.08s1,.08,1.22.08c2,0,3.4-.35,4.13-1s1.1-2.05,1.1-4Z" transform="translate(-23.94 -23.58)"/><path d="M150.56,120.1,130.15,83.9,118,78.49l6.24-3.2-1.9-2.53a22.56,22.56,0,0,1-.12-2.83c0-.73.06-1.42.12-2.05a19.51,19.51,0,0,0,3,3.18,19.08,19.08,0,0,0,4.87,3,45.25,45.25,0,0,0,7.33-.18A45.94,45.94,0,0,0,146.5,72l.15-10.81L116.86,47.75l-23,33.3L124,127l-6.4,41.46h29.67l2.53-43.29h-4.13l4.91-5.08Z" transform="translate(-23.94 -23.58)"/><path d="M144.23,74.74a16.81,16.81,0,0,0-7.17,1.92H126.3a4.52,4.52,0,0,0,.47,1.2c1.12,2,3.4,2.29,8,3.4l2.26.57a6.09,6.09,0,0,0,5.15-1c2-1.49,4.21-3.5,3.77-4.87-.13-.41-.55-.88-1.74-1.2Z" transform="translate(-23.94 -23.58)"/><path d="M166.59,102.11,155.94,91.58l-19.78-5.49,21.46,39.82H153l-2.42,42.56h17.82q.52-18.65,1.06-37.29c4.39-4.93,13.34-16.5,13.39-32.14a41.42,41.42,0,0,0-.63-7.35l-15.61,10.42Z" transform="translate(-23.94 -23.58)"/><polygon points="143.91 76.56 166.8 56.92 157.1 44.3 136.32 68.77 143.91 76.56 143.91 76.56"/><polygon points="134.31 66.35 154.46 41.67 142.96 29.61 120.92 60.43 134.31 66.35 134.31 66.35"/><path d="M143.28,58.12a16.86,16.86,0,0,0,6.22,2.3v9.87l14.88-19.08-13.82-13L139.48,54.94a17.58,17.58,0,0,0,3.8,3.18Z" transform="translate(-23.94 -23.58)"/><path d="M137.48,52.63q2.36-3.48,4.75-7.57c1.74-3,3.28-5.9,4.64-8.66-1.75-1.57-3.72-3.2-5.91-4.83s-4.33-3.06-6.33-4.28c-2.13,2.52-4.33,5.33-6.54,8.45-2.57,3.63-4.77,7.14-6.64,10.42q3.69,1.67,7.7,3.29c2.84,1.16,5.63,2.21,8.33,3.18Z" transform="translate(-23.94 -23.58)"/></svg>