<svg id="Layer_1" data-name="Layer 1" xmlns="http://www.w3.org/2000/svg" viewBox="0 0 466.35 466.32"><defs><style>.cls-1{fill:#450a70;}.cls-2{fill:#f5b501;}.cls-3{fill:#015201;}.cls-4{fill:#cd0b01;}.cls-5{fill:#030303;}</style></defs><title>BlackMaleVoterProjectLogo</title><path class="cls-1" d="M539.84,299.45c-2.27.33-19,.31-20.83,0-.17-3.14-.06-6.3-.08-9.46s0-6.36,0-9.54V184.58a6.59,6.59,0,0,0-1-.21c-.72,0-1.45,0-2.17,0H406.29a6.82,6.82,0,0,1-2.51-.17c-.27-1.72-.36-17-.12-20.54a8.65,8.65,0,0,1,1.17-.22c.5,0,1,0,1.52,0H539.6a12.06,12.06,0,0,1,.23,1.28c0,.57,0,1.15,0,1.73v133Z" transform="translate(-73.49 -163.39)"/><path class="cls-2" d="M518.92,493.52h20.74c.06.47.14.87.16,1.28s0,1,0,1.52V626.86c0,.86,0,1.71,0,2.44a2.63,2.63,0,0,1-.32.25.39.39,0,0,1-.2.08l-134,0c-.44,0-.87,0-1.3-.09-.06,0-.11-.08-.34-.27a35.63,35.63,0,0,1-.07-3.91c0-1.37,0-2.74,0-4.12v-4.12c0-1.37,0-2.74,0-4.12s-.05-2.71.06-4.12a46.53,46.53,0,0,1,6.42-.16c2.16,0,4.33,0,6.5,0h95.85c2.08,0,4.17,0,6.37,0,.07-.54.14-1,.16-1.36,0-.57,0-1.15,0-1.73V493.52Z" transform="translate(-73.49 -163.39)"/><path class="cls-3" d="M73.74,629.42c0-.31-.07-.72-.08-1.14-.31-17.75-.15-132.12.18-134.61,1.65-.27,18.39-.3,20.49,0a.7.7,0,0,1,.14.16.48.48,0,0,1,.07.2,3.11,3.11,0,0,1,0,.43c0,.22,0,.43,0,.65V607.83a1.62,1.62,0,0,0,0,.22,1.55,1.55,0,0,0,0,.21l.09.33a9.37,9.37,0,0,0,1.16.19c.58,0,1.16,0,1.74,0h109.5c.86,0,1.71,0,2.47,0,.16.28.28.41.28.53q0,9.76,0,19.52a2.26,2.26,0,0,1-.12.51,2.33,2.33,0,0,1-.23.23.46.46,0,0,1-.21,0l-134.22.05c-.36,0-.72,0-1.07-.07C74,629.63,73.93,629.56,73.74,629.42Z" transform="translate(-73.49 -163.39)"/><path class="cls-4" d="M94.58,184.64v76.47q0,19.17,0,38.29c-1.88.32-18.51.35-20.68.07-.06-.05-.13-.08-.16-.14a.51.51,0,0,1,0-.22q0-66.78,0-133.57c0-.51,0-1,0-1.52a1.69,1.69,0,0,1,.13-.4,1.77,1.77,0,0,1,.17-.12.39.39,0,0,1,.19-.08l133.58,0c.51,0,1,0,1.52,0a2.5,2.5,0,0,1,.53.21c.23,2.22.06,4.52.09,6.81s0,4.48,0,6.72,0,4.6,0,6.75a2.8,2.8,0,0,1-.32.27l-.2.07-.21,0H95.29a1.33,1.33,0,0,0-.21,0A4.48,4.48,0,0,0,94.58,184.64Z" transform="translate(-73.49 -163.39)"/><path class="cls-5" d="M197.35,322.54c.31,2.2.42,29.85.21,48.26,0,.48-.05,1-.08,1.43a93.9,93.9,0,0,1-11.38.13c-.55-.69-.27-1.52-.26-2.28,0-6.07.17-12.13.24-18.2,0-4.56.07-9.11.1-13.66,0-.65,0-1.3,0-2.18a3.45,3.45,0,0,0-.88,1.85q-2.4,8.43-4.79,16.86t-4.75,16.66c-.07.27-.17.54-.29.93a29.12,29.12,0,0,1-4.07.09c-1.37,0-2.75,0-4.23,0-.2-.56-.42-1.07-.57-1.61q-4.74-16.54-9.47-33.09c-.13-.46-.32-.91-.47-1.33-.18,0-.27,0-.32,0s0,.12,0,.19,0,.29,0,.43q0,4.88.11,9.76l.27,23.84v.87c0,.14,0,.29,0,.43s0,.14-.07.33a7,7,0,0,1-1.17.18c-3.39,0-6.77,0-10.18,0A4.31,4.31,0,0,1,145,370q0-22.56,0-45.1v-2c.18-.15.23-.21.29-.25a.47.47,0,0,1,.19-.06l14.53,0c.42,0,.85,0,1.42.07,3.23,10.7,6.47,21.39,9.78,32.35a7.56,7.56,0,0,0,.67-1.22q3.94-13.17,7.85-26.34c.47-1.58,1-3.15,1.48-4.86Z" transform="translate(-73.49 -163.39)"/><path class="cls-5" d="M263.7,549.54A27.71,27.71,0,0,1,245.57,543c-6.46-5.5-9.2-12.56-8.4-21a27.08,27.08,0,0,1,3.69-11.66,24.57,24.57,0,0,1,18.06-12.13c8.91-1.34,16.8.95,23.26,7.31a24.09,24.09,0,0,1,7.29,20.89c-1.1,9.46-5.93,16.41-14.46,20.7A23.65,23.65,0,0,1,263.7,549.54Zm-13.87-25.66a15.25,15.25,0,0,0,2.68,8.74,13.2,13.2,0,0,0,22.09-.53,15.71,15.71,0,0,0,2.26-9.32,15,15,0,0,0-4-9.59,13,13,0,0,0-19.53.46A15.08,15.08,0,0,0,249.83,523.88Z" transform="translate(-73.49 -163.39)"/><path class="cls-5" d="M218.05,409.6c11,.62,19.33,5.22,24,15.11a26,26,0,0,1-17.56,36.1c-10.52,1.93-19.62-.74-26.93-8.65a22,22,0,0,1-5.8-15.23,27.34,27.34,0,0,1,5.74-17.56,24.44,24.44,0,0,1,15.44-9.2C214.72,409.86,216.53,409.77,218.05,409.6Zm.19,40.61a12.68,12.68,0,0,0,10.68-5.61,16,16,0,0,0,.19-17.59,13.09,13.09,0,0,0-22.6.77,15.57,15.57,0,0,0-.18,15.17C208.77,447.74,212.86,450.11,218.24,450.21Z" transform="translate(-73.49 -163.39)"/><path class="cls-5" d="M144.93,234.45h1.73c5.2,0,10.41,0,15.61,0a31.39,31.39,0,0,1,6,.45,14.87,14.87,0,0,1,5.58,2.26,12.34,12.34,0,0,1,4.69,14.35,10.38,10.38,0,0,1-3.27,4.76c-.44.37-.89.71-1.36,1.08.32.75,1.07.75,1.6,1a10.7,10.7,0,0,1,5.62,6.82,16.44,16.44,0,0,1,.52,3.42A14.71,14.71,0,0,1,168.46,284a63.83,63.83,0,0,1-6.49.36c-4.84.05-9.68,0-14.52,0h-2.06c-.66-.52-.44-1.14-.45-1.69q0-8.34,0-16.69v-31.5ZM157.14,264c0,1.65,0,3.08,0,4.51a19.7,19.7,0,0,0,.2,4.52c2.47,0,4.84.08,7.21,0a6.92,6.92,0,0,0,2.86-.85c1.74-.94,2.14-2.6,2-4.45a3.59,3.59,0,0,0-2.92-3.33,7.74,7.74,0,0,0-1.9-.34C162.2,264,159.83,264,157.14,264Zm.08-10.74c1.75,0,3.32,0,4.89,0a9.5,9.5,0,0,0,1.93-.18,3.48,3.48,0,0,0,2.73-2.2,3.62,3.62,0,0,0-3.11-5.18,14.16,14.16,0,0,0-1.72-.09c-1.15,0-2.3,0-3.46,0-.41,0-.87-.12-1.26.37Z" transform="translate(-73.49 -163.39)"/><path class="cls-5" d="M216.19,531.76c1.54,2,3,3.76,4.41,5.56s3,3.72,4.46,5.59,2.91,3.52,4.26,5.46a112.87,112.87,0,0,1-14.34.17c-3.73-5.06-7.36-10.33-11.13-15.47-.58.17-.44.59-.44.91q0,6.06,0,12.14v2.23a3.19,3.19,0,0,1-.83.25H191.94a3,3,0,0,1-.62-.14,2.57,2.57,0,0,1-.17-.63q0-24.18,0-48.35a3.3,3.3,0,0,1,.18-.68c.43,0,.85-.08,1.27-.08q8.13,0,16.26,0a35.42,35.42,0,0,1,7.1.79,14.45,14.45,0,0,1,10.64,8.37A17.83,17.83,0,0,1,227,523a14.08,14.08,0,0,1-9,8.18C217.45,531.37,216.91,531.53,216.19,531.76Zm-12.58-7.94h3.79a12.69,12.69,0,0,0,1.51,0,18.12,18.12,0,0,0,2.55-.44,6.14,6.14,0,0,0,4.68-5.8,11,11,0,0,0,0-1.72,5.72,5.72,0,0,0-2.82-4.6A8.29,8.29,0,0,0,209,510c-1.44,0-2.88,0-4.33,0a9.21,9.21,0,0,0-1.19.15C203.3,513.48,203.36,522,203.61,523.82Z" transform="translate(-73.49 -163.39)"/><path class="cls-5" d="M354.53,443.62l13.12,16.48c-.14.18-.21.37-.29.37h-14c-3.76-5.12-7.4-10.37-11.15-15.48a1.51,1.51,0,0,0-.35.12.42.42,0,0,0-.05.2,1.66,1.66,0,0,0,0,.22c0,.21,0,.43,0,.65q0,6.72,0,13.44c0,.07,0,.14,0,.22a1.52,1.52,0,0,1,0,.21.81.81,0,0,1-.1.18c-1.46.36-7.84.47-11.94.18a10.71,10.71,0,0,1-.17-1.4q0-23.53,0-47c0-.35,0-.71,0-.94.42-.53.88-.39,1.29-.4l16.48,0a34.49,34.49,0,0,1,6.87.75c6,1.21,9.7,4.86,11.63,10.47a17.82,17.82,0,0,1-.16,12.32,14.28,14.28,0,0,1-9.4,8.92C355.81,443.26,355.34,443.39,354.53,443.62ZM342,435.53c.12.06.24.17.37.17,1.3,0,2.59.07,3.89,0a18,18,0,0,0,3.2-.38,6.89,6.89,0,0,0,4-10.48,5.36,5.36,0,0,0-2.26-2,14.85,14.85,0,0,0-2.86-.9,11.57,11.57,0,0,0-2.36-.11c-1.36,0-2.71,0-4,0A101.43,101.43,0,0,0,342,435.53Z" transform="translate(-73.49 -163.39)"/><path class="cls-5" d="M330.5,253.14c-1.68.34-8.21.42-13.09.18-.21-.37-.48-.78-.7-1.21a14.7,14.7,0,0,0-2.8-3.83,12.56,12.56,0,0,0-17.59,0,14.21,14.21,0,0,0-4.13,7.94,15.79,15.79,0,0,0,2.05,11.46,12.47,12.47,0,0,0,11.58,6.3,11.94,11.94,0,0,0,9.4-5c.79-1,1.43-2.16,2.16-3.27h13.13a10.13,10.13,0,0,1-.27,1.26c-3.41,10.06-10.26,16.27-20.8,17.9-10.18,1.58-18.63-1.85-25.1-9.89a26.54,26.54,0,0,1-3.59-24.85c3.79-9.21,10.63-14.93,20.47-16.35,10.23-1.48,18.76,2,25.21,10.22a21.27,21.27,0,0,1,4.07,8.53A3.11,3.11,0,0,1,330.5,253.14Z" transform="translate(-73.49 -163.39)"/><path class="cls-5" d="M430.49,517.55a128,128,0,0,1-13.18,0c-.31-.56-.63-1.2-1-1.82a12.65,12.65,0,0,0-7.7-6.24,12.1,12.1,0,0,0-12.07,2.86c-3.69,3.44-5,7.84-4.61,12.78a15.52,15.52,0,0,0,2.89,7.82,12.57,12.57,0,0,0,20.41.22c.72-1,1.33-2.05,2-3.1a120.87,120.87,0,0,1,13.19,0,8.63,8.63,0,0,1-.24,1.25c-3.55,10.31-10.7,16.57-21.5,17.95-10,1.28-18.32-2.23-24.58-10.25a23.81,23.81,0,0,1-4.8-12.13c-1.05-8.95,1.69-16.56,8.42-22.59a25,25,0,0,1,17.19-6.54,25.51,25.51,0,0,1,14.93,4.35,28.15,28.15,0,0,1,7.59,7.64,20.5,20.5,0,0,1,2.76,6.08A15.88,15.88,0,0,1,430.49,517.55Z" transform="translate(-73.49 -163.39)"/><path class="cls-5" d="M355,263.26a3.91,3.91,0,0,0-.31,2.11c0,5.56,0,11.13,0,16.7a3.58,3.58,0,0,1-.34,2.26c-4,0-8.1,0-12,0A4.18,4.18,0,0,1,342,284a.5.5,0,0,1-.05-.21v-49.1a2.79,2.79,0,0,1,.77-.22c3.76,0,7.52,0,11.28,0a2.63,2.63,0,0,1,.57.14c0,.5.12,1.06.12,1.61,0,5.93,0,11.86,0,17.79,0,.69.05,1.39.08,2.36a5.72,5.72,0,0,0,1.45-1.83c.41-.59.77-1.21,1.16-1.83l1.14-1.84,1.15-1.83c.39-.61.78-1.22,1.16-1.83s.76-1.23,1.15-1.84.7-1.1,1-1.65.77-1.23,1.15-1.84.76-1.23,1.15-1.84.77-1.22,1.16-1.83.75-1.23,1.14-1.84l1.15-1.76a116.72,116.72,0,0,1,13,0,1.13,1.13,0,0,1,.09.2.46.46,0,0,1-.05.2,3.28,3.28,0,0,1-.22.37l-15.66,23.68c0,.06,0,.14-.05.36,5.66,8.14,11.48,16.28,17.14,24.43-.1.23-.12.32-.17.36a.28.28,0,0,1-.18.06H368.45c-.72-1.11-1.47-2.25-2.2-3.41s-1.47-2.32-2.2-3.48l-2.31-3.66c-.73-1.17-1.46-2.33-2.2-3.49s-1.45-2.32-2.2-3.48S356,264.5,355,263.26Z" transform="translate(-73.49 -163.39)"/><path class="cls-5" d="M246.14,234.52h10.17l19.48,49.08a2,2,0,0,1,0,.66H262.25l-2.48-7.14H242.68c-1.25,2.23-1.7,4.84-2.9,7.15H226.53a1.85,1.85,0,0,1,0-.69Q236.3,259.06,246.14,234.52Zm5.3,15.94H251l-4.92,16.42a27.28,27.28,0,0,0,3.56.11c1.08,0,2.16,0,3.25,0a21,21,0,0,0,3.51-.11C254.71,261.3,253.08,255.88,251.44,250.46Z" transform="translate(-73.49 -163.39)"/><path class="cls-5" d="M242.1,372.38q-1.22-3.54-2.38-6.93c-1.59-.35-13.14-.46-17.27-.16-1.07,2.19-1.67,4.65-2.68,6.93a108.33,108.33,0,0,1-13.44.14c-.22-.68.22-1.22.45-1.78q6.45-16.17,12.95-32.33l5.48-13.65c.27-.66.56-1.31.82-1.91a76.79,76.79,0,0,1,10.19,0q9.67,24.4,19.39,49a2.22,2.22,0,0,1,0,.69Zm-11.19-33.93c-.57,1.86-1.15,3.71-1.72,5.57s-1.09,3.59-1.59,5.39a35.22,35.22,0,0,0-1.49,5.55,46.63,46.63,0,0,0,10-.2C234.57,349.31,232.93,343.87,230.91,338.45Z" transform="translate(-73.49 -163.39)"/><path class="cls-5" d="M145,498.83a8.33,8.33,0,0,1,.87-.11c6.07,0,12.15-.06,18.22,0a35.26,35.26,0,0,1,6.22.77c5.95,1.21,9.66,5,11.42,10.65a19.4,19.4,0,0,1-.17,11.75c-1.73,5.43-5.59,8.62-11,10.12A24.35,24.35,0,0,1,164,533h-6.6a8.6,8.6,0,0,0-.21,1.29c0,4,0,8,0,11.93v2.12c-1.53.37-8.4.46-12.06.17a11.08,11.08,0,0,1-.14-1.19q0-23.64,0-47.29C144.94,499.66,145,499.31,145,498.83Zm12.23,22.84a43.52,43.52,0,0,0,7.67-.06c4.44-.59,5.58-3.06,5.3-6.68a4.63,4.63,0,0,0-3.15-4.24,10,10,0,0,0-3.58-.7l-5,0a12.16,12.16,0,0,0-1.27.13Z" transform="translate(-73.49 -163.39)"/><path class="cls-5" d="M164.87,445.12l9.95-34.37a17,17,0,0,1,3.25-.12c1.08,0,2.17,0,3.25,0h6.49c-.33,1.84-15.76,47.92-16.69,49.89h-13L141.63,411c.09-.18.1-.25.15-.28a.29.29,0,0,1,.2-.07c4,0,8,0,11.92,0a3.93,3.93,0,0,1,.75.17q4.92,17.1,9.85,34.26Z" transform="translate(-73.49 -163.39)"/><path class="cls-5" d="M302.83,422.08c0,2.28,0,4.51,0,6.74a3.26,3.26,0,0,0,.2.73c4.88,0,9.77,0,14.62,0a69.42,69.42,0,0,1,0,11.08c-2.41.22-4.85.07-7.29.1s-4.89,0-7.3,0a40.76,40.76,0,0,0-.05,8.44c5,.16,10,0,15,.1a56.19,56.19,0,0,1,.07,11c-1.64.25-24.67.3-27.23.06a.73.73,0,0,1-.16-.14.36.36,0,0,1-.06-.2q0-24.18,0-48.36c0-.28.05-.55.06-.77a2.58,2.58,0,0,1,.24-.19.37.37,0,0,1,.19-.07l26.25,0a3.52,3.52,0,0,1,.64.09c.05,0,.1.09.15.14a77.13,77.13,0,0,1,0,10.75.76.76,0,0,1-.14.16.51.51,0,0,1-.21.06l-14.53.08C303.23,421.92,303.17,422,302.83,422.08Z" transform="translate(-73.49 -163.39)"/><path class="cls-5" d="M300.58,322.62h27.48a65.25,65.25,0,0,1,.11,11,12.3,12.3,0,0,1-1.39.16c-3.83,0-7.66,0-11.49,0h-2.24c-.5,1.28-.2,2.59-.23,3.85a22.23,22.23,0,0,0,.08,3.8l4.79,0h9.82a2.85,2.85,0,0,1,.28.82c0,3.25,0,6.51,0,9.76a2,2,0,0,1-.19.52c-2.37.23-4.82.07-7.25.1s-4.89,0-7.31,0a43,43,0,0,0-.06,8.46,34.47,34.47,0,0,0,3.81.07c1.23,0,2.46,0,3.69,0H328a55.66,55.66,0,0,1,.1,11.08,2.26,2.26,0,0,1-.58.16h-26.7a4.54,4.54,0,0,1-.24-2.37q0-16.26,0-32.52V322.62Z" transform="translate(-73.49 -163.39)"/><path class="cls-5" d="M342.23,498.77h27.48a7.53,7.53,0,0,1,.22,1.21q0,4.33,0,8.67c0,.35,0,.71-.07,1.15a11.22,11.22,0,0,1-3,.16c-1,0-2,0-3,0h-9.05a26.31,26.31,0,0,0,0,7.68c4.79.14,9.62,0,14.53.09a26.54,26.54,0,0,1,.21,5.4c0,1.8,0,3.6,0,5.53a11.58,11.58,0,0,1-1.52.2c-3.69,0-7.37,0-11.06,0h-2.14a33.82,33.82,0,0,0-.18,8.34,9.94,9.94,0,0,0,2.94.15c1,0,2,0,3,0h9.13c.51,1.26.21,2.49.26,3.7s0,2.46,0,3.68a26.14,26.14,0,0,1-.09,3.65,2.69,2.69,0,0,1-.69.19h-26.5a1.84,1.84,0,0,1-.31-.26.32.32,0,0,1-.07-.19q0-23.85,0-47.71Z" transform="translate(-73.49 -163.39)"/><path class="cls-5" d="M459.36,510.05c0,2.63,0,5.14,0,7.65v15.4c0,2.6,0,5.21,0,7.81s.11,5-.1,7.51a116.93,116.93,0,0,1-12.48.07,4,4,0,0,1-.21-2.29q0-16.8,0-33.61v-2.44a11.84,11.84,0,0,0-3.28-.18c-1,0-2,0-3,0H437a65.85,65.85,0,0,1-.08-11.08c1.65-.22,28.31-.3,31.95-.08a28.94,28.94,0,0,1,.17,5.51c0,1.8,0,3.6,0,5.54C465.8,510.12,462.64,509.82,459.36,510.05Z" transform="translate(-73.49 -163.39)"/><path class="cls-5" d="M249.79,410.7h32.07a61.84,61.84,0,0,1,0,11.14c-1.54.07-3.12,0-4.69,0h-4.59a5.55,5.55,0,0,0-.2,2.4q0,16.82,0,33.62v2.17c-.2.24-.23.31-.29.34a.36.36,0,0,1-.2.06c-3.83,0-7.66,0-11.5,0a3.53,3.53,0,0,1-.75-.17c-.13-1.27-.05-2.56-.06-3.84s0-2.46,0-3.69V429.6c0-1.23,0-2.46,0-3.69s0-2.57-.05-4c-1.7-.08-3.27,0-4.85,0H250c-.45-1.89-.15-3.75-.21-5.59S249.79,412.69,249.79,410.7Z" transform="translate(-73.49 -163.39)"/><path class="cls-5" d="M295.93,532.77a112.47,112.47,0,0,1,13.19-.11c.41.38.22.93.35,1.39a18.6,18.6,0,0,0,.76,2.47,3,3,0,0,0,3.18,1.78,3,3,0,0,0,3-2.06,6.16,6.16,0,0,0,.38-1.46c.12-1.22.24-2.44.25-3.66q0-15,0-29.91c0-.77,0-1.55.07-2.3a108.92,108.92,0,0,1,12.54,0c0,.39.1.79.1,1.2q0,15.39,0,30.77a33.21,33.21,0,0,1-.69,6.89,13.88,13.88,0,0,1-8.68,10.34,19.31,19.31,0,0,1-15.4,0c-5.48-2.3-8.3-6.71-9-12.52A23.1,23.1,0,0,1,295.93,532.77Z" transform="translate(-73.49 -163.39)"/><path class="cls-5" d="M264.71,322.69a120.41,120.41,0,0,1,12.64,0,40,40,0,0,1,.12,5.37c0,1.87,0,3.75,0,5.63v21.91c0,1.79,0,3.58,0,5.45,2.51.22,4.89.07,7.26.1s4.76,0,7.24,0a28.08,28.08,0,0,1,.2,5.63c0,1.79,0,3.59,0,5.27a1.82,1.82,0,0,1-.3.25.39.39,0,0,1-.21.06l-24.5,0h-2.13c-.57-.71-.34-1.46-.34-2.15q0-15.93,0-31.88V322.69Z" transform="translate(-73.49 -163.39)"/><path class="cls-5" d="M192.34,234.53h12.55A28.87,28.87,0,0,1,205,238c0,1.16,0,2.32,0,3.47V266c0,1.16,0,2.31,0,3.47a33.27,33.27,0,0,0,.08,3.56,25.75,25.75,0,0,0,3.7.11c1.23,0,2.46,0,3.69,0s2.31,0,3.46,0a29,29,0,0,1,3.62.07,83.41,83.41,0,0,1,.05,11,5.25,5.25,0,0,1-1,.17H193.66c-.42,0-.83-.05-1.22-.08C192.17,282.44,192.08,238.29,192.34,234.53Z" transform="translate(-73.49 -163.39)"/></svg>