<svg id="Layer_1" data-name="Layer 1" xmlns="http://www.w3.org/2000/svg" viewBox="0 0 514.69 362.22"><defs><style>.cls-1{fill:#e48845;}.cls-2{fill:#6a6d72;}</style></defs><title>CPDActionLogo</title><path class="cls-1" d="M342.58,185.34q-16.75-22.54-33.52-45.08c-13.31-17.84-26.66-35.64-39.7-53.94a12,12,0,0,1,2.23,1.55q29,32,57.91,64c7,7.67,14,15.29,21,22.93l.89.71c-.09-.44-.17-.88-.26-1.32-5.78-11.88-11.53-23.77-17.36-35.63Q305.48,81,277.16,23.52c-.06-.12,0-.33.73-.88l82.9,145.47.92-.29-17.79-65.28.77-.29,26.79,65.58.5-.07V5.45l.62,0q5.37,82.2,10.76,164.4l.49.07q9.66-40.85,19.31-81.7l.72.11q-4.32,39.85-8.66,79.72l.54.24Q429.9,103.53,464,38.79l.83.35c-.36,1.07-.65,2.17-1.09,3.2Q434.07,113.16,404.35,184c-.3.7-.49,1.45-.73,2.18-.09.43-.17.86-.26,1.29l.84-.73q15-16,30-32.08,16.23-17.4,32.41-34.85a3.29,3.29,0,0,1,2.12-1.15c-.58,1-1.14,2-1.76,2.9q-22.73,34.28-45.47,68.53c-.55.83-1,1.7-1.52,2.55-.06.25-.12.5-.19.75l.68-.29c9.41-6.51,18.86-13,28.24-19.55q34.27-24,68.51-48a4.82,4.82,0,0,1,2.94-1c-.59.62-1.13,1.3-1.77,1.85q-35.79,30.92-71.6,61.81C434.88,198.47,423,208.82,411,219a9.42,9.42,0,0,1-5.5,2.16c-25.47.14-50.95.42-76.41-.1-8.15-.17-16.27-2.5-24.38-4q-40.74-7.56-81.45-15.24c.42-1.23.85-2.46,1.27-3.7q21.56,1.81,43.09,3.64,25,2.16,50,4.37c1,.08,2,0,3,0l0-.56-94.68-38.41q0-3,0-6l99.4,31.4.53-.71c-1-.88-1.88-1.79-2.87-2.63l-74-62.51c-1.18-1-2.24-2.1-3.36-3.16a5.34,5.34,0,0,0,.39-.44c9.69,6.28,19.4,12.52,29.06,18.84q32.29,21.17,64.56,42.37c.82.54,1.7,1,2.56,1.46l.61.27Z" transform="translate(-5.49 -5.43)"/><path class="cls-2" d="M407.46,366.45c-5.35,0-10.63.13-15.89-.12-.92-.05-2.2-1.55-2.6-2.64-6.8-18.37-13.49-36.77-20.2-55.17-2.48-6.78-4.95-13.57-8-20.28v78H342V234.7c5.61,0,11.2-.11,16.77.13.77,0,1.78,1.64,2.17,2.7q12.25,33.82,24.38,67.7a36.69,36.69,0,0,0,3.43,7.53V234.88h18.73Z" transform="translate(-5.49 -5.43)"/><path class="cls-2" d="M224.48,198.12c-.42,1.24-.85,2.47-1.27,3.7-4.85,12.21-14.23,18.3-27,18.92-10.42.51-20.88.1-31.6.1V89.75a5.66,5.66,0,0,1,1.32-.37c9.7,0,19.42-.32,29.09.23,19.43,1.12,30.24,12.62,30.62,32.23.25,13.11.14,26.23.19,39.34q0,3,0,6Q225.18,182.65,224.48,198.12ZM206.61,155c0-11.36.14-22.71,0-34.07-.1-7.58-3.66-12.41-10-13.2-4.2-.53-8.52-.1-13.06-.1v40.25c0,.71,0,1.42,0,2.13v53.35c3.61,0,6.8.21,10,0,4.06-.34,8.14-1,10.43-5.08l.92-1.8c.57-2.09,1.6-4.17,1.63-6.26.16-10.33.05-20.65,0-31Z" transform="translate(-5.49 -5.43)"/><path class="cls-2" d="M262.72,300.68c0-12-.16-24,0-36,.27-15.79,9.8-27.12,25.17-30.37,19.37-4.1,37.51,9.72,37.81,29.47.39,24.46.33,48.93,0,73.38-.2,16.69-12.23,29.1-28.55,30.4-16.88,1.35-30.68-8.85-33.93-25.25a45,45,0,0,1-.58-8.54c-.07-11,0-22,0-33.06Zm44.36.21c0-11.79.11-23.58,0-35.37-.11-7.95-5.3-13-12.82-13s-12.61,5-12.66,12.79q-.22,35.37,0,70.75c0,6.26,3.33,10.46,8.54,12,9.17,2.75,16.87-3,16.95-12.82C307.16,323.82,307.08,312.36,307.08,300.89Z" transform="translate(-5.49 -5.43)"/><path class="cls-2" d="M79.78,366.27H61.11c-.91-4.62-1.81-9.23-2.73-13.85s-1.85-9.23-2.83-14.14c-8.18,0-16.2-.07-24.22.13-.69,0-1.72,1.71-1.94,2.77-1.74,8.28-3.31,16.59-5,25.06H5.49C15.27,322.45,25,278.81,34.86,234.72c4.91,0,9.83-.09,14.74.11.56,0,1.33,1.52,1.54,2.44Q57.47,265.13,63.67,293q7.81,35,15.62,69.9C79.52,363.93,79.6,365,79.78,366.27ZM52,320.29,43,273.53l-.6-.1c-3,15.57-6.05,31.13-9.11,46.86Z" transform="translate(-5.49 -5.43)"/><path class="cls-2" d="M108.15,169.71V221H89.5V89.83a9.84,9.84,0,0,1,1.83-.35c9.92,0,19.85-.16,29.76.16,15,.47,25.39,9.2,28.18,23.93a82.07,82.07,0,0,1-.12,32.19c-3.12,14.92-13.8,23.53-29,23.94C116.27,169.8,112.42,169.71,108.15,169.71Zm.15-18c4.42,0,8.72.38,12.92-.09,6.74-.76,10.2-3.67,10.73-10.46a179.37,179.37,0,0,0-.21-24.31,9.32,9.32,0,0,0-6.54-8.42c-5.51-1.91-11.21-1.29-16.9-1.06Z" transform="translate(-5.49 -5.43)"/><path class="cls-2" d="M73.7,127.13H55c0-2.42.09-4.71,0-7-.41-8.44-5.77-13.46-13.5-12.74-4.6.44-7.63,2.74-8.75,7.24a33.17,33.17,0,0,0-.89,7.83c-.07,22.27,0,44.54,0,66.81a32.69,32.69,0,0,0,.15,4c.81,6.28,4.59,9.84,10.64,10.13s10.72-3.22,11.84-9.26a99.22,99.22,0,0,0,.86-10.32H73.63c3.07,21.21-9.37,34.79-23.86,37.89-19.82,4.24-36.59-8.43-36.87-28.6-.34-25.24-.29-50.49,0-75.73.17-16.24,12.78-28.57,28.84-29,17.51-.47,30.53,10.7,31.92,27.55C74,119.5,73.7,123.13,73.7,127.13Z" transform="translate(-5.49 -5.43)"/><path class="cls-2" d="M149.19,272.37H130.41c0-1.88.05-3.7,0-5.52-.12-4.18-1.08-8-4.11-11.19-4.83-5-16.65-4.3-18.36,5a45.08,45.08,0,0,0-.74,7.86c-.06,21.84,0,43.67,0,65.5,0,1.43,0,2.87.16,4.29.6,6.41,4.24,10,10.31,10.32,6.63.3,11.24-3.14,12.25-9.47.51-3.24.53-6.55.78-10h18c4.34,24.42-14.89,43.3-38.55,37.54-13.48-3.28-21.7-12.89-21.86-27q-.45-38.87,0-77.73c.17-15.21,12.37-27.18,27.64-28,19.44-1.09,33,11.47,33.27,30.94C149.22,267.19,149.19,269.6,149.19,272.37Z" transform="translate(-5.49 -5.43)"/><path class="cls-2" d="M196,366.25H176.88V252.58H155.29V235h62.3v17.42H196Z" transform="translate(-5.49 -5.43)"/><path class="cls-2" d="M226.69,234.86h18.65V366.25H226.69Z" transform="translate(-5.49 -5.43)"/><path class="cls-1" d="M245.53,123.57l-1-.37.12-.39,1.3.32A5.34,5.34,0,0,1,245.53,123.57Z" transform="translate(-5.49 -5.43)"/><path class="cls-1" d="M183.58,147.87l23,7.12-.06,4.19-23-9.18C183.58,149.29,183.58,148.58,183.58,147.87Z" transform="translate(-5.49 -5.43)"/><path class="cls-1" d="M204,198.22,192.8,196l.06-.61,12,1Z" transform="translate(-5.49 -5.43)"/></svg>