<svg xmlns="http://www.w3.org/2000/svg" viewBox="0 0 510.236 351.496"><title>DFA_Logo_Vertical</title><g style="isolation:isolate"><g id="bf2c5132-363e-4662-8949-db6bc5318362" data-name="Vertical Color"><g id="f982f721-1872-40ac-8b13-f3d2e69be923" data-name="Outlines"><path d="M14.322,217.685H24.21c7.869,0,14.277,1,20.475,6.036,5.989,4.909,8.7,11.608,8.7,19.036A23.614,23.614,0,0,1,44.824,261.4c-6.268,5.307-12.536,6.3-20.753,6.3H14.322Zm10.1,44.839c6.407,0,11.77-.862,16.574-5.174a19.78,19.78,0,0,0-.278-29.649c-4.805-4.046-10.1-4.842-16.3-4.842H20.171v39.665Z" style="fill:#272425"/><path d="M68.435,217.685H95.664v5.174H74.285v14.857H95.037v5.174H74.285v19.634H95.664V267.7H68.435Z" style="fill:#272425"/><path d="M119.344,214.833l19.082,41.987,19.151-41.987L168.233,267.7h-5.99l-6.755-33.828h-.139l-16.923,35.885L121.573,233.87h-.139L114.678,267.7h-5.989Z" style="fill:#272425"/><path d="M233.907,242.757c0,14.394-12.4,25.8-27.37,25.8s-27.368-11.409-27.368-25.8c0-14.327,12.4-25.934,27.368-25.934S233.907,228.43,233.907,242.757Zm-48.888-.066c0,11.276,9.61,20.7,21.518,20.7s21.52-9.419,21.52-20.7c0-11.342-9.471-20.694-21.52-20.694S185.019,231.349,185.019,242.691Z" style="fill:#272425"/><path d="M288.787,228.63A23.009,23.009,0,0,0,272.771,222c-11.7,0-21.172,9.683-21.172,20.694s9.541,20.7,21.311,20.7a23.537,23.537,0,0,0,15.877-6.632v6.9a27.955,27.955,0,0,1-15.669,4.908c-14.833,0-27.369-11.475-27.369-25.67,0-14.327,12.327-26.067,27.369-26.067a26.2,26.2,0,0,1,15.669,4.908Z" style="fill:#272425"/><path d="M311.423,267.7h-5.849V217.685h7.59c9.958,0,19.221,2.521,19.221,13.8,0,7.694-5.084,13.133-13.162,13.8l16.714,22.42h-7.173l-15.878-21.955h-1.463Zm0-26.863h1.811c6.616,0,13.3-1.2,13.3-8.955,0-8.225-6.337-9.021-13.371-9.021h-1.741Z" style="fill:#272425"/><path d="M358.085,253.5,351.748,267.7h-6.407l24.235-52.4,23.609,52.4h-6.477l-6.2-14.194ZM369.437,228.3l-8.984,20.032h17.758Z" style="fill:#272425"/><path d="M445.834,228.63A23.009,23.009,0,0,0,429.818,222c-11.7,0-21.171,9.683-21.171,20.694s9.54,20.7,21.309,20.7a23.538,23.538,0,0,0,15.878-6.632v6.9a27.955,27.955,0,0,1-15.669,4.908c-14.833,0-27.369-11.475-27.369-25.67,0-14.327,12.327-26.067,27.369-26.067a26.2,26.2,0,0,1,15.669,4.908Z" style="fill:#272425"/><path d="M457.886,217.685h6.755l13.371,22.287,13.371-22.287h6.755l-17.2,28.522V267.7h-5.85V246.207Z" style="fill:#272425"/><path d="M17.585,290.9v18.175H34.1v2.984H17.585v25.869H14.4V287.915H34.566V290.9Z" style="fill:#272425"/><path d="M99.3,312.921c0,14.062-11.873,25.669-25.934,25.669s-25.936-11.607-25.936-25.669a26,26,0,0,1,25.936-25.669C87.428,287.252,99.3,298.859,99.3,312.921Zm-48.685,0a22.751,22.751,0,1,0,22.751-22.685A22.9,22.9,0,0,0,50.616,312.921Z" style="fill:#272425"/><path d="M138.368,337.927h-3.649L118.4,314.248H116.81v23.679h-3.184V287.915h6.236c4.046,0,8.025.066,11.408,2.52,3.582,2.521,5.041,6.5,5.041,10.745,0,8.69-6.036,13.2-14.327,13.068Zm-17.512-26.665c3.118,0,6.235-.131,8.756-2.321a10.016,10.016,0,0,0,3.515-7.893c0-3.714-1.724-7.429-5.306-9.021-2.654-1.26-6.036-1.128-8.954-1.128H116.81v20.363Z" style="fill:#272425"/><path d="M186.852,323.733l-6.036,14.194h-6.1l23.083-52.4,22.487,52.4h-6.169l-5.9-14.194Zm10.811-25.206-8.556,20.032h16.914Z" style="fill:#272425"/><path d="M238.786,285.062l18.175,41.987L275.2,285.062l10.149,52.865h-5.7L273.212,304.1h-.133l-16.118,35.885L240.91,304.1h-.133l-6.435,33.828h-5.7Z" style="fill:#272425"/><path d="M298.283,287.915h25.935v5.174H303.855v14.857H323.62v5.174H303.855v19.634h20.363v5.173H298.283Z" style="fill:#272425"/><path d="M345.839,337.927h-5.571V287.915h7.23c9.485,0,18.307,2.52,18.307,13.8,0,7.694-4.842,13.132-12.536,13.8l15.919,22.42h-6.832l-15.123-21.955h-1.394Zm0-26.863h1.725c6.3,0,12.67-1.194,12.67-8.955,0-8.225-6.036-9.02-12.736-9.02h-1.659Z" style="fill:#272425"/><path d="M388.488,337.927h-5.572V287.915h5.572Z" style="fill:#272425"/><path d="M443.342,298.859a21.407,21.407,0,0,0-15.256-6.633c-11.143,0-20.164,9.684-20.164,20.695s9.087,20.695,20.3,20.695a21.893,21.893,0,0,0,15.123-6.633v6.9a25.753,25.753,0,0,1-14.924,4.909c-14.129,0-26.068-11.475-26.068-25.67a26.158,26.158,0,0,1,26.068-26.068,24.141,24.141,0,0,1,14.924,4.909Z" style="fill:#272425"/><path d="M466.822,323.733l-6.037,14.194h-6.1l23.082-52.4,22.486,52.4h-6.169l-5.9-14.194Zm10.812-25.206-8.557,20.032h16.915Z" style="fill:#272425"/></g><g id="ef6bbb73-2ad4-4a58-956c-12d4c3fb5595" data-name="DFA"><g id="bbb40e5f-227a-4836-a75d-ed877a4b6a15" data-name="A"><path d="M452.92,189.183h46.911L400.63,11.6,352.511,94.99l-53.83,94.193H345.6l27.988-48.973h51.844ZM399.549,80.094l16.36,29.334H382.6Z" style="fill:#c18b40"/></g><g id="ebd4b18c-ecf3-413c-9853-a829fb086722" data-name="F"><path d="M206.474,151.466A101.611,101.611,0,0,1,166.7,189.542h72.569l21.983-38.076Z" style="fill:#b0312a"/><path d="M218.4,80.363a101.153,101.153,0,0,1,0,40.085H323l23.143-40.085Z" style="fill:#b0312a"/><path d="M167.73,11.784a101.628,101.628,0,0,1,38.758,37.561H364.051l21.686-37.561Z" style="fill:#b0312a"/><path d="M167.73,11.784c26.073,12.1,52.788,46.572,52.9,88.878.107,42.249-27.317,75.767-52.894,88.88h71.541c21.983-38.076,35-55.584,34.516-89.136C272.969,43.128,228.027,11.784,167.73,11.784Z" style="fill:#272425;opacity:0.25;mix-blend-mode:multiply"/></g><path id="a483d227-7e6f-441c-967b-8814527f3e9a" data-name="D" d="M116.629,11.425H15.259V189.363h101.37a88.969,88.969,0,0,0,0-177.938ZM142.442,154.74l-37.987-27.6-37.986,27.6,14.51-44.655-37.987-27.6H89.946L104.455,37.83l14.51,44.656h46.954l-37.987,27.6Z" style="fill:#006eb3"/></g></g></g></svg>