<svg id="Layer_1" data-name="Layer 1" xmlns="http://www.w3.org/2000/svg" viewBox="0 0 513.37 366.71"><title>DreamDefendersLogo</title><path d="M264.83,10.41q119.61,0,239.21,0c3.56,0,7.08,0,10.49,1.32,3.79,1.43,6.38,3.81,6.86,8a60,60,0,0,1,.58,6.67c0,19.24.48,38.49-.06,57.71-1.28,45-.3,90-.58,135-.07,10.44-4.76,17.86-13.24,23.07-9.38,5.77-19,11.13-28.53,16.66-10,5.81-20,11.59-30,17.43Q424.43,291,399.34,305.74c-15.93,9.37-31.82,18.8-47.76,28.15-10.62,6.23-21.32,12.33-31.95,18.56-10.46,6.13-20.88,12.35-31.32,18.54-.64.38-1.27.77-1.9,1.18-9.89,6.41-19.81,6.52-30.06.61-12.29-7.07-24.75-13.85-37.16-20.72-12.08-6.69-24.19-13.32-36.28-20q-24.74-13.68-49.44-27.41c-11.76-6.5-23.55-12.93-35.32-19.42q-26.22-14.48-52.43-29c-7.19-4-14.46-7.77-21.65-11.74-9.58-5.27-15-13.24-15.23-24.35-.05-1.68,0-3.36,0-5q0-93.84,0-187.68a51.72,51.72,0,0,1,.26-6.71c.64-4.92,3.31-8.24,8.23-9.47a27.74,27.74,0,0,1,4.95-.79c2.23-.14,4.48-.05,6.72-.05Zm202.73,226c-2-2.65-4.45-2.56-6.86-2.57-7.84,0-15.69.09-23.53-.05a64,64,0,0,0-26.7,5.25,209.58,209.58,0,0,0-19.84,10.31c-13.5,7.6-26.87,15.43-40.33,23.1q-20.67,11.77-41.42,23.42c-8.46,4.76-16.81,9.72-25.47,14.08-9.64,4.86-19.46,4.44-29-.69-5.1-2.73-10.11-5.63-15.21-8.36-18.42-9.88-36.88-19.69-55.28-29.59q-25.87-13.93-51.65-28a73.86,73.86,0,0,0-37-9.46c-8,.08-16.06,0-24.09,0-1.49,0-3,0-4.47.16a3.61,3.61,0,0,0-3.48,2.86,16,16,0,0,0,2.31,2.67,50.69,50.69,0,0,0,5.61,3.69c6.82,3.87,13.68,7.66,20.5,11.52q23.88,13.49,47.74,27c16.71,9.51,33.36,19.1,50.06,28.61q23.59,13.44,47.23,26.8c6.49,3.68,13.06,7.26,19.43,11.14,6.58,4,21.3,4,29-.82,13.92-8.7,28.2-16.81,42.31-25.22,14.91-8.88,29.77-17.83,44.67-26.73q37.24-22.26,74.52-44.48c5.13-3.06,10.35-6,15.45-9.07C464.31,240.68,466.83,239.55,467.56,236.43Zm-317.79-8.18c.12,1.87,1.52,2.49,2.8,3.17q28.34,15.27,56.69,30.5c8.88,4.76,17.85,9.37,26.74,14.12,7.4,4,14.76,8,22.11,12.06,6.8,3.75,13.4,3.54,20.17-.33,13.6-7.79,27.34-15.35,41-23q23.94-13.39,47.87-26.78c3.91-2.2,7.76-4.49,11.6-6.78,1.08-.64,2.38-1.22,2.09-3.3a19.37,19.37,0,0,0-3.5-.68c-4.48-.09-9-.06-13.44,0a38.61,38.61,0,0,0-17.81,4.23q-16.87,8.78-33.67,17.72c-11.2,6-22.39,12-33.45,18.2-8,4.49-15.57,4.19-23.29-.49-3.35-2-6.89-3.74-10.38-5.51-11.48-5.82-23-11.58-34.47-17.42-7.48-3.81-14.92-7.72-22.37-11.58A45.35,45.35,0,0,0,175.8,228c-8.16-1.53-16.36-.74-24.55-.63C150.78,227.42,150.33,227.92,149.77,228.25Zm332.81-96.37c.08-2.44.2-4.46.2-6.49q0-17.92,0-35.86c0-11.4,0-22.79,0-34.19,0-2,.55-4.12-1.15-6.05H468.48c-3,3.19-4.92,6.84-7.14,10.27-5.27,8.15-10.46,16.36-15.75,24.5-.87,1.34-1.44,3.11-3.63,3.45a7.91,7.91,0,0,1-1.48-1.42c-6.26-9.73-12.52-19.47-18.69-29.26a42.82,42.82,0,0,0-5.85-7.78c-3.63,0-7.36-.06-11.08.05a14.53,14.53,0,0,0-3.31.94c-.07,2.23-.18,4.26-.18,6.3q0,19.6,0,39.22c0,10.28,0,20.55,0,30.82,0,1.81-.47,3.78,1.27,5.57,4,.48,8.12,1.09,12.52-.59.08-2.21.2-4.24.2-6.27,0-15.14,0-30.27,0-45.4,0-1.76-.55-3.67,1.27-6.06C425.46,86.05,433,98.81,442,111a29.27,29.27,0,0,0,2.13-2.38c1.68-2.47,3.27-5,4.93-7.48,5.5-8.23,11-16.46,16.57-24.63A17.16,17.16,0,0,1,468.49,74c1.44,2.1.91,4,.92,5.79,0,15.31,0,30.63,0,46,0,2-.46,4.11,1,6.39A45.25,45.25,0,0,0,482.58,131.88ZM174.22,103.47c2,2.78,4,5.48,5.93,8.21,4,5.63,8.08,11.19,11.9,16.93a7.85,7.85,0,0,0,7.54,3.77c2.6-.13,5.22,0,7.83-.07a17.58,17.58,0,0,0,2.93-.69c-1.06-1.7-1.76-3-2.6-4.15-5.33-7.42-10.73-14.79-16-22.25-.9-1.28-2.5-2.41-1.78-4.72,2.1-1.09,4.45-2.2,6.68-3.5,7.3-4.27,11.43-10.52,11.61-19.12,0-1.87.08-3.74,0-5.59-.51-8.54-4.74-14.75-12.07-18.9-5.49-3.11-11.56-4.23-17.75-4.31-11-.15-22-.07-33,0a32.62,32.62,0,0,0-4.09.6c-.07,2.26-.18,4.28-.18,6.3q0,30.49,0,61c0,3.73-.05,7.46.06,11.19a23.27,23.27,0,0,0,.87,4c4.42,0,8.61,1,12.78-.76.88-4.81.23-9.48.46-14.11s-.64-9.26.58-13.71C160.21,102.21,168.64,102.13,174.22,103.47ZM48.63,131.92a21.65,21.65,0,0,0,2.94.41c9,0,17.93.26,26.88-.08A55.73,55.73,0,0,0,92.77,130C109.22,124.89,119,113.77,122,96.61a42.74,42.74,0,0,0-.09-12.22A36.56,36.56,0,0,0,112,62.91c-8.83-9.42-20-13.39-32.62-13.82-9-.3-17.92-.08-26.88-.05a37.68,37.68,0,0,0-4,.45A31.49,31.49,0,0,0,48,53C47.41,67.1,47.82,126.86,48.63,131.92ZM242.07,96.78c2.48-.09,4.51-.21,6.54-.22,9.71,0,19.41,0,29.12,0,1.62,0,3.24-.25,4.73-.37,1.05-5.09,1-6.44-.06-10.88-1.79-1.2-3.9-.75-5.9-.76-9.34,0-18.67,0-28,0-2.21,0-4.51.28-6.83-1.64-1.62-4.69-.56-9.95-.79-15.09-.09-1.85-.13-3.77,1.84-5.67,1.55-.07,3.57-.24,5.59-.24,11.2,0,22.4,0,33.6,0,2,0,4.11.46,6.44-1.06a29.7,29.7,0,0,0-.12-11.3,24.19,24.19,0,0,0-3-.4q-27.17,0-54.33,0a16.4,16.4,0,0,0-3.34.77c-.06,2.26-.15,4.3-.15,6.33q0,17.08,0,34.17c0,11.76,0,23.53,0,35.29,0,2-.45,4.12,1.1,6.22a25.15,25.15,0,0,0,3.59.48q26.33.06,52.65,0a19,19,0,0,0,3.56-.63c1-6,.92-8.19-.68-12-1.87,0-3.9-.14-5.94-.14-11.2,0-22.4,0-33.6,0-2,0-4.13.39-6.23-.95a7.22,7.22,0,0,1-.88-2.36q-.17-7.83-.06-15.67C241,99.45,241.57,98.41,242.07,96.78ZM336.88,49c-1.84,4.16-3.5,7.89-5.14,11.62q-15,34-29.94,68.08a19,19,0,0,0-.71,3.33,49.85,49.85,0,0,0,12.92-.13c4.27-5.78,5.06-13.47,9.73-19.57,6.44,0,12.94-.12,19.44-.06,6.67.07,13.36-.37,19.92.32,4.12,6.24,5.32,13.44,8.88,19.44,4.77.37,9.16.66,14-.18-.56-1.52-.94-2.72-1.43-3.86Q368.4,90.82,352.2,53.66C351.47,52,351,50.09,349.08,49ZM283.42,151.62a8.77,8.77,0,0,0-7.41.18c-.07,1.91-.18,3.75-.18,5.59,0,7.46,0,14.92,0,22.38,0,1,.26,2.35-1.92,2.72-8.2-10.2-16-21.09-24.47-31.22-2.48-.4-4.66-.65-6.94.31a18.35,18.35,0,0,0-.44,2.82q0,20.41,0,40.84a13,13,0,0,0,.73,3,8.06,8.06,0,0,0,6.48-.35c.09-1.83.24-3.66.25-5.48,0-7.84,0-15.67,0-23.5,0-1-.28-2.31,1.66-2.82,1.1,1.18,2.46,2.42,3.57,3.86,3.64,4.73,7.13,9.56,10.78,14.28s7.62,9.59,11.26,14.16c2.67.37,4.84.89,6.79-.37C284.4,190.5,284.31,156.57,283.42,151.62Zm154.92,46.92c-.95-1.6-1.6-2.88-2.43-4-2.37-3.34-4.86-6.6-7.2-10a23.58,23.58,0,0,1-1.64-3.52c1.88-1.15,3.52-2,5-3.08,7.77-5.6,7.76-18,0-23.64a17.5,17.5,0,0,0-10.47-3.36c-6.33,0-12.67,0-19,0a20.6,20.6,0,0,0-3.28.55,17.94,17.94,0,0,0-.52,2.92q0,20.4,0,40.81a12.29,12.29,0,0,0,.77,3,8.12,8.12,0,0,0,6.35-.21c1.48-5-.53-10.39,1.34-15.41,3.45-1.11,6.73-.81,10.19-.29,5.12,4.61,7.34,11.58,12.89,16.48,1.4,0,3.06,0,4.73,0C436,198.8,436.91,198.67,438.34,198.54Zm-141.08-.78c.92.49,1.24.81,1.56.81,6.88,0,13.77.34,20.63,0a21.68,21.68,0,0,0,14.43-6.65c6.66-6.88,8.26-15.28,5.59-24.33A23.58,23.58,0,0,0,317.8,151c-5.76-.23-11.54-.1-17.31,0a15.71,15.71,0,0,0-3.23.75Zm-248.75-.14c1.08,1.38,2.64,1.18,4.1,1.19,4.66,0,9.31,0,14,0a25.5,25.5,0,0,0,15.12-4.93c7.38-5.08,10-12.55,9.39-20.87C90,159.48,78.92,151.08,67.22,151c-5-.06-10.06-.07-15.08,0a19.76,19.76,0,0,0-3.55.64C47.8,156.58,47.78,192.88,48.51,197.62Zm147.13,1c6,.4,11.53.23,17.1.17s11.48.48,17-.38c1.17-2.2,1.23-3.91-.21-5.92-1.71-.07-3.55-.21-5.38-.23-5.41,0-10.82,0-16.23,0a29.15,29.15,0,0,1-4.12-.61c-1.71-3-1-5.82-1.13-8.56a4.8,4.8,0,0,1,1.73-4.49c1.36-.06,3.2-.19,5-.2,4.48,0,9,0,13.44,0a28.14,28.14,0,0,0,3.7-.49,7.71,7.71,0,0,0-.2-6.5c-7.53-.75-15.17.33-23.11-.68-.6-4.23-1.45-8.14.65-12.29,1.91-.08,3.75-.2,5.59-.21,5.6,0,11.19,0,16.79,0a28,28,0,0,0,3.69-.54c.65-2.3.81-4.25-.34-6.45-5.61-.41-11.18-.26-16.74-.18-5.72.08-11.48-.55-17.14.43a7.1,7.1,0,0,0-.59,1.83q-.07,21.27-.06,42.53A19.5,19.5,0,0,0,195.64,198.63ZM352,151.51c-.39,5.59-.15,10.8-.2,16,0,5-.11,10.07,0,15.11s-.61,10.36.58,15.64a17,17,0,0,0,2.88.52q14.26.06,28.54,0a13.86,13.86,0,0,0,3-.69c.75-2.11,1.05-3.87-.68-5.56-8.38-.83-17,.38-25.56-.7a18.86,18.86,0,0,1-.39-12.48c2-1.36,3.93-.95,5.76-1,4.66-.06,9.32,0,14-.06a21.54,21.54,0,0,0,3.55-.6c.67-3.51.64-3.51-.63-6.49-3.54,0-7.24,0-10.94-.16-3.85-.17-7.78.68-11.73-.72a19.35,19.35,0,0,1,.24-11.84c1.67-.12,3.3-.33,4.94-.34,5.22,0,10.44,0,15.66,0,1.83,0,3.75.4,5.61-.91a6.39,6.39,0,0,0,.09-5.66,7,7,0,0,0-1.7-.54Q370,151,354.86,151A18.26,18.26,0,0,0,352,151.51ZM103.69,198.69c4.06.05,7.77.12,11.48.14,3.92,0,7.84.12,11.75,0,3.65-.13,7.4.69,10.89-.67.76-2.09.94-3.85-1-5.66-1.54-.06-3.38-.19-5.22-.2-5.23,0-10.45,0-15.67,0-1.65,0-3.39.26-5-1.34-.59-3.88-1.16-8,.58-12.36,2.09-.07,3.93-.17,5.78-.18,4.29,0,8.58,0,12.87,0a24.86,24.86,0,0,0,3.62-.61c.72-2.33.9-4.27-.51-6.5-3.64,0-7.35,0-11-.16s-7.41.64-11.4-.84c-.26-3.89-1.08-7.66.6-11.78,1.88-.1,3.71-.28,5.53-.29,5.41,0,10.82,0,16.23,0a31.47,31.47,0,0,0,3.65-.43c.9-3.23.89-3.23-.16-6.45-3.51-.59-7.22-.26-10.9-.31s-7.47-.11-11.19,0-7.41-.6-11.06.64a10.51,10.51,0,0,0-.56,2.31q0,21,0,42A14,14,0,0,0,103.69,198.69Zm342.56-6.48a30.09,30.09,0,0,0,19.56,7.57,20.18,20.18,0,0,0,9.19-2.05c5.11-2.31,7.62-6.21,7.81-11.85s-2.48-9.28-7.15-11.63a62.73,62.73,0,0,0-8.38-3c-2.47-.83-5-1.43-7.45-2.36s-4.11-2.68-4-5.47,1.77-4.45,4.21-5.36a14.43,14.43,0,0,1,3.79-.83,15.26,15.26,0,0,1,8.1,1.76c1.64.81,3.3,1.57,4.82,2.29,2.67-2.21,2.65-2.23,3.54-5a6.43,6.43,0,0,0-.47-1,2.71,2.71,0,0,0-.77-.81c-7.6-4.69-15.54-6.08-23.89-2.14-5.44,2.56-7.13,7.2-6.92,12.91.19,5.29,2.76,8.79,7.66,10.54,3.15,1.12,6.42,1.93,9.6,3a34.55,34.55,0,0,1,6.75,2.6,5.7,5.7,0,0,1-.2,10.06c-2.63,1.49-5.59,2.36-8.6,1.45a87.08,87.08,0,0,1-8.82-3.38,38.36,38.36,0,0,1-4.1-2.39Zm-296.54,5.95a9.18,9.18,0,0,0,7.44-.16c-.1-4.3-.19-8.55-.3-12.8a7.7,7.7,0,0,1,1.69-5.83c6.94-1.67,14.69.4,22-1.15.72-3.06.72-3.06-.25-5.72-7.25-1.13-14.75.33-21.92-.81a14,14,0,0,1,.13-13.21c4.08-.58,8.36-.18,12.62-.3s8.52.27,12.78-.29c1.11-2.44,1.2-4.48-.11-6.58a15.28,15.28,0,0,0-2.31-.35c-9.51,0-19,0-28.54,0a13.24,13.24,0,0,0-3,.68C149,156.12,148.85,191.72,149.71,198.16ZM265.48,229.1l-4.32,7-7.83,1.89,5,6.22c.88,2.86-1.41,5.15.12,7.71l6.93-2.85,7.52,3c-.31-2.89-.55-5.22-.76-7.18,1.07-3,4.23-4.09,5-7.11-2.91-.94-6-.38-8.3-2.72Z" transform="translate(-8.81 -10.38)"/><path d="M156.18,62.37a33,33,0,0,1,3.52-.45c6.33,0,12.66-.11,19,0a22.83,22.83,0,0,1,6.55,1.16c5.91,2,9.09,6.55,9.09,12.66,0,6.41-3.29,11.35-9.09,13.33a20.35,20.35,0,0,1-6,1.18c-6.89.14-13.78.06-20.67,0a13.59,13.59,0,0,1-2.38-.47,12.08,12.08,0,0,1-.83-2.53C154.78,80.47,155.22,66.36,156.18,62.37Z" transform="translate(-8.81 -10.38)"/><path d="M62.22,118.66c-1.08-5.11-1.5-36-.83-52.08A36,36,0,0,1,62,62.64,18,18,0,0,1,65.38,62c5.4-.07,10.84-.38,16.21,0,11.56.92,20.47,6.45,24.28,17.59,3.59,10.47,3.09,20.91-4.52,30.07a26.16,26.16,0,0,1-14.12,8.47,54.76,54.76,0,0,1-10.5,1.21c-3.34.19-6.71.1-10.06,0A35,35,0,0,1,62.22,118.66Z" transform="translate(-8.81 -10.38)"/><path d="M343.9,67.29c4.41,8.92,8,18.31,12.17,27.4a21.88,21.88,0,0,1,1,3.85,8.54,8.54,0,0,1-2.29.74q-11.48.06-23,0a8.54,8.54,0,0,1-2.21-.74,6.94,6.94,0,0,1,.15-2.25Q336,82,342.5,67.71C342.59,67.51,343.15,67.51,343.9,67.29Z" transform="translate(-8.81 -10.38)"/><path d="M406.77,173.86c-.24-5-.82-9.93.41-15a22.51,22.51,0,0,1,3.38-.59q4.74-.1,9.47,0a15,15,0,0,1,3.84.55A8.43,8.43,0,0,1,430,166c.23,2.93-2.06,6.56-5.17,8a10.24,10.24,0,0,1-3.71,1.11c-4.07.12-8.15,0-12.23,0C408.41,175,407.94,174.51,406.77,173.86Z" transform="translate(-8.81 -10.38)"/><path d="M305.52,158.46c4.86-.38,9.52-.72,14.09.15,7.06,1.34,12,7.27,12.9,15.06.77,6.38-3.25,13.55-9.28,16.55-4.57,2.27-11.78,2.69-17.6.95-1.82-3.37-.75-7.17-.93-10.81s-.12-7.08,0-10.62S304.13,162.34,305.52,158.46Z" transform="translate(-8.81 -10.38)"/><path d="M56.2,191.05a7.55,7.55,0,0,1-.53-2q0-14,0-27.93a10.1,10.1,0,0,1,.64-2.33c5-1,10-1.21,14.88.19,7.58,2.18,12.07,9,11.59,17.05-.45,7.66-4.53,13.64-12.82,15.47A25.89,25.89,0,0,1,56.2,191.05Z" transform="translate(-8.81 -10.38)"/></svg>