<svg id="Layer_1" data-name="Layer 1" xmlns="http://www.w3.org/2000/svg" viewBox="0 0 592.87 303.36"><title>DreamDefendersFightPacLogo</title><path d="M309,550.33c-.45-.12-.89-.28-1.35-.36a23.61,23.61,0,0,1-7.67-2.81Q280,536.09,260,525c-15.62-8.63-31.2-17.33-46.9-25.82-11.9-6.43-23.68-13.05-35.43-19.74-5.48-3.12-11.11-6-16.67-9a6.15,6.15,0,0,1-.66-.37,2.42,2.42,0,0,0-1.93-.39c-1.17.19-2.36.24-3.54.34a9.72,9.72,0,0,1-3.63-.4c-1.41-.43-2.84-.81-4.26-1.21a12.47,12.47,0,0,1-4.63-2.49,3.64,3.64,0,0,0-1.61-.79c-1.51-.34-3-.75-4.48-1.23a8.15,8.15,0,0,1-3.85-2.86c-.4-.51-.89-.94-1.31-1.43-1.14-1.34-2.31-2.66-3.37-4.07a7,7,0,0,1-1.26-3.85,1.08,1.08,0,0,0-.58-.95,25.76,25.76,0,0,1-5.94-4.66,10.18,10.18,0,0,0-.66.91,26.67,26.67,0,0,1-3.82,5.09,4,4,0,0,0-.74,1.18,21.61,21.61,0,0,1-2.47,4.43,2.1,2.1,0,0,0-.32.8,10.85,10.85,0,0,1-2.53,4.72,30.46,30.46,0,0,1-3.44,3.28,8.08,8.08,0,0,1-7.4,1.19c-.39-.1-.75-.28-1.14-.34a4.18,4.18,0,0,0-1.36-.09,17.51,17.51,0,0,1-6.88-.21,8.55,8.55,0,0,1-6.54-7.48,27.87,27.87,0,0,1,.11-6.26c.12-1.33.37-2.64.55-4a9.62,9.62,0,0,1,1.23-3.56,5.56,5.56,0,0,0,.47-1.19,23.85,23.85,0,0,1,1.06-3.39c1.55-3.14,2.62-6.48,3.93-9.71.43-1.07.8-2.17,1.27-3.22s.91-1.88,1.41-2.79a14.31,14.31,0,0,0,1.87-4.34,11.2,11.2,0,0,1,1.6-3.75,17.73,17.73,0,0,0,1.82-4,37.71,37.71,0,0,1,5.28-10.72,3.26,3.26,0,0,0,.48-1.17,16.07,16.07,0,0,1,1.53-4.26,5.8,5.8,0,0,0,.4-1,11.33,11.33,0,0,1,2-3.79,4.61,4.61,0,0,0,.57-1c1.31-3.09,2.57-6.2,3.93-9.25.5-1.11,1.1-2.17,1.51-3.33a7.71,7.71,0,0,1,1.11-1.84,5.7,5.7,0,0,0,1.26-3.8c-.12-1.47,0-2.95,0-4.54-.36.07-.63.1-.89.17a154.26,154.26,0,0,1-15.42,3.82,9.64,9.64,0,0,0-2.93.93,4.22,4.22,0,0,1-1.65.5c-2.73.23-5.36,1.16-8.12,1.12a1.26,1.26,0,0,0-.7.22,8.43,8.43,0,0,1-4.8,1.44,19.28,19.28,0,0,0-4.65.93c-1.08.31-2.15.63-3.21,1a1.47,1.47,0,0,0-.73.54c-1.14,1.84-2.24,3.7-3.35,5.56-.08.15-.15.31-.32.66a5.7,5.7,0,0,0,1.27-.23A20.75,20.75,0,0,1,75.78,384c1.91-.34,3.81-.79,5.68-1.31A12.28,12.28,0,0,1,94,385.62a18.36,18.36,0,0,0,1.8,1.35c.56.41,1.17.74,1.68,1.19a20.4,20.4,0,0,1,4.83,6.33,9.33,9.33,0,0,1-3.93,12.41,5.54,5.54,0,0,0-1.06.73,9.19,9.19,0,0,1-4,2.3l-10.94,3c-.93.26-1.82.67-2.76.91a27.58,27.58,0,0,0-6.14,1.94,3,3,0,0,1-1.36.28,21.55,21.55,0,0,0-3.31.42c-1.23.19-2.54-.06-3.74.23a23.85,23.85,0,0,1-3.56.81c-2.26.17-4.52.36-6.89.56-.22.47-.49,1-.72,1.57q-2.64,6.39-5.26,12.8a10,10,0,0,1-2.33,3.61,1.29,1.29,0,0,0-.43,1,6.28,6.28,0,0,1-1.1,3.79,17.28,17.28,0,0,0-2.4,5.86,24.12,24.12,0,0,1-1.17,3.13,2.71,2.71,0,0,0-.17.39c-.5,2.48-1.87,4.59-2.79,6.9-.35.86-.71,1.73-1,2.62a10.41,10.41,0,0,1-2.26,4,5,5,0,0,0-.66,1,7.77,7.77,0,0,1-7,4.36,12.34,12.34,0,0,1-4-.41,9.76,9.76,0,0,1-4.86-3.08,2.67,2.67,0,0,0-1.32-.87,10.44,10.44,0,0,1-1.41-.53,9.33,9.33,0,0,1-5.57-10.87,19.25,19.25,0,0,1,1.7-4.77c.53-1,1-2.08,1.46-3.13a2.39,2.39,0,0,0,.08-.85,8.07,8.07,0,0,1,1.32-4.39,5.43,5.43,0,0,0,.54-1.39c.44-1.37.83-2.75,1.31-4.11,1-2.75,2-5.48,3-8.21a21.75,21.75,0,0,1,1.06-2.48,1.43,1.43,0,0,0-.13-1.77,7.07,7.07,0,0,0-1.7-1.62,9.28,9.28,0,0,1-4.07-10.34A12,12,0,0,1,19,403.6a39.94,39.94,0,0,1,7.31-4.6,14.41,14.41,0,0,1,3.12-.79,3.48,3.48,0,0,0,2.64-2c.32-.76.65-1.52,1-2.34a4.15,4.15,0,0,0-.63-.18,9,9,0,0,1-5.07-2.47,17.76,17.76,0,0,0-2.68-2,8.36,8.36,0,0,1-4.28-9.24,14.73,14.73,0,0,1,8.23-11A17.13,17.13,0,0,0,31.94,367a6.68,6.68,0,0,1,1.45-.94c2.48-1.16,5-2.28,7.46-3.43.33-.15.64-.32,1-.49a6.21,6.21,0,0,1,.65-.39,27.63,27.63,0,0,0,3.71-1.43,23.28,23.28,0,0,1,3.47-1.71,27.53,27.53,0,0,1,4.07-1.4c.29-.06.56-.43.78-.71.93-1.19,1.86-2.38,2.77-3.59a6.94,6.94,0,0,0,.72-1.2,11.31,11.31,0,0,1,2.06-3,9.52,9.52,0,0,0,1-1.31,15.19,15.19,0,0,1,8.88-6.81,12.43,12.43,0,0,1,8,.76A6.18,6.18,0,0,1,81,344c.58,1,1.61,1.41,2.44,2.08.15.11.48.05.71,0a33.27,33.27,0,0,0,6.1-1.85,50.73,50.73,0,0,1,9.51-2.83,4.74,4.74,0,0,0,1.34-.41A41.06,41.06,0,0,1,113,337.33c1-.18,2-.51,3.06-.78V292.81c0-2.16,0-4.33,0-6.49a15.46,15.46,0,0,1,.18-2.15,6.36,6.36,0,0,1,3.58-4.86,14,14,0,0,1,5.82-1.47c.83,0,1.66,0,2.49,0H486.67a16.2,16.2,0,0,1,4.7.63,7.94,7.94,0,0,1,5.5,7.48c-.07,7.79,0,15.59,0,23.38a2,2,0,0,0,1.42,2.12,7.64,7.64,0,0,1,3.62,3.28c1.13,1.85,2.33,3.64,3.57,5.57.26-.33.46-.56.63-.81,3.5-5.08,6.95-10.2,10.51-15.23a42.26,42.26,0,0,1,4.31-5.13c2.86-2.94,6.39-3.61,10.26-2.54,1.28.36,2.47,1,3.71,1.49a16.47,16.47,0,0,0,2.34.78,31.43,31.43,0,0,1,7.15,2.37,6.57,6.57,0,0,1,3.87,5.83,17.44,17.44,0,0,1-1.66,8.93,2.38,2.38,0,0,0-.23.61,44,44,0,0,1-2.94,8.12,143.88,143.88,0,0,0-5.27,15.21,2.27,2.27,0,0,0,0,.51c.35-.41.6-.69.81-1a14,14,0,0,1,.78-1.17c1.12-1.21,2.25-2.41,3.42-3.58a46.33,46.33,0,0,1,3.51-3.36c1.85-1.52,3.41-3.42,5.62-4.51a23.56,23.56,0,0,0,2.34-1.34,8.88,8.88,0,0,0,1.6-1.26,7.49,7.49,0,0,1,4.23-2.22,3.54,3.54,0,0,0,1.2-.4,18.66,18.66,0,0,1,5-2.31,7.89,7.89,0,0,0,.87-.44c1.87-.75,3.7-1.59,5.61-2.2a14.39,14.39,0,0,1,5.81-.2,15.8,15.8,0,0,1,5.68,1.65,5.43,5.43,0,0,0,2,.4,8.23,8.23,0,0,1,5.68,2.55,3.24,3.24,0,0,0,.9.55c1.41.79,2.86,1.52,4.22,2.39a8.39,8.39,0,0,1,2.84,3.21,9.38,9.38,0,0,0,.65,1,9.56,9.56,0,0,1,2,5.4,22.17,22.17,0,0,1-2.27,11.21c-.42.84-.74,1.73-1.21,2.54a32.92,32.92,0,0,1-2.65,4.19,9.42,9.42,0,0,1-11,3.11c-4-1.45-6.77-4.06-7.72-8.34-.1-.45-.16-.91-.26-1.46a6.3,6.3,0,0,0-.7.24,4.59,4.59,0,0,0-.95.52c-3,2.31-6.16,4.44-8.94,7a44,44,0,0,0-7.81,9.23c-2.11,3.4-4.1,6.88-6.12,10.33a5.76,5.76,0,0,0-.63,1.49,102.58,102.58,0,0,1-3.86,11,5.25,5.25,0,0,0-.43,2.37c.08,0,.14,0,.15,0,1.89-1.78,4.25-3,6-5a10.7,10.7,0,0,1,1.85-1.64,48.45,48.45,0,0,0,6.73-6.07c1.23-1.29,2.55-2.5,3.76-3.83.81-.88,1.92-1.48,2.77-2.37a8.33,8.33,0,0,0,1.93-2.83,8.18,8.18,0,0,1,8-5.47,19.36,19.36,0,0,1,5.67.67,10.83,10.83,0,0,1,4,2.06,9.36,9.36,0,0,0,2.68,1.56,8.74,8.74,0,0,1,5.4,6.07,9.37,9.37,0,0,1-.48,6.55c-.51,1.15-1,2.32-1.62,3.42a26.1,26.1,0,0,1-1.76,2.58c-.92,1.24-1.86,2.48-2.83,3.68-.74.93-1.55,1.8-2.34,2.69-1.22,1.36-2.46,2.72-3.69,4.08-.46.51-.89,1-1.38,1.52l-11.07,10.81a13.85,13.85,0,0,1-3.2,2.39,5.29,5.29,0,0,0-1,.69,35.4,35.4,0,0,0-3.86,3.28,4.82,4.82,0,0,1-1.33.91,79.62,79.62,0,0,1-11.26,5,7.84,7.84,0,0,1-3.41.39,31.76,31.76,0,0,0-3.78-.06,15.57,15.57,0,0,1-9-2.45,4,4,0,0,0-1.09-.44,19.3,19.3,0,0,1-8.9-5.12,8.23,8.23,0,0,0-1.17-1,14.22,14.22,0,0,1-5.78-8,2.42,2.42,0,0,0-.19-.4c-.07.05-.15.07-.16.11-.58,2.57-1.24,5.12-1.72,7.7a17.19,17.19,0,0,0-.12,3.66,11.22,11.22,0,0,1-.58,4.15,8,8,0,0,1-7.33,5.34,62.46,62.46,0,0,1-6.26-.3c-1.65-.14-3.28-.42-5-.65v1.15c0,4.15,0,8.29,0,12.44a12.09,12.09,0,0,1-1.05,5.15A22.28,22.28,0,0,1,486.72,450c-11.22,6.52-22.36,13.19-33.56,19.75-7.72,4.52-15.5,8.92-23.22,13.43q-27.4,16-54.78,32.11l-49.09,28.78c-1.34.78-2.66,1.58-4,2.41a23.73,23.73,0,0,1-9,3.58,4.41,4.41,0,0,0-.7.23Zm174-192.07c-.26.5-.41.81-.56,1.11-.62,1.18-1.23,2.36-1.87,3.54a9.89,9.89,0,0,1-.85,1.35,32.62,32.62,0,0,0-2.26,2.89c-1.1,1.86-2,3.81-3,5.72a2.61,2.61,0,0,1-.46.59,9.7,9.7,0,0,0-2.45,3.78c-.59,1.47-1.2,2.93-1.86,4.37a12.79,12.79,0,0,1-1,1.65,18.79,18.79,0,0,0-2.13,3.36,5.32,5.32,0,0,1-4,3.55,8.38,8.38,0,0,0-2.09.89,11.24,11.24,0,0,0-2.64,1.84,9.49,9.49,0,0,1-3.5,2.43,2.75,2.75,0,0,0-.38.2,10.39,10.39,0,0,0-5.63,9.88,6.46,6.46,0,0,0,5.09,6.32,5.67,5.67,0,0,1,.69.22c-.75,1.81-1.49,3.53-2.2,5.25a24.23,24.23,0,0,0-1.19,3.13c-.55,2.12-1,4.27-1.4,6.44a6.12,6.12,0,0,0,3.81,6.8,20.44,20.44,0,0,0,4,1.15c3.71.66,7.16-.41,10.47-1.91a5.88,5.88,0,0,0,3.15-3.94,7.54,7.54,0,0,1,.72-1.79,46.42,46.42,0,0,0,3.62-7.6,8.67,8.67,0,0,1,1.17-2.43,39.58,39.58,0,0,0,2.8-4.74c1.84-3.17,3.74-6.33,5.63-9.48a1.49,1.49,0,0,1,.64-.52q2.26-1,4.54-2c.2-.09.43-.14.73-.24,0,.25,0,.39-.06.52a70.18,70.18,0,0,0-.75,9.38,7.8,7.8,0,0,0,1.59,5.17,11.4,11.4,0,0,0,7.05,4.49c1.66.31,3.35.48,5,.64a38.92,38.92,0,0,0,4.32.2,6.86,6.86,0,0,0,6.83-5.79,18.47,18.47,0,0,0,.13-2.48,27.74,27.74,0,0,1,.24-4.19c.86-4.13,1.87-8.22,2.82-12.33a2.62,2.62,0,0,1,.29-.49,37.6,37.6,0,0,1,1.17,4.05,13,13,0,0,0,5.49,8.73,9.4,9.4,0,0,1,1.35,1.08,18.43,18.43,0,0,0,8.72,5,3.84,3.84,0,0,1,1.17.52,14.18,14.18,0,0,0,7.89,2.26c1.66,0,3.32.08,5,.06a6.57,6.57,0,0,0,2.12-.32,75.07,75.07,0,0,0,11.17-4.93,3.72,3.72,0,0,0,1.14-.8,18.16,18.16,0,0,1,3.28-2.78c.11-.08.21-.19.32-.28a8.62,8.62,0,0,1,1.21-.9,14.08,14.08,0,0,0,3.19-2.39l9.61-9.37c.9-.89,1.75-1.82,2.61-2.74q1.93-2.1,3.85-4.23c.72-.8,1.45-1.6,2.12-2.45,1-1.26,2-2.55,3-3.85a18.23,18.23,0,0,0,1.46-2.13c.62-1.14,1.15-2.32,1.68-3.51A8.12,8.12,0,0,0,592.61,366c-.63-.4-1.37-.63-2-1a9.54,9.54,0,0,1-1.74-1,10.59,10.59,0,0,0-4.9-2.4,27.1,27.1,0,0,0-4.4-.43,6.82,6.82,0,0,0-6.88,4.77,5.57,5.57,0,0,1-.68,1.33,13.38,13.38,0,0,1-3.79,3.78,1.83,1.83,0,0,0-.59.47,30.27,30.27,0,0,1-3.57,3.68,50.64,50.64,0,0,1-7,6.29,20.58,20.58,0,0,0-1.85,1.65c-.74.69-1.44,1.42-2.21,2.07-1.24,1-2.55,2-3.78,3a3.33,3.33,0,0,1-2.29.83,12.91,12.91,0,0,1,.73-5.55,84,84,0,0,0,3.5-9.88,10.16,10.16,0,0,1,1-2.39c1.93-3.34,3.83-6.7,5.89-10a48.49,48.49,0,0,1,8.91-10.41c2.44-2.18,5.16-4.05,7.77-6a15.45,15.45,0,0,1,4.3-2.14c0,.44,0,.79.09,1.14a18.32,18.32,0,0,0,.47,3c1.16,3.67,3.86,5.75,7.44,6.72a7.9,7.9,0,0,0,8.26-2.46,10.81,10.81,0,0,0,1.56-2.07c2.13-3.77,4.16-7.59,4.61-12a13.53,13.53,0,0,0-.21-5.15,18,18,0,0,0-4.28-6.52,16.14,16.14,0,0,0-4.39-2.53,3.06,3.06,0,0,1-1.41-.94,4.92,4.92,0,0,0-2.61-1.64,18.51,18.51,0,0,0-2.56-.44,7.46,7.46,0,0,1-2.47-.68,16.36,16.36,0,0,0-9.28-1.35,37.7,37.7,0,0,0-6.15,2.28,4.15,4.15,0,0,1-1,.49,18.24,18.24,0,0,0-4.88,2.27,4.1,4.1,0,0,1-1.4.49,5.16,5.16,0,0,0-3.34,1.6,10.15,10.15,0,0,1-2.93,2.17c-.94.54-1.88,1.07-2.8,1.63a4.87,4.87,0,0,0-1.28,1c-1,1.33-2.53,2.1-3.65,3.33-1.87,2-3.92,3.9-5.86,5.86a8.72,8.72,0,0,0-.9,1.34,7.25,7.25,0,0,1-.58.76c-.71.76-1.49,1.48-2.15,2.28-1.17,1.41-2.28,2.88-3.43,4.32a6.82,6.82,0,0,1-.53.55,2.31,2.31,0,0,1,.29-1.06,57.45,57.45,0,0,0,4-10.36,107.38,107.38,0,0,1,4.73-13.23,39.71,39.71,0,0,0,2.64-7.42,3,3,0,0,1,.28-.7,16.13,16.13,0,0,0,1.54-8.31,5.3,5.3,0,0,0-3.2-4.66,31.78,31.78,0,0,0-6.85-2.25,19,19,0,0,1-2.54-.86c-1.21-.46-2.37-1.1-3.61-1.44-3.39-.92-6.48-.31-8.92,2.33a53.82,53.82,0,0,0-4.47,5.42c-3.44,4.85-6.76,9.8-10.14,14.69-.53.76-1.16,1.44-1.82,2.25l-.28-.41c-1.47-2.26-3-4.52-4.41-6.8a6.68,6.68,0,0,0-2.81-2.61,6.43,6.43,0,0,1-1.43-.91,10,10,0,0,0-3.28-2.07c-1.56-.53-3.15-1-4.74-1.47a6.38,6.38,0,0,0-1.16-.19,8.22,8.22,0,0,1-2.85-.57,3.84,3.84,0,0,0-1.37-.26,31.47,31.47,0,0,0-6.79.33,47,47,0,0,1-7,.54,8.13,8.13,0,0,0-2.34.34c-2.19.59-4.36,1.25-6.54,1.87-.3.09-.61.15-1,.24,0-.44.08-.75.11-1.07a9,9,0,0,0-1.36-6.09c-.67-1-1.36-2-2.05-2.93a20.37,20.37,0,0,0-3.63-3.85,8.55,8.55,0,0,0-4.78-2.08,20.55,20.55,0,0,0-5,.07c-4.87.83-9.7,1.85-14.55,2.79a7,7,0,0,0-2.77,1.16,2.81,2.81,0,0,1-1.4.46c-1.2.17-2.4.42-3.59.69-1,.23-1.93.56-2.91.79-1.3.3-2.62.5-3.91.81-2.28.54-4.55,1.11-6.82,1.68s-4.43,1.72-6.82,1.94a1.91,1.91,0,0,0-.51.17L394,307a3.14,3.14,0,0,1-.72.07l.29-1.47a4.56,4.56,0,0,0-.35-3.07,15.29,15.29,0,0,0-3.32-4.35,1.74,1.74,0,0,0-.26-.19c-1.62-1-3.21-2.08-4.88-3a10.72,10.72,0,0,0-7.65-1.12,13,13,0,0,0-5.42,2.82c-1.53,1.26-3.07,2.52-4.5,3.89a21,21,0,0,0-2.11,2.72c-.5.69-.94,1.43-1.47,2.11-.86,1.11-1.79,2.16-2.63,3.29-1.08,1.44-2.11,2.92-3.14,4.39a50.64,50.64,0,0,0-2.93,4.28,6.37,6.37,0,0,1-3.56,3.12,20.94,20.94,0,0,1-2.9.85,23.92,23.92,0,0,0-5.94,1.95c-.87.43-1.77.79-2.67,1.18a6.66,6.66,0,0,1-.7.2,7.68,7.68,0,0,1,.19-.81q1-3.14,2.1-6.25a2.63,2.63,0,0,1,.4-.76,10.45,10.45,0,0,0,1.72-3.35,59.54,59.54,0,0,1,4.1-9.87,15.71,15.71,0,0,0,1.54-4.94A6.5,6.5,0,0,0,344,290.9a25.58,25.58,0,0,0-2.91-.27c-.75-.07-1.5-.18-2.25-.22a18,18,0,0,0-3.11-.06,10.69,10.69,0,0,0-8,6.57,1.57,1.57,0,0,1-.12.3c-.84,1.51-1.62,3.06-2.56,4.5a55.68,55.68,0,0,0-3.83,7.14c-.81,1.73-1.61,3.46-2.43,5.19-.36.74-.7,1.5-1.12,2.21a20.21,20.21,0,0,0-2.2,4.68,20.78,20.78,0,0,1-1,2.71c-.91,2-1.86,4-2.81,6a7.88,7.88,0,0,1-.73,1.3,6,6,0,0,0-1.26,2.84,3.33,3.33,0,0,1-.82,1.94,2.51,2.51,0,0,0-.42.62,2.45,2.45,0,0,1-1.41,1.25,60,60,0,0,0-9.15,4.89,12.51,12.51,0,0,0-1.89,1.43,7.2,7.2,0,0,0-.64,10.13c1.29,1.54,2.64,3,4.06,4.65-.65,1.75-1.36,3.68-2.11,5.58a1.18,1.18,0,0,1-.69.56,61.9,61.9,0,0,0-11.29,4.6,4.59,4.59,0,0,1-1.2.46,14.86,14.86,0,0,0-4.47,1.86,12.83,12.83,0,0,1-1.68,1c-1.95.85-3.94,1.61-5.88,2.47s-3.71,1.76-5.56,2.64l-.68.3a4.49,4.49,0,0,1,.11-.7,29.5,29.5,0,0,1,2.47-5.75,35.08,35.08,0,0,0,1.8-3.57c1.68-3.79,3.31-7.6,5-11.4a14.43,14.43,0,0,1,1-2.13,35.76,35.76,0,0,0,4.93-12.73,6.36,6.36,0,0,0-4.18-7.39c-1.09-.38-2.22-.65-3.32-1a3.94,3.94,0,0,1-1.06-.49,10.42,10.42,0,0,0-3.51-1.63,8.66,8.66,0,0,0-10,4.48,20.18,20.18,0,0,1-2,3.09c-.76,1-1.52,2-2.3,3a6.65,6.65,0,0,0-1.41,2.88,2.6,2.6,0,0,1-.27.7c-.64,1.21-1.28,2.42-1.94,3.62a4.9,4.9,0,0,1-.67,1.1,25.93,25.93,0,0,0-4.73,7.7,14.8,14.8,0,0,1-2.17,3.93,13.35,13.35,0,0,0-1.59,2.93c-.34.72-.55,1.49-.87,2.22a4.45,4.45,0,0,1-.72,1.18,9.76,9.76,0,0,0-1.89,3.25c-.13.36-.28.71-.39,1-1.22-.55-2.3-1.12-3.45-1.53a5.26,5.26,0,0,1-1.83-1.06,9.27,9.27,0,0,0-10.21-2,4.17,4.17,0,0,1-1.26.27,10.06,10.06,0,0,0-4.64,1.31,12.1,12.1,0,0,1-3.63,1.33c-.78.17-1.53.43-2.32.54a11,11,0,0,0-7,3.51,1.53,1.53,0,0,1-.93.44,10.5,10.5,0,0,0-5,1.79,55.28,55.28,0,0,1-9,5.08,13.39,13.39,0,0,0-2.34,1.7,4.6,4.6,0,0,1-1,.63,7.21,7.21,0,0,0-3,2.13,2.19,2.19,0,0,1-1.24.78,8,8,0,0,0-2.85,1.49c-1.08.85-2.19,1.65-3.28,2.46-.9.67-1.86,1.27-2.68,2a13.43,13.43,0,0,1-3.31,2.55,3.4,3.4,0,0,0-.85.67,21.66,21.66,0,0,0-3.81,4.41,15,15,0,0,0-2.72,6.86,7,7,0,0,0,2.64,6.41,9.65,9.65,0,0,0,4.94,2,3.07,3.07,0,0,1,1.31.42,7.32,7.32,0,0,0,9.58-.92c.78-.76,1.59-1.48,2.33-2.27a2.63,2.63,0,0,1,2.39-.67l-2.49,3.7a9.73,9.73,0,0,0-1.29,2,24.1,24.1,0,0,1-2.32,4.12,32.6,32.6,0,0,1-4,5.44c-1.53,1.73-2.94,3.56-4.42,5.34a8.25,8.25,0,0,1-1.07,1.06c-1.61,1.33-3.24,2.65-4.87,4a5.42,5.42,0,0,0-1.83,2.36,2.32,2.32,0,0,1-1.49,1.44c-2.2.81-4.39,1.64-6.58,2.46a1.63,1.63,0,0,1-.35,0l-.38-.64a6.22,6.22,0,0,1-1.07-4.08,25.91,25.91,0,0,0-.22-2.89c0-4.87.36-9.73.89-14.58a3.93,3.93,0,0,1,.43-1.08,15.66,15.66,0,0,0,1.07-2.46,16.35,16.35,0,0,1,1.17-3.13c.58-1.24,1.18-2.47,1.75-3.71a4,4,0,0,0,.48-1.31,3.6,3.6,0,0,1,1.2-2.45,7,7,0,0,0,.54-.68,6.24,6.24,0,0,0,1.62-4.65,1.87,1.87,0,0,1,.28-1.1,27.62,27.62,0,0,1,4.12-5.27c4.32-4.4,8.6-8.85,12.88-13.29a16,16,0,0,0,3.37-5,4.56,4.56,0,0,1,1.54-1.91,30.62,30.62,0,0,0,2.45-2.11c1.13-1.07,2.17-2.23,3.31-3.28a22.49,22.49,0,0,0,3.67-4.52,38.33,38.33,0,0,1,2.37-3l1.15.29a4.86,4.86,0,0,0,3.95-.65c2-1.31,4-2.62,5.84-4.1a13.09,13.09,0,0,1,4.14-2.23,12,12,0,0,0,2.91-1.39,6.81,6.81,0,0,1,2.35-1,18.48,18.48,0,0,0,3.61-1.05A4,4,0,0,1,222,353a22,22,0,0,0,2.69.19,7.58,7.58,0,0,0,6.37-3.3,19,19,0,0,0,2.79-5.6,6.56,6.56,0,0,0-2.73-7.66,22.67,22.67,0,0,0-2.56-1.4c-1.75-.85-3.52-1.66-5.27-2.5a9.16,9.16,0,0,0-4.71-1,1.89,1.89,0,0,1-1.48-.44,5.51,5.51,0,0,0-2.66-1.09,7.85,7.85,0,0,0-4.85.65,55.59,55.59,0,0,1-8.51,3.13A16.42,16.42,0,0,0,195,337.1a3.77,3.77,0,0,1-1.14.6,16.4,16.4,0,0,0-3.88,2.11,64.1,64.1,0,0,1-7,4.5,20.39,20.39,0,0,0-2.65,2,6.39,6.39,0,0,1-.85.65,9,9,0,0,0-3,2.42,5.84,5.84,0,0,1-1.73,1.44,12.83,12.83,0,0,0-4.23,3.48,2.45,2.45,0,0,1-.56.5,53.3,53.3,0,0,0-6.73,5.92c-1.94,2-3.91,4.05-5.89,6.05a34.66,34.66,0,0,0-4.67,5.24,1.52,1.52,0,0,1-.55.49,8.72,8.72,0,0,0-3,2.76c-2.4,3.23-4.84,6.43-7.29,9.68l-1.06-.5c.8-2.24,1.6-4.39,2.35-6.57a43.86,43.86,0,0,1,3-6.93,33,33,0,0,0,1.67-3.63c1.34-3.31,2.63-6.63,3.93-10,.23-.6.47-1.21.64-1.83a7.23,7.23,0,0,0-2.87-8,12.68,12.68,0,0,0-2.94-1.29,4.7,4.7,0,0,1-2.47-1.82c-1.57-2.33-3.05-4.73-4.62-7.06a7.1,7.1,0,0,0-7-3.41,30.08,30.08,0,0,0-9.37,2.47,2.22,2.22,0,0,1-1.23.22,6.12,6.12,0,0,0-3.28.38,33.87,33.87,0,0,1-6.84,2,34,34,0,0,0-10,3.26,6.45,6.45,0,0,1-1.65.5,51.88,51.88,0,0,0-8.7,2.54c-1.89.7-3.83,1.27-5.75,1.87a5,5,0,0,1-2.17.5c-.71-.15-1.3-.86-2-1.29a4.48,4.48,0,0,1-1.57-1.58,5,5,0,0,0-2.46-2.21c-3.07-1.2-6.17-1.52-9.22,0a14.8,14.8,0,0,0-6.23,5.84,4.31,4.31,0,0,1-.75,1,9.45,9.45,0,0,0-2,2.91,6.5,6.5,0,0,1-.64,1.12c-1,1.32-2,2.62-3,3.94a2.94,2.94,0,0,1-1.85,1.18,16.85,16.85,0,0,0-2.46.81c-.5.18-1,.37-1.49.59a19,19,0,0,0-2.21,1.1,4.63,4.63,0,0,1-1.55.7,10.14,10.14,0,0,0-3.55,1.55,4.13,4.13,0,0,1-.65.36c-2.43,1.1-4.87,2.18-7.3,3.29a5.69,5.69,0,0,0-1.38.83,16.72,16.72,0,0,1-4,2.52,8.86,8.86,0,0,0-1,.61,13.25,13.25,0,0,0-6.29,9.63,6.75,6.75,0,0,0,3.3,7.2,22.15,22.15,0,0,1,3.73,2.75,6.44,6.44,0,0,0,5.48,1.74c.33-.05.68-.05,1.13-.08-.58,1.31-1.16,2.47-1.61,3.67a5.23,5.23,0,0,1-2.58,3.16,3.75,3.75,0,0,1-1.49.49,6.52,6.52,0,0,0-3.12.8c-1.94,1.18-3.88,2.36-5.78,3.6a10.9,10.9,0,0,0-3.29,3.4,10.18,10.18,0,0,0-1.59,5.75,7.89,7.89,0,0,0,4.11,6.7,5.34,5.34,0,0,1,1.07.88,11.41,11.41,0,0,1,1.12,1.45,1.09,1.09,0,0,1,.24.75,5.38,5.38,0,0,1-.63,2,11.66,11.66,0,0,0-.87,2.09c-1,2.67-1.91,5.36-2.95,8a23.86,23.86,0,0,0-1.39,4.42,3.56,3.56,0,0,1-.53,1.39A6.3,6.3,0,0,0,14.87,445a2,2,0,0,1-.08.84c-.5,1.12-1,2.23-1.59,3.31a16.86,16.86,0,0,0-1.67,4.66A7.91,7.91,0,0,0,16,462.88c.71.34,1.49.55,2.21.86a2.49,2.49,0,0,1,1,.64,9.22,9.22,0,0,0,8.24,3.45A6.42,6.42,0,0,0,33.23,464a3.12,3.12,0,0,1,.6-.88,9.1,9.1,0,0,0,2-3.4c.55-1.45,1.13-2.88,1.7-4.32.73-1.83,1.87-3.5,2.14-5.52,0-.16.17-.31.24-.48a18.27,18.27,0,0,0,1-2.71A19.68,19.68,0,0,1,43.72,440a4.9,4.9,0,0,0,.73-3.73,1,1,0,0,1,0-.35,10.39,10.39,0,0,0,3.13-4.56c1.68-4.18,3.41-8.34,5.14-12.5.34-.81.79-1.58,1.16-2.31,1.35,0,2.54,0,3.72,0s2.66-.23,4-.36a5.35,5.35,0,0,0,1.28-.19,7.75,7.75,0,0,1,4.3-.61,2.15,2.15,0,0,0,.75-.07,18.12,18.12,0,0,1,4.15-.57,2.28,2.28,0,0,0,1-.2c1-.42,1.92-1,2.93-1.32s2.19-.39,3.27-.66,1.91-.65,2.87-.92c3.61-1,7.22-2,10.83-3a8.15,8.15,0,0,0,3.11-1.69,12.51,12.51,0,0,1,1.72-1.27,8,8,0,0,0,3.26-10.58,19.35,19.35,0,0,0-4.43-5.82,17.23,17.23,0,0,0-1.4-1,26.47,26.47,0,0,1-2.32-1.74A10.77,10.77,0,0,0,82,384a48.26,48.26,0,0,1-6.74,1.5,11.57,11.57,0,0,0-3.44.9c-1.61.77-3.31.41-5.09.87.18-.38.26-.57.37-.75q2.46-4.14,4.94-8.26a1.24,1.24,0,0,1,.64-.51c3.25-.94,6.43-2.17,9.87-2.26a5.17,5.17,0,0,0,2.92-1,2.76,2.76,0,0,1,1.49-.52c2-.19,4-.15,5.85-.93a2,2,0,0,1,.85-.07,6.27,6.27,0,0,0,3.59-1,2.68,2.68,0,0,1,.87-.38c1.1-.2,2.21-.3,3.3-.52,6.75-1.42,13.35-3.36,19.92-5.43.36-.12.73-.22,1.31-.38-.4.7-.65,1.22-1,1.69a53.35,53.35,0,0,0-4.21,8.16,31.45,31.45,0,0,1-1.81,3.19,6.08,6.08,0,0,0-.72,1.32,20.34,20.34,0,0,1-1.46,3.22c-1.37,3.1-2.64,6.24-4,9.36a4,4,0,0,1-.64,1.11,10.23,10.23,0,0,0-1.9,3.49,6.12,6.12,0,0,1-.43,1.1,14.25,14.25,0,0,0-1.48,4.16,3.63,3.63,0,0,1-.52,1.27,37.31,37.31,0,0,0-5.26,10.61,18.14,18.14,0,0,1-2,4.3,12.83,12.83,0,0,0-1.59,4,5.7,5.7,0,0,1-.47,1.41,71.58,71.58,0,0,0-4,8.59,80.89,80.89,0,0,1-3.92,9.72,7,7,0,0,0-.67,1.94,10.86,10.86,0,0,1-1.22,3.42,9.18,9.18,0,0,0-.73,2.47,23,23,0,0,0-.36,2.35,31,31,0,0,0-.32,7,7.14,7.14,0,0,0,4.91,6.51,13.2,13.2,0,0,0,6.63.4,4.51,4.51,0,0,1,2.7.21,6.48,6.48,0,0,0,.82.26,6.74,6.74,0,0,0,6.25-1.09,27.73,27.73,0,0,0,2.69-2.5,10.74,10.74,0,0,0,2.75-5,1.84,1.84,0,0,1,.3-.79,19.21,19.21,0,0,0,2.46-4.31,6.18,6.18,0,0,1,1-1.63,27.34,27.34,0,0,0,3.52-4.65,10.45,10.45,0,0,1,1.4-1.78,15.74,15.74,0,0,0,2.92-3.59,2.3,2.3,0,0,1,.35-.41c.54-.63,1.09-1.25,1.63-1.87l.71-.84c0,.55,0,.9,0,1.23a11.44,11.44,0,0,0,1.23,6.6,7.45,7.45,0,0,1,.4,1.32l.84,3a7.13,7.13,0,0,1,.31,1.35,6,6,0,0,0,1,3.26c1,1.34,2.14,2.61,3.23,3.9.44.52,1,1,1.38,1.51a7,7,0,0,0,3.43,2.52c1.48.45,3,.86,4.49,1.18a2.84,2.84,0,0,1,1.42.67A11.47,11.47,0,0,0,147,467c1.69.49,3.38,1,5.08,1.46a7.72,7.72,0,0,0,3.85.07,6.72,6.72,0,0,1,1.49-.13,6.55,6.55,0,0,0,4.61-1.54,5.28,5.28,0,0,1,2.36-1.21c.84-.2,1.67-.45,2.52-.63a7.32,7.32,0,0,0,4.32-2.48,3.06,3.06,0,0,0,.28-.42c1.17.36,2.21.64,3.22,1a5.76,5.76,0,0,1,1.54.74,10.87,10.87,0,0,0,3.35,1.72c3.4,1,6.45.39,8.86-2.34a34.36,34.36,0,0,0,2.75-3.61,9.86,9.86,0,0,0,1.43-2.77,16.15,16.15,0,0,1,2-4.18c.33-.55.63-1.14.93-1.71a90.92,90.92,0,0,0,4.94-10.93,16.7,16.7,0,0,1,2.47-4.54,5.27,5.27,0,0,0,1-2,9,9,0,0,1,1.33-3c.67-1.06,1.31-2.15,2-3.23L216,412.71c.2-.32.43-.61.72-1a19,19,0,0,0,.75,2.1,8.24,8.24,0,0,0,1.2,1.79,14.91,14.91,0,0,0,1.52,1.31c-.29.7-.57,1.33-.83,2a16.88,16.88,0,0,0-1.4,5.86,2.8,2.8,0,0,1-.36,1.1,26.82,26.82,0,0,0-2.68,7.85,2.86,2.86,0,0,1-.27.81,12.41,12.41,0,0,0-1.17,3.69c-.2,1.14-.43,2.27-.64,3.4a8.64,8.64,0,0,0,.73,5.89,3.33,3.33,0,0,1,.3,1,6.06,6.06,0,0,0,4.67,5.12A13.42,13.42,0,0,0,221,454a3.68,3.68,0,0,1,2.24.91,8,8,0,0,0,4.94,2,8.71,8.71,0,0,0,8.44-5.46,12.73,12.73,0,0,1,.89-1.72,12.92,12.92,0,0,0,2.2-6.47,3.4,3.4,0,0,1,.38-1.22,22.11,22.11,0,0,0,2.37-7.82,3.27,3.27,0,0,1,.38-1c.74-1.53,1.56-3,2.21-4.57.87-2.05,1.59-4.17,2.42-6.25,1.81-4.51,3.66-9,5.46-13.53a2.73,2.73,0,0,1,2.11-1.81,12,12,0,0,0,1.67-.41c1.8-.63,3.62-1.25,5.38-2a25.06,25.06,0,0,0,3.66-1.84,6,6,0,0,1,2.38-.91,13.38,13.38,0,0,0,6.2-2.65,3.92,3.92,0,0,1,1.44-.65,26.24,26.24,0,0,0,8.21-2.91,5.08,5.08,0,0,1,2.32-.72c-.5,1.9-1,3.71-1.44,5.52a31.34,31.34,0,0,1-1.05,3.74c-2.09,5.19-3.75,10.52-5.37,15.86a8.75,8.75,0,0,1-1.09,2.56,5.29,5.29,0,0,0-.7,1.9,145.73,145.73,0,0,1-3.81,14.64,51.41,51.41,0,0,0-2.46,8.62,7.44,7.44,0,0,1-.56,1.4,32.06,32.06,0,0,0-1.42,4.06,65.89,65.89,0,0,1-2.35,8A35.38,35.38,0,0,0,264.31,472c-.18,5.68,4.94,10.06,10.63,8a1.49,1.49,0,0,1,.93,0,11.91,11.91,0,0,0,4.82.44,8.79,8.79,0,0,0,8.23-6.53,18.82,18.82,0,0,0,.43-3.53,3.82,3.82,0,0,1,.44-1.63,21,21,0,0,0,1.29-3c1-2.75,1.87-5.53,2.85-8.28a15.55,15.55,0,0,0,1.15-4.59,4.85,4.85,0,0,1,.6-2.15,27.91,27.91,0,0,0,3-8.19,15.51,15.51,0,0,1,1.05-3.62,162.47,162.47,0,0,0,6.37-18.6,75.62,75.62,0,0,1,3.51-10.22,10.35,10.35,0,0,0,.75-2.8,36.93,36.93,0,0,1,2-7.4c.51-1.43,1-2.85,1.49-4.29a36.37,36.37,0,0,0,1.1-4.06,16.41,16.41,0,0,1,.92-3.09c.76-1.84,1.48-3.68,2.16-5.54a1.32,1.32,0,0,1,1-1,5.57,5.57,0,0,0,2.74-1.45c.89-.94,2.06-1.06,3.2-1.49,0,.41,0,.73,0,1a6.33,6.33,0,0,0,.43,3.08,1.72,1.72,0,0,1-.17,1.71c-1.36,2.34-2.7,4.68-4,7a27.16,27.16,0,0,0-2.63,6.38,8.2,8.2,0,0,1-.7,1.8,35.33,35.33,0,0,0-3.58,8.67,4.53,4.53,0,0,1-.74,1.66,12.58,12.58,0,0,0-2.45,5.7,26.56,26.56,0,0,1-2.41,7.27,13.53,13.53,0,0,0-1.38,4.18,3.89,3.89,0,0,1-.58,1.48,9.7,9.7,0,0,0-.81,1.87c-.57,1.79-1.11,3.58-1.64,5.37a30.89,30.89,0,0,0-.88,3.23,8.91,8.91,0,0,1-1.23,3.54,4.08,4.08,0,0,0-.47,1.09c-.61,2.07-1.23,4.13-1.79,6.22-.46,1.66-.8,3.36-1.27,5a23.69,23.69,0,0,0-.81,9.73,7,7,0,0,0,6.44,6.24c1.39.17,2.77.42,4.15.62,2.21.31,4.45.43,6.68.57a6.68,6.68,0,0,0,2-.24,7.18,7.18,0,0,0,5.46-5.93A96.42,96.42,0,0,1,326,453.83c1.59-4.59,3.29-9.15,4.93-13.73,1.3-3.59,2.41-7.26,3.9-10.77a86.35,86.35,0,0,0,4.71-13.68,10,10,0,0,1,.89-1.94,23.54,23.54,0,0,0,1.22-2.4,86.51,86.51,0,0,1,3.45-8.62c2.3-4.69,3.36-9.9,5.87-14.51a1.21,1.21,0,0,0,.09-.2c1.64-4,3.29-7.92,4.92-11.88a21.49,21.49,0,0,0,.95-2.65,5.47,5.47,0,0,1,1.27-2.68,4.67,4.67,0,0,0,.79-1.4c.38-.82.72-1.65,1.07-2.48,1.25-2.92,2.41-5.87,3.75-8.75,3.19-6.82,6.46-13.6,9.69-20.41a1.25,1.25,0,0,1,.72-.72c.75-.28,1.46-.62,2.19-.92a1.45,1.45,0,0,1,.72-.14,6.35,6.35,0,0,0,2.87-.37c4.19-1.21,8.39-2.4,12.56-3.65a16.55,16.55,0,0,0,2.79-1.15,3.54,3.54,0,0,1,1.52-.43,34.29,34.29,0,0,0,10.46-2.07,5.13,5.13,0,0,1,2.51-.45,5.46,5.46,0,0,0,1.92-.19,14.39,14.39,0,0,1,4.22-.74,3.53,3.53,0,0,0,1.05-.23c1.39-.41,2.8-.74,4.13-1.27a15.53,15.53,0,0,1,4.84-1h.78a17.75,17.75,0,0,1-3.13,2.71,68.84,68.84,0,0,0-5.83,4.11,28.5,28.5,0,0,0-6.6,7.25,28.1,28.1,0,0,0-2.12,4.12,7.44,7.44,0,0,0-.51,4.46c.88,4.18,3,7.48,7,9.25a15.31,15.31,0,0,1,3.24,2.51c-.17.49-.32.82-.4,1.17a5,5,0,0,1-3.19,3.56c-.77.32-1.55.58-2.33.86a11.59,11.59,0,0,0-4.11,2.34,7.57,7.57,0,0,0-2.5,6.92,10.5,10.5,0,0,0,2.4,5.13c.49.62,1,1.2,1.55,1.82-.13.4-.26.77-.37,1.15-.77,2.58-1.9,5.06-2.28,7.76a5.08,5.08,0,0,1-.56,1.52,6.47,6.47,0,0,0-.73,3.23c0,.61,0,1.23,0,1.84a5.26,5.26,0,0,1-.68,2.36,10.27,10.27,0,0,0-.94,2.51c-.71,3.09-1.34,6.2-2,9.3-.51,2.47-1.09,4.93-1.45,7.43-.69,4.86,1.23,7.76,5.19,9.47.14.06.27.11.4.18,1.66.85,3.33,1.71,5,2.58a26.46,26.46,0,0,0,2.56,1.39,11.1,11.1,0,0,0,3.12.79c2.82.17,4.95-1.15,6.68-3.33a29,29,0,0,0,3.33-5.79,24.23,24.23,0,0,0,1.73-5.11c.21-.94.53-1.86.83-2.79s.74-2.11,1.09-3.17q1.39-4.2,2.76-8.42c.36-1.09.66-2.21,1-3.31.25-.82.43-1.68.76-2.47a53.31,53.31,0,0,0,2.87-8,103.66,103.66,0,0,1,3.6-10.76,1,1,0,0,1,.72-.71,17.53,17.53,0,0,0,5.28-2.45,37.32,37.32,0,0,1,6.73-3.18c1.95-.73,3.83-1.66,5.73-2.52,1.31-.59,2.59-1.26,3.92-1.82a19.82,19.82,0,0,0,5.86-3.41,4.4,4.4,0,0,1,1-.57c1.53-.73,3.09-1.39,4.58-2.19,2.1-1.12,4.14-2.34,6.21-3.52C482.41,358.49,482.56,358.43,482.93,358.26Z" transform="translate(-9.97 -246.97)"/><path d="M251.69,272.24h-2.45V252.67c-.54.19-.63.61-.81.91q-4.32,7.38-8.63,14.76c-.26.44-.48.82-1.12.82s-.86-.42-1.11-.85q-4.26-7.23-8.5-14.46c-.2-.33-.41-.67-.61-1l-.15,0s-.07,0-.07.06a1.65,1.65,0,0,0,0,.32l0,18.72a.38.38,0,0,1,0,.1l-.1.16H225.7v-25c.64,0,1.25,0,1.84,0a.91.91,0,0,1,.51.32,3.3,3.3,0,0,1,.39.65q4.83,8.21,9.64,16.42c.19.33.4.65.68,1.09l.67-1.11q4.63-8,9.29-16c.93-1.61,1-1.64,3-1.28Z" transform="translate(-9.97 -246.97)"/><path d="M372.49,252.42v19.83H369.9v-25a10.17,10.17,0,0,1,1.84,0,1.76,1.76,0,0,1,.89.68c2.33,2.9,4.63,5.81,6.95,8.72l7.74,9.74c.22.28.46.55.68.81l.14-.05a.12.12,0,0,0,.05-.07,3.22,3.22,0,0,0,0-.43q0-9.58,0-19.15s0-.06.1-.19a9.5,9.5,0,0,1,2.41-.08v25.08a9.7,9.7,0,0,1-1.79,0,1.84,1.84,0,0,1-.89-.69q-4.12-5.16-8.21-10.33-3.22-4.06-6.46-8.14c-.21-.27-.45-.52-.67-.79Z" transform="translate(-9.97 -246.97)"/><path d="M269.41,272.3V247.37a1.6,1.6,0,0,1,.4-.14c3.93,0,7.87-.09,11.79.11a11.93,11.93,0,0,1,8.25,3.82,12.11,12.11,0,0,1,3.21,9.76c-.59,7.05-5.85,10.83-11.53,11.25-3.19.24-6.42.11-9.62.15Zm2.7-2.28c1.1,0,2.14,0,3.18,0a62.25,62.25,0,0,0,6.26-.21c6.43-.8,9.87-6.12,8.68-12.31a9.4,9.4,0,0,0-8.59-7.77c-3.08-.29-6.2-.16-9.29-.2-.06,0-.13.06-.24.13Z" transform="translate(-9.97 -246.97)"/><path d="M399.14,247.32a2.86,2.86,0,0,1,.47-.1c3.86,0,7.72-.08,11.57.11a12,12,0,0,1,8.36,3.82,12.16,12.16,0,0,1,3.21,9.87c-.61,6.86-5.77,10.76-11.62,11.16-3.23.23-6.49.1-9.73.14h-2.26Zm2.67,22.7c2.39,0,4.66,0,6.93,0a20.53,20.53,0,0,0,2.48-.18c6.75-.9,9.94-6.57,8.66-12.52a9.42,9.42,0,0,0-8.62-7.6c-3-.27-6.12-.15-9.18-.2-.07,0-.13.06-.27.12Z" transform="translate(-9.97 -246.97)"/><path d="M120.24,272.21V247.34a2,2,0,0,1,.45-.12c3.93,0,7.87-.08,11.79.12a11.88,11.88,0,0,1,8.15,3.79,12.13,12.13,0,0,1,3.24,9.85c-.61,6.95-5.82,10.82-11.59,11.19-3.84.25-7.71.11-11.57.13A2,2,0,0,1,120.24,272.21Zm2.68-22.57V270c1.13,0,2.2,0,3.27,0a59.89,59.89,0,0,0,6.15-.2c6.4-.79,9.89-6.07,8.71-12.3a9.42,9.42,0,0,0-8.58-7.79c-3.08-.29-6.2-.16-9.29-.21C123.11,249.51,123.05,249.57,122.92,249.64Z" transform="translate(-9.97 -246.97)"/><path d="M452.83,247.32a2.86,2.86,0,0,1,.47-.1c3.57,0,7.14,0,10.7.09a9.48,9.48,0,0,1,4.33,1.23,7.56,7.56,0,0,1,4.08,6.35,9.31,9.31,0,0,1-.35,3.63,7.44,7.44,0,0,1-4.1,4.64c-.35.17-.72.32-1.2.54l6,8.46a6.79,6.79,0,0,1-2.64.1c-.25,0-.49-.39-.68-.64l-4.62-6.53c-.2-.29-.42-.58-.56-.77h-8.76v7.85a6.09,6.09,0,0,1-2.65,0ZM455.5,262a4.41,4.41,0,0,0,.57.07c2.23,0,4.46,0,6.7,0a10.59,10.59,0,0,0,2.24-.3c2.21-.53,3.92-1.71,4.51-4,.82-3.17-.13-6.89-4.63-7.87a4.19,4.19,0,0,0-.85-.14c-2.77-.06-5.55-.1-8.32-.14-.06,0-.12.07-.22.14Z" transform="translate(-9.97 -246.97)"/><path d="M164,263.7l6.09,8.61a24,24,0,0,1-2.59,0,1.42,1.42,0,0,1-.79-.62c-1.54-2.13-3.09-4.27-4.55-6.45a1.87,1.87,0,0,0-1.93-.95c-2.08.12-4.18,0-6.27.05h-1.27v7.94h-2.59v-25c.4,0,.75-.06,1.1-.06h8.44a12.7,12.7,0,0,1,5.17,1,7.44,7.44,0,0,1,4.78,6.53,11.22,11.22,0,0,1-.13,3.12,7.18,7.18,0,0,1-4.1,5.26C164.93,263.27,164.53,263.44,164,263.7Zm-11.24-14.07V262c2.42,0,4.76,0,7.1,0a10.33,10.33,0,0,0,2.14-.25c2.29-.51,4.07-1.65,4.75-4,1.1-3.87-.8-7-4.7-7.93a3.26,3.26,0,0,0-.75-.12c-2.77-.06-5.54-.1-8.32-.14C152.87,249.51,152.81,249.58,152.71,249.63Z" transform="translate(-9.97 -246.97)"/><path d="M428.8,272.24v-25h17.14v2.19H431.48v9h12.9v2.23H431.62a56.58,56.58,0,0,0-.06,9.32h14.91v2.22Z" transform="translate(-9.97 -246.97)"/><path d="M345.85,247.27H363v2.15a35.34,35.34,0,0,1-3.58.06c-1.19,0-2.38,0-3.57,0h-7.29v9h12.88v2.26c-4.24.05-8.51,0-12.76,0a66.74,66.74,0,0,0-.08,9.26c1.21.05,2.46,0,3.7,0H363.5v2.22H345.85Z" transform="translate(-9.97 -246.97)"/><path d="M301.79,258.48h12.89v2.22H301.93a55.23,55.23,0,0,0-.07,9.31h14.9v2.13c-.84.23-16.55.26-17.66,0V247.28h17.14v2.19H301.79Z" transform="translate(-9.97 -246.97)"/><path d="M175.9,247.27H193v2.15a35.39,35.39,0,0,1-3.58.06c-1.19,0-2.38,0-3.57,0h-7.29v9h12.87v2.26c-2.11.05-4.25,0-6.4,0h-6.52c0,3.09,0,6.1,0,9.27,1.32.05,2.57,0,3.81,0h11.22v2.22H175.9Z" transform="translate(-9.97 -246.97)"/><path d="M210,247.21c3.81,8.34,7.6,16.61,11.45,25a9,9,0,0,1-2.48,0c-.22,0-.49-.37-.61-.63-.78-1.67-1.55-3.34-2.25-5a1.39,1.39,0,0,0-1.51-1q-6,.06-11.9,0a1.39,1.39,0,0,0-1.51,1c-.69,1.66-1.49,3.28-2.18,4.94a1.08,1.08,0,0,1-1.23.78c-.56-.05-1.14,0-1.83,0,.13-.38.19-.65.3-.89q5.35-11.7,10.69-23.4a1.15,1.15,0,0,1,1.3-.83C208.77,247.25,209.34,247.21,210,247.21Zm4.63,16.16c-2-4.48-4-8.83-6-13.36l-6,13.36Z" transform="translate(-9.97 -246.97)"/><path d="M494,249.22c-.3.73-.57,1.35-.87,2.05-.4-.2-.75-.36-1.09-.54a12.05,12.05,0,0,0-8.07-1.25,8.32,8.32,0,0,0-2.68,1.07,3.69,3.69,0,0,0,.26,6.42,27.19,27.19,0,0,0,4.36,1.55c1.34.42,2.71.73,4.06,1.12a13.82,13.82,0,0,1,1.7.7c4.66,2.16,4.17,8.23.68,10.49a10,10,0,0,1-3.91,1.49,16.19,16.19,0,0,1-9.51-1.25,7.94,7.94,0,0,1-2.61-1.83l1-2,.84.59a12.61,12.61,0,0,0,10.8,1.93,5.71,5.71,0,0,0,2.09-1.08,3.58,3.58,0,0,0-.35-5.89,16,16,0,0,0-3.59-1.43c-1.55-.49-3.14-.82-4.69-1.28a14.47,14.47,0,0,1-2.2-.89c-4.44-2.09-4.08-8-.86-10.36a9.46,9.46,0,0,1,4.27-1.7,15.61,15.61,0,0,1,8.59,1c.39.18.77.39,1.15.6C493.55,248.9,493.72,249,494,249.22Z" transform="translate(-9.97 -246.97)"/><path d="M323.14,247.27h17.11v2.15a35.39,35.39,0,0,1-3.58.06c-1.19,0-2.38,0-3.57,0h-7.29v9.82h12.87v2.29H325.87a18.16,18.16,0,0,0-.12,3.51c0,1.19,0,2.38,0,3.57v3.5a6.17,6.17,0,0,1-2.6.05Z" transform="translate(-9.97 -246.97)"/><path d="M295.67,385.89c-1.31.33-2.42.63-3.54.89a3.36,3.36,0,0,0-1.54.69,3.49,3.49,0,0,1-1.06.52c-2.31.81-4.62,1.6-6.93,2.42a5.22,5.22,0,0,0-1.18.52,18.3,18.3,0,0,1-6.27,2.26c-1,.21-2,.48-2.93.75a1.23,1.23,0,0,0-.65.34,5.69,5.69,0,0,1-3.82,2.19,19.37,19.37,0,0,0-2,.42,18.08,18.08,0,0,0-2.35,1c-.95.49-1.85,1.11-2.84,1.53-1.25.53-2.56.92-4,1.43v-2.7c-.33.3-.52.4-.58.55-.27.67-.53,1.35-.74,2a1.16,1.16,0,0,1-1,.93,8.53,8.53,0,0,0-2,.6,7.3,7.3,0,0,0-4.08,4.11c-1.31,3.24-2.63,6.48-3.92,9.73-1.43,3.58-2.8,7.18-4.25,10.76a21.23,21.23,0,0,1-1.69,3.37,6.79,6.79,0,0,0-1.16,3.21,16.31,16.31,0,0,1-2.13,6.64,4.57,4.57,0,0,0-.67,2.56,7.19,7.19,0,0,1-1.41,4.24,15,15,0,0,0-1.2,2.28c-1,2.32-3.41,3-5.26,1.35a8.29,8.29,0,0,0-4.93-1.95c-.5-.05-1-.12-1.5-.19a.83.83,0,0,1-.8-1,3,3,0,0,0-.81-2.47,2.32,2.32,0,0,1-.36-2c.29-1.59.6-3.18.91-4.78a2.21,2.21,0,0,1,.18-.62,15.1,15.1,0,0,0,1.38-4.41,22.76,22.76,0,0,1,2.54-6.17,2.21,2.21,0,0,0,.34-1.2,10.69,10.69,0,0,1,1-5.05c.59-1.39,1.15-2.8,1.7-4.21a13.83,13.83,0,0,0,.5-1.54c.43-1.67-.06-2.37-1.77-2.56-.43,0-.86-.12-1.28-.19a2.21,2.21,0,0,1-.52-.14c-.62-.27-.89-.69-.62-1.3a33.35,33.35,0,0,1,2.09-4.24,6.48,6.48,0,0,1,2-1.65,25.06,25.06,0,0,1,2.27-1.25,6.28,6.28,0,0,0,2.94-3.33c2.27-5.53,4.55-11.07,6.92-16.56,1-2.25,2.15-4.4,3.24-6.59.26-.52.57-1,.8-1.54a20.33,20.33,0,0,1,2.82-5.3,10.54,10.54,0,0,0,1.29-3,9.07,9.07,0,0,1,2.39-3.79,3.41,3.41,0,0,0,.83-1.49,23.43,23.43,0,0,1,4.78-8.63,13.43,13.43,0,0,0,1.45-2.4c.61-1.06,1.2-2.13,1.83-3.18a4.21,4.21,0,0,0,.73-1.88,2.08,2.08,0,0,1,.47-1.05c1.11-1.51,2.27-3,3.37-4.5a13.17,13.17,0,0,0,1.12-2c1.25-2.62,4.05-2.8,6-.93a2.28,2.28,0,0,0,1.15.67c1.4.33,2.79.74,4.16,1.16.81.25,1.05.62.85,1.47-.75,3.27-1.49,6.55-3.35,9.43a34.65,34.65,0,0,0-2.68,5.3c-1.31,3.08-2.63,6.16-4,9.22-.77,1.7-1.73,3.32-2.51,5-.85,1.86-1.6,3.77-2.37,5.67s-1.5,3.75-2.25,5.62a1.92,1.92,0,0,0-.14.29,2.42,2.42,0,0,1-1.31,2,2,2,0,0,0-.68,1.38,25.5,25.5,0,0,0,0,2.92c.34-.13.6-.21.84-.32,1.82-.89,3.61-1.82,5.44-2.67a6.2,6.2,0,0,1,1.86-.47,7.49,7.49,0,0,0,3.15-1.05c3.74-2.39,7.92-3.8,12-5.52a18.06,18.06,0,0,0,2.37-1.28,11.24,11.24,0,0,1,3.58-1.47,8.13,8.13,0,0,0,2.18-.91,64.56,64.56,0,0,1,8.95-3.79,13.05,13.05,0,0,1,2.43-.47,2.78,2.78,0,0,0,2.35-1.84q2.61-7,5.2-14.1a2.07,2.07,0,0,0,0-.45c-.5.17-.92.31-1.35.47-2.11.76-3.31.32-4.47-1.58a5.48,5.48,0,0,0-1-1.23c-1.46-1.25-1.48-2.66.14-3.73q2.72-1.77,5.58-3.29c1.85-1,3.79-1.78,5.69-2.65a1.65,1.65,0,0,0,1.08-1.2,5.29,5.29,0,0,1,1-1.86c.82-1.08,1.61-2.13,1.47-3.61,0-.28.31-.6.5-.89a8.51,8.51,0,0,0,.79-1.13c.75-1.71,1.42-3.46,2.2-5.16.52-1.15,1.16-2.24,1.74-3.36a2.24,2.24,0,0,0,.24-.7,9.89,9.89,0,0,1,1.71-4.28,25.51,25.51,0,0,0,1.75-3.46,91.68,91.68,0,0,1,5.34-10.62c.6-.94,1-2,1.61-2.94.7-1.12,1.5-2.19,2.27-3.28.32-.46.33-.45,0-1,.48-.45,1-.94,1.48-1.37a3.63,3.63,0,0,1,3.42-.82,17.15,17.15,0,0,0,2.68.28c.72.06,1.45.05,2.15.17s1,.44.94,1.2a19.49,19.49,0,0,1-.64,2.94,7.68,7.68,0,0,1-.7,1.58,54.52,54.52,0,0,0-3.85,9.28,9.58,9.58,0,0,1-1.43,2.88,6.84,6.84,0,0,0-.94,1.94c-.78,2.25-1.47,4.52-2.26,6.76-.28.81-.75,1.55-1.11,2.33a14.82,14.82,0,0,0-1,2.16,9.34,9.34,0,0,1-1.8,4c-.38.41-.34,1.21-.5,1.85a3.26,3.26,0,0,0,2.13.05,24.92,24.92,0,0,0,2.74-1c1.09-.46,2.15-1,3.23-1.5a3.46,3.46,0,0,1,.91-.34,19.08,19.08,0,0,0,5.6-1.93,21,21,0,0,1,5.63-1.84,17.44,17.44,0,0,0,5.35-2,9.52,9.52,0,0,0,3.87-3.83,36.62,36.62,0,0,1,3.36-4.9c1-1.35,1.94-2.78,2.94-4.14.69-.93,1.42-1.82,2.18-2.68a12.82,12.82,0,0,0,2.27-3.28,3.87,3.87,0,0,1,1-1.26c1.37-1.23,2.77-2.42,4.18-3.6a13.7,13.7,0,0,1,1.32-.94,5.47,5.47,0,0,1,5.86-.2c1.46.79,2.84,1.71,4.24,2.61a1.16,1.16,0,0,1,.45,1.76c-.39.73-.88,1.4-1.32,2.1-.11.17-.2.36-.37.68.8-.14,1.11-.71,1.57-1.06s.86-.72,1.43-1.22a7,7,0,0,1-1.67,3.68c-1.12,1.41-2.29,2.78-3.43,4.18-.84,1-1.66,2.09-2.5,3.13a2,2,0,0,0-.54,1.48l4.31-1.95c-.12.44-.12.74-.27.91-3.35,4.11-5.75,8.82-8.4,13.36a5.3,5.3,0,0,1-3.39,2.63,4.76,4.76,0,0,0-3.62,3.36,11.51,11.51,0,0,1-.66,1.48l-5.42,11.55c-.68,1.44-1.31,2.89-2.05,4.29a95.58,95.58,0,0,0-4.1,9.06c-.75,1.84-1.56,3.65-2.36,5.46a5.89,5.89,0,0,1-.56.78,6.93,6.93,0,0,0-1.17,1.9c-.9,3.82-2.65,7.31-4.12,10.91-1.21,3-2.6,5.86-3.88,8.8a30.34,30.34,0,0,0-1.1,2.93A76.76,76.76,0,0,1,339,403.14a37.61,37.61,0,0,0-1.66,4.45,13.63,13.63,0,0,1-1.9,4,5.62,5.62,0,0,0-.79,1.76c-.36,1.16-.67,2.35-1,3.54a47.65,47.65,0,0,1-2.8,8.05c-1.88,4.07-3.2,8.35-4.69,12.56-1.71,4.82-3.52,9.61-5.19,14.44a97.69,97.69,0,0,0-3.6,13.13c-.32,1.64-1,2.17-2.61,2.1s-3.38-.25-5.07-.4a5.52,5.52,0,0,1-.89-.22c-.41-.76.26-1.72-.64-2.44-.21.35-.36.66-.55.94a2.8,2.8,0,0,1-3.95.49,2.48,2.48,0,0,1-.53-1.25,15.23,15.23,0,0,1,.49-6.84c.53-2,1-4.06,1.55-6.07.3-1.15.77-2.25,1-3.4a13.54,13.54,0,0,1,1.33-3.63,15.46,15.46,0,0,0,1-3.07c.35-1.25.67-2.5,1-3.75.5-1.72,1-3.44,1.55-5.17a1.22,1.22,0,0,1,.2-.48,5.28,5.28,0,0,0,1.28-3.26,9.36,9.36,0,0,1,.92-2.87,31.23,31.23,0,0,0,2.81-8.38,9.26,9.26,0,0,1,1.65-3.94,8.65,8.65,0,0,0,1.37-2.91,38.28,38.28,0,0,1,3.86-9,3.1,3.1,0,0,0,.41-1,19.61,19.61,0,0,1,2.4-6.23c1.49-2.64,3-5.26,4.47-7.91a31.56,31.56,0,0,0,2.72-6.35,8.4,8.4,0,0,1,1.66-3c.92-1.1,1.87-2.19,2.7-3.37a25,25,0,0,0,2.1-3.52,28.61,28.61,0,0,1,3.53-5.67,52.76,52.76,0,0,0,4.43-6.92,6,6,0,0,0,.73-1.68c.51-2.34,1.86-4.28,3-6.35.66-1.26,1.27-2.55,1.91-3.83l-.19-.15a2.33,2.33,0,0,0-.57.34,3,3,0,0,0-.41.63q-3.13,5.17-6.28,10.36c-1.29,2.13-2.56,4.26-3.85,6.39a22.89,22.89,0,0,1-4,5,7.88,7.88,0,0,0-1.43,2.13c-1.92,3.51-3.81,7-5.71,10.56,0,.09-.12.17-.24.36a1.05,1.05,0,0,1-.06-1.09C333,374,335,367.6,337.9,361.58c.64-1.32,1.13-2.72,1.71-4.09s1-2.52,1.6-3.77c1.59-3.56,3.2-7.1,4.79-10.65.29-.63.52-1.25,1.34-1.42.23,0,.48-.51.55-.82a6.69,6.69,0,0,0,0-1.34,1.19,1.19,0,0,0-1.62-.09,2.35,2.35,0,0,1-2.25.35c-.24-.1-.63.07-.92.18-1.24.5-2.47,1-3.69,1.53a61.12,61.12,0,0,1-6.46,2.15c-2.58.8-5.1,1.78-7.64,2.7a1.5,1.5,0,0,0-1,1.28,5.26,5.26,0,0,1-1.62,3.45,2.39,2.39,0,0,0-.5,1q-1.14,3.62-2.26,7.23c-.37,1.2-.13,1.61,1.14,1.88a6,6,0,0,1,3.36,2,13.42,13.42,0,0,0,1.71,1.46,18.78,18.78,0,0,1,1.77,1.4,2.61,2.61,0,0,1,.48,3.2,14.21,14.21,0,0,1-1.43,2.4,3.59,3.59,0,0,1-1.42,1.11c-1.52.66-3.07,1.22-4.63,1.79a4.66,4.66,0,0,0-2.08,1.3,3.09,3.09,0,0,1-2.38,1.1,6.44,6.44,0,0,0-1.06.15,2,2,0,0,0-1.45,1.18c-.16.36-.28.74-.42,1.12-.91,2.42-1.8,4.86-2.76,7.27a22.18,22.18,0,0,0-1.05,3.51,47.6,47.6,0,0,1-1.31,4.67c-.89,2.82-1.83,5.61-2.75,8.42a4.92,4.92,0,0,0-.17.85,26.49,26.49,0,0,1-1.92,6.61,81.78,81.78,0,0,0-2.54,7.81,176.73,176.73,0,0,1-6.51,19,18.73,18.73,0,0,0-1,3.62,24.78,24.78,0,0,1-2.15,6.22c-.31.64-.63,1.29-1,1.93a4.73,4.73,0,0,0-.63,2.58,9,9,0,0,1-.75,3.46c-1,3-2,5.94-3.06,8.89a6.64,6.64,0,0,1-1,2,3.52,3.52,0,0,0-.81,2.06c0,.69-.06,1.37-.09,2.06a14.92,14.92,0,0,1-.12,1.5,3.42,3.42,0,0,1-3.35,3.09,7.68,7.68,0,0,1-3.52-.34,4.88,4.88,0,0,0-3.09,0,2.85,2.85,0,0,0-.52.15c-2.23,1-3.81-.68-3.72-2.7a30.92,30.92,0,0,1,1.28-8.53,76.58,76.58,0,0,0,2.75-9.43,15.47,15.47,0,0,1,1.15-3,12.8,12.8,0,0,0,1-3.39,15,15,0,0,1,.69-2.61c1.45-4.64,3.06-9.24,4.12-14,.38-1.72.78-3.44,1.15-5.17a1.15,1.15,0,0,1,.51-.88,1.85,1.85,0,0,0,.9-1.52,26.1,26.1,0,0,1,1.56-5.84c1.19-3.62,2.43-7.24,3.78-10.81a66,66,0,0,0,1.91-6.87,7.4,7.4,0,0,1,1.17-2.85,6.46,6.46,0,0,0,1-3.49,9.94,9.94,0,0,1,1-3.51C294.36,388.81,295,387.39,295.67,385.89Z" transform="translate(-9.97 -246.97)"/><path d="M519.89,371.41c.55-.21.89-.33,1.22-.47a31,31,0,0,1,6.39-2,1.7,1.7,0,0,0,1.37-1c.57-1.24,1.2-2.46,1.82-3.68.17-.35.4-.68.59-1a10,10,0,0,0,1.07-2.11,18.13,18.13,0,0,1,2-4.4c.31-.57.65-1.12,1-1.69s.43-.93,1.09-1.08c.31-.07.65-.57.76-.95a7.67,7.67,0,0,1,1.28-2.35l2.67-3.55a11.11,11.11,0,0,1,2.51-2.52,2.64,2.64,0,0,0,1.19-1.62,1.16,1.16,0,0,1,.83-.9,1.86,1.86,0,0,0,1.19-1.29c.1-.32.33-.77.59-.85.72-.22.95-.79,1.32-1.31a6.62,6.62,0,0,1,1-1l1.73-1.62a1.9,1.9,0,0,1,.41-.34,4.15,4.15,0,0,0,2.3-2c.11-.25.48-.41.76-.57,1.31-.76,2.65-1.47,3.93-2.28.72-.46,1.32-1.09,2-1.62a1.71,1.71,0,0,1,.79-.45,7,7,0,0,0,2.93-1,14.38,14.38,0,0,1,4.49-2.08,6,6,0,0,0,1.34-.68,4.51,4.51,0,0,1,1.27-.58c1-.14,2-.13,2.67-1a1.12,1.12,0,0,1,.81-.22c1.48.08,3,.12,4.42.32a4.93,4.93,0,0,1,2,.82,5.09,5.09,0,0,0,2.33.78c.39,0,.79.09,1.18.11a3.33,3.33,0,0,1,2.87,1.34c.42.58,1.33.8,2,1.17,1.06.54,2.13,1,3.17,1.61a2.49,2.49,0,0,1,1.28,1.67,1.56,1.56,0,0,0,.49.79,3.84,3.84,0,0,1,1.31,3.5,17.43,17.43,0,0,1-1.81,6.85c-.38.7-.64,1.45-1,2.15a24.21,24.21,0,0,1-1.65,2.78c-1.24,1.71-2.64,2-4.54,1a4.5,4.5,0,0,1-2.71-5.12c.27-2.36.5-4.73.75-7.15a1.89,1.89,0,0,0-.58-.1c-5.18.9-10.06,2.51-14.28,5.79-1.65,1.28-3.3,2.56-5,3.8-3.24,2.36-5.77,5.43-8.37,8.42a57.79,57.79,0,0,0-5.92,8.65c-1.22,2.05-2.37,4.13-3.57,6.18a18.7,18.7,0,0,0-2,5.25,7.76,7.76,0,0,1-.25.82c-1,2.6-1.93,5.21-2.93,7.79a11.41,11.41,0,0,0-.86,4.33c.08,3.17.23,6.34.39,9.51,0,1,.53,1.25,1.47.83.72-.33,1.4-.73,2.09-1.12a15.93,15.93,0,0,1,4.37-1.85,6.73,6.73,0,0,0,2.69-1.54c1.23-1,2.5-2,3.7-3,1-.81,1.85-1.71,2.78-2.57a9.24,9.24,0,0,1,1.29-1.14,49.79,49.79,0,0,0,6.73-5.91,15.41,15.41,0,0,1,2.51-2.18A7.83,7.83,0,0,0,571,376c.17-.2.36-.47.59-.53a2.51,2.51,0,0,0,1.41-1.1,5.63,5.63,0,0,1,1.57-1.62,4.47,4.47,0,0,0,1-1.26,11,11,0,0,0,2.19-3.82,1.37,1.37,0,0,1,1.45-1.08,26.14,26.14,0,0,1,3.76.34,4.58,4.58,0,0,1,2.11,1,12.39,12.39,0,0,0,4.09,2.35,2.65,2.65,0,0,1,1.59,3.35,3.07,3.07,0,0,1-.2.5c-.42.92-.83,1.85-1.3,2.74a12.47,12.47,0,0,1-1,1.5c-.46.64-.93,1.29-1.43,1.9a11.72,11.72,0,0,0-2.07,2.72,3.39,3.39,0,0,1-.93,1,41.06,41.06,0,0,0-4.68,5.09,40.17,40.17,0,0,1-3.48,3.55c-2.71,2.65-5.42,5.3-8.16,7.91a17.64,17.64,0,0,1-2.07,1.54c-.58.42-1.21.79-1.74,1.26a5.75,5.75,0,0,1-2.49,1.47A1.45,1.45,0,0,0,560,406.2a1,1,0,0,1-.63.8,74.7,74.7,0,0,1-9.78,4.32,2.47,2.47,0,0,1-.85.13c-1.51,0-3-.06-4.54-.05a8.82,8.82,0,0,1-5.78-1.75,3.25,3.25,0,0,0-1-.45c-.71-.24-1.44-.47-2.16-.68a12,12,0,0,1-5-2.93,27.78,27.78,0,0,0-2.58-2.13,7.47,7.47,0,0,1-3.12-5.23,4.17,4.17,0,0,0-.33-1.36,5.61,5.61,0,0,1-.17-4,1.41,1.41,0,0,0,0-.9,5.69,5.69,0,0,1-.41-4.19c.44-2.55.78-5.12,1.16-7.69a2,2,0,0,0-.06-.39c-.32.12-.63.21-.91.34-1.74.77-3.48,1.58-5.23,2.33a2.72,2.72,0,0,1-1.14.14,1.3,1.3,0,0,0-1.56.84c-.16.32-.28.66-.41,1a116.28,116.28,0,0,0-3.88,13.83c-.68,2.91-1.33,5.83-2,8.75a19,19,0,0,0-.34,5.38,6.65,6.65,0,0,1,0,1.18c-.13,1.07-.63,1.58-1.7,1.56-1.66,0-3.31-.16-5-.28-.89-.07-1.78-.23-2.68-.33a6.51,6.51,0,0,1-4.09-2.23,2.89,2.89,0,0,1-.76-2.19,50.92,50.92,0,0,1,1-9.78c.25-1.05.52-2.09.8-3.14a1.84,1.84,0,0,1,.35-.88,1.89,1.89,0,0,0,.51-1.86,4.6,4.6,0,0,1,.78-3l.7-1.2a8.48,8.48,0,0,0-.93.18,14.75,14.75,0,0,0-4.35,2.38,5.2,5.2,0,0,1-2.11,1,23.67,23.67,0,0,0-3.44,1.27c-1.48.65-2.93,1.38-4.4,2.06a2.74,2.74,0,0,1-.72.23,3.34,3.34,0,0,0-2.67,1.81c-2.37,4.38-5.38,8.38-7.47,12.92a3.53,3.53,0,0,1-.5.83,14.66,14.66,0,0,0-2.59,4.71,48.81,48.81,0,0,1-4.16,8.42,2.63,2.63,0,0,0-.31,1.1,1.23,1.23,0,0,1-.89,1.22,19,19,0,0,1-5.13,1.24,24.6,24.6,0,0,1-2.53-.18c.21-.47.33-.79.48-1.1,2.21-4.47,4-9.12,5.83-13.73a5.55,5.55,0,0,0,.2-3.7,2.6,2.6,0,0,0-.21-.4c-1.14.44-1.2,1.44-1.43,2.42l1.17.08-7.11,15.76c-1.23,0-1.59-.39-1.37-1.46.26-1.35.48-2.71.85-4s.89-2.66,1.39-4,1.08-2.59,1.61-3.89c1-2.5,2-5,3.06-7.59l-4-.71c-.89-.16-1.78-.31-2.66-.49s-1.2-.5-1.21-1.49a5,5,0,0,1,2.67-4.73c1.05-.56,2.15-1,3.21-1.54a2.36,2.36,0,0,0,1-.8,5.67,5.67,0,0,1,2.84-2.39c.77-.32,1.57-.56,2.32-.89a25.81,25.81,0,0,0,2.4-1.23,5.7,5.7,0,0,0,2.28-2.55c.35-.75.68-1.51,1.08-2.24a9.16,9.16,0,0,1,1.12-1.71,12.62,12.62,0,0,0,2.07-3.28c.66-1.52,1.31-3,1.93-4.58a4.27,4.27,0,0,1,1.41-2,3.29,3.29,0,0,0,.89-1.07c.77-1.38,1.59-2.75,2.23-4.19a15,15,0,0,1,3.16-4.6,5.45,5.45,0,0,0,1.12-1.81,24.53,24.53,0,0,1,1.67-3.27,56.76,56.76,0,0,0,3.83-6.52,18.48,18.48,0,0,1,1.7-2.48c.56-.88,1-1.82,1.58-2.7.44-.68,1-1.31,1.49-2a5.3,5.3,0,0,0,.5-.67c.38-.74.67-1.52,1.08-2.22,1.94-3.3,3.89-6.59,5.89-9.85.65-1.07,1.49-2,2.19-3.07,1-1.53,2-3.06,3-4.65a14.58,14.58,0,0,1,2.14-3.09,13,13,0,0,0,1.31-1.72c3.5-5.08,7-10.18,10.51-15.22a49.22,49.22,0,0,1,3.55-4.22,3.31,3.31,0,0,1,3.6-.8,11,11,0,0,1,2.2.89,15.61,15.61,0,0,0,4.79,1.63,5.85,5.85,0,0,1,.76.25c-1,1.25-2,2.41-2.9,3.58a15.55,15.55,0,0,0-1.36,1.81c-.48.82-.42,1.17.09,2.19a5,5,0,0,0,.52-.5q2.21-2.81,4.39-5.63c.16-.2.31-.4.47-.59a1,1,0,0,1,1.28-.23l2,1a10.17,10.17,0,0,1-1.17,6,2.94,2.94,0,0,0-.33.8,29.41,29.41,0,0,1-2.14,6.34,129.12,129.12,0,0,0-5.61,15.66,44.84,44.84,0,0,1-2.59,6.87,34.42,34.42,0,0,0-2.42,7.15,5.49,5.49,0,0,1-.58,1.62,21.52,21.52,0,0,0-2.21,5.15q-2.16,6.74-4.3,13.49C520.06,370.73,520,371,519.89,371.41Zm-11-15.34-.28-.16a5,5,0,0,0-.58.54c-1.07,1.49-2.21,2.94-3.19,4.49-1.37,2.16-2.59,4.41-3.93,6.59-.83,1.35-1.74,2.65-2.64,4-2.29,3.33-4.59,6.64-6.88,10a3.92,3.92,0,0,0-.33.56c-.1.21-.17.43-.26.68a3.22,3.22,0,0,0,3-.85,7.07,7.07,0,0,1,3.26-1.59,7.78,7.78,0,0,0,6.35-5.9c.94-3.33,2-6.61,3-9.91q1.13-3.62,2.24-7.23C508.81,356.84,508.85,356.45,508.93,356.07Z" transform="translate(-9.97 -246.97)"/><path d="M153,404.92c1.47-.13,2.2-1.17,3.26-1.68a1.78,1.78,0,0,1-.56,1.43c-.9,1.08-1.82,2.14-2.72,3.23a12.52,12.52,0,0,0-.75,1.11l.88.61a2.15,2.15,0,0,1-.1.38c-.8,1.73-1.62,3.45-2.43,5.18a3.52,3.52,0,0,0-.44,1.1,7.84,7.84,0,0,1-1.38,3.36,3.55,3.55,0,0,0-.46,1.42c-.64,5.34-.93,10.7-1,16.07a8.18,8.18,0,0,0,.11,1.4,4,4,0,0,1-.28,3,1.13,1.13,0,0,0,.1.9c1.13,2.22,2.27,4.43,3.46,6.61a2.76,2.76,0,0,0,3.39,1.38c1.08-.31,2.13-.69,3.18-1.07q2.69-1,5.36-2a18.35,18.35,0,0,0,2.16-1,6.43,6.43,0,0,0,2.71-3,2.88,2.88,0,0,1,.9-1.17,47.7,47.7,0,0,0,10.14-10.12c.71-.94,1.64-1.71,2.44-2.58a4.66,4.66,0,0,0,.7-.95,44,44,0,0,1,3.74-5.82,2.37,2.37,0,0,0,.46-1.05,3.88,3.88,0,0,1,.86-1.83c.56-.7,1.06-1.45,1.56-2.19.74-1.11,1.44-2.25,2.18-3.36a13.66,13.66,0,0,0,1.83-3.28,7,7,0,0,1,1.22-1.75c.3-.4.68-.75,1-1.16,1.42-2.13,2.81-4.28,4.22-6.42.81-1.23,1.65-2.45,2.48-3.68a1.77,1.77,0,0,0,.33-1c-.36.3-.75.57-1.08.9a2.85,2.85,0,0,1-2.9,1,1,1,0,0,0-1.13.48c-.92,1.31-2.39,1.81-3.69,2.55-.75.43-1.59.72-2.33,1.16a14.27,14.27,0,0,0-2.56,1.78,14.86,14.86,0,0,1-4.46,2.37.4.4,0,0,1-.3,0,2.25,2.25,0,0,1-.35-.21c.8-1.1,1.55-2.12,2.41-3.28-.65,0-.81.38-1.05.61l-6.79,6.82c-.26.26-.52.51-.79.74-1.06.89-1.88.85-3-.26a11.45,11.45,0,0,1,1-1.32c1.22-1.22,1.26-2.1,0-3.56l-.81,1.23c-.39.56-.76,1.14-1.16,1.69a2.5,2.5,0,0,1-2.86,1,4.44,4.44,0,0,1-.62-.19c-1.6-.6-2-1.36-1.6-3a14.78,14.78,0,0,1,4.74-7.21,1.45,1.45,0,0,1,.55-.34,6.91,6.91,0,0,0,2.88-2.17,20.08,20.08,0,0,1,2.79-2.21c1.17-.89,2.34-1.79,3.56-2.63a4.28,4.28,0,0,1,1.55-.67,4,4,0,0,0,3-1.94,1.85,1.85,0,0,1,1.64-1.06,2.39,2.39,0,0,0,2.07-1.36,2.48,2.48,0,0,1,1.2-1.19,56.33,56.33,0,0,0,9.8-5.48,3.45,3.45,0,0,1,2.23-.68,3.51,3.51,0,0,1-.32.67c-.43.53-.9,1-1.35,1.56a4.37,4.37,0,0,0-1.14,2.62,2.82,2.82,0,0,1-.37,1,4.46,4.46,0,0,0-.39.72,6.25,6.25,0,0,0,2.78-2.08c.74-1,1.48-2,2.16-3.1a20.84,20.84,0,0,1,4.18-4.51A2.82,2.82,0,0,1,210,377c1.82-.45,3.66-.82,5.47-1.31a13.19,13.19,0,0,0,2.92-1.1,9.2,9.2,0,0,1,4.21-1.19,4,4,0,0,0,1.55-.38,4.2,4.2,0,0,1,5.24.9,6.52,6.52,0,0,0,3.79,2.11,4,4,0,0,1,1.27.59,1.45,1.45,0,0,1,.8,1.43c-.1,1.07-.25,2.14-.44,3.21a.85.85,0,0,1-.5.48,1.54,1.54,0,0,0-1.29,1.49,1.46,1.46,0,0,1-1,1.19c-1.36.67-2.7,1.37-4.06,2a8.3,8.3,0,0,1-1.62.53,2.28,2.28,0,0,0-1.6,1.17,9.64,9.64,0,0,0-.64,1.61,15.25,15.25,0,0,1-2.71,5.13,22.05,22.05,0,0,0-2,2.84c-1.54,2.78-3.37,5.37-5.12,8q-4,6.1-7.86,12.31c-2.37,3.83-4.65,7.72-6.95,11.59a2.88,2.88,0,0,0-.54,1.17,4.94,4.94,0,0,1-1.16,2.71,20.94,20.94,0,0,0-2.55,5.12,81.4,81.4,0,0,1-4.72,10.32c-.5.95-1.12,1.85-1.62,2.81a12.24,12.24,0,0,0-1,2.36,8.57,8.57,0,0,1-1.57,3.17c-.61.76-1.22,1.52-1.79,2.31a2.58,2.58,0,0,1-2.55,1.08,4.68,4.68,0,0,1-2.47-1,9.52,9.52,0,0,0-3.66-1.77,16.77,16.77,0,0,1-3.48-1.43,4.66,4.66,0,0,0-3.25-.34,1.62,1.62,0,0,0-.89.71,5.51,5.51,0,0,0-.63,1.37,2.35,2.35,0,0,1-1.83,1.64c-1.71.42-3.41.91-5.11,1.38a2.56,2.56,0,0,0-1.72,1.19,1.45,1.45,0,0,1-1.7.64,4.06,4.06,0,0,0-2.43.21,3.55,3.55,0,0,1-1.68,0,11.37,11.37,0,0,1-1.45-.43c-1-.28-2-.48-3-.84a7.2,7.2,0,0,1-2-1.08,18.33,18.33,0,0,0-3.44-2.41,3.38,3.38,0,0,1-.53-.46c-.38.65-.93.66-1.57.42a7.14,7.14,0,0,0-1.15-.27,3.84,3.84,0,0,1-2.81-1.82,6.42,6.42,0,0,0-.85-1c-.47-.54-.92-1.09-1.39-1.63a13.53,13.53,0,0,0-1-1.11,1.68,1.68,0,0,1-.48-2.39c.14-.32.3-.64.45-.95a10.59,10.59,0,0,1-1.25-.9,2.28,2.28,0,0,1-.64-1.78,5.19,5.19,0,0,0-.68-2.59c-.16-.32-.33-.63-.49-1a4.91,4.91,0,0,1,.36-5.14q3.78-5.47,7.65-10.89c.75-1.05,1.63-2,2.43-3a2.19,2.19,0,0,0,.44-.73,17.27,17.27,0,0,1,2.5-4.89c.68-1,1.34-2.05,2-3.1a8.59,8.59,0,0,0,.94-2.61,5.39,5.39,0,0,0-2.66,1.82c-1.75,2.38-3.47,4.78-5.21,7.18a1.68,1.68,0,0,0-.21.37,11.07,11.07,0,0,1-2.88,4.12,23.54,23.54,0,0,0-5.5,8.46,3.53,3.53,0,0,1-.48.75l-.26,0c-.28-1.28-.6-2.55-.82-3.84a2.2,2.2,0,0,1,.55-1.82,1.93,1.93,0,0,0,.43-1.39,26.52,26.52,0,0,1,.46-6.89c.41-1.64.93-3.25,1.36-4.89.26-.94.46-1.89.66-2.84a6.89,6.89,0,0,1,1.31-2.93,1.24,1.24,0,0,0,.26-.68,5.68,5.68,0,0,1,.93-2.73c.31-.53.67-1,.93-1.58a7.56,7.56,0,0,0,.74-2,5.15,5.15,0,0,1,.89-2.28c1.13-1.71,2.24-3.44,3.36-5.17a2,2,0,0,0,.28-.58,10.07,10.07,0,0,1,2-3.65,26.45,26.45,0,0,0,3.73-5.29,3.11,3.11,0,0,1,.57-.79,70.79,70.79,0,0,0,5.61-7.28,3.33,3.33,0,0,1,2-1.56,2.09,2.09,0,0,0,1.13-.95c1.47-2.54,3.66-4.44,5.7-6.47,1.44-1.42,2.87-2.85,4.21-4.36a42.42,42.42,0,0,1,6-5.49,11.73,11.73,0,0,0,3-2.76,6,6,0,0,1,2.06-1.52,10,10,0,0,0,3.21-2.68,2.56,2.56,0,0,1,2.3-1.2.7.7,0,0,0,.77-.59,3.34,3.34,0,0,1,1.84-2,74.46,74.46,0,0,0,7.93-5.06c.8-.54,1.72-.89,2.57-1.35a20.67,20.67,0,0,0,2.5-1.46,11.9,11.9,0,0,1,3.83-2,64.17,64.17,0,0,0,9.63-3.54,1.9,1.9,0,0,1,1.84,0,3.16,3.16,0,0,1-.87,1.65,5.51,5.51,0,0,0-.8.87,19,19,0,0,1-3.77,4c-.66.55-1.23,1.22-1.83,1.83-.87.9-1.7,1.86-2.63,2.7a14.08,14.08,0,0,0-2.17,2.39,13.4,13.4,0,0,1-2,2.29c-3.56,3.4-6.67,7.2-9.89,10.9a5.89,5.89,0,0,0-.7,1,19.54,19.54,0,0,1-3.9,4.74,52.26,52.26,0,0,1-5.25,4.83,7.13,7.13,0,0,0-2.36,3.18,11.93,11.93,0,0,1-2.51,3.75q-6.43,6.66-12.88,13.3a27,27,0,0,0-4.19,5.21,2.51,2.51,0,0,1-.78.87,8.76,8.76,0,0,0-3,3.35C153.84,403.19,153.46,404,153,404.92Z" transform="translate(-9.97 -246.97)"/><path d="M482.83,312.65l-2,2.85c.39-.06.61,0,.73-.13a3.22,3.22,0,0,0,.59-.63,3.22,3.22,0,0,1,2.16-1.3,6.87,6.87,0,0,1,3.83.37,9.94,9.94,0,0,0,2.75.88,3.42,3.42,0,0,1,1.59.86c1,.8,1.82,1.86,3.18,2.15.14,0,.26.24.36.38q2.15,3.32,4.3,6.62a3.41,3.41,0,0,1,.63,1.92,1.64,1.64,0,0,0,0,.22c.67,4.89-1.28,9-4.11,12.71a31.32,31.32,0,0,1-5,5.2c-1.89,1.56-3.71,3.22-5.7,4.64-2.63,1.88-5.37,3.61-8.08,5.36a49.68,49.68,0,0,1-9.88,5.1,2.47,2.47,0,0,0-.89.57,10.13,10.13,0,0,1-3.68,2.42,62.34,62.34,0,0,0-6.37,3,35.44,35.44,0,0,1-4.67,2,36.05,36.05,0,0,0-6.92,3.31,16.86,16.86,0,0,1-5,2.26,4.29,4.29,0,0,0-3.22,3c-1.5,4.24-3.13,8.44-4.28,12.81-.64,2.42-1.76,4.72-2.62,7.08-.31.85-.51,1.73-.76,2.59-.33,1.1-.63,2.21-1,3.31-.83,2.57-1.68,5.13-2.53,7.7-.4,1.19-.85,2.37-1.23,3.57s-.7,2.42-1.06,3.63a25.41,25.41,0,0,1-.92,2.88,24.35,24.35,0,0,1-3,5.49c-1.1,1.39-2.05,1.75-3.64.93-1.27-.66-2.47-1.48-3.74-2.16s-2.53-1.21-3.8-1.82c-.33-.15-.66-.29-1-.46a2.21,2.21,0,0,1-1.33-2.28c.16-1.5.35-3,.65-4.48.89-4.34,1.83-8.67,2.77-13a3.08,3.08,0,0,1,.33-1,10.18,10.18,0,0,0,1.43-5.59,6.9,6.9,0,0,1,.5-2.92,22.79,22.79,0,0,0,.87-3.32c.21-.77.45-1.52.7-2.27.59-1.78,1.16-3.57,1.79-5.33a3.89,3.89,0,0,0-.64-3.87c-.43-.58-1-1.07-1.4-1.64a15.22,15.22,0,0,1-1.64-2.4,2.46,2.46,0,0,1,1-3.46,16.13,16.13,0,0,1,2.15-1c1.38-.62,2.82-1.13,4.13-1.87a9.36,9.36,0,0,0,4.18-5.2,7.18,7.18,0,0,1,.7-1.45,3.56,3.56,0,0,0-.05-4.24,7.83,7.83,0,0,0-1.12-1.32,33.09,33.09,0,0,0-2.58-2.3,12.07,12.07,0,0,0-2.47-1.52,6.65,6.65,0,0,1-3.91-5.22,3.79,3.79,0,0,1,.31-2.09A16.06,16.06,0,0,1,416,341a24.37,24.37,0,0,1,5.55-5.87c1.4-1,2.8-2,4.22-3a3.3,3.3,0,0,1,1.26-.55,2.09,2.09,0,0,0,1.62-1.12,3.57,3.57,0,0,1,1.39-1.31c1.14-.71,2.22-1.48,3.34-2.21a3.27,3.27,0,0,1,.95-.48,15.56,15.56,0,0,0,4.54-2,24.57,24.57,0,0,1,5.5-2.74,1.21,1.21,0,0,0,.2-.09c5-2.61,10.38-4.08,15.72-5.7,2.62-.79,5.26-1.52,7.9-2.27a3.46,3.46,0,0,1,1.05-.18,59.43,59.43,0,0,0,8.84-.72c1.18-.13,2.37-.2,3.56-.26A8.31,8.31,0,0,1,482.83,312.65ZM452,355.15l.27.22c.2-.18.42-.35.6-.54a21.27,21.27,0,0,0,3.51-4.66,5.71,5.71,0,0,1,2.78-2.6c1.76-.83,3.5-1.71,5.25-2.55a1.55,1.55,0,0,1,.61-.22,2.12,2.12,0,0,0,1.5-.94,2.61,2.61,0,0,1,1.85-1.22,3.85,3.85,0,0,0,2.2-1c.53-.36,1.08-.71,1.65-1a21.06,21.06,0,0,0,5.54-3.91,1.76,1.76,0,0,1,.43-.33c2.19-1.25,4-3.08,6.13-4.4s3.12-3.35,4-5.49a3.85,3.85,0,0,0,.1-1.14c-1.2-.31-2.31-.63-3.43-.88a9.84,9.84,0,0,0-2.21-.33c-1.73,0-3.46.16-5.19.24-.59,0-1.23.05-1.55-.53s.14-1,.43-1.47c.91-1.34,1.85-2.66,2.78-4,.14-.21.25-.45.45-.79-.85.19-1.37.5-1.6,1.2a6.25,6.25,0,0,1-1.92,2.7c-.56.51-1.17,1-1.7,1.51a3.63,3.63,0,0,1-2.06,1.08q-7.19,1.34-14.35,2.65c-1.7.3-2,.58-2.39,2.29a35.42,35.42,0,0,1-5.14,12.52,5.59,5.59,0,0,0-.44,1.4,2.87,2.87,0,0,1-.33,1,7.41,7.41,0,0,0-1.45,2.76,24.48,24.48,0,0,1-2.21,5.38c-.31.57-.57,1.16-.84,1.75a5,5,0,0,0-.17.81c.5-.23.82-.37,1.12-.52l8-4.08c.33-.17.67-.3,1-.45l.19.22Zm-24.93-.86c1-2,2.1-3.82,2.87-5.76a22.9,22.9,0,0,1,2-3.68c1.63-2.59,3.17-5.24,4.73-7.87a1.26,1.26,0,0,0,.1-1.35,3.07,3.07,0,0,0-.53.07,3.52,3.52,0,0,0-.71.25,39.85,39.85,0,0,0-7.15,4c-1.42,1-2.9,2-4.31,3.09-1.15.86-2.29,1.76-3.36,2.72a1.45,1.45,0,0,0-.06,2.43C422.72,350.22,424.83,352.17,427.08,354.29Z" transform="translate(-9.97 -246.97)"/><path d="M47,380.55a8.54,8.54,0,0,0-1.61.47c-3.58,1.79-7.14,3.62-10.7,5.44-.26.13-.51.27-.77.39a1.33,1.33,0,0,1-1.6-.22,19.54,19.54,0,0,0-4.6-3.39,1.4,1.4,0,0,1-.73-1.46,7.49,7.49,0,0,1,2.19-4.93,13.46,13.46,0,0,1,3.5-2.31c.88-.47,1.7-1.06,2.55-1.6s1.49-1,2.28-1.42c1.45-.73,2.93-1.39,4.41-2.07a4.08,4.08,0,0,1,2-.55,1.16,1.16,0,0,0,.82-.41A4.83,4.83,0,0,1,48,366.93l1.07-.16a1.64,1.64,0,0,0,1.31-.84,1,1,0,0,1,1.21-.67,1.75,1.75,0,0,0,1.46-.57,3.25,3.25,0,0,1,1.74-.8,7.78,7.78,0,0,0,5.12-3.33c.9-1.21,1.87-2.38,2.76-3.6.51-.69.9-1.47,1.37-2.19.35-.54.74-1,1.11-1.56.5-.7,1.05-1.38,1.49-2.12a9.85,9.85,0,0,1,4-3.69,5.37,5.37,0,0,1,4.32,0c.33.1.62.59.76,1a2.77,2.77,0,0,0,1.21,1.44c.89.56,1.72,1.2,2.59,1.77a1.26,1.26,0,0,1,.61,1.48c-.17.72-.39,1.43-.63,2.31l2.83-.85c.55-.17,1.09-.37,1.64-.51a2.51,2.51,0,0,0,1.69-1.06,1,1,0,0,1,.58-.41,50.28,50.28,0,0,0,8.22-2.68,49.19,49.19,0,0,1,6.87-1.9,10.83,10.83,0,0,0,2.46-.77,32.23,32.23,0,0,1,9.22-3,24.25,24.25,0,0,0,6.13-1.68c.49-.22,1-.35,1.6-.55a2.07,2.07,0,0,1-.67,1.9,10.39,10.39,0,0,1-1.45,1.12,3.65,3.65,0,0,0-1.79,2.2c-1.11-1-2-.48-2.79.31-1,.94-2,1.86-3,2.78a4.34,4.34,0,0,0-1.34,2.17,7.31,7.31,0,0,1-2,3.4,22.81,22.81,0,0,0-3.41,4.05,1.08,1.08,0,0,1-1.25.63,1.76,1.76,0,0,0-1.74.62l-5.9,5.41-.55.52a1.16,1.16,0,0,1-1.56.24,1.25,1.25,0,0,0-1.66.19,3.89,3.89,0,0,1-2.31.82q-2.1.17-4.2.39a3.71,3.71,0,0,0-2.16.9,2,2,0,0,1-1.36.56c-4,.1-7.59,1.64-11.33,2.67a4,4,0,0,0-2.45,2c-2.14,3.64-4.31,7.25-6.46,10.88-.4.69-.78,1.38-1.16,2.08s-1,1.65-.09,2.73c-1.72-.08-2.36.93-2.88,2.09a8.8,8.8,0,0,0-.65,1.63,1.62,1.62,0,0,0,.41-.32c.48-.71.93-1.45,1.41-2.17.15-.24.31-.53.75-.23a5.27,5.27,0,0,1-.81,2.68c-.58.83-.3,1.5.63,1.85a1,1,0,0,0,1.18-.3c1.29-1.53,3.08-2.05,4.91-2.54a22.26,22.26,0,0,1,6.49-1,2,2,0,0,0,1.13-.25,9.81,9.81,0,0,1,4-1.31c2.26-.45,4.52-.92,6.74-1.52a5.81,5.81,0,0,1,6.16,1.47,11.44,11.44,0,0,0,2.92,2.2A4.79,4.79,0,0,1,93.77,394,30.2,30.2,0,0,1,96,397a2.74,2.74,0,0,1-1.42,4.24,6.22,6.22,0,0,1-.92.31,1.06,1.06,0,0,0-.84.74,1.88,1.88,0,0,1-1.42,1.22c-3.19.89-6.38,1.76-9.57,2.67-1.46.41-2.88.91-4.34,1.29a7.64,7.64,0,0,1-2.23.25,2.39,2.39,0,0,0-1.53.33l-1.53,1a1.46,1.46,0,0,1-1.72.13,1.17,1.17,0,0,0-1.41.07,3.93,3.93,0,0,1-3.71.47,3,3,0,0,0-3,.61,2.62,2.62,0,0,1-1.26.48c-1.54.18-3.09.31-4.63.45a4.88,4.88,0,0,1-1.08,0,6.51,6.51,0,0,0-3.79.54,4.31,4.31,0,0,0-2.16,1.9c-.56,1-1.17,2.07-1.63,3.16q-2.7,6.44-5.3,12.9a4.81,4.81,0,0,1-2,2.46A5.08,5.08,0,0,0,38,435.58a12.68,12.68,0,0,1-.75,1.78l2-.51a5.84,5.84,0,0,1-.41,1A20,20,0,0,0,35.91,445a3.75,3.75,0,0,1-1.31,2.42,1.18,1.18,0,0,0-.42,1.36A1.88,1.88,0,0,1,34,450.3c-.65,1.38-1.29,2.75-1.88,4.14-.48,1.12-.9,2.27-1.29,3.43a2.48,2.48,0,0,1-1.53,1.82c-.67.22-.77.8-.87,1.38-.21,1.19-.42,1.38-1.61,1.4a3.9,3.9,0,0,1-3.57-1.62,5.91,5.91,0,0,0-3.06-2.12,15.33,15.33,0,0,1-2.1-.84,2.25,2.25,0,0,1-1.29-2.71,28.87,28.87,0,0,1,1.11-3.37c.21-.61.56-1.17.77-1.77a3.49,3.49,0,0,1,2.25-2.31,2.25,2.25,0,0,0,1.06-.84,25.47,25.47,0,0,0,1.2-2.35c-1.11.1-1.83.77-2.76,1a1.52,1.52,0,0,1,.21-1.76,7.62,7.62,0,0,0,1.22-3.09c.31-1.18.68-2.35,1.08-3.5,1-2.88,2.1-5.75,3.13-8.63a3,3,0,0,1,1.06-1.71,1,1,0,0,0,.41-.93c0-.43,0-.86,0-1.29a2.55,2.55,0,0,1,1-1.84,1.71,1.71,0,0,0,.6-.84c.27-1.3.47-2.62.7-3.95a2.09,2.09,0,0,0-1.54,0l-.4.15c-1.72.66-2,.55-2.68-1.14a2,2,0,0,0-1.09-1.12,12.74,12.74,0,0,1-1.72-.9,2.56,2.56,0,0,1-1.16-2.81,5.37,5.37,0,0,1,2.31-3.65c1.73-1.17,3.52-2.25,5.3-3.34a1.37,1.37,0,0,1,1.46-.08c-.17.34-.29.65-.46.95q-2,3.63-4.09,7.25a2.49,2.49,0,0,0-.34.67c0,.18.11.39.23.76a14.9,14.9,0,0,0,2.21-3.4,3.1,3.1,0,0,1,1.32-1.64,7.24,7.24,0,0,0,2.28-2.42q.79-1.23,1.53-2.49A4.69,4.69,0,0,1,35,403a6.17,6.17,0,0,0,2.92-3.22,42.39,42.39,0,0,1,3.2-6.48,2.72,2.72,0,0,0,.39-.89,13.9,13.9,0,0,1,1.72-3.95c1.09-2,2.2-4.06,3.28-6.09.27-.51.49-1,.73-1.55Z" transform="translate(-9.97 -246.97)"/><path d="M102.49,421.37l-1.3,1.76a1.89,1.89,0,0,1,.34-1.54,21.78,21.78,0,0,0,3.08-6.76c1-3.64,3.09-6.72,5.24-9.76a2.07,2.07,0,0,0,.45-1.27,11.38,11.38,0,0,1,1-3.6c.71-2.12,2.17-3.78,3-5.77.75-1.72,1.4-3.48,2.11-5.21.51-1.23,1.06-2.45,1.59-3.67a3.48,3.48,0,0,1,1.21-1.62,1.55,1.55,0,0,0,.67-1.79,1.37,1.37,0,0,1,.23-1,24.65,24.65,0,0,0,2.77-5.25,47.26,47.26,0,0,1,2.87-5.57c1-1.7,1.87-3.49,2.73-5.28a46,46,0,0,1,3.09-5.69c.6-.93,1.06-1.95,1.58-2.93l-.16-.21-1.06.31c-6.4,2-12.78,4-19.19,6A140.48,140.48,0,0,1,99.08,366l-.51.08c-.09-1.44.55-2.12,1.87-2a1.59,1.59,0,0,0,1.38-.43,30.79,30.79,0,0,0,2.73-2.75,84.54,84.54,0,0,1,9.44-9.67c2.25-2,4.52-4,6.77-6.07a6.16,6.16,0,0,0,.92-.92,11.17,11.17,0,0,1,6.58-4.06c1.36-.34,2.74-.6,4.12-.88a2.35,2.35,0,0,1,2.63,1.06c1.1,1.65,2.34,3.22,3.29,4.95a15.21,15.21,0,0,0,4.55,5.24,3.72,3.72,0,0,0,1.74.76,5.15,5.15,0,0,1,1.35.34,1.91,1.91,0,0,1,1.22,2.27,7.65,7.65,0,0,1-.43,1.33q-2,5.19-4.08,10.36a18,18,0,0,1-1.08,2.36,62,62,0,0,0-4,9.21c-1.5,4.06-3.18,8-4.77,12.06a23.7,23.7,0,0,0-.8,2.47,38.11,38.11,0,0,1-2.87,6.51c-.13.29-.34.55-.45.85-1.2,3.24-2.42,6.48-3.58,9.74-.5,1.42-.86,2.9-1.31,4.34a2.07,2.07,0,0,1-.52.91,3.64,3.64,0,0,0-1.14,2.16,23.67,23.67,0,0,1-2.4,6.57,12.13,12.13,0,0,0-.68,1.58c-.31,1-.08,1.38.93,1.67a14.06,14.06,0,0,0,1.8.38,3.17,3.17,0,0,1,2.68,2.62.7.7,0,0,1-.22.87A10.26,10.26,0,0,0,122,432.7l-2.41,3.46c-.08.11-.15.28-.26.33-1,.44-1.36,1.41-1.86,2.29a8.92,8.92,0,0,1-1.6,1.88,13.83,13.83,0,0,0-2.43,3,23.48,23.48,0,0,1-3,4,14.22,14.22,0,0,0-1.95,3.08,12.92,12.92,0,0,1-2.27,3.65,2.06,2.06,0,0,0-.65,1.44,5,5,0,0,1-1.4,3.21c-.53.58-1.16,1.09-1.69,1.67a2,2,0,0,1-2.36.49c-.79-.28-1.58-.51-2.38-.74a4.47,4.47,0,0,0-2.66.08,8.81,8.81,0,0,1-4.27,0,1.66,1.66,0,0,1-1.46-1.65c-.05-1.54-.05-3.09,0-4.63.07-1.22.33-2.43.48-3.64a4.18,4.18,0,0,1,.81-2,3.75,3.75,0,0,0,.9-2.47,4.61,4.61,0,0,1,.53-2.07c2-4,3.26-8.24,5-12.33a44.17,44.17,0,0,1,4.27-7.85A4.66,4.66,0,0,0,102.49,421.37Z" transform="translate(-9.97 -246.97)"/><path d="M395.51,324.92c.56-1.21,1.45-2,1.92-3.31a3,3,0,0,0-2.22,1.31,11.48,11.48,0,0,0-.75,1.32,4.62,4.62,0,0,1-2.91,2.42q-6.58,1.92-13.19,3.8a2.59,2.59,0,0,1-.45.06,3.38,3.38,0,0,1,.41-2.21c.59-1,1.1-2,1.67-3a10.06,10.06,0,0,1,2.36-2.8,4.64,4.64,0,0,0,1.1-1.42c.93-1.79,1.8-3.62,2.7-5.42.25-.52.44-1.13,1.24-.86a.51.51,0,0,0,.41-.09c1.17-.83,2.62-.71,3.88-1.19s2.57-1,3.86-1.4c1.1-.36,2.21-.66,3.31-1a12.06,12.06,0,0,0,1.52-.56,3.2,3.2,0,0,1,2-.4,2.48,2.48,0,0,0,1.44-.32,24.11,24.11,0,0,1,6.33-2.13c3.29-.78,6.61-1.45,9.92-2.18a6.33,6.33,0,0,0,1.44-.44,6.94,6.94,0,0,1,4-.64,2.14,2.14,0,0,0,2.42-.95,2.4,2.4,0,0,1,1.45-.8q5.7-1.21,11.44-2.33c1.24-.24,2.49-.4,3.74-.55a5.81,5.81,0,0,1,5.62,2c1.24,1.55,2.48,3.1,3.56,4.75a2.83,2.83,0,0,1-1.09,4.15,18.52,18.52,0,0,1-3.25,1.45c-5.23,1.63-10.46,3.24-15.72,4.75-1.69.48-3.47.61-5.21.93a2.37,2.37,0,0,0-1,.33,4.76,4.76,0,0,1-2.82.95,12.76,12.76,0,0,0-4.31.89c-1.14.44-2.34.74-3.5,1.13a8.28,8.28,0,0,1-3,.41,6.52,6.52,0,0,0-1.87.4c-.58.16-1.15.38-1.71.56a1,1,0,0,1-.05-1.31c1.66-2.22,3.34-4.43,5-6.65a1.43,1.43,0,0,1,.3-.14c-.43,1.16-1.33,2.31.16,3.36a5.86,5.86,0,0,0,1.32-2.54,5.31,5.31,0,0,1,1.84-3.1c.22-.21.4-.47.7-.83l-2.48-.52.3-1.2a2.84,2.84,0,0,0-.69.21,8,8,0,0,0-2.46,2.56c-1.43,2.29-2.87,4.58-4.21,6.93a8.11,8.11,0,0,1-4.13,3.79A26.82,26.82,0,0,1,396,325C395.91,325,395.78,324.94,395.51,324.92Z" transform="translate(-9.97 -246.97)"/><path d="M198.2,358.3a2.33,2.33,0,0,1,.59-1.77l3.56-4.63a3.38,3.38,0,0,0,.52-.81A10.21,10.21,0,0,1,206,346.9c.49-.43,1-.83,1.47-1.28.9-.88,1.77-1.79,2.72-2.75l.54.37c-1.42,1.76-2.8,3.46-4.26,5.29a3.14,3.14,0,0,0,2.25-1c1.77-2,3.55-4,5.3-6,.93-1.06,1.78-2.18,2.69-3.26a2.89,2.89,0,0,1,3.77-.89c2.33,1,4.63,2.17,6.94,3.27a3.33,3.33,0,0,1,.81.53,1.27,1.27,0,0,1,.48,1.44,14.32,14.32,0,0,1-2.19,4.32,2.11,2.11,0,0,1-1.78.87c-.83,0-1.66-.11-2.48-.16a17.32,17.32,0,0,0-2.27-.1,3.57,3.57,0,0,0-1.75.46,9.41,9.41,0,0,1-3.65,1.23,8.58,8.58,0,0,0-3.9,1.75,4.41,4.41,0,0,1-1.34.66c-.78.3-1.57.54-2.34.84a12.21,12.21,0,0,0-3.13,1.89c-1.77,1.36-3.62,2.61-5.45,3.9C198.4,358.3,198.32,358.28,198.2,358.3Z" transform="translate(-9.97 -246.97)"/><path d="M331.74,362.1a32.61,32.61,0,0,1-5.55-4.64c.47-1.37.61-2.93,1.62-4.21a9.48,9.48,0,0,0,1.11-2.09,1.46,1.46,0,0,1,.88-.84,61.32,61.32,0,0,1,7.84-2.44c.09,0,.19,0,.43,0-.78,1.64-1.55,3.17-2.24,4.74s-1.23,3.15-1.89,4.71S332.51,360.44,331.74,362.1Z" transform="translate(-9.97 -246.97)"/><path d="M456.19,342.78a43.2,43.2,0,0,0,4.43-11l5.45-1c2.54-.48,5.09-1,7.64-1.44a4.05,4.05,0,0,1,1.25.05c.64.11,1.26.26,1.9.4l1.1.23c-.82.57-1.47,1-2.1,1.48-.82.64-1.61,1.32-2.44,2-.62.48-1.24,1-1.91,1.4-1.25.78-2.53,1.52-3.81,2.26-.3.17-.67.24-1,.39a10.12,10.12,0,0,0-2.39,1.21,20.5,20.5,0,0,1-4,2.38c-1.3.67-2.67,1.23-4,1.84Z" transform="translate(-9.97 -246.97)"/></svg>