<svg id="Layer_1" data-name="Layer 1" xmlns="http://www.w3.org/2000/svg" viewBox="0 0 497.09 198.13"><defs><style>.cls-1{fill:#4a9c2d;}.cls-2{fill:#6f6f6f;}</style></defs><title>InequalityMediaCivicActionLogo</title><path class="cls-1" d="M336.69,447.29H58.1V382.74H336.69Z" transform="translate(-58.1 -295.84)"/><path class="cls-1" d="M198,297.2v64.44H58.1V297.2Z" transform="translate(-58.1 -295.84)"/><path class="cls-2" d="M364,447.16h-9.88V382.69c3.22,0,6.43,0,9.63,0,1.73,0,4-.5,5,.37s1,3.16,1.4,4.85q3.31,15.22,6.58,30.46c.09.42.26.82.56,1.7l4.46-20.64c1.08-5.05,2.12-10.1,3.27-15.14.13-.59.79-1.53,1.22-1.54,4.64-.11,9.28-.07,14.05-.07v64.56c-3,0-6,0-8.92,0-.33,0-.78-.54-.92-.92a4.87,4.87,0,0,1,0-1.53q0-22,0-44v-2.3l-.38-.05c-.8,3.86-1.61,7.71-2.4,11.58-2.42,11.82-4.87,23.63-7.21,35.46-.3,1.48-.92,1.83-2.32,1.81-3.73-.06-3.71,0-4.45-3.65q-4.44-21.81-8.93-43.61a3,3,0,0,0-.75-1.55Z" transform="translate(-58.1 -295.84)"/><path class="cls-2" d="M451.5,383c7.12,0,14.11-.37,21,.11s11.55,5,13.12,11.79a29.93,29.93,0,0,1,.77,6.32c.08,9.17.11,18.33,0,27.5a29.65,29.65,0,0,1-1.08,7.43c-1.73,6.26-6.05,10.14-12.4,10.63-7.05.54-14.17.12-21.43.12ZM463,438c1.46,0,2.74,0,4,0,5.74-.16,7.82-2.14,7.88-7.93.1-9.82.06-19.63,0-29.45a20.28,20.28,0,0,0-.43-4,5,5,0,0,0-4.36-4.35c-2.33-.33-4.7-.34-7.16-.49Z" transform="translate(-58.1 -295.84)"/><path class="cls-2" d="M348,366.12a10.43,10.43,0,0,1-9.56-4.32c-.91-1.18-1.61-1.31-3-.77a18.61,18.61,0,0,1-14-.09c-5.08-2-7.69-6.08-8.64-11.3a26.49,26.49,0,0,1-.36-4.62c0-10.65-.05-21.3,0-31.95a24.71,24.71,0,0,1,.58-5.56c1.92-8.12,9-12.63,17.82-11.5,8.67,1.1,13.82,6.74,13.93,15.72.14,11.55.08,23.1,0,34.65a22.09,22.09,0,0,1-.94,5.5c-.66,2.41-.74,3.08,1.67,3.76s2.62,2.21,2.51,4.23S348,364,348,366.12Zm-13.85-24.51c0-3.16,0-6.05,0-8.93,0-7.16.06-14.33-.07-21.49-.07-3.81-2-5.62-5.49-5.58s-5.14,1.76-5.41,5.48c0,.58-.08,1.16-.08,1.74q0,16.26,0,32.52a13.53,13.53,0,0,0,.46,3.81c1,3.42,5.54,4.6,8.4,2.16-.41-.62-.81-1.27-1.25-1.89s-1.26-1.19-1.29-1.81c-.14-3-.06-6-.06-9.56Z" transform="translate(-58.1 -295.84)"/><path class="cls-2" d="M267.7,297.07v64.16h-9.22q-6.5-19.56-13-39.18l-.38.06V361.2h-9.46V296.9c3,0,6-.08,8.91.08.51,0,1.16,1,1.4,1.71,3.57,10.17,7.09,20.35,10.63,30.53a16.28,16.28,0,0,0,1.52,3.41V297.07Z" transform="translate(-58.1 -295.84)"/><path class="cls-2" d="M375.63,297h10.66v2.19c0,15.17,0,30.35,0,45.52a27.51,27.51,0,0,1-.68,6.14c-1.75,7.53-8,11.91-16,11.44-9.85-.58-15.48-6-15.61-15.86-.21-16.27-.06-32.54-.06-48.81a3.19,3.19,0,0,1,.13-.54h10.42v2.16q0,22.57,0,45.14a22.66,22.66,0,0,0,.21,3.08c.45,3.42,2.13,5,5.25,5,3.29,0,5.05-1.5,5.57-4.93a18.78,18.78,0,0,0,.12-2.71V297Z" transform="translate(-58.1 -295.84)"/><path class="cls-2" d="M527.56,382.69c4.57,0,9-.05,13.34.08.45,0,1.13,1.05,1.26,1.7,1.25,6.19,2.4,12.41,3.58,18.62q4,21,8,42c.12.62.19,1.25.33,2.13-3.52,0-6.86.05-10.2-.06-.38,0-1-.89-1.06-1.42-.6-3.7-1.14-7.4-1.58-11.12-.15-1.28-.54-1.78-1.89-1.74-3.1.09-6.21.07-9.31,0-1.09,0-1.57.26-1.72,1.45-.53,4.22-1.19,8.42-1.82,12.75H515.33C519.42,425.59,523.48,404.2,527.56,382.69Zm11.69,40.47c-1.47-9.05-2.91-17.86-4.35-26.68h-.38c-1.45,8.85-2.89,17.7-4.35,26.69Z" transform="translate(-58.1 -295.84)"/><path class="cls-2" d="M441.08,392.42H422.23v16.49h14.44v9.76H422.22v18.72h20.34c0,3.11,0,6-.05,8.88a1.45,1.45,0,0,1-1.06.94c-10.19.05-20.39,0-30.75,0V382.84h30.38Z" transform="translate(-58.1 -295.84)"/><path class="cls-2" d="M426.47,361.26H416.2c-.64-4.71-1.26-9.36-1.91-14.21-3.6,0-7.07-.05-10.54.06-.37,0-.94.91-1,1.46-.58,3.76-1,7.54-1.54,11.31-.06.44-.15.87-.24,1.35H390.73L402,297h13.23C419,318.37,422.69,339.71,426.47,361.26ZM408.8,310.83h-.41c-1.32,8.75-2.63,17.5-4,26.38h8.35C411.43,328.32,410.12,319.58,408.8,310.83Z" transform="translate(-58.1 -295.84)"/><path class="cls-2" d="M277.21,297h28v9.57H287.75V323h13.32v9.82H287.78v18.73h18.6v9.68H277.21Z" transform="translate(-58.1 -295.84)"/><path class="cls-2" d="M519.21,296.9c3.46,0,6.67,0,9.88.06.43,0,1,.83,1.22,1.38,2.09,6.78,4.12,13.58,6.17,20.37a4.37,4.37,0,0,0,1.07,1.93c1.06-3.67,2.14-7.33,3.19-11s2.18-7.42,3.16-11.17a1.8,1.8,0,0,1,2.13-1.59c3,.09,5.92,0,9.16,0-1.58,4.68-3.07,9.12-4.57,13.56-2.44,7.22-4.92,14.41-7.28,21.65a16.07,16.07,0,0,0-.77,4.71c-.08,7.43,0,14.85,0,22.27v2.17H531.87v-2.13c0-7.55,0-15.11,0-22.66a11.13,11.13,0,0,0-.53-3.4Q525.61,316,519.81,299C519.61,298.37,519.46,297.76,519.21,296.9Z" transform="translate(-58.1 -295.84)"/><path class="cls-2" d="M514.77,306.58h-10v54.64H494.16v-54.6H484.08V297h30.69Z" transform="translate(-58.1 -295.84)"/><path class="cls-2" d="M443,351.69h16.46v9.51H432.58V297H443Z" transform="translate(-58.1 -295.84)"/><path class="cls-2" d="M497.36,382.8h11.18v64.35H497.36Z" transform="translate(-58.1 -295.84)"/><path class="cls-2" d="M477,361.24H466.6V297H477Z" transform="translate(-58.1 -295.84)"/><path class="cls-2" d="M225.5,361.24H215.14V297H225.5Z" transform="translate(-58.1 -295.84)"/><path class="cls-2" d="M548.29,489V471.09h3.47v22c-2.57.41-4.75.5-6.62-2.2-3.44-5-7.34-9.66-11-14.46-.38-.5-.8-1-1.47-1.76v18.44H529v-22c2.87-.58,5-.26,6.86,2.43,3.44,5,7.35,9.66,11.07,14.46.3.39.63.75,1,1.12Z" transform="translate(-58.1 -295.84)"/><path class="cls-2" d="M489.24,493.8c-4.37,0-8.38-1-11.16-4.64a11.52,11.52,0,0,1,7.26-18.4,21.89,21.89,0,0,1,6.71-.17c6.91.89,11,5.67,10.68,12.15-.3,6.28-5.15,10.76-12,11.06C490.27,493.82,489.75,493.8,489.24,493.8Zm0-2.61c5.82,0,9.75-3.72,9.71-9.2,0-5.33-4-9-9.73-9s-9.78,3.83-9.74,9.24S483.52,491.19,489.26,491.19Z" transform="translate(-58.1 -295.84)"/><path class="cls-2" d="M328,493.07c-3.78.57-3.78.57-5.38-2.41a9.31,9.31,0,0,1-.7-1.37c-.51-1.54-1.56-1.92-3.12-1.87-3.54.11-7.1.08-10.64,0-1.25,0-2.11.25-2.56,1.49a14.65,14.65,0,0,1-.91,1.7c-1.55,2.94-1.55,2.94-5.05,2.51a6.66,6.66,0,0,1,.42-1.19q5.45-9.92,10.93-19.8c.85-1.55,4.39-1.83,5.21-.36C320.11,478.8,324,485.86,328,493.07ZM313.68,473.8l-5.85,11h11.65Z" transform="translate(-58.1 -295.84)"/><path class="cls-2" d="M243.44,487a6.53,6.53,0,0,1-4.16,5.38,16.93,16.93,0,0,1-13.21.33c-4.12-1.63-6.21-4.94-6.64-9.24s.85-8.33,4.7-10.77a15.3,15.3,0,0,1,15.35-.87c2.4,1.12,3.42,2.78,3.41,5-1.72.1-3.57.77-4.43-1.64a2.81,2.81,0,0,0-1.1-1.06c-5.37-3.65-13.64.23-14.18,6.65-.64,7.58,5.23,12.28,12.49,9.91,1.11-.36,2.51-1.05,3-2C239.7,486.47,241.4,486.93,243.44,487Z" transform="translate(-58.1 -295.84)"/><path class="cls-2" d="M375.22,487.11a6.65,6.65,0,0,1-4.31,5.39,17,17,0,0,1-12.86.33c-4.29-1.64-6.47-5-6.83-9.5-.4-4.85,1.24-8.86,5.67-11.2a15.7,15.7,0,0,1,13.5-.68c2.31.9,4.11,2.42,4.5,5.09-2.39.84-3.16.6-4.6-1.33a4.8,4.8,0,0,0-1-.95c-4.91-3.64-13.28-.26-14.28,5.75-1.28,7.8,4.85,13.14,12.41,10.69a5.1,5.1,0,0,0,3-2C371.54,486.38,373.26,486.89,375.22,487.11Z" transform="translate(-58.1 -295.84)"/><path class="cls-2" d="M85.14,476.8c-2,.21-3.94.73-4.83-1.7-.15-.43-.69-.75-1.12-1-5-3.27-12.79-.06-13.89,5.73-.65,3.46-.28,6.8,2.59,9.22,3,2.55,6.62,2.71,10.25,1.52a4.2,4.2,0,0,0,2.43-1.77c1-2.39,2.85-1.84,4.84-1.73a6.22,6.22,0,0,1-3.53,5c-5.06,2.4-10.26,2.66-15.25-.06-4-2.17-5.43-6-5.3-10.29s2.15-8,6.29-9.91a15.94,15.94,0,0,1,13-.35A6.63,6.63,0,0,1,85.14,476.8Z" transform="translate(-58.1 -295.84)"/><path class="cls-2" d="M139.15,471.15c3.42-.56,3.42-.56,4.85,2.42q3.57,7.43,7.13,14.83c.25.52.55,1,1,1.78,1.25-2.58,2.41-4.93,3.54-7.29q2.25-4.71,4.48-9.44c1.32-2.82,1.46-2.9,4.86-2.24-.92,1.88-1.82,3.72-2.73,5.56-2.52,5.09-5,10.2-7.62,15.24a2.79,2.79,0,0,1-2,1.22c-1.1,0-2.5.7-3.26-.85Q144.28,482,139.2,471.7A1.43,1.43,0,0,1,139.15,471.15Z" transform="translate(-58.1 -295.84)"/><path class="cls-2" d="M422,471.1v2.53h-9.9v19.53H408.5V473.78h-10V471.1Z" transform="translate(-58.1 -295.84)"/><path class="cls-2" d="M111.32,471h3.39v22.12h-3.39Z" transform="translate(-58.1 -295.84)"/><path class="cls-2" d="M446.3,471.05h3.23v22.14H446.3Z" transform="translate(-58.1 -295.84)"/><path class="cls-2" d="M189.26,471h3.19v22.13h-3.19Z" transform="translate(-58.1 -295.84)"/></svg>