<svg id="Layer_1" data-name="Layer 1" xmlns="http://www.w3.org/2000/svg" viewBox="0 0 592.56 180.93"><defs><style>.cls-1{fill:#4d9e47;}.cls-2{fill:#67686c;}</style></defs><title>InequalityMediaLogo</title><path class="cls-1" d="M342.88,473.59H10.57V396.45h2.67q163.67,0,327.33,0c1.73,0,2.53.28,2.52,2.27-.06,24.31,0,48.62,0,72.93C343.05,472.19,343,472.76,342.88,473.59Z" transform="translate(-10.57 -292.66)"/><path class="cls-1" d="M177.62,294.54v76.84h-167V294.54Z" transform="translate(-10.57 -292.66)"/><path class="cls-2" d="M418.61,473.33H406.87V415.64l-.59-.09-11.86,57.79h-6.78l-11.85-57.73-.32,0v57.57H363.36V396.6h18q4.69,21.79,9.43,43.72h.53q2-9.45,4.07-18.9c1.66-7.68,3.29-15.37,5-23,.17-.74,1.06-1.86,1.65-1.87,5.46-.14,10.92-.09,16.57-.09Z" transform="translate(-10.57 -292.66)"/><path class="cls-2" d="M479.62,396.13c8.86.32,17.54,0,26,1.12,9.2,1.22,14.67,7.74,15.15,17.05.51,9.68.47,19.39.45,29.09a92.34,92.34,0,0,1-.86,14.6c-1.5,9.13-7.7,14.77-17,15.27-7.85.43-15.73.09-23.78.09Zm13.59,11.06v55.27c2.05,0,3.94,0,5.83,0,5.19-.11,8.22-2.69,8.29-7.88.17-13.09.13-26.18,0-39.27,0-3.06-1.12-6.15-4.53-7C499.73,407.58,496.49,407.55,493.21,407.19Z" transform="translate(-10.57 -292.66)"/><path class="cls-2" d="M356,365.54v11.19a11.22,11.22,0,0,1-10.59-4.39c-1.6-2-2.85-2.1-5.13-1.25a21.52,21.52,0,0,1-14.88-.11c-7-2.45-11.41-8.76-11.52-17.24-.19-13.94-.36-27.89,0-41.83.42-15.79,16.64-24.28,30.21-16.06,6.08,3.67,8.25,9.63,8.34,16.31.17,13.61.11,27.22,0,40.83a22.28,22.28,0,0,1-1.35,7.27c-.73,2-.14,2.93,1.48,3.71C353.66,364.51,354.8,365,356,365.54Zm-16.37-18c0-12.34.07-24.27,0-36.2,0-4.42-2.27-6.53-6.37-6.61s-6.5,2.12-6.53,6.44c-.1,14.41-.14,28.83,0,43.25.07,5.59,5.6,8.09,10.61,4.74-5.27-4.25-2.73-9.91-3.3-15.07l.68-.29Z" transform="translate(-10.57 -292.66)"/><path class="cls-2" d="M222.19,294.17c3.58,0,7-.14,10.35.1.74.05,1.7,1.31,2,2.2,3.53,9.9,6.95,19.84,10.4,29.77a80.81,80.81,0,0,0,4.14,10.32V294.29h11.25v76.85c-3.31,0-6.6.09-9.89-.08-.54,0-1.25-1.13-1.49-1.86Q242,348.64,235.18,328a11.09,11.09,0,0,0-1.75-3.53V371H222.19Z" transform="translate(-10.57 -292.66)"/><path class="cls-2" d="M389.11,294.29h12.67v2q0,28.37,0,56.73a20.09,20.09,0,0,1-3.4,11.76c-4.51,6.44-11.18,8.06-18.45,7.24-10.51-1.18-16.47-7.69-16.61-18.52-.25-19.4-.08-38.81-.08-58.22a6.38,6.38,0,0,1,.19-1.05h12.48v55c0,1.66,0,3.33.13,5,.39,4.17,2.64,6.27,6.53,6.26s6.06-2.11,6.4-6.35c.12-1.4.15-2.81.16-4.22q0-26.51,0-53Z" transform="translate(-10.57 -292.66)"/><path class="cls-2" d="M601.65,473.33H588.52c-.81-5.5-1.62-11-2.45-16.69H571.33l-2.44,16.64h-13.3l14.59-76.81c5.4,0,10.67,0,16,.08.48,0,1.26,1,1.38,1.57q7.05,36.7,14,73.44C601.58,472,601.58,472.54,601.65,473.33ZM579,413.21l-.48-.08c-1.7,10.48-3.4,20.95-5.13,31.55h10.72C582.33,434.05,580.64,423.63,579,413.21Z" transform="translate(-10.57 -292.66)"/><path class="cls-2" d="M430.8,473.25V396.6c.78-.06,1.51-.16,2.23-.16,10.61,0,21.23,0,31.84,0,1.94,0,2.65.53,2.55,2.52-.15,3,0,5.95,0,9.23H444.61v19.62h17.28v11.67H444.64v22.34h24v11.47Z" transform="translate(-10.57 -292.66)"/><path class="cls-2" d="M435.18,354.21c-4.22,0-8.11.05-12,0-1.72,0-1.76,1.06-1.91,2.27-.61,4.83-1.27,9.66-1.92,14.58H407.14c.57-3.43,1.11-6.74,1.69-10,3.79-21.59,7.62-43.18,11.33-64.79.3-1.74.94-2.12,2.53-2.08,4.47.09,8.94,0,13.57,0,4.48,25.61,8.95,51.1,13.45,76.8H437.42Zm-1.84-11.88c-1.61-10.69-3.18-21.2-4.76-31.71l-.36,0c-1.58,10.52-3.15,21-4.76,31.74Z" transform="translate(-10.57 -292.66)"/><path class="cls-2" d="M271.78,294.25h33.38v11.64H284.42v19.56h16v11.61h-16v22.32H306.6V371H271.78Z" transform="translate(-10.57 -292.66)"/><path class="cls-2" d="M582.06,322.67l8.18-28.42h12.89c-1.22,3.65-2.38,7.13-3.55,10.6-3.6,10.66-7.24,21.32-10.79,32a15.33,15.33,0,0,0-.74,4.61c-.07,8.88,0,17.76,0,26.64V371H575.2v-2.69c0-9,0-17.93,0-26.89a15,15,0,0,0-.77-4.6c-4.55-13.67-9.19-27.31-13.79-41-.16-.46-.26-.93-.43-1.55H573c2.85,9.4,5.74,18.93,8.62,28.46Z" transform="translate(-10.57 -292.66)"/><path class="cls-2" d="M518.3,294.23H555v11.66H543.16V371H530.37V306H518.3Z" transform="translate(-10.57 -292.66)"/><path class="cls-2" d="M469.41,359.45h19.47V371h-32V294.33h12.52Z" transform="translate(-10.57 -292.66)"/><path class="cls-2" d="M534,473.32V396.69h13.67v76.63Z" transform="translate(-10.57 -292.66)"/><path class="cls-2" d="M497.61,294.28h12.6v2.54q0,36,0,71.95c0,1.8-.35,2.52-2.3,2.44-3.38-.16-6.77,0-10.33,0Z" transform="translate(-10.57 -292.66)"/><path class="cls-2" d="M197.84,294.27h12.22V371H197.84Z" transform="translate(-10.57 -292.66)"/></svg>