<?xml version="1.0" encoding="utf-8"?>
<!-- Generator: Adobe Illustrator 24.0.2, SVG Export Plug-In . SVG Version: 6.00 Build 0)  -->
<svg version="1.1" id="Layer_1" xmlns="http://www.w3.org/2000/svg" xmlns:xlink="http://www.w3.org/1999/xlink" x="0px" y="0px"
	 viewBox="0 0 300 293.5" style="enable-background:new 0 0 300 293.5;" xml:space="preserve">
<style type="text/css">
	.st0{fill:#1C6087;}
</style>
<path class="st0" d="M88.2,70.4H75.9l10.4,7.6l-3.8,12.3l10.4-7.6l10.4,7.6l-3.8-12.3l10.4-7.6H97.4l-3.8-12.3L88.2,70.4z
	 M200.6,38.2v70.9v1l-35,36.9v35l58.6-62.4v-104L200.6,38.2z M76.9,10.8l20.8,20.8l1.9,1.9h37.8v118.2l-40.7-42.5l-19,16l71.9,73.7
	l0,0l10.4-10.4v-36.9V34.5h37.8l23.6-22.7H76.9V10.8z"/>
<g>
	<path class="st0" d="M244.9,241.5h19.5V235h-11.6v-3.4h11.4v-6.5h-11.4v-3h11.6v-6.3h-19.5V241.5z M217.8,241.9
		c6.9,0,10.3-4.1,11.8-7.5l-6.7-3.2c-0.6,2-2.6,3.7-5.1,3.7c-3.6,0-6.1-2.8-6.1-6.5c0-3.6,2.6-6.5,6.1-6.5c2.6,0,4.5,1.8,5.1,3.7
		l6.7-3.2c-1.6-3.6-4.9-7.5-11.8-7.5c-7.9,0-14,5.3-14,13.2C203.8,236.6,210,241.9,217.8,241.9 M180.5,241.5h7.7v-25.7h-7.7V241.5z
		 M150.5,241.5h7.7v-18.9h6.9v-6.7h-21.5v6.7h6.9V241.5z M105.6,237.8c2.8,2.4,6.5,4.1,11.8,4.1c6.9,0,11.1-3.4,11.1-8.9
		c0-5.9-6.3-7.1-10.5-7.9c-2.8-0.4-3.7-0.8-3.7-1.8c0-0.6,0.4-1.4,2.4-1.4c2,0,4.9,0.8,7.1,2.6l4.1-5.5c-3-2.4-6.7-3.6-10.9-3.6
		c-7.1,0-10.7,3.9-10.7,8.3c0,6.5,6.5,7.5,10.7,8.3c2.6,0.4,3.6,1,3.6,2s-1.4,1.6-2.8,1.6c-3.6,0-6.3-1.4-8.3-3.4L105.6,237.8z
		 M65.9,230.8c0,6.3,3.7,11.1,12.4,11.1s12.2-4.7,12.2-11.1v-15h-7.9v14.8c0,2.4-1.2,4.3-4.3,4.3c-3.2,0-4.5-2-4.5-4.3v-14.8h-7.9
		V230.8z M31.9,239.7c2,1.6,4.7,2.2,7.1,2.2c5.9,0,9.9-3,9.9-9.7v-16.4h-7.7v16.4c0,1.8-1.2,3-2.8,3c-1.4,0-2.4-0.6-3.4-1.2
		L31.9,239.7z"/>
	<path class="st0" d="M248.6,274.2c1.8,2.2,4.9,3.7,8.9,3.7c6.5,0,8.5-3.7,8.5-6.9c0-4.9-4.3-6.1-8.1-7.3c-3.4-0.8-6.3-1.8-6.3-4.5
		c0-2.6,2.4-4.5,5.7-4.5c2.8,0,5.1,1,6.9,3l1.4-1.6c-2-2.2-4.5-3.4-8.1-3.4c-4.3,0-7.9,2.6-7.9,6.5c0,4.5,4.1,5.5,7.9,6.5
		c3.4,1,6.7,1.8,6.7,5.3c0,2-1.4,4.7-6.3,4.7c-3.4,0-5.9-1.8-7.5-3.6L248.6,274.2z M232.8,277.7h2.2v-22.3h7.9v-2h-18v2h7.9V277.7z
		 M210.9,255.6l5.7,14.2h-11.4L210.9,255.6z M219.6,277.7h2.4l-9.9-24.1h-2.6l-9.9,24.1h2.4l2.4-5.9h12.8L219.6,277.7z M192.2,260.6
		c0,3-2.2,5.1-5.3,5.1h-6.7v-10.3h6.7C190,255.4,192.2,257.6,192.2,260.6 M191,277.7h2.6l-5.9-10.1c3.6-0.2,6.7-2.6,6.7-6.9
		c0-4.3-3.2-7.1-7.3-7.1H178v24.1h2v-10.1h5.3L191,277.7z M160.4,278.1c3.9,0,6.7-1.6,8.9-4.3l-1.8-1c-1.6,2.2-4.1,3.6-7.1,3.6
		c-5.5,0-10.1-4.3-10.1-10.7s4.3-10.7,10.1-10.7c3,0,5.5,1.4,7.1,3.6l1.8-1.2c-2-2.6-4.9-4.3-8.9-4.3c-6.7,0-12.2,5.1-12.2,12.4
		C148.2,272.8,153.5,278.1,160.4,278.1 M138.3,265.7c0,6.1-3.7,10.7-9.5,10.7c-5.9,0-9.5-4.5-9.5-10.7s3.7-10.7,9.5-10.7
		S138.3,259.4,138.3,265.7 M117,265.7c0,7.1,4.5,12.4,11.6,12.4c7.1,0,11.6-5.3,11.6-12.4c0-7.1-4.7-12.4-11.6-12.4
		C121.5,253.1,117,258.6,117,265.7 M106.1,277.7h2.2v-24.3h-3.2l-8.1,19.9l-8.3-19.9h-3.2v24.1h2v-21.3l8.9,21.5h0.8l8.9-21.5
		L106.1,277.7L106.1,277.7z M60.9,277.7h15.4v-2H63.1v-9.5h13v-2h-13v-8.9h13.2v-2H60.9V277.7z M34.3,275.8v-20.3H40
		c6.3,0,10.1,4.5,10.1,10.3s-3.7,10.3-10.1,10.3L34.3,275.8L34.3,275.8z M32.3,277.7H40c7.5,0,12.2-5.3,12.2-12s-4.7-12-12.2-12
		h-7.7V277.7z"/>
</g>
</svg>
