<svg id="svg" version="1.1" xmlns="http://www.w3.org/2000/svg" xmlns:xlink="http://www.w3.org/1999/xlink" width="400" height="400" viewBox="0, 0, 400,400"><g id="svgg"><path id="path0" d="M198.725 18.100 L 196.570 24.600 189.685 24.709 C 183.100 24.814,181.087 25.257,183.312 26.111 C 184.128 26.424,192.222 32.341,192.980 33.178 C 193.712 33.987,193.777 33.727,190.151 44.519 C 189.087 47.685,189.237 47.628,196.934 41.931 C 201.383 38.637,201.066 38.649,205.000 41.622 C 209.711 45.182,212.372 46.961,212.618 46.715 C 212.738 46.595,211.928 43.743,210.818 40.376 C 209.708 37.009,208.800 34.036,208.800 33.770 C 208.800 33.503,211.231 31.540,214.201 29.406 C 217.172 27.273,219.501 25.364,219.378 25.164 C 219.254 24.964,216.190 24.800,212.570 24.800 L 205.987 24.800 205.412 23.500 C 205.096 22.785,204.090 19.815,203.176 16.900 C 202.263 13.985,201.372 11.600,201.197 11.600 C 201.022 11.600,199.909 14.525,198.725 18.100 M137.123 23.011 C 137.007 23.126,137.001 26.144,137.109 29.717 C 137.268 34.945,137.198 36.301,136.753 36.661 C 136.222 37.090,131.314 38.910,126.889 40.319 C 123.546 41.383,124.187 41.938,131.003 43.884 C 138.379 45.990,137.951 45.424,137.977 53.112 C 138.005 61.365,137.780 61.324,142.651 53.968 C 146.521 48.125,146.463 48.182,147.924 48.715 C 148.516 48.931,149.720 49.304,150.600 49.545 C 151.480 49.785,153.867 50.464,155.904 51.054 C 157.941 51.644,159.717 52.016,159.852 51.882 C 160.076 51.657,156.490 46.794,153.322 43.028 C 152.595 42.163,152.000 41.139,152.000 40.750 C 152.000 40.135,157.148 32.100,158.652 30.369 C 159.429 29.474,159.344 28.663,158.500 28.918 C 158.115 29.034,155.305 30.045,152.256 31.164 C 149.207 32.284,146.478 33.200,146.191 33.200 C 145.739 33.200,139.750 25.910,138.317 23.615 C 137.798 22.785,137.499 22.634,137.123 23.011 M264.592 23.333 C 264.368 23.590,262.629 25.790,260.728 28.221 C 255.747 34.593,257.459 34.276,247.506 30.668 C 242.513 28.858,242.499 28.949,246.790 35.299 C 251.152 41.754,251.197 40.444,246.400 46.600 C 242.600 51.476,242.009 52.402,242.700 52.399 C 242.865 52.398,245.750 51.595,249.110 50.615 C 256.483 48.465,255.442 48.077,259.800 54.601 C 261.780 57.565,263.520 59.993,263.666 59.995 C 263.931 60.000,264.165 57.652,264.628 50.301 C 264.764 48.156,265.050 46.293,265.264 46.161 C 265.478 46.028,268.371 45.128,271.693 44.160 C 275.015 43.192,277.809 42.324,277.901 42.232 C 278.279 41.855,274.512 40.293,268.540 38.350 C 264.610 37.073,264.625 37.110,265.088 29.709 C 265.477 23.486,265.394 22.416,264.592 23.333 M102.363 53.846 C 100.494 56.103,92.641 62.093,92.041 61.719 C 79.106 53.641,79.696 53.647,83.000 61.636 C 85.820 68.454,86.024 67.653,80.200 72.608 C 75.024 77.011,74.348 77.870,76.378 77.464 C 77.026 77.335,80.140 77.107,83.298 76.958 L 89.040 76.686 91.378 82.443 C 93.495 87.657,94.550 89.668,94.910 89.176 C 94.981 89.079,95.750 86.120,96.619 82.601 L 98.200 76.202 100.400 75.902 C 101.610 75.736,104.655 75.466,107.168 75.301 C 112.663 74.939,112.820 74.705,109.096 72.430 C 99.493 66.563,100.182 67.845,102.242 59.664 C 103.657 54.046,103.695 52.238,102.363 53.846 M298.400 54.362 C 298.400 54.707,300.415 63.063,301.201 65.976 C 301.678 67.747,301.824 67.605,295.428 71.583 C 289.509 75.263,289.166 75.756,292.433 75.887 C 304.593 76.373,303.797 75.917,305.585 83.430 C 307.431 91.186,307.366 91.180,310.367 83.819 C 313.229 76.797,312.919 77.063,317.600 77.602 C 321.947 78.103,326.800 78.111,326.800 77.618 C 326.800 77.408,325.929 76.553,324.865 75.718 C 315.677 68.510,316.097 69.456,318.982 62.479 C 322.286 54.489,322.504 54.677,315.210 59.209 C 308.891 63.134,309.831 63.218,303.884 58.200 C 298.962 54.048,298.400 53.654,298.400 54.362 M140.422 74.486 C 139.595 75.794,133.203 88.512,131.821 91.600 C 131.181 93.030,130.165 95.280,129.563 96.600 C 128.363 99.234,123.866 110.074,123.025 112.362 C 122.078 114.937,117.931 126.573,117.594 127.600 C 116.039 132.337,112.400 144.454,112.400 144.893 C 112.400 145.319,114.858 145.276,118.836 144.782 C 123.551 144.196,124.000 144.070,124.000 143.329 C 124.000 142.261,127.115 132.556,130.974 121.600 C 132.059 118.518,136.946 106.170,138.098 103.600 C 138.541 102.610,139.225 101.080,139.617 100.200 C 141.589 95.771,142.491 93.817,144.553 89.506 L 146.797 84.812 149.299 85.023 C 154.124 85.431,171.413 87.161,173.400 87.435 C 174.280 87.556,176.980 87.819,179.400 88.019 C 183.519 88.359,191.045 89.113,199.400 90.023 C 201.380 90.238,204.890 90.585,207.200 90.793 C 209.510 91.001,214.010 91.437,217.200 91.761 C 230.722 93.137,237.674 93.830,245.400 94.570 C 252.535 95.254,261.938 96.208,267.400 96.803 C 269.380 97.019,273.070 97.392,275.600 97.633 C 281.351 98.180,281.168 97.908,278.976 102.630 C 275.796 109.477,268.954 126.330,269.261 126.559 C 269.415 126.673,275.682 127.817,278.200 128.190 L 279.800 128.427 282.960 120.514 C 286.051 112.774,287.029 110.499,289.891 104.400 C 291.629 100.695,295.206 93.573,296.457 91.328 C 297.755 88.998,298.426 89.196,285.200 88.009 C 282.890 87.801,279.380 87.456,277.400 87.241 C 270.988 86.545,261.099 85.550,257.000 85.188 C 254.800 84.994,251.290 84.651,249.200 84.426 C 240.708 83.514,233.171 82.745,229.200 82.387 C 226.890 82.178,223.380 81.840,221.400 81.634 C 219.420 81.429,214.020 80.892,209.400 80.441 C 204.780 79.990,199.290 79.433,197.200 79.203 C 192.837 78.724,178.467 77.278,175.200 76.989 C 173.990 76.883,171.290 76.612,169.200 76.389 C 162.039 75.623,154.198 74.832,149.600 74.411 C 147.070 74.180,144.100 73.896,143.000 73.781 C 141.232 73.596,140.933 73.678,140.422 74.486 M58.669 96.500 C 58.049 97.518,56.770 99.744,55.282 102.400 C 53.570 105.454,52.404 107.200,52.076 107.200 C 51.903 107.200,49.610 106.733,46.981 106.163 C 37.270 104.057,37.427 103.890,43.194 110.200 C 45.607 112.840,47.586 115.148,47.591 115.328 C 47.601 115.701,42.681 124.409,41.492 126.123 C 39.945 128.353,40.559 128.181,50.710 123.546 C 54.134 121.983,53.794 121.824,58.567 127.200 C 62.902 132.082,64.140 132.958,63.797 130.900 C 61.957 119.870,62.077 118.511,65.000 117.217 C 73.564 113.425,74.800 112.826,74.800 112.469 C 74.800 112.281,73.765 111.908,72.500 111.639 C 71.235 111.371,68.940 110.885,67.400 110.561 C 65.860 110.237,63.881 109.753,63.001 109.486 L 61.403 109.000 60.923 104.600 C 60.660 102.180,60.353 99.480,60.242 98.600 C 60.131 97.720,60.032 96.685,60.020 96.300 C 59.992 95.327,59.325 95.426,58.669 96.500 M341.842 96.846 C 341.674 97.379,341.481 99.186,340.830 106.316 C 340.466 110.304,340.505 110.260,336.775 111.002 C 329.076 112.534,327.051 113.047,326.898 113.505 C 326.808 113.777,326.923 114.000,327.155 114.000 C 327.387 114.000,328.617 114.474,329.888 115.054 C 331.160 115.634,333.280 116.599,334.600 117.199 C 335.920 117.799,337.405 118.417,337.899 118.572 C 339.330 119.020,339.381 121.699,338.141 131.300 C 337.786 134.051,338.194 133.801,343.200 128.200 C 345.658 125.450,347.799 123.200,347.959 123.200 C 348.119 123.200,348.959 123.536,349.825 123.947 C 350.691 124.358,352.120 125.008,353.000 125.391 C 353.880 125.775,355.860 126.678,357.400 127.399 C 361.280 129.216,361.298 128.851,357.630 122.577 C 354.099 116.538,353.961 116.067,355.327 114.716 C 357.750 112.319,362.800 106.472,362.800 106.061 C 362.800 105.407,362.472 105.447,355.690 106.942 C 351.333 107.902,349.499 108.158,349.241 107.842 C 348.644 107.110,343.600 98.318,343.600 98.010 C 343.600 97.328,342.020 96.281,341.842 96.846 M131.800 199.662 C 114.410 203.788,105.081 218.575,109.231 235.435 C 110.412 240.229,110.057 240.253,108.047 235.513 C 107.087 233.251,105.964 230.637,105.551 229.704 C 105.138 228.772,104.800 227.929,104.800 227.832 C 104.800 227.735,104.281 226.518,103.646 225.128 C 103.011 223.738,101.285 219.720,99.811 216.200 C 98.337 212.680,96.697 208.850,96.166 207.689 C 95.634 206.528,95.200 205.498,95.200 205.399 C 95.200 205.301,94.660 204.042,94.001 202.602 L 92.802 199.984 84.569 200.092 L 76.337 200.200 75.159 203.000 C 74.512 204.540,73.721 206.340,73.402 207.000 C 73.083 207.660,71.273 211.890,69.379 216.400 C 67.485 220.910,65.680 225.185,65.368 225.900 C 65.055 226.615,64.545 227.785,64.234 228.500 C 63.923 229.215,63.001 231.420,62.186 233.400 C 61.371 235.380,60.348 237.810,59.912 238.800 C 55.728 248.310,52.854 255.363,53.039 255.664 C 53.395 256.239,73.898 256.084,74.276 255.503 C 74.454 255.230,75.437 253.025,76.461 250.603 L 78.322 246.200 84.304 246.090 C 91.283 245.961,90.486 245.471,92.924 251.400 L 94.732 255.800 105.566 255.906 C 111.525 255.965,116.400 255.861,116.400 255.675 C 116.400 255.267,114.698 251.026,113.320 248.000 C 111.454 243.904,110.324 240.827,110.496 240.313 C 110.590 240.031,111.003 240.520,111.413 241.400 C 117.829 255.172,136.478 260.862,151.166 253.529 C 154.746 251.742,162.400 244.918,162.400 243.514 C 162.400 242.967,152.114 232.220,149.927 230.483 C 149.366 230.036,148.873 230.325,146.338 232.587 C 137.854 240.156,129.468 237.876,129.464 228.000 C 129.460 218.367,137.885 216.037,146.069 223.408 C 149.019 226.065,149.722 226.407,150.280 225.453 C 150.590 224.923,153.786 221.216,156.951 217.716 C 158.901 215.558,159.200 215.568,159.200 217.790 L 159.200 219.581 165.900 219.690 L 172.600 219.800 172.810 237.800 C 172.926 247.700,173.061 255.848,173.110 255.907 C 173.160 255.966,177.745 255.966,183.300 255.907 L 193.400 255.800 193.600 237.800 L 193.800 219.800 200.600 219.600 L 207.400 219.400 207.513 210.600 C 207.575 205.760,207.527 201.395,207.405 200.900 L 207.185 200.000 183.192 200.000 L 159.200 200.000 159.170 200.900 C 159.153 201.395,159.165 203.028,159.197 204.529 C 159.265 207.694,159.335 207.692,155.253 204.633 C 149.370 200.223,138.842 197.992,131.800 199.662 M254.600 199.789 C 239.556 202.886,230.370 214.829,231.259 230.137 C 232.729 255.452,264.977 266.216,282.477 247.232 C 284.915 244.587,287.494 240.192,288.363 237.200 C 288.587 236.430,288.967 235.170,289.209 234.400 C 295.137 215.491,275.197 195.550,254.600 199.789 M209.297 227.893 L 209.400 255.800 219.291 255.907 L 229.181 256.014 229.401 255.107 C 229.522 254.608,229.571 242.050,229.510 227.200 L 229.400 200.200 219.297 200.093 L 209.195 199.986 209.297 227.893 M290.984 200.500 C 290.879 200.775,290.839 213.330,290.896 228.400 L 291.000 255.800 301.000 255.800 L 311.000 255.800 311.200 247.200 C 311.324 241.849,311.551 238.607,311.800 238.618 C 312.020 238.627,314.136 241.147,316.503 244.218 C 318.870 247.288,321.885 251.195,323.204 252.900 L 325.602 256.000 333.593 256.000 C 341.549 256.000,341.586 255.996,341.803 255.100 C 341.923 254.605,341.971 242.050,341.910 227.200 L 341.800 200.200 331.700 200.093 L 321.600 199.986 321.561 204.693 C 321.540 207.282,321.554 210.956,321.593 212.857 C 321.691 217.650,321.436 217.561,316.570 211.103 C 310.672 203.273,309.966 202.361,308.836 201.100 L 307.850 200.000 299.513 200.000 C 293.211 200.000,291.128 200.122,290.984 200.500 M146.306 205.730 C 149.523 206.831,152.415 208.537,154.170 210.369 L 155.321 211.570 153.912 213.289 C 153.138 214.234,151.716 215.875,150.752 216.936 L 149.000 218.864 146.000 216.910 C 136.544 210.752,126.824 214.463,124.490 225.123 C 121.615 238.248,135.756 247.094,146.621 238.968 C 149.569 236.763,149.068 236.658,152.603 240.216 C 156.221 243.858,156.200 243.488,152.949 246.169 C 148.119 250.153,144.019 251.563,137.200 251.584 C 131.493 251.601,128.226 250.666,123.729 247.726 C 113.001 240.713,110.197 225.364,117.634 214.361 C 121.047 209.310,126.606 205.838,133.200 204.637 C 135.980 204.130,143.452 204.754,146.306 205.730 M268.040 205.347 C 282.817 209.991,289.146 226.448,281.428 240.160 C 275.930 249.928,263.333 254.082,251.200 250.126 C 246.414 248.566,240.532 243.339,238.586 238.918 C 238.219 238.083,237.759 237.040,237.563 236.600 C 229.760 219.029,248.951 199.349,268.040 205.347 M89.647 205.600 C 90.110 206.435,90.943 208.360,95.786 219.800 C 98.115 225.300,100.177 230.160,100.370 230.600 C 100.563 231.040,101.077 232.210,101.512 233.200 C 101.948 234.190,102.972 236.620,103.789 238.600 C 104.605 240.580,105.726 243.190,106.280 244.400 C 109.399 251.221,109.592 250.800,103.347 250.800 C 97.636 250.800,98.387 251.377,95.812 245.000 L 94.197 241.000 84.550 240.893 L 74.903 240.786 74.411 242.093 C 74.141 242.812,73.758 243.760,73.561 244.200 C 73.365 244.640,72.694 246.260,72.071 247.800 L 70.939 250.600 66.193 250.713 C 60.422 250.851,60.263 250.808,60.984 249.320 C 61.283 248.704,62.191 246.580,63.001 244.600 C 63.812 242.620,64.828 240.190,65.259 239.200 C 65.691 238.210,66.196 237.040,66.381 236.600 C 66.567 236.160,66.993 235.170,67.330 234.400 C 68.807 231.017,74.000 218.705,74.000 218.587 C 74.000 218.515,74.523 217.318,75.161 215.928 C 75.800 214.538,76.809 212.230,77.403 210.800 C 77.997 209.370,78.831 207.429,79.257 206.487 L 80.031 204.775 84.673 204.887 C 88.300 204.975,89.387 205.131,89.647 205.600 M202.313 209.640 C 202.457 215.033,202.848 214.753,194.972 214.889 L 188.600 215.000 188.496 232.900 L 188.392 250.800 183.196 250.800 L 178.000 250.800 178.000 232.800 L 178.000 214.800 171.480 214.800 C 166.942 214.800,164.814 214.654,164.480 214.320 C 163.965 213.805,163.779 205.954,164.271 205.463 C 164.419 205.314,173.014 205.239,183.371 205.296 L 202.200 205.400 202.313 209.640 M224.203 206.100 C 224.323 206.595,224.372 216.810,224.311 228.800 L 224.200 250.600 219.200 250.600 L 214.200 250.600 214.096 228.400 C 214.039 216.190,214.078 205.975,214.184 205.700 C 214.583 204.657,223.944 205.031,224.203 206.100 M306.270 206.100 C 306.716 206.595,310.122 211.019,313.840 215.932 C 325.280 231.049,326.049 232.017,326.430 231.781 C 326.644 231.649,326.800 226.001,326.800 218.364 L 326.800 205.175 331.700 205.288 L 336.600 205.400 336.703 228.100 L 336.807 250.800 332.438 250.800 L 328.069 250.800 326.102 248.300 C 325.020 246.925,322.169 243.204,319.767 240.031 C 309.379 226.310,307.378 223.730,307.000 223.570 C 306.740 223.459,306.530 228.162,306.400 237.000 L 306.200 250.600 301.200 250.600 L 296.200 250.600 296.089 228.800 C 295.954 202.216,295.341 205.200,300.938 205.200 C 305.121 205.200,305.521 205.267,306.270 206.100 M26.202 212.100 C 26.369 213.035,26.639 214.610,26.802 215.600 C 26.966 216.590,27.340 218.714,27.635 220.321 C 28.320 224.062,28.424 223.930,22.268 227.179 C 15.486 230.760,15.206 231.053,18.249 231.391 C 19.542 231.534,21.500 231.809,22.600 232.000 C 23.700 232.191,25.622 232.461,26.872 232.599 C 29.846 232.928,29.886 232.997,31.049 239.641 C 32.519 248.048,32.358 248.010,35.867 240.768 C 37.505 237.387,38.916 234.551,39.002 234.464 C 39.089 234.378,41.734 234.688,44.880 235.154 C 54.405 236.565,54.258 236.728,48.397 231.252 C 42.319 225.571,42.505 227.124,46.844 218.309 C 48.936 214.061,49.294 212.406,47.882 213.508 C 47.617 213.715,45.240 215.006,42.600 216.376 C 39.960 217.745,37.629 219.031,37.420 219.233 C 36.743 219.887,36.433 219.664,31.549 215.000 C 26.153 209.848,25.761 209.636,26.202 212.100 M371.793 216.216 C 366.252 221.473,366.884 221.255,363.125 219.206 C 359.486 217.222,359.544 217.220,358.480 219.411 C 357.353 221.731,357.366 221.959,358.795 224.791 C 360.252 227.676,360.424 227.318,355.244 232.200 C 348.946 238.136,348.894 237.899,356.250 236.819 C 363.174 235.803,364.350 235.786,364.671 236.700 C 364.807 237.085,366.016 239.686,367.359 242.479 C 370.042 248.061,370.800 248.667,371.260 245.595 C 371.740 242.392,373.155 234.712,373.290 234.576 C 373.363 234.504,376.028 234.073,379.211 233.619 C 387.907 232.379,388.062 232.306,385.100 230.855 C 374.735 225.777,374.643 225.691,375.401 221.778 C 375.740 220.030,376.206 217.520,376.438 216.200 C 376.669 214.880,376.936 213.406,377.031 212.925 C 377.370 211.198,376.517 211.734,371.793 216.216 M255.765 214.548 C 246.786 217.836,243.982 230.323,250.534 237.844 C 256.183 244.328,267.877 243.020,272.175 235.423 C 278.534 224.182,267.564 210.226,255.765 214.548 M84.061 218.700 C 83.859 219.085,82.745 221.740,81.586 224.600 C 80.427 227.460,79.326 229.971,79.139 230.180 C 78.052 231.398,78.800 231.600,84.400 231.600 C 91.038 231.600,90.708 232.297,87.600 224.833 C 86.280 221.664,85.200 218.829,85.200 218.535 C 85.200 217.771,84.494 217.874,84.061 218.700 M262.776 219.392 C 272.227 222.726,270.119 237.180,260.179 237.198 C 250.894 237.215,249.010 221.295,258.058 219.275 C 260.536 218.721,260.902 218.730,262.776 219.392 M107.224 262.777 C 106.662 263.132,107.375 268.864,108.818 275.600 C 109.030 276.590,109.763 280.010,110.446 283.200 C 112.329 291.991,112.341 292.045,112.958 294.400 C 117.094 310.197,116.298 308.944,122.600 309.567 C 125.240 309.828,128.120 310.125,129.000 310.226 C 130.628 310.413,139.752 311.318,147.000 312.010 C 151.401 312.431,155.537 312.851,164.600 313.796 C 167.900 314.141,172.670 314.598,175.200 314.812 C 177.730 315.026,181.330 315.379,183.200 315.597 C 187.763 316.128,198.069 317.177,203.000 317.612 C 207.370 317.998,213.962 318.661,216.800 319.000 C 218.885 319.249,224.782 319.839,230.800 320.401 C 233.110 320.616,236.620 320.960,238.600 321.166 C 240.580 321.371,245.980 321.910,250.600 322.364 C 264.752 323.755,267.715 324.059,270.027 324.360 C 273.765 324.845,273.820 324.685,271.990 318.616 C 270.232 312.784,267.573 301.623,266.221 294.400 C 265.871 292.530,265.408 290.100,265.193 289.000 C 264.132 283.568,262.591 272.963,262.007 267.076 C 261.537 262.332,261.621 262.400,256.200 262.400 C 250.688 262.400,250.638 262.439,251.180 266.262 C 251.396 267.783,251.763 270.641,251.996 272.614 C 252.739 278.915,254.171 288.184,255.207 293.400 C 255.425 294.500,255.867 296.750,256.188 298.400 C 256.510 300.050,257.252 303.470,257.838 306.000 C 258.423 308.530,258.991 311.005,259.098 311.500 C 259.282 312.350,259.011 312.552,257.800 312.467 C 256.831 312.398,248.088 311.553,242.600 310.998 C 239.300 310.664,234.710 310.204,232.400 309.976 C 230.090 309.749,226.490 309.392,224.400 309.183 C 222.310 308.974,217.000 308.446,212.600 308.010 C 208.200 307.574,201.900 306.937,198.600 306.595 C 192.915 306.005,191.137 305.830,180.600 304.821 C 178.180 304.590,173.680 304.125,170.600 303.787 C 167.520 303.450,163.020 303.003,160.600 302.794 C 155.389 302.343,149.642 301.777,144.400 301.197 C 137.728 300.458,133.477 300.035,130.567 299.818 C 125.455 299.437,125.325 299.377,124.637 297.055 C 122.950 291.365,119.376 274.866,117.997 266.400 C 117.728 264.750,117.327 263.175,117.105 262.900 C 116.626 262.305,108.136 262.199,107.224 262.777 M57.870 269.634 C 54.209 273.692,53.404 274.394,52.670 274.170 C 52.191 274.025,49.472 272.847,46.626 271.553 C 43.781 270.259,41.306 269.200,41.126 269.200 C 40.684 269.200,40.711 270.547,41.163 271.020 C 41.522 271.396,47.200 281.225,47.200 281.471 C 47.200 281.542,45.220 283.760,42.800 286.400 C 36.898 292.840,36.742 292.576,45.368 290.766 C 51.808 289.415,52.054 289.425,52.877 291.071 C 53.412 292.139,58.386 300.803,58.677 301.173 C 59.165 301.794,59.590 299.827,60.130 294.440 C 60.838 287.388,60.743 287.554,64.600 286.674 C 67.611 285.987,73.428 284.800,73.783 284.800 C 74.667 284.800,73.683 283.616,72.300 283.015 C 70.707 282.323,68.409 281.291,63.900 279.243 C 61.731 278.258,61.720 278.212,62.367 272.590 C 63.469 262.992,63.715 263.153,57.870 269.634 M337.828 268.900 C 337.963 270.715,338.236 273.280,338.434 274.600 C 339.131 279.243,339.234 279.038,335.300 280.845 C 330.863 282.883,329.775 283.368,327.800 284.188 C 325.514 285.137,326.342 285.570,333.040 286.926 C 340.664 288.470,339.882 287.453,340.748 296.952 C 341.235 302.297,342.197 303.110,343.643 299.397 C 344.005 298.466,348.515 290.776,348.802 290.599 C 348.975 290.492,349.990 290.580,351.058 290.794 C 353.606 291.305,360.355 292.732,361.500 293.003 C 363.256 293.417,362.060 291.804,354.465 283.507 L 353.465 282.415 354.607 280.307 C 355.235 279.148,356.705 276.602,357.874 274.649 C 359.722 271.563,360.386 270.000,359.850 270.000 C 359.672 270.000,356.835 271.245,349.822 274.400 C 347.412 275.484,347.083 275.430,345.579 273.700 C 341.870 269.434,338.253 265.600,337.937 265.600 C 337.738 265.600,337.690 267.054,337.828 268.900 M93.324 308.090 C 93.110 308.371,92.697 309.230,92.407 310.000 C 92.117 310.770,91.661 311.940,91.393 312.600 C 91.125 313.260,90.405 315.060,89.793 316.600 C 88.125 320.794,88.472 320.629,82.511 320.073 C 72.908 319.177,73.040 319.062,78.466 323.600 C 80.701 325.470,83.037 327.450,83.656 328.000 L 84.780 329.000 83.555 332.000 C 82.881 333.650,82.173 335.360,81.981 335.800 C 79.214 342.153,79.321 342.743,82.820 340.418 C 84.160 339.528,85.328 338.800,85.416 338.800 C 85.503 338.800,86.827 337.990,88.358 337.000 C 91.950 334.676,91.437 334.538,97.278 339.400 C 103.804 344.831,103.522 345.039,101.216 336.492 C 99.739 331.016,99.687 329.811,100.900 329.064 C 101.395 328.759,103.930 327.204,106.533 325.608 C 112.303 322.069,112.296 322.056,103.944 321.464 L 97.400 321.000 95.794 314.527 C 94.095 307.682,93.942 307.283,93.324 308.090 M306.516 308.867 C 306.276 309.160,305.438 312.008,304.653 315.196 C 302.940 322.151,303.270 321.854,296.877 322.184 C 289.204 322.579,288.026 323.040,290.900 324.522 C 293.007 325.609,299.524 329.749,300.154 330.400 C 300.661 330.925,300.538 331.772,299.164 337.200 C 297.089 345.396,296.944 345.276,302.881 340.277 C 305.674 337.925,308.255 336.000,308.616 336.000 C 309.201 336.000,315.635 339.705,318.502 341.693 C 320.872 343.337,320.851 342.497,318.371 336.400 C 315.298 328.846,314.916 330.000,322.533 323.814 C 326.282 320.769,326.229 320.825,325.728 320.497 C 325.469 320.327,323.129 320.324,320.528 320.490 C 317.928 320.655,315.001 320.838,314.025 320.896 L 312.249 321.000 310.273 316.200 C 307.020 308.295,307.006 308.269,306.516 308.867 M137.062 340.900 C 136.920 342.715,136.802 345.190,136.798 346.400 C 136.784 351.062,136.578 351.496,134.050 352.193 C 132.812 352.535,130.360 353.246,128.600 353.774 C 126.840 354.302,124.995 354.851,124.500 354.994 C 123.286 355.345,123.366 355.928,124.700 356.450 C 127.267 357.453,133.500 359.700,134.700 360.054 C 135.415 360.265,136.012 360.654,136.026 360.919 C 136.041 361.183,136.030 364.325,136.002 367.900 C 135.974 371.475,136.110 374.400,136.303 374.400 C 136.496 374.400,138.310 372.260,140.333 369.644 C 142.356 367.029,144.270 364.674,144.587 364.411 C 145.174 363.924,145.750 364.094,154.598 367.365 C 159.029 369.003,159.029 369.012,154.579 362.535 C 152.697 359.796,151.064 357.311,150.950 357.013 C 150.731 356.444,151.611 355.158,156.147 349.414 C 159.636 344.996,159.455 344.886,152.200 347.022 C 148.900 347.993,145.993 348.791,145.739 348.794 C 145.486 348.797,143.596 346.282,141.539 343.204 C 137.130 336.605,137.386 336.737,137.062 340.900 M258.722 343.490 C 254.613 349.573,254.975 349.351,251.000 348.216 C 249.680 347.839,248.060 347.382,247.400 347.200 C 242.940 345.971,241.534 345.600,241.334 345.600 C 240.967 345.600,242.312 347.510,246.074 352.331 C 248.174 355.021,249.492 357.052,249.319 357.331 C 249.160 357.589,247.539 360.050,245.718 362.800 C 242.859 367.115,241.967 368.800,242.538 368.800 C 242.615 368.800,244.190 368.243,246.038 367.563 C 252.125 365.324,254.780 364.400,255.127 364.400 C 255.315 364.400,257.317 366.752,259.575 369.626 C 261.833 372.500,263.798 374.734,263.941 374.590 C 264.083 374.445,264.200 371.341,264.200 367.692 L 264.200 361.056 266.600 360.116 C 267.920 359.599,269.720 358.921,270.600 358.610 C 277.567 356.146,277.860 355.923,275.125 355.176 C 274.176 354.916,272.050 354.302,270.400 353.812 C 268.750 353.321,266.646 352.709,265.724 352.451 C 263.675 351.878,263.722 352.036,263.383 344.495 C 263.232 341.138,262.959 338.298,262.776 338.185 C 262.593 338.072,260.769 340.459,258.722 343.490 M188.800 351.556 C 188.800 351.987,189.610 354.827,190.600 357.866 C 191.590 360.905,192.400 363.609,192.400 363.874 C 192.400 364.139,190.105 366.017,187.300 368.046 C 184.495 370.076,182.142 371.881,182.070 372.058 C 181.999 372.235,181.909 372.488,181.870 372.620 C 181.832 372.752,184.822 372.892,188.515 372.930 C 196.235 373.010,195.492 372.603,197.027 377.600 C 199.888 386.916,200.122 387.129,201.754 381.899 C 204.846 371.994,204.044 372.685,212.240 372.865 C 219.833 373.031,219.815 373.115,213.218 368.346 C 206.898 363.777,207.262 364.904,209.699 357.446 C 210.820 354.014,211.626 351.093,211.489 350.956 C 211.352 350.819,208.936 352.375,206.120 354.414 C 199.410 359.274,200.537 359.385,192.233 353.046 C 189.357 350.851,188.800 350.609,188.800 351.556 " stroke="none" fill="#1a97d5" fill-rule="evenodd"></path><path id="path1" d="M222.600 124.822 C 217.067 125.368,211.489 126.021,209.000 126.414 C 205.317 126.994,195.594 128.771,193.800 129.192 C 192.920 129.398,190.490 129.946,188.400 130.411 C 186.310 130.875,181.630 131.972,178.000 132.848 C 174.370 133.724,168.070 135.244,164.000 136.227 C 159.930 137.209,155.700 138.205,154.600 138.441 C 153.500 138.677,151.970 139.026,151.200 139.216 C 150.430 139.407,147.550 140.005,144.800 140.545 C 129.698 143.510,120.425 144.803,105.600 146.007 C 90.779 147.212,70.542 145.527,54.800 141.777 C 49.164 140.435,47.974 140.120,44.000 138.919 C 34.680 136.101,26.671 133.030,19.600 129.561 C 15.284 127.443,15.043 127.453,15.408 129.741 C 17.429 142.394,25.975 155.847,37.096 163.882 C 39.295 165.471,39.019 165.690,32.950 167.183 C 25.923 168.911,22.146 169.347,16.524 169.082 C 10.825 168.812,10.938 168.711,12.809 172.417 C 21.926 190.479,41.062 202.638,67.462 207.142 C 69.913 207.560,72.081 208.003,72.281 208.127 C 72.698 208.384,73.484 206.984,75.159 203.000 L 76.337 200.200 84.570 200.092 L 92.803 199.984 93.758 202.092 C 94.282 203.251,95.122 205.190,95.624 206.400 C 97.071 209.888,96.699 209.726,102.588 209.440 C 115.187 208.830,114.977 208.862,116.671 207.305 C 125.775 198.941,139.822 196.760,150.899 201.991 C 152.675 202.829,152.973 202.855,155.499 202.397 C 159.209 201.723,159.200 201.727,159.200 200.813 C 159.200 200.039,159.441 200.000,164.181 200.000 C 166.921 200.000,169.576 199.822,170.081 199.605 C 170.898 199.254,176.547 198.186,182.800 197.200 C 195.621 195.180,202.437 194.305,212.400 193.400 C 216.030 193.071,220.991 192.621,223.423 192.401 C 240.744 190.832,267.731 193.510,286.600 198.671 C 290.280 199.677,291.296 199.775,299.290 199.897 L 307.980 200.030 309.186 201.515 C 309.850 202.332,311.070 203.864,311.896 204.919 C 313.265 206.666,313.748 206.958,317.282 208.171 C 321.952 209.774,321.600 210.072,321.600 204.526 L 321.600 199.986 331.700 200.093 L 341.800 200.200 341.911 209.400 L 342.023 218.600 348.606 221.953 C 355.261 225.343,356.400 225.613,356.400 223.800 C 356.400 223.524,356.670 223.074,357.000 222.800 C 357.330 222.526,357.600 222.066,357.600 221.776 C 357.600 221.487,358.972 218.404,360.650 214.925 C 362.327 211.446,364.376 207.160,365.202 205.400 C 366.028 203.640,368.005 199.500,369.594 196.200 C 371.184 192.900,373.390 188.310,374.497 186.000 C 375.603 183.690,377.722 179.280,379.205 176.200 C 383.273 167.747,384.400 165.276,384.400 164.803 C 384.400 164.380,372.228 158.302,365.600 155.416 C 359.765 152.876,359.420 152.727,358.600 152.393 C 351.352 149.445,344.760 146.859,340.400 145.253 C 335.722 143.529,332.363 142.397,319.000 138.039 C 306.759 134.046,281.857 128.396,269.400 126.784 C 252.376 124.582,233.188 123.777,222.600 124.822 M240.800 145.130 L 242.600 145.400 242.600 148.200 L 242.600 151.000 236.077 151.110 L 229.555 151.220 229.677 152.910 L 229.800 154.600 235.384 154.712 C 241.677 154.838,241.585 154.791,241.594 157.876 C 241.602 160.569,241.613 160.565,235.003 160.584 L 229.400 160.600 229.276 162.103 C 229.119 163.999,228.898 163.931,236.400 164.297 L 242.600 164.600 242.600 167.400 L 242.600 170.200 232.627 170.307 C 227.142 170.366,222.512 170.272,222.338 170.098 C 222.163 169.923,222.135 164.160,222.275 157.290 L 222.529 144.800 230.764 144.830 C 235.294 144.846,239.810 144.981,240.800 145.130 M214.900 146.900 C 215.092 148.226,216.456 157.228,217.204 162.098 C 217.432 163.582,217.817 165.980,218.060 167.427 C 218.595 170.617,218.522 170.709,215.042 171.251 C 211.348 171.826,211.420 171.898,210.606 166.835 C 210.213 164.396,209.749 162.400,209.575 162.400 C 208.866 162.400,202.949 163.256,202.269 163.457 C 201.506 163.683,201.602 168.018,202.435 170.922 C 202.959 172.751,202.567 173.076,199.207 173.599 C 195.419 174.188,195.379 174.168,195.064 171.512 C 194.779 169.102,194.195 164.995,193.598 161.200 C 192.798 156.109,192.246 151.779,192.223 150.400 L 192.200 149.000 195.086 148.452 C 198.966 147.715,198.974 147.720,199.561 151.860 C 200.351 157.424,200.315 157.317,201.318 157.044 C 201.803 156.912,203.416 156.687,204.902 156.544 C 208.879 156.162,208.961 156.055,208.368 151.983 C 207.541 146.307,207.410 146.682,210.400 146.155 C 214.609 145.414,214.688 145.427,214.900 146.900 M258.954 146.803 C 260.299 147.025,263.110 147.461,265.200 147.773 C 273.384 148.993,276.853 152.565,275.620 158.503 C 274.985 161.562,272.364 164.800,270.522 164.800 C 269.602 164.800,269.953 166.031,272.035 170.107 C 274.397 174.730,274.365 174.813,270.400 174.306 C 266.455 173.801,265.844 173.527,265.107 171.937 C 264.766 171.202,264.002 169.559,263.408 168.286 C 260.817 162.733,259.256 163.736,258.251 171.600 C 258.164 172.280,254.986 172.258,252.296 171.558 C 250.687 171.140,250.748 171.371,251.412 168.182 C 251.624 167.167,252.166 163.318,252.790 158.400 C 253.373 153.808,254.452 147.039,254.653 146.715 C 254.912 146.295,256.010 146.318,258.954 146.803 M189.060 152.787 C 189.690 155.887,189.686 155.892,185.954 156.657 C 182.021 157.463,182.153 156.812,184.052 166.035 C 186.141 176.174,186.136 176.078,184.600 176.448 C 178.909 177.820,179.055 177.880,178.215 173.799 C 177.853 172.040,177.401 169.880,177.211 169.000 C 177.021 168.120,176.656 166.320,176.400 165.000 C 175.139 158.495,175.334 158.671,170.630 159.794 C 167.794 160.472,167.816 160.482,167.249 158.230 C 166.345 154.638,166.716 153.600,168.904 153.600 C 169.366 153.600,170.296 153.428,170.972 153.219 C 171.647 153.009,175.080 152.272,178.600 151.582 C 182.120 150.892,185.083 150.245,185.185 150.145 C 185.288 150.044,186.083 150.016,186.953 150.081 L 188.534 150.200 189.060 152.787 M296.771 153.785 C 309.023 159.994,305.508 177.925,291.880 178.732 C 277.319 179.593,271.124 161.373,283.510 154.115 C 287.051 152.039,293.032 151.891,296.771 153.785 M260.848 154.500 C 259.387 158.461,259.895 159.368,263.820 159.810 C 269.389 160.436,270.416 155.451,264.981 154.172 C 261.751 153.413,261.234 153.454,260.848 154.500 M158.381 159.058 C 158.949 162.320,159.177 162.123,153.600 163.190 C 145.767 164.689,145.870 164.648,146.163 166.115 C 146.561 168.107,146.771 168.136,152.595 167.008 C 155.611 166.424,158.125 166.003,158.180 166.073 C 158.568 166.561,159.200 169.151,159.200 170.252 C 159.200 171.773,159.663 171.581,152.800 172.910 L 148.200 173.800 148.073 175.126 C 147.891 177.024,148.477 177.559,150.302 177.160 C 151.126 176.980,152.835 176.645,154.100 176.416 C 155.365 176.187,157.366 175.797,158.547 175.549 C 161.468 174.935,161.703 175.087,162.215 177.918 C 162.812 181.220,163.251 180.966,153.784 182.800 C 149.173 183.694,144.898 184.525,144.284 184.648 C 142.793 184.946,142.114 184.296,141.808 182.277 C 141.668 181.355,141.384 179.700,141.176 178.600 C 139.860 171.628,138.748 165.929,138.366 164.200 C 138.123 163.100,137.986 161.660,138.062 161.000 L 138.200 159.800 145.800 158.357 C 149.980 157.563,153.760 156.819,154.200 156.703 C 154.640 156.587,155.657 156.472,156.459 156.446 L 157.918 156.400 158.381 159.058 M288.089 159.647 C 282.445 162.441,283.620 171.067,289.804 172.227 C 293.827 172.982,298.111 167.771,296.780 163.740 C 295.442 159.685,291.635 157.892,288.089 159.647 M321.746 160.936 C 325.232 162.115,324.988 161.451,325.806 172.000 C 327.351 191.929,327.652 190.057,323.148 188.524 L 319.800 187.385 319.600 184.993 L 319.400 182.600 315.012 181.090 L 310.625 179.579 308.847 181.408 C 307.647 182.642,306.864 183.153,306.435 182.980 C 306.086 182.840,304.723 182.376,303.407 181.949 C 302.091 181.523,300.859 181.019,300.669 180.829 C 300.284 180.444,301.080 179.500,316.790 161.700 C 318.547 159.710,318.254 159.755,321.746 160.936 M135.366 160.745 C 135.484 160.935,133.874 163.544,131.790 166.542 C 127.412 172.839,127.548 172.356,129.542 174.523 C 134.758 180.194,138.802 184.994,138.678 185.367 C 138.599 185.604,136.779 185.982,134.635 186.206 L 130.735 186.614 129.068 184.800 C 128.150 183.803,126.596 182.045,125.613 180.894 C 123.533 178.456,123.255 178.388,122.050 180.017 C 121.194 181.176,121.172 181.379,121.608 184.251 C 122.156 187.866,122.368 187.602,118.566 188.028 C 114.442 188.491,115.018 189.747,113.418 176.800 C 111.549 161.666,111.369 163.155,115.114 162.743 C 119.002 162.315,119.097 162.377,119.391 165.517 C 120.032 172.355,120.204 172.381,124.262 166.248 L 127.525 161.318 130.862 160.919 C 132.698 160.699,134.414 160.493,134.676 160.460 C 134.938 160.427,135.249 160.555,135.366 160.745 M64.431 161.634 C 65.669 161.945,66.002 162.304,66.899 164.297 C 70.662 172.659,70.188 172.453,74.078 167.421 C 77.553 162.928,77.118 163.160,81.047 163.692 C 85.074 164.238,85.153 164.307,84.760 166.899 C 84.585 168.054,84.159 171.250,83.813 174.000 C 82.772 182.278,82.373 185.310,82.080 187.200 L 81.800 189.000 78.600 188.871 C 74.457 188.703,74.568 188.901,75.376 183.117 C 75.755 180.406,76.005 177.560,75.932 176.794 L 75.800 175.400 72.444 179.324 L 69.088 183.248 68.444 182.266 C 68.090 181.726,67.083 179.780,66.208 177.942 C 65.332 176.104,64.564 174.522,64.501 174.427 C 64.134 173.871,63.584 175.384,63.202 178.000 C 62.961 179.650,62.563 182.328,62.317 183.950 L 61.870 186.900 59.525 186.655 C 54.904 186.172,55.137 186.412,55.438 182.454 C 55.583 180.554,55.757 178.901,55.825 178.780 C 55.893 178.659,56.420 174.795,56.996 170.195 C 57.572 165.594,58.214 161.625,58.422 161.374 C 58.831 160.881,61.982 161.017,64.431 161.634 M102.666 164.726 C 102.787 165.097,103.252 166.210,103.699 167.200 C 105.005 170.096,106.605 173.600,107.949 176.510 C 108.637 178.001,109.200 179.285,109.200 179.365 C 109.200 179.444,109.988 181.195,110.951 183.255 C 113.774 189.293,113.912 188.800,109.407 188.800 L 105.559 188.800 104.940 187.300 C 103.754 184.429,103.576 184.352,98.831 184.646 C 94.170 184.934,93.804 185.081,93.461 186.796 C 93.020 188.999,92.186 189.415,88.500 189.270 C 85.052 189.133,84.692 188.889,85.592 187.295 C 85.807 186.913,87.523 182.640,89.405 177.800 C 91.288 172.960,92.987 168.640,93.183 168.200 C 93.378 167.760,93.859 166.629,94.252 165.687 C 95.029 163.821,95.352 163.666,98.800 163.504 C 101.261 163.388,102.339 163.729,102.666 164.726 M344.097 169.421 C 350.860 172.424,351.689 172.907,354.022 175.200 C 363.162 184.187,353.937 199.274,341.400 195.843 C 338.525 195.056,330.269 191.354,329.819 190.650 C 329.466 190.097,331.207 185.885,337.659 171.690 C 338.287 170.309,338.800 169.040,338.800 168.870 C 338.800 168.576,339.628 167.600,339.877 167.600 C 339.942 167.600,341.841 168.420,344.097 169.421 M316.400 172.217 C 314.522 174.614,314.514 174.721,316.152 175.406 C 319.165 176.665,319.498 176.289,318.946 172.256 C 318.630 169.955,318.178 169.948,316.400 172.217 M97.805 174.649 C 97.472 175.446,97.200 176.310,97.200 176.569 C 97.200 176.828,97.000 177.240,96.755 177.485 C 95.970 178.270,96.793 178.800,98.800 178.800 C 101.280 178.800,101.321 178.704,100.117 175.700 C 98.959 172.809,98.635 172.662,97.805 174.649 M343.308 177.300 C 342.751 178.013,338.797 186.911,338.799 187.447 C 338.801 188.108,342.678 189.600,344.394 189.600 C 348.940 189.600,351.864 183.521,349.077 179.866 C 347.339 177.586,344.181 176.182,343.308 177.300 " stroke="none" fill="#95ac3e" fill-rule="evenodd"></path></g></svg>