<svg id="Layer_1" data-name="Layer 1" xmlns="http://www.w3.org/2000/svg" viewBox="0 0 407.16 404.94"><defs><style>.cls-1{fill:#97aa3c;}.cls-2{fill:#1a99d4;}</style></defs><title>MakeTheRoadAction</title><path class="cls-1" d="M405.3,397c-8.36-1.95-16.64-4.53-25.11-5.7-11.8-1.62-23.75-3.07-35.62-2.94-13.2.13-26.4,1.9-39.56,3.38-10,1.13-20,2.92-30,4.42-3,.27-6.08.61-9.12.8-1.5.09-3-.12-3.28,1.95l-6.17,1.24a38.69,38.69,0,0,0-15.23-4.07c-10.23-.49-18.76,3.3-26.06,10.24l-19.12.88c-1.63-3.36-3.27-6.71-5-10.32H173.71l-4.23,9c-7.11-1.62-14.34-2.84-21.3-4.94-16.86-5.06-31.25-13.83-40.84-29.15-1.57-2.51-2.83-5.21-4.64-8.6,10.75,1.7,20.33-.31,30.32-3.5-13.36-10.6-23.69-22.74-25.66-40.83,33.45,15.9,68.18,23.17,104.9,19l12.67-1.51a57.33,57.33,0,0,0,6.44-.65c17.31-3.72,34.64-7.33,51.88-11.37,17.43-4.08,34.91-7.85,52.81-9,15.29-1,30.48.6,45.63,2.44l11.59,2a397,397,0,0,1,79.05,23.44c11.34,4.63,22.43,9.89,34.05,15-.72,1.87-1.13,3.24-1.74,4.52Q493,387,481.41,411.21c-.71,1.48-1.19,3.08-1.78,4.62-.89,1.84-1.77,3.69-2.66,5.53l-2.15,2.81-14.54-6.76c-.11-6.71-.22-13.43-.33-20h-22v9.78L430,404.81c-2.1-2.54-4.21-5.07-6.48-7.8ZM167.11,366.46l-5.38-11.09-8-.53c-1.14,9.24-2.23,18-3.33,27l7.42,1.15c.76-4.84,1.44-9.2,2.23-14.24l5.35,10.22,7.85-8.61c-.56,5.57-1,9.8-1.43,14.31l7.59.9c1.17-9.15,2.29-18,3.46-27.12l-8.2-1.19Zm199-27.63c-1.83,8.94-2.64,17.89-4.14,27.21l7.5,1.09c.68-3,1.25-5.49,1.87-8.24,5.11,1.74,4.34,7.32,7.71,9.82l8,.94c-1.71-3.63-3.17-6.74-4.62-9.84.73-.49,1.13-.79,1.55-1a9.2,9.2,0,0,0,4.69-10.61c-.93-4.39-4.29-6.52-8.6-7.18S371.27,339.62,366.11,338.83ZM404.91,374c8.35.1,14.94-6.11,15-14.08s-7-14.6-15.29-14.66A14.43,14.43,0,0,0,390,359.83C390,367.77,396.49,373.94,404.91,374Zm41.51,13c4.95,2,9.37,4.38,14.08,5.62a12.73,12.73,0,0,0,15.85-8.6c2.45-7.79,0-12.95-6.27-16.49-3.85-2.17-8-3.81-12.33-5.83ZM298,341.79c1.47,9.65,2.81,18.41,4.2,27.52l7.55-1.59c-.36-3.71-.65-6.76-1-10.29l8.74-.68c.66,3.41,1.21,6.3,1.81,9.46l7.78-.61c-1.5-9.62-2.89-18.54-4.31-27.68l-7.42,1.51c.3,3.33.57,6.41.9,10l-8.75,1c-.64-3.39-1.22-6.41-1.84-9.66ZM250.76,368.9l12.48-2.66c-.5-2.18-.93-4-1.36-5.89l-12.69,1.95-.31-3.26,13.91-3.13c-.58-2.39-1-4.12-1.54-6.29l-21.64,4c1.75,9.24,3.42,18.09,5.15,27.2l22.11-4.27c-.51-2.37-.92-4.27-1.39-6.47l-14.26,2.33Zm-39-11.54c1.14,9.35,2.22,18.3,3.32,27.28l7.61-1.11c.53-3.28-2.64-7.18,2-9.4l7.55,8.46,9.18-1.17-12-14c2-4.82,6.07-8.08,7.78-13.22l-8.53,1.17L221,366.54c-.67-4.11-1.16-7.13-1.67-10.25Zm119.47,7.43h21.63v-6.58H339.06v-3.83h12.48V348H339.21v-4h13.67v-6.24H331.19ZM193.7,357.47c-3.62,9.16-7.26,18.39-11.08,28.07h7.85l2.67-4.65,9.42-.76,2.64,4.69h8.34c-4.22-9.32-8.3-18.34-12.37-27.35Zm221.23,18.79,7.61,2.54,4.13-3.82,9.12,3.2c.24,1.82.44,3.42.68,5.25l7.85,2.65c-.81-10.38-1.58-20.22-2.36-30.19l-7.14-2.21ZM270.66,347.41l1.6,6.69,7.74-1.32c1.49,6.87,2.92,13.4,4.37,20.05L292,371c-1.41-6.91-2.69-13.2-4-19.74l7.94-2.08c-.52-2.2-1-4.08-1.56-6.55Z" transform="translate(-102.7 -192.65)"/><path class="cls-2" d="M224.93,336.36l-12.67,1.51a355.1,355.1,0,0,1,30.89-77.49l168.31,16.84c-6.09,14.25-12.14,28.38-18.18,42.5l-11.59-2L394,287,249.71,272.55c-1.05,2-2,3.6-2.68,5.27-5.54,13.32-11.22,26.59-16.47,40C228.22,323.84,226.78,330.18,224.93,336.36Z" transform="translate(-102.7 -192.65)"/><path class="cls-2" d="M225.87,504.1l144.85,14.46c-3.73-18.36-7.35-35.84-8.79-54h11.38c2.59,22.43,6.54,44.68,13.29,67.11L218,514.83c-3.79-7.86-10.9-38.62-11.59-50.2h11C220.18,477.63,223,490.7,225.87,504.1Z" transform="translate(-102.7 -192.65)"/><path class="cls-2" d="M262.65,398.92c.26-2.07,1.78-1.86,3.28-1.95,3-.19,6.08-.53,9.12-.8a28.83,28.83,0,0,0,4.64.78c10,.07,20,0,30,0h5.11v21H300.29v39.36H278v-39H263.22l-.61-4.44-10.35,11.46c-1.67-1.49-3-2.91-4.63-4.06a20,20,0,0,0-5.49-3.26c-4.44-1.36-8.19.3-10.23,4-2.14,3.9-1.27,10.12,1.81,13,2.69,2.5,7.57,2.74,11.16.44a48.23,48.23,0,0,0,3.92-3.08c1.15-.93,2.28-1.88,2.93-2.42l14.35,14.13c-10.74,17.77-37,18.33-49.11,5.38-2.67-2.85-4.69-6.31-7-9.5l.08.09c-.28-1.28-.47-2.6-.86-3.85a28.67,28.67,0,0,1,.32-18.44c1.37-4,3.76-7.64,5.69-11.44,7.3-6.94,15.83-10.73,26.06-10.24a38.69,38.69,0,0,1,15.23,4.07l6.17,4.72Zm-4.16,10.75c-6.29-9.59-27.88-11.13-37.88-.57-10.24,10.82-9.34,28.66,2.17,38.24,10.95,9.13,30,6.33,35.76-3.16L252,437.35c-9.34,6.37-17.47,6.72-22.79.92s-5.76-15.17-.58-21.08a16.67,16.67,0,0,1,7.82-4.9c5.9-1.58,10.9,1.43,15.65,5.14Zm10.06-7.17V413h14.68v38.58h11.5V412.85H309.2V402.5Z" transform="translate(-102.7 -192.65)"/><path class="cls-2" d="M437.93,407.16v-9.78h22c.11,6.6.22,13.32.33,20v40H442.63L428,438.54c-1.43,3.4-.66,6.48-.79,9.45s0,6,0,9.33h-21.4c-.19-.32-.5-.59-.5-.86q0-29.73.05-59.45h18.24c2.27,2.73,4.38,5.26,6.48,7.8l7.91,10.83Zm-26.7-4.23v48.63h10.85v-30l23,30.05h9.41V403H443.82v29.47L421.3,402.93Z" transform="translate(-102.7 -192.65)"/><path class="cls-2" d="M169.48,405.85l4.23-9H191c1.76,3.61,3.4,7,5,10.32q7,16.43,14,32.85L210,440q2.31,5.76,4.63,11.52l2.48,6.2H193.59l-4.84-10.83H175.7l-4.51,10.52H147.87C155.16,440,162.32,422.93,169.48,405.85Zm7.77-3.5c-7,16.43-13.92,32.72-21,49.45h11.17l4.67-10.62h20.49l4.54,10.5h11.48c-7.14-16.76-14.06-33-21-49.33Z" transform="translate(-102.7 -192.65)"/><path class="cls-2" d="M372.36,458.15a30.26,30.26,0,0,1-32-30.87c.12-20.36,16.94-31.41,32-31.21,17.87.23,31.35,13.47,31.71,30.89C404.45,444.81,388.69,459.29,372.36,458.15Zm.29-56.27c-14.25-1-26.85,10.87-26.67,25.42s11.17,25.53,26.1,25.55c16.94,0,26.27-13.29,26.39-25.34C398.62,412.23,385.93,401.11,372.65,401.88Z" transform="translate(-102.7 -192.65)"/><path class="cls-2" d="M317,457.32v-60h21.57v60Zm5.48-54.38V451.6h10.31V402.94Z" transform="translate(-102.7 -192.65)"/><path class="cls-2" d="M306.56,597.46c-1.47-4.38-2.95-8.75-4.51-13.39H287.61l-.49-.92,11.68-8.92c-1.39-4.63-2.75-9.16-4.1-13.68l.75-.46L307,568.28l11.53-8.08.83.53-4,13.5,12.32,9.34H312.28l-4.8,14Z" transform="translate(-102.7 -192.65)"/><path class="cls-2" d="M353,237l8.46-11.63-7.57-11.83.43-.77,6.32,2.16,7.08,2.42,10.14-12.46c-.28,6-.52,10.83-.76,15.87L392,226.4l-14.88,4.54c-.31,4.89-.62,9.64-1,15.69-3.34-4.86-6-8.72-8.64-12.6l-14.54,2.89Z" transform="translate(-102.7 -192.65)"/><path class="cls-2" d="M192.36,512.33c1.49,5.84,2.67,10.48,3.89,15.31l14.35,1.07.22.91c-4,2.53-7.93,5.07-12.1,7.72,1.14,4.83,2.23,9.46,3.61,15.29l-12.22-9.89-12.31,7.51-.64-.64,5.19-13.25c-3.61-3.16-7.28-6.39-11.9-10.45l15.63,1C188.12,522.17,190.05,517.71,192.36,512.33Z" transform="translate(-102.7 -192.65)"/><path class="cls-2" d="M436.49,551l-12.16-7.44-12.21,9.93c1.28-5.6,2.36-10.32,3.51-15.32l-13.23-8.53,15.69-1.22c1.32-4.91,2.55-9.48,4.1-15.21l6,14.39,14.32-.68.31.79L432.15,537l5,13.33Z" transform="translate(-102.7 -192.65)"/><path class="cls-2" d="M352.8,578.2l7.67-11.77-9.68-12.58L366,558.12c2.75-3.87,5.57-7.85,8.86-12.52.43,5.61.78,10.33,1.16,15.31l14.88,4.52L376,571.12c.21,4.82.42,9.57.63,14.32l-.72.43-9.29-11.39-13.2,4.7Z" transform="translate(-102.7 -192.65)"/><path class="cls-2" d="M141.8,484.85c-2.36-4.24-4.6-8.27-6.85-12.3l.44-.78,13.25,5.54L158.37,467l.8.44c-.43,4.57-.86,9.14-1.31,14.07l12.95,6,.11.91-14,3.13c-.63,4.89-1.26,9.78-2,15.63L147,493.73l-15.44,3Z" transform="translate(-102.7 -192.65)"/><path class="cls-2" d="M416.58,254.1l-3.65-15.38,12.25,9.95,12.32-7.48.74.48c-.88,2.25-1.73,4.52-2.63,6.76s-1.75,4.28-2.74,6.67l11.31,9.83H429c-1.8,4.25-3.59,8.49-5.91,14l-4.16-15-15.6-1.36c2.89-1.86,4.91-3.18,6.94-4.47Z" transform="translate(-102.7 -192.65)"/><path class="cls-2" d="M191.07,248l11-9.09.83.37c-1.08,4.65-2.16,9.31-3.26,14l13,8.46-15.38,1.42c-1.22,4.4-2.5,9.05-3.79,13.7l-.84.09c-1.8-4.18-3.59-8.36-5.62-13.11l-15.73.86,12-10.24-5.77-14.75Z" transform="translate(-102.7 -192.65)"/><path class="cls-2" d="M130.42,418l12.85-6.63c-.9,5.4-4.27,9-5.48,14.12l10.39,9.21-.7,1.26-14.28-1.8-7,14L123,432.78l-15.28-2.31,13.56-7.73c-.77-4.79-1.53-9.5-2.46-15.31Z" transform="translate(-102.7 -192.65)"/><path class="cls-2" d="M157.34,298.79l15.42,3.58-14.19,6.51c.42,5,.82,9.78,1.31,15.56L149.22,313l-12.62,5.34-.79-.95,6.66-11.87q-4.71-5.35-9.41-10.7l.29-.84,14.08,2.63,8.18-13.27C156.25,289.06,156.76,293.6,157.34,298.79Z" transform="translate(-102.7 -192.65)"/><path class="cls-2" d="M473.41,306.51l7,12.45c-5.38-.34-9.07-3.5-13.76-4.82L456,325.65c.52-5.8.94-10.46,1.4-15.6l-14.11-6.71,15.28-3.52c.56-5,1.09-9.65,1.77-15.57l8,13.41L482.54,295l.5.67Z" transform="translate(-102.7 -192.65)"/><path class="cls-2" d="M482,497l-14.41-2c-2.37,3.95-4.79,8-7.2,12l-.85-.23c-.57-4.68-1.14-9.36-1.74-14.24l-15.43-3.35,14.46-6.64-1.34-14.07.67-.61,9.93,10.48,13.18-5.57.52.67L473,485.72l9,11.3Z" transform="translate(-102.7 -192.65)"/><path class="cls-2" d="M248.67,217l14.81-5.27-8.68,13.19,9.58,12.47-15.17-4-8.45,12-.74-.18V230.71l-15.61-4.65,14.52-5.58V205.14Z" transform="translate(-102.7 -192.65)"/><path class="cls-2" d="M238.46,560.42c.23-4.87.46-9.67.73-15.51l8.9,12.69,15-3.9L253.79,566c2.35,3.68,4.82,7.52,7.63,11.91-5.37,0-9.31-2.79-14-3.83l-9.23,11.46V570.66l-14.93-5.57Z" transform="translate(-102.7 -192.65)"/><path class="cls-2" d="M320,231l-11.89-7.67-11.55,8-.73-.55c1.37-4.36,2.74-8.73,4.22-13.47l-12.14-9.15h15c1.76-5.1,3.4-9.87,5.32-15.45l5.08,15.12h14l.45.85c-3.71,2.79-7.43,5.57-11.1,8.31,1.11,4.9,2.16,9.51,3.2,14.12Z" transform="translate(-102.7 -192.65)"/><path class="cls-2" d="M477,421.36c.89-1.84,1.77-3.69,2.66-5.53l7.31,3.73,10.43-9.76.83.52c-.75,4.53-1.49,9.06-2.32,14.08l14,7.45-15.67,2.47c-.9,4.71-1.8,9.48-2.95,15.5l-7.1-14.08-15.28,2L480.1,427.2Z" transform="translate(-102.7 -192.65)"/><path class="cls-2" d="M352.93,236.92l-.16.35A2.92,2.92,0,0,0,353,237Z" transform="translate(-102.7 -192.65)"/><path class="cls-2" d="M320,231.05l.17.06L320,231Z" transform="translate(-102.7 -192.65)"/><path class="cls-2" d="M482,497l.27.24L482,497Z" transform="translate(-102.7 -192.65)"/><path class="cls-1" d="M378.28,354.14l-6.3-1.45c.17-1.88.32-3.62.47-5.29,5.73-.47,6.53-.14,8.72,3.69C380.3,352,379.33,353,378.28,354.14Z" transform="translate(-102.7 -192.65)"/><path class="cls-1" d="M411.86,359.49a7.56,7.56,0,0,1-7.07,7.5,7.16,7.16,0,0,1-6.78-6.62,7.06,7.06,0,0,1,6.76-7.63A6.84,6.84,0,0,1,411.86,359.49Z" transform="translate(-102.7 -192.65)"/><path class="cls-1" d="M462,371.69c3.82,1.1,6.56,2.56,7.09,6.21a6.65,6.65,0,0,1-3,6.94c-3.35,2.16-6.29.65-9.47-1.45Z" transform="translate(-102.7 -192.65)"/><path class="cls-1" d="M200.39,373.93h-5.15c.7-2.08,1.34-3.95,2.27-6.68Z" transform="translate(-102.7 -192.65)"/><path class="cls-1" d="M435.86,371.35l-5.5-1.56,4.24-4.9,1,.34C435.66,367.08,435.75,368.93,435.86,371.35Z" transform="translate(-102.7 -192.65)"/><path class="cls-2" d="M182.32,415.67c2.09,5.24,3.87,9.66,5.61,14.09.1.26-.09.63-.18,1.16H176.06C178.14,425.87,180.1,421.09,182.32,415.67Z" transform="translate(-102.7 -192.65)"/><path class="cls-2" d="M372.33,442.34c-8.82,0-14.75-6.21-14.66-15.3.08-8.71,6.21-15.07,14.53-15.05S387,418.75,387,427.46C387,435.4,380.45,443.1,372.33,442.34Zm0-5.36a9,9,0,0,0,9.2-9.57c-.21-5.8-3.43-9.6-9-10-5.09-.35-9.33,4.07-9.47,9.45C362.88,432.57,366.87,436.93,372.29,437Z" transform="translate(-102.7 -192.65)"/></svg>