<?xml version="1.0" encoding="utf-8"?>
<!-- Generator: Adobe Illustrator 24.0.2, SVG Export Plug-In . SVG Version: 6.00 Build 0)  -->
<svg version="1.1" id="Layer_1" xmlns="http://www.w3.org/2000/svg" xmlns:xlink="http://www.w3.org/1999/xlink" x="0px" y="0px"
	 viewBox="0 0 407.2 404.9" style="enable-background:new 0 0 407.2 404.9;" xml:space="preserve">
<style type="text/css">
	.st0{fill:#1A99D4;}
	.st1{fill:#97AA3C;}
</style>
<title>MakeTheRoadAction</title>
<path class="st0" d="M122.2,143.7l-12.7,1.5c7.2-27,17.6-53,30.9-77.5l168.3,16.8c-6.1,14.2-12.1,28.4-18.2,42.5l-11.6-2l12.3-30.7
	L147,79.9c-1.1,2-2,3.6-2.7,5.3c-5.5,13.3-11.2,26.6-16.5,40C125.5,131.2,124.1,137.5,122.2,143.7z"/>
<path class="st0" d="M123.2,311.5L268,325.9c-3.7-18.4-7.4-35.8-8.8-54h11.4c2.6,22.4,6.5,44.7,13.3,67.1l-168.6-16.8
	c-3.8-7.9-10.9-38.6-11.6-50.2h11C117.5,285,120.3,298.1,123.2,311.5z"/>
<path class="st0" d="M177,204.3c10,0.1,20,0,30,0h5.1v21h-14.5v39.4h-22.3v-39h-14.8l-0.6-4.4l-10.4,11.5c-1.7-1.5-3-2.9-4.6-4.1
	c-1.6-1.4-3.5-2.5-5.5-3.3c-4.4-1.4-8.2,0.3-10.2,4c-2.1,3.9-1.3,10.1,1.8,13c2.7,2.5,7.6,2.7,11.2,0.4c1.4-1,2.7-2,3.9-3.1
	c1.1-0.9,2.3-1.9,2.9-2.4l14.3,14.1c-10.7,17.8-37,18.3-49.1,5.4c-2.7-2.9-4.7-6.3-7-9.5l0.1,0.1c-0.3-1.3-0.5-2.6-0.9-3.9
	c-1.9-6-1.8-12.5,0.3-18.4c1.4-4,3.8-7.6,5.7-11.4c7.3-6.9,15.8-10.7,26.1-10.2c5.3,0.3,10.5,1.7,15.2,4.1l6.2,4.7l0-7.9
	c1.8,0,1.8,0,3.3,0 M155.8,217c-6.3-9.6-27.9-11.1-37.9-0.6c-10.2,10.8-9.3,28.7,2.2,38.2c10.9,9.1,30,6.3,35.8-3.2l-6.5-6.8
	c-9.3,6.4-17.5,6.7-22.8,0.9s-5.8-15.2-0.6-21.1c2.1-2.3,4.8-4,7.8-4.9c5.9-1.6,10.9,1.4,15.6,5.1L155.8,217z M165.8,209.9v10.5
	h14.7v38.6H192v-38.7h14.5v-10.4H165.8z"/>
<path class="st0" d="M335.2,214.5v-9.8h22c0.1,6.6,0.2,13.3,0.3,20v40h-17.6l-14.6-18.8c-1.4,3.4-0.7,6.5-0.8,9.5s0,6,0,9.3h-21.4
	c-0.2-0.3-0.5-0.6-0.5-0.9c0-19.8,0-39.6,0-59.5h18.2c2.3,2.7,4.4,5.3,6.5,7.8l7.9,10.8L335.2,214.5z M308.5,210.3v48.6h10.9v-30
	l23,30h9.4v-48.6h-10.7v29.5l-22.5-29.5H308.5z"/>
<path class="st0" d="M66.8,213.2l4.2-9h17.3c1.8,3.6,3.4,7,5,10.3c4.7,11,9.3,21.9,14,32.9v0c1.5,3.8,3.1,7.7,4.6,11.5l2.5,6.2H90.9
	l-4.8-10.8H73l-4.5,10.5H45.2C52.5,247.4,59.6,230.3,66.8,213.2z M74.6,209.7c-7,16.4-13.9,32.7-21,49.5h11.2l4.7-10.6h20.5
	l4.5,10.5h11.5c-7.1-16.8-14.1-33-21-49.3L74.6,209.7z"/>
<path class="st0" d="M269.7,265.5c-16.7,1-31-11.8-32-28.5c0-0.8-0.1-1.6,0-2.4c0.1-20.4,16.9-31.4,32-31.2
	c17.9,0.2,31.4,13.5,31.7,30.9C301.8,252.2,286,266.6,269.7,265.5z M270,209.2c-14.3-1-26.9,10.9-26.7,25.4s11.2,25.5,26.1,25.5
	c16.9,0,26.3-13.3,26.4-25.3C295.9,219.6,283.2,208.5,270,209.2z"/>
<path class="st0" d="M214.3,264.7v-60h21.6v60H214.3z M219.8,210.3V259h10.3v-48.7H219.8z"/>
<path class="st0" d="M203.9,404.8c-1.5-4.4-3-8.8-4.5-13.4h-14.4l-0.5-0.9l11.7-8.9c-1.4-4.6-2.8-9.2-4.1-13.7l0.8-0.5l11.6,8.2
	l11.5-8.1l0.8,0.5l-4,13.5l12.3,9.3h-15.4l-4.8,14L203.9,404.8z"/>
<path class="st0" d="M250.3,44.4l8.5-11.6l-7.6-11.8l0.4-0.8l6.3,2.2l7.1,2.4l10.1-12.5c-0.3,6-0.5,10.8-0.8,15.9l14.9,5.6
	l-14.9,4.5c-0.3,4.9-0.6,9.6-1,15.7c-3.3-4.9-6-8.7-8.6-12.6L250.3,44.4L250.3,44.4z"/>
<path class="st0" d="M89.7,319.7c1.5,5.8,2.7,10.5,3.9,15.3l14.4,1.1l0.2,0.9c-4,2.5-7.9,5.1-12.1,7.7c1.1,4.8,2.2,9.5,3.6,15.3
	l-12.2-9.9l-12.3,7.5l-0.6-0.6l5.2-13.2c-3.6-3.2-7.3-6.4-11.9-10.5l15.6,1C85.4,329.5,87.4,325.1,89.7,319.7z"/>
<path class="st0" d="M333.8,358.4l-12.2-7.4l-12.2,9.9c1.3-5.6,2.4-10.3,3.5-15.3l-13.2-8.5l15.7-1.2c1.3-4.9,2.5-9.5,4.1-15.2
	l6,14.4l14.3-0.7l0.3,0.8l-10.7,9.3l5,13.3L333.8,358.4z"/>
<path class="st0" d="M250.1,385.6l7.7-11.8l-9.7-12.6l15.2,4.3c2.8-3.9,5.6-7.8,8.9-12.5c0.4,5.6,0.8,10.3,1.2,15.3l14.9,4.5
	l-14.9,5.7c0.2,4.8,0.4,9.6,0.6,14.3l-0.7,0.4l-9.3-11.4l-13.2,4.7L250.1,385.6z"/>
<path class="st0" d="M39.1,292.2c-2.4-4.2-4.6-8.3-6.9-12.3l0.4-0.8l13.2,5.5l9.7-10.3l0.8,0.4c-0.4,4.6-0.9,9.1-1.3,14.1l12.9,6
	l0.1,0.9l-14,3.1c-0.6,4.9-1.3,9.8-2,15.6l-7.9-13.5l-15.4,3L39.1,292.2z"/>
<path class="st0" d="M313.9,61.5l-3.7-15.4l12.2,9.9l12.3-7.5l0.7,0.5c-0.9,2.2-1.7,4.5-2.6,6.8c-0.9,2.2-1.8,4.3-2.7,6.7l11.3,9.8
	h-15.2c-1.8,4.2-3.6,8.5-5.9,14l-4.2-15l-15.6-1.4c2.9-1.9,4.9-3.2,6.9-4.5L313.9,61.5z"/>
<path class="st0" d="M88.4,55.4l11-9.1l0.8,0.4c-1.1,4.6-2.2,9.3-3.3,14l13,8.5l-15.4,1.4c-1.2,4.4-2.5,9-3.8,13.7l-0.8,0.1
	c-1.8-4.2-3.6-8.4-5.6-13.1l-15.7,0.9l12-10.2l-5.8-14.8L88.4,55.4z"/>
<path class="st0" d="M27.7,225.4l12.9-6.6c-0.9,5.4-4.3,9-5.5,14.1l10.4,9.2l-0.7,1.3l-14.3-1.8l-7,14l-3.2-15.4L5,237.8l13.6-7.7
	c-0.8-4.8-1.5-9.5-2.5-15.3L27.7,225.4z"/>
<path class="st0" d="M54.6,106.1l15.4,3.6l-14.2,6.5c0.4,5,0.8,9.8,1.3,15.6l-10.7-11.4l-12.6,5.3l-0.8-1l6.7-11.9
	c-3.1-3.6-6.3-7.1-9.4-10.7l0.3-0.8l14.1,2.6l8.2-13.3C53.6,96.4,54.1,101,54.6,106.1z"/>
<path class="st0" d="M370.7,113.9l7,12.5c-5.4-0.3-9.1-3.5-13.8-4.8L353.3,133c0.5-5.8,0.9-10.5,1.4-15.6l-14.1-6.7l15.3-3.5
	c0.6-5,1.1-9.6,1.8-15.6l8,13.4l14.2-2.7l0.5,0.7L370.7,113.9z"/>
<path class="st0" d="M379.3,304.4l-14.4-2c-2.4,4-4.8,8-7.2,12l-0.9-0.2c-0.6-4.7-1.1-9.4-1.7-14.2l-15.4-3.4l14.5-6.6l-1.3-14.1
	l0.7-0.6l9.9,10.5l13.2-5.6l0.5,0.7l-6.8,12.3L379.3,304.4L379.3,304.4z"/>
<path class="st0" d="M146,24.4l14.8-5.3l-8.7,13.2l9.6,12.5l-15.2-4l-8.4,12l-0.7-0.2V38.1l-15.6-4.6l14.5-5.6V12.5L146,24.4z"/>
<path class="st0" d="M135.8,367.8c0.2-4.9,0.5-9.7,0.7-15.5l8.9,12.7l15-3.9l-9.3,12.3c2.3,3.7,4.8,7.5,7.6,11.9
	c-5.4,0-9.3-2.8-14-3.8l-9.2,11.5V378l-14.9-5.6L135.8,367.8z"/>
<path class="st0" d="M217.3,38.4l-11.9-7.7l-11.5,8l-0.7-0.6c1.4-4.4,2.7-8.7,4.2-13.5l-12.1-9.1h15c1.8-5.1,3.4-9.9,5.3-15.4
	l5.1,15.1h14l0.5,0.9c-3.7,2.8-7.4,5.6-11.1,8.3c1.1,4.9,2.2,9.5,3.2,14.1L217.3,38.4z"/>
<path class="st0" d="M374.3,228.7c0.9-1.8,1.8-3.7,2.7-5.5l7.3,3.7l10.4-9.8l0.8,0.5c-0.8,4.5-1.5,9.1-2.3,14.1l14,7.5l-15.7,2.5
	c-0.9,4.7-1.8,9.5-3,15.5l-7.1-14.1l-15.3,2l11.2-10.5L374.3,228.7z"/>
<path class="st0" d="M79.6,223c2.1,5.2,3.9,9.7,5.6,14.1c0.1,0.3-0.1,0.6-0.2,1.2H73.4C75.4,233.2,77.4,228.4,79.6,223z"/>
<path class="st0" d="M269.6,249.7c-8.8,0-14.8-6.2-14.7-15.3c0.1-8.7,6.2-15.1,14.5-15s14.8,6.8,14.8,15.5
	C284.3,242.8,277.8,250.5,269.6,249.7z M269.6,244.3c5,0.1,9.1-3.8,9.2-8.8c0-0.3,0-0.5,0-0.8c-0.2-5.8-3.4-9.6-9-10
	c-5.1-0.4-9.3,4.1-9.5,9.5C260.2,239.9,264.2,244.3,269.6,244.3L269.6,244.3z"/>
<g>
	<path class="st1" d="M333,170.9c-1.6,1.9-3.1,3.7-4.9,5.9l5.7,1.8l-0.3-7.4L333,170.9z"/>
	<path class="st1" d="M369.6,150.6c-25.5-10.5-52-18.4-79-23.4l-11.6-2c-15.1-1.8-30.3-3.4-45.6-2.4c-17.9,1.1-35.4,4.9-52.8,9
		c-17.2,4-34.6,7.6-51.9,11.4c-2.1,0.3-4.3,0.6-6.4,0.6l-12.7,1.5c-36.7,4.2-71.4-3.1-104.9-19c2,18.1,12.3,30.2,25.7,40.8
		c-10,3.2-19.6,5.2-30.3,3.5c1.8,3.4,3.1,6.1,4.6,8.6c9.6,15.3,24,24.1,40.8,29.2c7,2.1,14.2,3.3,21.3,4.9l4.2-9h17.3
		c1.7,3.6,3.4,7,5,10.3l19.1-0.9c7.3-6.9,15.8-10.7,26.1-10.2c5.3,0.3,10.5,1.7,15.2,4.1l6.2-1.2c0.3-2.1,1.8-1.9,3.3-2
		c3-0.2,6.1-0.5,9.1-0.8c10-1.5,20-3.3,30-4.4c13.2-1.5,26.4-3.2,39.6-3.4c11.9-0.1,23.8,1.3,35.6,2.9c8.5,1.2,16.8,3.8,25.1,5.7
		l18.2,0c2.3,2.7,4.4,5.3,6.5,7.8l8,2.4v-9.8h22c0.1,6.6,0.2,13.3,0.3,20l14.5,6.8l2.2-2.8c0.9-1.8,1.8-3.7,2.7-5.5
		c0.6-1.5,1.1-3.1,1.8-4.6c7.7-16.1,15.5-32.3,23.2-48.5c0.6-1.3,1-2.6,1.7-4.5C392.1,160.5,381,155.2,369.6,150.6z M76,192.5
		l-7.4-0.9c0.5-4.9,1.1-9.7,1.6-14.5l0,0c0-0.1,0.1-0.2,0.1-0.4l-0.3,0.2l0,0l-7.9,8.9L56.8,175l-0.4,0.1c-0.6,4.8-1.2,9.6-1.9,14.6
		l-7.3-0.9c1.1-9.1,2.3-18,3.4-27.1l8,1l5.2,11.2l7.8-9.6l7.9,1C78.2,174.4,77.1,183.3,76,192.5z M102,191.8l-2-4.5H89.5
		c-0.7,1.7-1.3,3.3-2,5h-7.8l10.9-27.7h7.5c3.9,8.7,8,17.7,12.2,27.1L102,191.8z M129.1,189.5l-7.9-9c-4.1,2.7-1.6,6.6-2,10.1
		l-7.4,0.9c-1-9.1-2.1-18-3.2-27.2l7.5-0.9c0.4,3.6,0.9,7,1.3,10.9l8.1-12l8.9-1.1l-8.8,12.9l12.4,14.2L129.1,189.5z M141.9,187.6
		l-5.1-26.9l21.5-4.1l1.2,6.2l-14.3,2.8c0.3,1.3,0.6,2.6,0.9,4.1l12.8-2.4l1.2,5.7l-12.8,2.6c0.3,1.5,0.5,2.7,0.8,4.2l14.4-2.7
		c0.4,2.1,0.8,4,1.3,6.2L141.9,187.6z M186.9,167.9c0.7,3.3,1.3,6.6,2.1,10.1l-7.4,1.6c-1.4-6.7-2.8-13.4-4.2-20.3l-8,1.5
		c-0.4-2.1-0.8-4.2-1.3-6.5l23.4-4.8l1.4,6.5l-8,1.8C185.6,161.3,186.3,164.6,186.9,167.9z M216.8,173.3c-0.6-3.5-1.1-6.8-1.6-10.3
		l-9.6,1.4c0.5,3.5,0.9,6.7,1.4,10.2l-7.4,1.2c-1.3-9-2.7-17.9-4-27l7.4-1.2c0.5,3.4,1,6.6,1.6,10.1l9.6-1.4
		c-0.5-3.4-0.9-6.7-1.4-10.1l7.4-1.1l4,27L216.8,173.3z M250.5,150.9h-14.3l0,4.1h12.8v6.1H236v4.3h14.3v6.3h-21.6v-27.2h21.8V150.9
		z M284.9,162.3c-1.1,1.7-3.1,2.8-5,4.5l4.6,9.7l-8.5-1.2l-4.3-9l-3.2-0.6l-1.3,8.3l-7.4-1.1c1.3-9,2.6-17.9,3.9-27.2
		c5.4,0.9,10.6,1.3,15.6,2.6C285.9,150.1,288.5,156.7,284.9,162.3z M288,166.5c0.1-7.9,6.4-14.1,14.6-14.1c8.3,0,14.9,6.4,14.9,14.3
		c0,0.1,0,0.2,0,0.3c-0.2,7.8-6.6,14-14.4,13.9C294.6,181,287.9,174.5,288,166.5z M334.4,190.3c-0.2-1.8-0.3-3.5-0.5-5.3l-9.8-3.3
		l-3.5,4l-7.5-2.5l19.8-22.5l6.9,2.4c0.8,9.7,1.6,19.5,2.4,29.8L334.4,190.3z M373.7,192.6c-2.9,5.6-8.5,8.6-14.6,7
		c-4.9-1.3-9.6-3.5-14.6-5.4h0c3.9-8.7,7.5-16.8,11.3-25.3c5.2,2.6,10.9,4,15.2,7.9C375.6,180.9,376.6,187,373.7,192.6z"/>
	<path class="st1" d="M302.9,159.3c-3.9-0.1-7.1,3.2-7.2,7.5c0,0.1,0,0.2,0,0.3c0,3.9,3.1,7.1,6.9,7.1c3.9,0,7-3.4,7-7.6
		C309.7,162.4,306.8,159.4,302.9,159.3z"/>
	<path class="st1" d="M91.5,181.2h6c-1.1-2.5-2-4.8-3.2-7.5L91.5,181.2z"/>
	<path class="st1" d="M360,178.2c-1.9,4.3-3.8,8.4-5.6,12.7c3.4,1.6,6.7,3.5,10.2,1c2.3-1.5,3.5-4.3,3.1-7
		C366.9,180.8,363.5,179.5,360,178.2z"/>
	<path class="st1" d="M276.4,154.4c-2-0.5-4-0.7-6.2-1.1c-0.3,2.3-0.6,4.3-0.9,6.6c2.1,0.3,4.2,0.6,6.3,0.7c1.5,0,2.8-1,3.1-2.4
		C279.2,156.6,278.1,154.8,276.4,154.4z"/>
</g>
</svg>
