<svg id="Layer_1" data-name="Layer 1" xmlns="http://www.w3.org/2000/svg" viewBox="0 0 577.65 316.99"><defs><style>.cls-1{fill:#052b47;}.cls-2{fill:#44a8c4;}</style></defs><title>PCCCLogo</title><path class="cls-1" d="M41,248.47H31.74V265H19.61V209.89H42.13c13.14,0,21.09,7.8,21.09,19.05v.16C63.22,241.85,53.31,248.47,41,248.47Zm10-19.29c0-5.43-3.77-8.35-9.84-8.35H31.74v16.85h9.6c6.06,0,9.6-3.62,9.6-8.34Z" transform="translate(-17.17 -208.95)"/><path class="cls-1" d="M105.65,265l-11.8-17.64H84.32V265H72.2V209.89H97.39c13,0,20.78,6.85,20.78,18.19v.15c0,8.9-4.8,14.49-11.81,17.09L119.82,265Zm.24-36.29c0-5.2-3.62-7.88-9.52-7.88H84.32v15.83H96.6c5.91,0,9.29-3.15,9.29-7.8Z" transform="translate(-17.17 -208.95)"/><path class="cls-1" d="M155.88,265.94c-17,0-29.21-12.67-29.21-28.34v-.16C126.67,221.78,139,209,156,209s29.2,12.67,29.2,28.34v.15C185.24,253.11,172.88,265.94,155.88,265.94Zm16.69-28.5c0-9.44-6.93-17.31-16.69-17.31s-16.53,7.71-16.53,17.16v.15c0,9.45,6.92,17.32,16.69,17.32s16.53-7.71,16.53-17.16Z" transform="translate(-17.17 -208.95)"/><path class="cls-1" d="M222.56,265.94c-17.17,0-29-12-29-28.34v-.16c0-15.66,12.2-28.49,28.89-28.49,9.92,0,15.9,2.67,21.64,7.55l-7.63,9.22c-4.25-3.55-8-5.59-14.41-5.59-8.81,0-15.82,7.79-15.82,17.16v.15c0,10.08,6.93,17.48,16.69,17.48a19.29,19.29,0,0,0,11.41-3.31v-7.87h-12.2V233.27h23.93V257.2A35.72,35.72,0,0,1,222.56,265.94Z" transform="translate(-17.17 -208.95)"/><path class="cls-1" d="M291.2,265l-11.81-17.64h-9.52V265H257.74V209.89h25.19c13,0,20.79,6.85,20.79,18.19v.15c0,8.9-4.81,14.49-11.81,17.09L305.37,265Zm.24-36.29c0-5.2-3.63-7.88-9.53-7.88h-12v15.83h12.28c5.9,0,9.29-3.15,9.29-7.8Z" transform="translate(-17.17 -208.95)"/><path class="cls-1" d="M314.66,265V209.89h41.56v10.79H326.7v11.18h26v10.78h-26v11.57h29.92V265Z" transform="translate(-17.17 -208.95)"/><path class="cls-1" d="M387,265.78A35.1,35.1,0,0,1,363.62,257l7.17-8.58c5,4.09,10.15,6.69,16.45,6.69,5,0,7.95-2,7.95-5.2v-.15c0-3.08-1.89-4.65-11.1-7-11.1-2.84-18.26-5.91-18.26-16.85v-.15c0-10,8-16.61,19.28-16.61a31.89,31.89,0,0,1,20.47,7l-6.3,9.13c-4.88-3.38-9.68-5.43-14.32-5.43s-7.09,2.13-7.09,4.8v.16c0,3.62,2.36,4.8,11.89,7.24,11.18,2.92,17.48,6.93,17.48,16.53v.16C407.24,259.64,398.89,265.78,387,265.78Z" transform="translate(-17.17 -208.95)"/><path class="cls-1" d="M436.6,265.78A35.06,35.06,0,0,1,413.22,257l7.16-8.58c5,4.09,10.16,6.69,16.45,6.69,5,0,7.95-2,7.95-5.2v-.15c0-3.08-1.88-4.65-11.1-7-11.1-2.84-18.26-5.91-18.26-16.85v-.15c0-10,8-16.61,19.29-16.61a31.89,31.89,0,0,1,20.47,7l-6.3,9.13c-4.88-3.38-9.68-5.43-14.33-5.43s-7.08,2.13-7.08,4.8v.16c0,3.62,2.36,4.8,11.88,7.24,11.18,2.92,17.48,6.93,17.48,16.53v.16C456.83,259.64,448.48,265.78,436.6,265.78Z" transform="translate(-17.17 -208.95)"/><path class="cls-1" d="M467.93,265V209.89h12.12V265Z" transform="translate(-17.17 -208.95)"/><path class="cls-1" d="M522.09,265.39H511.38l-22.27-55.5h13.38l14.4,38.81,14.41-38.81h13.07Z" transform="translate(-17.17 -208.95)"/><path class="cls-1" d="M552.87,265V209.89h41.56v10.79H564.91v11.18h26v10.78h-26v11.57h29.92V265Z" transform="translate(-17.17 -208.95)"/><path class="cls-2" d="M46,443.94c-15.9,0-27.63-12.52-27.63-28.42C18.35,399.78,30,387,46.22,387c10,0,16,3.54,21.49,8.74l-4.25,4.56c-4.64-4.41-9.84-7.56-17.32-7.56-12.2,0-21.33,9.85-21.33,22.68S34,438.2,46.14,438.2c7.56,0,12.52-2.92,17.79-8l4.1,4C62.28,440.08,56,443.94,46,443.94Z" transform="translate(-17.17 -208.95)"/><path class="cls-2" d="M150.13,443h-6.69L137,428.43H107L100.46,443H94.08l25.11-55.5H125ZM122,394.74l-12.6,28.1h25.11Z" transform="translate(-17.17 -208.95)"/><path class="cls-2" d="M207.36,427.88h-.31L187,398.44V443h-6.06V387.89h6.3L207.28,418l20.08-30.07h6.29V443h-6.21V398.36Z" transform="translate(-17.17 -208.95)"/><path class="cls-2" d="M288.76,423.55H275.38V443h-6.22V387.89h20.62c12.44,0,20.63,6.61,20.63,17.56C310.41,417.41,300.49,423.55,288.76,423.55Zm.55-29.91H275.38v24.24H289c9.13,0,15.11-4.88,15.11-12.2C304.11,397.73,298.21,393.64,289.31,393.64Z" transform="translate(-17.17 -208.95)"/><path class="cls-2" d="M387.47,443h-6.69l-6.46-14.57h-30L337.8,443h-6.38l25.11-55.5h5.83Zm-28.1-48.26-12.6,28.1h25.11Z" transform="translate(-17.17 -208.95)"/><path class="cls-2" d="M425,387.89V443H418.8V387.89Z" transform="translate(-17.17 -208.95)"/><path class="cls-2" d="M486.66,443.94c-17.32,0-28-12.59-28-28.42,0-15.19,11.1-28.57,27.63-28.57,9.29,0,15,2.67,20.55,7.32l-4,4.72a23.47,23.47,0,0,0-16.77-6.3c-12.2,0-20.94,10.32-20.94,22.68,0,13.22,8.42,23,21.8,23a26,26,0,0,0,15.91-5.51v-13.7H486v-5.59h22.75v22A33.42,33.42,0,0,1,486.66,443.94Z" transform="translate(-17.17 -208.95)"/><path class="cls-2" d="M583.25,387.89h6.06V443h-5l-35.58-45.19V443h-6.06V387.89h5.82l34.72,44.16Z" transform="translate(-17.17 -208.95)"/><path class="cls-2" d="M46,525.94c-15.9,0-27.63-12.52-27.63-28.42C18.35,481.78,30,469,46.22,469c10,0,16,3.54,21.49,8.74l-4.25,4.56c-4.64-4.41-9.84-7.56-17.32-7.56-12.2,0-21.33,9.85-21.33,22.68S34,520.2,46.14,520.2c7.56,0,12.52-2.92,17.79-8l4.1,4C62.28,522.08,56,525.94,46,525.94Z" transform="translate(-17.17 -208.95)"/><path class="cls-2" d="M114.55,525.94c-16.77,0-28-13.15-28-28.42S97.94,469,114.71,469s28,13.14,28,28.42S131.32,525.94,114.55,525.94Zm0-51.25C102,474.69,93,484.77,93,497.37s9.13,22.83,21.73,22.83,21.56-10.08,21.56-22.68S127.14,474.69,114.55,474.69Z" transform="translate(-17.17 -208.95)"/><path class="cls-2" d="M194,509.88h-.32l-20.07-29.44V525h-6.06V469.89h6.3L193.9,500,214,469.89h6.3V525h-6.22V480.36Z" transform="translate(-17.17 -208.95)"/><path class="cls-2" d="M274,509.88h-.32l-20.07-29.44V525h-6.06V469.89h6.3L273.88,500,294,469.89h6.3V525H294V480.36Z" transform="translate(-17.17 -208.95)"/><path class="cls-2" d="M334.26,469.89V525H328V469.89Z" transform="translate(-17.17 -208.95)"/><path class="cls-2" d="M382.91,525h-6.3V475.64h-18.5v-5.75h43.3v5.75h-18.5Z" transform="translate(-17.17 -208.95)"/><path class="cls-2" d="M445.57,525h-6.3V475.64h-18.5v-5.75h43.3v5.75h-18.5Z" transform="translate(-17.17 -208.95)"/><path class="cls-2" d="M527.2,475.56H493.59v18.82h30.07V500H493.59v19.29h34V525H487.37V469.89H527.2Z" transform="translate(-17.17 -208.95)"/><path class="cls-2" d="M591.6,475.56H558v18.82h30.07V500H558v19.29h34V525H551.76V469.89H591.6Z" transform="translate(-17.17 -208.95)"/><path class="cls-1" d="M45.43,352.94c-16.21,0-28.26-12.52-28.26-28.34v-.16C17.17,308.78,29,296,45.91,296c10.39,0,16.61,3.46,21.72,8.5l-7.71,8.9c-4.25-3.86-8.58-6.22-14.09-6.22-9.29,0-16,7.71-16,17.16v.15c0,9.45,6.53,17.32,16,17.32,6.29,0,10.15-2.52,14.48-6.45L68,343.1C62.36,349.16,56.06,352.94,45.43,352.94Z" transform="translate(-17.17 -208.95)"/><path class="cls-1" d="M157.53,352V329.88H135.18V352H123.05V296.89h12.13V318.7h22.35V296.89h12.12V352Z" transform="translate(-17.17 -208.95)"/><path class="cls-1" d="M269.24,352l-5-12.36H240.9l-5,12.36H223.5l23.62-55.5h11.17L281.91,352Zm-16.69-40.94-7.32,17.87h14.64Z" transform="translate(-17.17 -208.95)"/><path class="cls-1" d="M374.41,352l-26.69-35v35h-12V296.89h11.18l25.82,33.93V296.89h12V352Z" transform="translate(-17.17 -208.95)"/><path class="cls-1" d="M469.82,352.94c-17.16,0-29-12-29-28.34v-.16c0-15.66,12.2-28.49,28.89-28.49,9.92,0,15.9,2.67,21.65,7.55l-7.64,9.22c-4.25-3.55-8-5.59-14.4-5.59-8.82,0-15.83,7.79-15.83,17.16v.15c0,10.08,6.93,17.48,16.69,17.48a19.32,19.32,0,0,0,11.42-3.31v-7.87h-12.2V320.27h23.93V344.2A35.73,35.73,0,0,1,469.82,352.94Z" transform="translate(-17.17 -208.95)"/><path class="cls-1" d="M550.35,352V296.89h41.57v10.79H562.39v11.18h26v10.78h-26v11.57h29.92V352Z" transform="translate(-17.17 -208.95)"/></svg>