<svg id="Layer_1" data-name="Layer 1" xmlns="http://www.w3.org/2000/svg" viewBox="0 0 509.86 508.93"><defs><style>.cls-1{fill:#0255a6;}.cls-2{fill:#436bb2;}.cls-3{fill:#ec252c;}</style></defs><title>PDALogo</title><path class="cls-1" d="M7.29,125v-7.86l.37-1.47c.29,0,.49-.06.62,0,7.53,3.93,15,7.89,22.58,11.8a21.87,21.87,0,0,0,3.31,1c-.82-4.81-1.5-8.9-2.22-13-.9-5-1.72-10.11-2.77-15.12-.76-3.65-1.11-7,2.44-9.53a22.57,22.57,0,0,0,2.86-2.38q8.52-8.43,17-16.92c.52-.52.95-1.15,1.63-2A15.22,15.22,0,0,0,51,68.91q-7.07-1.05-14.16-2C31.43,66.1,26,65.45,20.59,64.53a5,5,0,0,1-3-2.19,52.66,52.66,0,0,1-3-6.23C12.16,50.72,9.74,45.32,7.3,39.92,7.2,36.64,7,33.35,7,30.07c0-5.61,0-11.22,0-16.83a26.1,26.1,0,0,1,.26-2.62,35.28,35.28,0,0,1,4.19-.53c9.36-.05,18.71,0,28.07,0h3.35c-.86,5.66-1.65,11-2.45,16.24l.71.23c1-.56,1.94-1.17,3-1.69,7.13-3.73,14.28-7.42,21.4-11.16,3.23-1.7,6.39-2.94,10-.92,5.34,3,10.78,5.7,16.18,8.51,3.51,1.82,7,3.6,10.89,5.56l.55-2.38h0l1.68,0a.46.46,0,0,1,.41.26l6.05,4.54a.4.4,0,0,1,.36.28,3.07,3.07,0,0,0,.44.93q4.83,4.88,9.7,9.7a3.06,3.06,0,0,0,.93.43A.49.49,0,0,1,123,41a9.13,9.13,0,0,0,.71,1.63c1.76,2.54,3.59,5,5.35,7.59a4.15,4.15,0,0,1,.42,4.52c-1.42,2.84-2.8,5.7-4.28,8.51a2.69,2.69,0,0,1-1.49,1.3c-2.14.49-4.32.83-6.5,1.13q-7.45,1.06-14.94,2c-4,.51-8,1-11.1,1.33l-6.85-5.35h0l-.62-.53-.89-.72a8.11,8.11,0,0,0-1.57-2,47.53,47.53,0,0,0-17.09-6.9c-.35-.07-.77.23-1.15.37l-4.27-.14-.56,0h-1l-.54.12a23.21,23.21,0,0,0-.49,3.37q0,25,0,49.95c0,9,0,18-.07,27-.78,1.85-.54,2.35,1.09,2.26l2.72,0c1.17.53,2.32,1,3.24-.42l1-.17c3.19.52,5.92-.64,8.53-2.3l.12-.1h.15l2.48-1.16.79-.38,2.41-1.32,1.05-.67a6,6,0,0,0,4.84-3.68l0,0,.51-.42.11-.07A3,3,0,0,0,88,122.8l.13.09-.14-.07.72-.89,0,0,1-1.18.45-.53.54-.69a.27.27,0,0,1,.19-.3c.61-.58,1.46-1,1.79-1.75,1.63-3.59,3.19-7.22,4.61-10.89a18.1,18.1,0,0,0,.61-3.94l.32-2.11.36-3.73c0-1,0-2,.07-3l-.48-4.62L98,87.58c.26-3.62-1.11-6.72-3-9.67l-1.13-2.33.9-1.56c1.4,1.62,2.52,3.11,3.84,4.39,4.46,4.33,9,8.63,13.53,12.85,1.58,1.46,2.72,2.9,2.33,5.22-1.22,7.42-2.38,14.85-3.54,22.27-.49,3.09-.93,6.19-1.39,9.29l.66.45L139.58,113a22.6,22.6,0,0,1-.3,3.34,88.75,88.75,0,0,1-7.83,19.51c-.74,1.38-1.35,2.84-2,4.26a.43.43,0,0,1-.26.4c-.62.95-1.24,1.9-1.87,2.85a75,75,0,0,1-20.65,20.95l-.71.47,0-.14.06.13-1.22.89-1.9,1.26a51,51,0,0,1-6.21.88,33.89,33.89,0,0,1-6.34-.62c-1.64-.28-3.33-.65-4.19-2.42-1.94-4-4-7.9-5.86-11.87-2.4-5-4.7-10.07-7.12-15.07-.34-.71-1.14-1.2-1.93-2-1.54,3-2.83,5.36-4.06,7.8-3.51,7-7,13.93-10.44,20.94a3.59,3.59,0,0,1-3.42,2.32c-3.16.23-6.29,1-9.43,1.39-5.61.79-11.22,1.5-16.82,2.29-1.91.26-3.79.68-5.69,1l-.1.8c1.25,1.07,2.58,2.07,3.75,3.22,6.14,6.07,12.18,12.24,18.38,18.25,1.86,1.81,2.72,3.38,2.13,6.21-1.65,8-2.83,16-4.14,24-.36,2.19-.53,4.41-.84,7.08,1.87-.95,3.19-1.63,4.51-2.28l10.9-5.35q0,13.08.08,26.17v1.6c-15.08,0-30.15,0-45.22.08a4.19,4.19,0,0,1-3.59-1.73c-.06-1.06-.18-2.12-.18-3.18Q7,187.75,7,129c0-1.15.18-2.29.28-3.44Z" transform="translate(-6.95 -9.11)"/><path class="cls-1" d="M324.1,159.84l-.21,1c-.12.37-.24.74-.35,1.11s-.2.68-.29,1c-1.14,3.85-3.44,5.76-7.74,5.85S307,170,302.7,170.58c-2.08.31-4.16.66-6.24,1l-.16.79,15.84,16c-.42,1.26-.9,2.67-1.38,4.08l-.91,1.6c-.17.28-.35.56-.53.84l-.82,1.34-.85,1.22-.39.53-1.16,1.69-1.25,1.93-1,1.19-.7.93-1.39,1.83a.31.31,0,0,1-.24.32l-.92,1.14h0l-.5.63-.9,1.08-2.84,3.22-2.27,2.52c-.88.89-1.75,1.79-2.62,2.68l-.54.55-1.09,1L287.39,221l-3.4,3a.38.38,0,0,1-.35.24c-.78.65-1.56,1.3-2.33,2l-.05,0-2.1,1.53-1,.71-1.19.91-.06.06-1.5,1.08-1.94,1.24-1.27.87a.35.35,0,0,1-.35.19l-1.26.89a.31.31,0,0,1-.34.19l-2.33,1.4-1.37.76-3.46,1.89-1.39.77-2.38,1.23-1.23.51-4.67,2.13-1.25.52-1.41.61-1.27.44-9.45,3.13-1,.32-2.72.77-1,.27-3.69.83-1.65.29-2.12.48-4.27.64-.52.08-4.33.39c-1-.63-1.95-.9-2.7.36l-1,.18-2.11.07h-1.62a16.74,16.74,0,0,0-2.77-.48q-21.25,0-42.51,0h-3.44v-3.46q0-28.74,0-57.48a16.65,16.65,0,0,0-.49-2.76c0-3.92.11-7.83.16-11.74a5.55,5.55,0,0,1,1.37.71c6.2,6,12.35,12,18.59,18a4.32,4.32,0,0,1,1.17,4.37c-.46,2.52-1,5-1.46,7.54q-1.51,8.76-2.95,17.52c-.33,2-.51,4.13-.79,6.48a9.35,9.35,0,0,0,2.11-.44c8.85-4.68,17.65-9.47,26.57-14a6,6,0,0,1,4.72.05c8.41,4.29,16.68,8.85,25,13.27a24.52,24.52,0,0,0,3.28,1.18,4.67,4.67,0,0,0,.28-1.32c-1.15-7-2.38-13.93-3.46-20.92-.42-2.74-.51-5.54-.75-8.31a80.09,80.09,0,0,0,24.26-16.76,75,75,0,0,0,20.09-38.82c1.48-7.69,1.24-15.42.74-23.17l-.22-1.6c-.12-.53-.24-1.07-.37-1.61,0-.35-.07-.71-.11-1.07l-.54-2.68a7.29,7.29,0,0,1,1.79.37q8.49,4.32,16.92,8.7c3.43,1.78,6.82,3.63,10.84,5.77-2.08-12-4-23.38-5.81-33.71L316.1,81.75c.86,1,1.52,1.85,2.17,2.66.26.61.51,1.23.76,1.85l.57,1.4c.1.33.21.65.32,1l.57,1.63.22.76c.84,2.63,1.69,5.26,2.53,7.89l.29,1c.11.37.21.74.32,1.11s.17.69.25,1c.24,1.09.47,2.17.7,3.25l.31,1.58c.17.7.33,1.4.49,2.1l.14,1.09.72,4.34.25,2.65c.13.89.25,1.79.38,2.69l.24,3.17a12.88,12.88,0,0,0-.44,2.26q-.06,5.74,0,11.49a13,13,0,0,0,.43,2.27l-.28,3.7c-.11.72-.22,1.45-.32,2.17-.12,1.08-.23,2.16-.34,3.23-.06.36-.11.71-.17,1.06s-.15.69-.23,1c-.09.72-.19,1.45-.29,2.17-.1.52-.21,1-.31,1.56s-.23,1-.34,1.47c-.24,1.12-.47,2.24-.7,3.35Z" transform="translate(-6.95 -9.11)"/><path class="cls-1" d="M174.57,9.84h3.26l2.64.64c-.81,5.34-1.61,10.57-2.4,15.75.51.13.62.2.68.17C188,21.59,197.21,16.74,206.47,12c1.47-.75,3.06-1.28,4.77-.16a45.73,45.73,0,0,0,4.21,2.08c7.13,3.74,14.25,7.53,21.39,11.25a30,30,0,0,0,3.52,1.24c-.65-4.18-1.2-7.74-1.78-11.45,1.18.22,2,.3,2.74.53,1.53.46,3,1,4.55,1.51,1.94.59,3.89,1.13,5.84,1.7l.15,0,6.63,3a.34.34,0,0,1,.37.17l1.78.89a.33.33,0,0,1,.37.16l1.41.74,1.3.65a.38.38,0,0,0,.42.19l.06,0,4.61,2.72.16.09,1.27.79a.38.38,0,0,1,.38.21l1.28.83.92.6c1.4,1.29,2.79,2.59,4.35,4-1.69,3.63-3.36,7.31-5.11,10.95-2.63,5.43-5.25,10.87-8,16.24-1,1.86-1.75,3.7-4.73,3.77-4.73.12-9.43,1.12-14.14,1.74l-.74-.34-1-.56-.07,0-.63-.39,0,0-.76-.42L238.55,63l-.81-.36c-8.51-3.41-17.14-6.26-26.76-6.2v5.07q0,30.2,0,60.4c0,2.67-.1,5.33-.16,8q-.42,3.18-.84,6.39l-1.13-.82c-.17.45-.26.79-.41,1.1q-6.63,13.46-13.24,26.9c-.94,1.92-2.08,3.41-4.42,3.68-4.73.54-9.46,1.13-14.18,1.81s-9.57,1.53-14.35,2.31L162,160.92a7,7,0,0,0,.48-1.69q0-12.48,0-25a6.68,6.68,0,0,0-.47-1.69c0-2.67.09-5.33.14-8l9.53,4.39c-2-11.87-3.93-23.23-5.87-34.74,8.1-8.18,16.88-15.74,24.59-24.34l-.22-.8-28-3.47c0-2.31-.1-4.61-.16-6.92a13.85,13.85,0,0,0,.47-2.51q0-21.48,0-43a28.22,28.22,0,0,0-.27-2.89l.11-.1,4.91-.17Z" transform="translate(-6.95 -9.11)"/><path class="cls-2" d="M445,148.28c-1.39-3-2.88-5.88-4.14-8.9-4.46-10.69-8.82-21.42-13.27-32.12a22.17,22.17,0,0,0-1.71-2.83h-.69c-1.3,3-2.65,6-3.9,9q-9.52,23-19,46c-2.15,5.19-4.26,10.4-6.49,15.55a12.65,12.65,0,0,1-2,2.6c.36-.91.71-1.83,1.07-2.75l-.4-.2-3.09,2.7,1.56.42c-1.38.09-2.75.25-4.12.26q-19.92,0-39.83,0c-1.31,0-2.62-.13-4.36-.22a30.36,30.36,0,0,1,1-3.8q17.58-42.43,35.21-84.85Q396.89,50.51,413.05,12a9.84,9.84,0,0,1,1-1.48,9.82,9.82,0,0,1-.39,2q-9.21,22-18.46,44c-1.21,2.89-2.35,5.81-3.72,9.21a45,45,0,0,1,4.48-.64c2.91-.08,4.61-1.56,5.82-4.15,4-8.49,8.07-16.92,12.16-25.35a16.68,16.68,0,0,1,1.75-2.24c.87,1.9,1.44,3.23,2.08,4.52,3.71,7.51,7.47,15,11.17,22.53,2,4.09,4.72,5.6,9.2,4.84-.85-2.59-1.69-5.16-2.54-7.74.94,1.89,2,3.73,2.8,5.67,5.88,14.05,11.69,28.12,17.56,42.17q11.77,28.25,23.59,56.47c1.76,4.19,3.53,8.37,5.26,12.57.36.88.56,1.81,1,3.11a23.66,23.66,0,0,1-3.56.62c-7.22,0-14.44.06-21.66,0-1.33,0-3.19.58-3.65-1.62a19.23,19.23,0,0,0,4.07,1c6.86.1,13.72,0,20.59,0,.84,0,1.69-.1,2.94-.19a25.56,25.56,0,0,0-.86-3.62q-7.11-17.24-14.29-34.44Q459.21,115,449.07,90.78a28.71,28.71,0,0,0-1.87-3.13l-6.46,6.77c.64,3.7,1.33,7.52,2,11.35s1.25,7.86,1.94,11.78c.64,3.67,1.54,7.32,1.44,11.12a4.24,4.24,0,0,1-1.44-.59c-3-1.55-6.1-3.07-9.16-4.6-.07-.08-.13-.17-.07-.09s0,0,.08.07a8.62,8.62,0,0,0,.3,2.07c2.11,5.05,4.33,10.06,6.41,15.12C443.24,143.15,444.06,145.73,445,148.28ZM390,95.06l-7.31-7.44a21.61,21.61,0,0,0-1.24,2.21c-3.9,9.25-7.81,18.5-11.66,27.77-4.47,10.75-8.85,21.53-13.35,32.27a4.93,4.93,0,0,0,.05,4.56c1.34,2.58,2.57,5.23,3.76,7.89,1.27,2.88,3,4.75,6.51,5.11,7.38.75,14.71,2,22.07,3,2.51.34,5,.49,7.68.73l23.06-55.44c-2.49-3.26-3.65-3.52-6.8-1.76-1.23.69-2.48,1.35-3.74,2q-6.81,3.59-13.62,7.17c-3.58,1.9-7.15,3.82-11.24,6C386.19,117.21,388.13,105.9,390,95.06Z" transform="translate(-6.95 -9.11)"/><path class="cls-2" d="M245.18,66.51c4.71-.62,9.41-1.62,14.14-1.74,3-.07,3.77-1.91,4.73-3.77,2.76-5.37,5.38-10.81,8-16.24,1.75-3.64,3.42-7.32,5.11-10.95-1.56-1.45-2.95-2.75-4.35-4l7.54,5.36c-1.93.46-.61,1.5-.29,2.16,3.64,7.4,7.63,14.65,10.9,22.21,1.63,3.78,3.49,6,7.77,6A82,82,0,0,1,308,66.66c-.15-.85-.26-1.44-.37-2,.29.15.71.24.84.48q4.84,9,9.61,18a4.1,4.1,0,0,1,.24,1.28c-.65-.81-1.31-1.61-2.17-2.66L303.48,95.5c1.78,10.33,3.73,21.67,5.81,33.71-4-2.14-7.41-4-10.84-5.77q-8.43-4.39-16.92-8.7a7.29,7.29,0,0,0-1.79-.37,2.5,2.5,0,0,1-.38-.67,70.68,70.68,0,0,0-21.27-36.92C254.06,73.06,249.5,69.92,245.18,66.51Z" transform="translate(-6.95 -9.11)"/><path class="cls-2" d="M162.21,171.29c4.78-.78,9.56-1.61,14.35-2.31s9.45-1.27,14.18-1.81c2.34-.27,3.48-1.76,4.42-3.68q6.59-13.45,13.24-26.9c.15-.31.24-.65.41-1.1l1.13.82.84-6.39c.09,6.39.26,12.79.25,19.18,0,18-.13,35.93-.18,53.9a21.92,21.92,0,0,0,.32,2.58,33.38,33.38,0,0,0,5.75-.41c6.35-1.59,12.65-3.38,19-5.09.24,2.77.33,5.57.75,8.31,1.08,7,2.31,14,3.46,20.92a4.67,4.67,0,0,1-.28,1.32,24.52,24.52,0,0,1-3.28-1.18c-8.35-4.42-16.62-9-25-13.27a6,6,0,0,0-4.72-.05c-8.92,4.53-17.72,9.32-26.57,14a9.35,9.35,0,0,1-2.11.44c.28-2.35.46-4.43.79-6.48q1.42-8.76,2.95-17.52c.44-2.52,1-5,1.46-7.54a4.32,4.32,0,0,0-1.17-4.37c-6.24-5.95-12.39-12-18.59-18a5.55,5.55,0,0,0-1.37-.71Z" transform="translate(-6.95 -9.11)"/><path class="cls-2" d="M129.43,140.15c.67-1.42,1.28-2.88,2-4.26a88.75,88.75,0,0,0,7.83-19.51,22.6,22.6,0,0,0,.3-3.34l-29.44,15.45-.66-.45c.46-3.1.9-6.2,1.39-9.29,1.16-7.42,2.32-14.85,3.54-22.27.39-2.32-.75-3.76-2.33-5.22C107.51,87,103,82.74,98.55,78.41c-1.32-1.28-2.44-2.77-3.84-4.39l-.9,1.56c-1.8-2.49-3.55-5-5.44-7.45-1.24-1.59-2.69-3-4.05-4.49L91.17,69c3.08-.37,7.1-.82,11.1-1.33q7.49-1,14.94-2c2.18-.3,4.36-.64,6.5-1.13a2.69,2.69,0,0,0,1.49-1.3c1.48-2.81,2.86-5.67,4.28-8.51a4.15,4.15,0,0,0-.42-4.52c-1.76-2.54-3.59-5-5.35-7.59A9.13,9.13,0,0,1,123,41c2.35,3.08,5,6,7,9.28a86.69,86.69,0,0,1,11.74,32.39c2.84,19.85-.88,38.4-10.78,55.77A11.76,11.76,0,0,1,129.43,140.15Z" transform="translate(-6.95 -9.11)"/><path class="cls-2" d="M55.91,223.59,45,228.94c-1.32.65-2.64,1.33-4.51,2.28.31-2.67.48-4.89.84-7.08,1.31-8,2.49-16.08,4.14-24,.59-2.83-.27-4.4-2.13-6.21-6.2-6-12.24-12.18-18.38-18.25-1.17-1.15-2.5-2.15-3.75-3.22l.1-.8c1.9-.34,3.78-.76,5.69-1,5.6-.79,11.21-1.5,16.82-2.29,3.14-.44,6.27-1.16,9.43-1.39a3.59,3.59,0,0,0,3.42-2.32c3.42-7,6.93-14,10.44-20.94,1.23-2.44,2.52-4.84,4.06-7.8.79.8,1.59,1.29,1.93,2,2.42,5,4.72,10.06,7.12,15.07,1.91,4,3.92,7.9,5.86,11.87.86,1.77,2.55,2.14,4.19,2.42a33.89,33.89,0,0,0,6.34.62,51,51,0,0,0,6.21-.88c-3.39,1.9-6.69,4-10.18,5.67-9.74,4.74-20.23,6.67-30.88,7.87a49.17,49.17,0,0,1-5.45,0c-.1,1.54-.23,2.67-.23,3.8q0,18.3,0,36.6C56,221.82,56,222.7,55.91,223.59Z" transform="translate(-6.95 -9.11)"/><path class="cls-1" d="M435.49,123.48c3.06,1.53,6.11,3,9.16,4.6a4.24,4.24,0,0,0,1.44.59c.1-3.8-.8-7.45-1.44-11.12-.69-3.92-1.28-7.85-1.94-11.78s-1.33-7.65-2-11.35l6.46-6.77a28.71,28.71,0,0,1,1.87,3.13Q459.21,115,469.3,139.24q7.17,17.2,14.29,34.44a25.56,25.56,0,0,1,.86,3.62c-1.25.09-2.1.19-2.94.19-6.87,0-13.73.07-20.59,0a19.23,19.23,0,0,1-4.07-1h0c-.33-1.09-.58-2.2-1-3.25-2.25-5.47-4.49-10.95-6.83-16.38-1.07-2.47-2.36-4.84-3.56-7.25-.15-.45-.31-.9-.47-1.35-.92-2.55-1.74-5.13-2.77-7.63-2.08-5.06-4.3-10.07-6.41-15.12a8.62,8.62,0,0,1-.3-2.07Z" transform="translate(-6.95 -9.11)"/><path class="cls-2" d="M7.3,39.92c2.44,5.4,4.86,10.8,7.31,16.19a52.66,52.66,0,0,0,3,6.23,5,5,0,0,0,3,2.19c5.4.92,10.84,1.57,16.26,2.33q7.09,1,14.16,2a15.22,15.22,0,0,1,2.08.67c-.68.85-1.11,1.48-1.63,2Q43,80.07,34.48,88.5a22.57,22.57,0,0,1-2.86,2.38c-3.55,2.5-3.2,5.88-2.44,9.53,1.05,5,1.87,10.07,2.77,15.12.72,4.08,1.4,8.17,2.22,13a21.87,21.87,0,0,1-3.31-1c-7.54-3.91-15-7.87-22.58-11.8-.13-.07-.33,0-.62,0l-.37,1.47C7.18,114,7,110.92,7,107.81q0-23.53,0-47.07C7,53.8,7.19,46.86,7.3,39.92Z" transform="translate(-6.95 -9.11)"/><path class="cls-3" d="M175.3,414.38,200,379.91l.71.11a11.77,11.77,0,0,1,.58,2.54q.06,22.07,0,44.12c0,2.67-.47,3.08-3.13,3.12-2.39,0-4.77,0-7.48,0V412.12l-.73-.29L175.11,431.9l-14.59-19.62-.85.23c-.77,5.55-.07,11.19-.44,17h-9.95V380.26l.56-.27a27.69,27.69,0,0,1,2.17,2.43c6.91,9.62,13.77,19.27,20.67,28.89C173.33,412.22,174.13,413,175.3,414.38Z" transform="translate(-6.95 -9.11)"/><path class="cls-3" d="M229.79,466.52a21.7,21.7,0,0,1,2.07,2.23q10.57,14.78,21.1,29.6c.54.75,1.25,1.39,2.23,2.47C263.71,489,272,477.5,280.23,466l.8.33c.07.74.21,1.49.21,2.23q0,22.2,0,44.41c0,3.07-.35,3.42-3.32,3.47-1.87,0-3.75,0-5.62,0a6.67,6.67,0,0,1-1.19-.3c-1-5.43.12-11.13-.62-16.7l-.65-.44a28.41,28.41,0,0,0-2.52,2.63c-3.34,4.51-6.6,9.08-9.92,13.6-.62.85-1.35,1.61-2.36,2.8-1-1.13-2-2-2.72-3-3.27-4.45-6.47-9-9.74-13.41-.74-1-1.67-1.91-2.51-2.86l-.84.27v17.16h-10V466.9Z" transform="translate(-6.95 -9.11)"/><path class="cls-3" d="M98.41,516.45c-14,.49-25.72-10.88-25.9-25.15a25.7,25.7,0,0,1,51.4-.56C124.13,505.18,111.8,517,98.41,516.45Zm15.93-25.3c.74-7.91-6.54-16.42-16.1-16.31a16.2,16.2,0,0,0,0,32.39C107.72,507.26,114.92,499.07,114.34,491.15Z" transform="translate(-6.95 -9.11)"/><path class="cls-3" d="M233,430a25.22,25.22,0,0,1-25.31-25.68A25.59,25.59,0,0,1,233.88,379c12.34.29,25.08,10.06,25.06,25.47A25.23,25.23,0,0,1,233,430ZM217.16,405a16.11,16.11,0,1,0,15.61-16.61A16,16,0,0,0,217.16,405Z" transform="translate(-6.95 -9.11)"/><path class="cls-3" d="M167.67,343.39c-12.94.71-25.43-11-25.35-25.21a25.4,25.4,0,0,1,25.8-25.66c14.17,0,25.19,11.39,25.36,25.57C193.63,331.62,181.52,344.3,167.67,343.39Zm.13-9.19A16.21,16.21,0,1,0,151.68,318,16.27,16.27,0,0,0,167.8,334.2Z" transform="translate(-6.95 -9.11)"/><path class="cls-1" d="M348,223.07a.51.51,0,0,1,.31.4l.51.59h0a14.13,14.13,0,0,0,1.54,2.34c3.93,4,7.75,8.16,11.94,11.88,3.43,3,4.54,6,2.11,10.2-1.11,1.92-2,3-4.39,3-14.08-.1-28.16,0-42.24-.06-.85,0-1.7-.09-3-.18.5-1.72.77-3.09,1.28-4.36,2.53-6.17,5.08-12.33,7.72-18.44a5.56,5.56,0,0,1,2.14-2.58c5-2.79,10.14-5.41,15.4-8.17l5.16,3.84.11.1Z" transform="translate(-6.95 -9.11)"/><path class="cls-3" d="M73.44,429.71v-3.35q0-21.76,0-43.54c0-3.55.23-3.89,3.77-3.77a75,75,0,0,1,11.13.8,25.29,25.29,0,0,1,20.51,26.95c-.84,12.39-11.1,22.23-24,22.88C81.17,429.86,77.46,429.71,73.44,429.71Zm10.15-9.25c5,1.07,11.53-3,14.19-8.24,2.83-5.55,1.94-13.22-2.09-17.54-3.24-3.47-6.87-6-12.1-5.24Z" transform="translate(-6.95 -9.11)"/><path class="cls-3" d="M260.8,329.17V336c0,1.52-.05,3,0,4.55s-.65,2.55-2.33,2.56c-2.55,0-5.11,0-7.52,0-1.11-3-1.07-47.44,0-50.65,8.43-.25,16.91-.76,23.32,6.62a17.44,17.44,0,0,1-.38,23.58c-2.24,2.37-2.25,2.5-.47,5.21,2.45,3.73,4.92,7.44,7.35,11.17.62,1,1.14,2,1.93,3.37a13.18,13.18,0,0,1-2.92.73c-9.73-.08-7.2,1.18-12.15-6.25-1.34-2-2.53-4.1-3.89-6.08a15.37,15.37,0,0,0-2.1-2.09ZM261,302V318.7c4,.55,8.25-3.36,8.65-7.74C270.05,306.31,266.47,302.39,261,302Z" transform="translate(-6.95 -9.11)"/><path class="cls-3" d="M243.06,318.1c0,6.1.08,11.69-.07,17.28,0,.88-1,1.88-1.69,2.58-8.29,7.92-22.25,8-31.55.15a25.87,25.87,0,0,1,4.6-43.21c6.69-3.51,18.78-4.66,26.68,3.09,2.1,2.05,2.23,2.7.23,4.77-3.83,4-3.87,4-8.38,1.12-7.57-4.9-16.37-1.17-20.6,6.37-3.08,5.5-3,11.16.44,16.47A15.31,15.31,0,0,0,228,334a16.71,16.71,0,0,0,2.59-.59,3.39,3.39,0,0,0,2.76-3.93c-.18-2.84-.08-5.69-.14-8.54,0-1.87.79-2.84,2.7-2.83C238.23,318.11,240.52,318.1,243.06,318.1Z" transform="translate(-6.95 -9.11)"/><path class="cls-3" d="M346.82,429.33a24.18,24.18,0,0,1-10.59.15c-.77-.15-1.42-1.29-1.94-2.1-2-3.14-4-6.35-6-9.48a28.82,28.82,0,0,0-2.44-2.88l-1,.32v14.2H314.74c-.17-1.62-.42-2.93-.42-4.24q0-20.87,0-41.73c0-4.13.45-4.64,4.64-4.52,3.28.09,6.66,0,9.8.79,14.07,3.49,18.7,19.46,8.73,30-1.6,1.69-1.12,2.92-.12,4.44,2.71,4.08,5.44,8.16,8.11,12.26A25.85,25.85,0,0,1,346.82,429.33ZM325.07,405.4a8.9,8.9,0,0,0,8.71-9.08,8.08,8.08,0,0,0-8.71-7.58Z" transform="translate(-6.95 -9.11)"/><path class="cls-3" d="M116.67,329.16c-.08,1.11-.22,2.23-.24,3.34,0,2.67,0,5.35,0,8,0,1.74-.73,2.68-2.53,2.68h-7.27a36.24,36.24,0,0,1-.46-3.95q0-21.39,0-42.78c0-3.47.53-4.09,4-4a58.54,58.54,0,0,1,9.83.76c7,1.32,11.6,5.78,13.72,12.45a16.21,16.21,0,0,1-4.35,17.42c-1.55,1.52-1.51,2.77-.39,4.43,2.74,4.06,5.39,8.17,8.06,12.28.48.74.91,1.51,1.38,2.31-.3.35-.53.83-.76.84a91.72,91.72,0,0,1-9.53-.11c-.86-.07-1.73-1.41-2.35-2.34-2.18-3.25-4.23-6.6-6.4-9.86a12.16,12.16,0,0,0-1.92-1.87Zm.13-10.22a8.74,8.74,0,0,0,8.61-9.2,7.81,7.81,0,0,0-8.61-7.51Z" transform="translate(-6.95 -9.11)"/><path class="cls-3" d="M322.47,466.35c13.59-2.61,25.66,1.12,28,16.3.74,4.86-1.28,9.45-4.79,13.13-2.27,2.38-2.31,2.47-.53,5.18,2.44,3.72,4.93,7.41,7.35,11.14.7,1.08,1.24,2.26,1.85,3.39l-.32.82c-2.41.07-4.83.05-7.24.23-2.89.22-4.3-1.49-5.61-3.7-1.8-3.06-3.77-6-5.75-9a16,16,0,0,0-2.06-2.15l-.8.26c-.1,1.15-.28,2.31-.28,3.46,0,2.85,0,5.7.15,8.55.07,1.85-.78,2.62-2.55,2.57l-7.41-.24Zm10,25.81a9,9,0,0,0,8.13-5.77,7.6,7.6,0,0,0-1.35-8.48c-1.7-2-3.85-3.3-6.78-2.78Z" transform="translate(-6.95 -9.11)"/><path class="cls-3" d="M437.23,301.17V318.9c.86.07,1.62.2,2.39.2,3.3,0,6.6-.08,9.89-.06,3.66,0,4.1.51,4.09,4.24,0,.27,0,.54,0,.81-.09,2.79-.48,3.25-3.3,3.31-3.47.06-7,0-10.43,0h-2.64v7.15c1.07.05,1.93.13,2.8.13,2.76,0,5.53,0,8.29,0,5.57,0,5.41-.05,5.26,6.12a2.14,2.14,0,0,1-2.33,2.36c-7.48,0-15,.06-22.46-.07-.7,0-1.54-1.16-2-2-.32-.54-.11-1.39-.11-2.11,0-11,0-22.11,0-33.17,0-3.38-.22-6.76-.25-10.15,0-2.7.44-3.25,3-3.27q10.44-.09,20.87,0c2.75,0,3.23.63,3.32,3.36,0,.71,0,1.43,0,2.14-.11,2.45-.56,2.94-3.07,3-3.12.06-6.24,0-9.37,0C440,301,438.85,301.08,437.23,301.17Z" transform="translate(-6.95 -9.11)"/><path class="cls-3" d="M125.55,421.37h16.06v7.7c-2.83,1-23.29,1-26.2,0a24.4,24.4,0,0,1-.39-3.23q0-21.64.12-43.3c0-2.8.42-3.44,2.87-3.47,7.12-.09,14.25,0,21.38,0a14.07,14.07,0,0,1,2.33.48c0,2.12.12,4.3,0,6.46-.11,1.56-1.49,1.53-2.67,1.54-3.56,0-7.13,0-10.69.05-2.62,0-2.95.34-3,2.92-.07,4-.07,8,0,12,0,2.75.37,3.08,3.09,3.12,3.29,0,6.59,0,9.89,0,1,0,1.92.13,3.44.24,0,2.22.1,4.3,0,6.36-.1,1.51-1.39,1.7-2.6,1.7-3.47,0-6.94,0-10.42,0-1,0-1.9.09-3.1.16Z" transform="translate(-6.95 -9.11)"/><path class="cls-3" d="M308.2,387.33a64.23,64.23,0,0,1-5.76,4.78c-.57.39-2.07-.06-2.84-.58a16.57,16.57,0,0,0-11.21-2.66c-8.36.79-14.93,8.76-13.95,16.93,1.11,9.25,8.85,15.89,17.47,14.46,3.68-.61,7.17-2.37,11.53-3.88,1.05,1.09,2.81,2.69,4.28,4.52,1,1.26,0,2.31-1,3.17a22.22,22.22,0,0,1-10.9,5.35c-16.93,3.16-27.55-8.87-30.23-19.15-4.23-16.26,10.95-36.36,32.21-30.3A18.18,18.18,0,0,1,308.2,387.33Z" transform="translate(-6.95 -9.11)"/><path class="cls-3" d="M412.88,502.07c1.8,1.89,3.53,3.52,5,5.33,1.08,1.3.05,2.32-.93,3.16a23.14,23.14,0,0,1-13.28,5.74c-15.3,1.36-27.48-8.79-28.43-24.24-.62-10.22,4-18.28,12.84-23.33,8.42-4.82,17.21-4.71,25.62.51,1.62,1,2.93,2.52,4.9,4.24l-6.7,6c-5.09-4-10.59-5.15-16.53-3.45a14.35,14.35,0,0,0-8,6,15.88,15.88,0,0,0,1,19.35,15.32,15.32,0,0,0,12,5.6C405,507,409,505.32,412.88,502.07Z" transform="translate(-6.95 -9.11)"/><path class="cls-3" d="M287.47,292.68h26.15v8.18h-16v18c5.39.62,10.67-.39,15.71.62a9.1,9.1,0,0,1,.5,1.31c1.12,5.67.32,6.66-5.37,6.66h-11v6.8a25.73,25.73,0,0,0,3.11.43c3.12.06,6.24,0,9.36.06a34.76,34.76,0,0,1,3.47.38,5.37,5.37,0,0,1,.45,1.05c1,6.58.56,7.1-6,7.09-5.62,0-11.23,0-16.85,0a34.52,34.52,0,0,1-3.52-.38Z" transform="translate(-6.95 -9.11)"/><path class="cls-3" d="M288.51,516.36V465.81c8.65-.21,17.13-.13,26.19-.06,0,2.4.1,4.48,0,6.55-.1,1.54-1.42,1.64-2.61,1.65-3.39,0-6.78,0-10.16.06-1,0-2.08.21-3.51.37v4.91c0,3.47,0,6.95,0,10.43,0,1.78.76,2.61,2.57,2.59,3.38,0,6.77,0,10.16,0,3.55,0,3.71.16,3.71,3.81,0,1.23-.1,2.45-.18,4.2h-16v7.07l15.94.36v8.48C305.88,516.71,297.41,516.56,288.51,516.36Z" transform="translate(-6.95 -9.11)"/><path class="cls-3" d="M182,515.6c6.92-16.89,14.15-33.46,21.27-50.08l.73,0a22.91,22.91,0,0,1,1.42,2.62q8.81,22.53,17.55,45.08c1,2.63.5,3.35-2.42,3.34-7.21,0-6.26.56-8.68-5.67a3.4,3.4,0,0,0-3.59-2.53q-5.07.12-10.16.06a3.23,3.23,0,0,0-3.43,2.37c-.06.16-.16.31-.24.48C191.78,516.85,188.83,518,182,515.6Zm25.95-15.82-3.86-9.95-.93-.05c-1.22,3.21-2.44,6.42-3.81,10Z" transform="translate(-6.95 -9.11)"/><path class="cls-3" d="M391.54,429.67c-3.25,0-5.91.16-8.52-.1-.76-.08-1.66-1.25-2-2.11-3-6.87-1.3-5.53-8.85-5.69a38,38,0,0,1-4.27,0c-3-.39-5,.61-5.86,3.63-1,3.74-3.55,5-7.25,4.49a39.49,39.49,0,0,0-4.67,0,20.36,20.36,0,0,1,.77-3.37q9.48-22.36,19-44.71a32.62,32.62,0,0,1,1.71-3,21.86,21.86,0,0,1,1.62,2.75q8.67,22.14,17.25,44.3C390.87,426.87,391.08,428,391.54,429.67ZM372,403.49l-1.16.08c-1.14,3.07-2.27,6.13-3.47,9.39h8.37C374.33,409.48,373.14,406.49,372,403.49Z" transform="translate(-6.95 -9.11)"/><path class="cls-3" d="M460.85,515.73c-2.83,1.36-5.82.8-8.7.2-.72-.15-1.3-1.59-1.71-2.54-2.48-5.74-1.22-5.05-7.68-5.09-2.4,0-4.81.06-7.21,0a3,3,0,0,0-3.14,2c-.1.24-.22.48-.34.72-2.81,5.62-5.24,6.68-12.07,5a13,13,0,0,1,.52-2.92q9.68-22.87,19.46-45.72a14.24,14.24,0,0,1,1.1-1.8C442.74,467,460.48,511.93,460.85,515.73ZM441.65,490l-1,.11c-1.23,3.14-2.95,6.12-3.36,9.56h8.15Z" transform="translate(-6.95 -9.11)"/><path class="cls-3" d="M83.32,329.35v13.91c-3.06,0-5.69.09-8.3-.08-.52,0-1.21-1-1.4-1.61a10.89,10.89,0,0,1-.16-2.92q0-21.24,0-42.48c0-1.05.17-2.09.25-3,7.67-2.7,19.22.43,23.63,6.25,7,9.17,5.28,24.33-9.6,28.78C86.47,328.55,85.18,328.86,83.32,329.35Zm.45-11.05a6.84,6.84,0,0,0,7.39-3.84,8.7,8.7,0,0,0-.94-9.75c-2.12-2.49-4.34-3.33-6.45-2.54Z" transform="translate(-6.95 -9.11)"/><path class="cls-3" d="M380.26,292.56c3.41,0,6.41-.17,9.36.12.76.08,1.6,1.55,2,2.54,2.77,6.76,5.41,13.57,8.13,20.36.48,1.2,1.1,2.35,1.93,4.09a29.86,29.86,0,0,0,1.8-3.12q4.09-10.16,8.1-20.36c1.34-3.41,1.65-3.68,5.24-3.66,1.78,0,3.56.07,5.34.14.24,0,.47.22,1,.51a14.74,14.74,0,0,1-.59,2.88q-9.4,22.59-18.89,45.12c-.41,1-1,1.83-1.77,3.26a23.64,23.64,0,0,1-1.89-3q-9.6-22.78-19.11-45.61A19.19,19.19,0,0,1,380.26,292.56Z" transform="translate(-6.95 -9.11)"/><path class="cls-3" d="M156.89,500.16H141.15c-.13,1.51-.31,2.6-.32,3.7,0,3.21,0,6.42.11,9.62.06,2-.87,3-2.84,3h-7c-1.15-3.31-1.15-47.39-.1-50.56a5.11,5.11,0,0,1,1.18-.27c7.31,0,14.62.09,21.93.06,2,0,2.9.76,3,2.79.35,5.17.14,5.46-5,5.49-2.68,0-5.35,0-8,0-1,0-1.9.14-3.06.23v18.18h15.84Z" transform="translate(-6.95 -9.11)"/><path class="cls-1" d="M435.56,57.54c.85,2.58,1.69,5.15,2.54,7.74-4.48.76-7.19-.75-9.2-4.84-3.7-7.53-7.46-15-11.17-22.53-.64-1.29-1.21-2.62-2.08-4.52a16.68,16.68,0,0,0-1.75,2.24c-4.09,8.43-8.19,16.86-12.16,25.35-1.21,2.59-2.91,4.07-5.82,4.15a45,45,0,0,0-4.48.64c1.37-3.4,2.51-6.32,3.72-9.21q9.22-22,18.46-44a9.82,9.82,0,0,0,.39-2h0l1.68-.48a.27.27,0,0,1,.17.3,23.91,23.91,0,0,0,.85,3.28Q424,31.14,431.33,48.65c1.15,2.72,2.6,5.32,3.91,8C435.35,56.93,435.45,57.24,435.56,57.54Z" transform="translate(-6.95 -9.11)"/><path class="cls-3" d="M408.93,387.57c-.13,1.77-.28,3-.28,4.2q0,16.31,0,32.62c0,5.52,0,5.54-5.64,5.49-1.31,0-2.61-.18-4.07-.29-.07-1.45-.17-2.59-.17-3.73q0-16.31,0-32.62c0-5.61,0-5.61-5.5-5.64-1.86,0-3.71,0-5.69,0a11.64,11.64,0,0,1-.57-7c.32-1.65,1.78-1.54,3-1.55,5.08,0,10.16,0,15.24,0,3.92,0,7.85,0,11.77,0,2.85,0,3.23.49,3.32,3.28,0,.62,0,1.25,0,1.87-.09,2.95-.46,3.3-3.51,3.32C414.33,387.59,411.85,387.57,408.93,387.57Z" transform="translate(-6.95 -9.11)"/><path class="cls-2" d="M162.2,65.62l28,3.47.22.8c-7.71,8.6-16.49,16.16-24.59,24.34,1.94,11.51,3.86,22.87,5.87,34.74l-9.53-4.39c0-1.77-.12-3.55-.12-5.32q0-25.5,0-51C162.06,67.38,162.15,66.5,162.2,65.62Z" transform="translate(-6.95 -9.11)"/><path class="cls-1" d="M504.37,221.7l12.44,29.87a31,31,0,0,1-3.76.52c-7.48,0-15,0-22.44,0a3.19,3.19,0,0,1-3.27-2.11c-3.91-7.81-3.94-7.79,2.06-13.84,4-4.05,8-8.11,12-12.14C502.15,223.33,503,222.76,504.37,221.7Z" transform="translate(-6.95 -9.11)"/><path class="cls-3" d="M321.1,344.13v-9l2.44-1c3.53-1.46,5.17-4.21,4.13-7.87-1-3.4-2.44-6.66-3.75-10-.73-1.82-1.57-3.58-2.37-5.37-3.4-7.68,5.1-18.59,13.25-19.27a11.62,11.62,0,0,1,2,.2,14.63,14.63,0,0,1,.29,8.13c-.13.63-1.19,1.21-1.94,1.57-4.73,2.28-6,5.63-3.81,10.5,1.44,3.15,3.16,6.19,4.59,9.35A16.11,16.11,0,0,1,324,344.11,18.54,18.54,0,0,1,321.1,344.13Z" transform="translate(-6.95 -9.11)"/><path class="cls-3" d="M344,335.32a36.56,36.56,0,0,0,4.57-2.41,5.37,5.37,0,0,0,2.23-6.12,97.53,97.53,0,0,0-3.62-10c-1.47-3.43-3.34-6.67-3.11-10.62.36-6.38,6.82-13.61,13.09-14.48,2.41-.33,3.05.17,3.19,2.63.07,1.15,0,2.31,0,3.47.13,2-.62,3.2-2.61,4-4.13,1.76-5.34,4.6-3.89,8.89a57.69,57.69,0,0,0,2.78,6c.8,1.69,1.72,3.33,2.44,5.05a16.17,16.17,0,0,1-10.58,22c-3.72,1.07-4.49.52-4.51-3.26C344,338.83,344,337.06,344,335.32Z" transform="translate(-6.95 -9.11)"/><path class="cls-3" d="M441.19,378.45c0,2.75.14,5.23-.08,7.67-.07.69-1.09,1.54-1.86,1.88-4.67,2.09-6.08,5-4.26,9.86a70.21,70.21,0,0,0,3.29,6.69c2.51,4.94,4.52,10,2.21,15.56a17.33,17.33,0,0,1-10.71,10.14c-3.64,1.27-4.71.46-4.74-3.35,0-.81,0-1.61,0-2.41-.16-2,.47-3.2,2.6-4,3.51-1.27,4.93-4.09,4-7.67a85.4,85.4,0,0,0-3.23-9c-.84-2.15-1.79-4.27-2.8-6.34-3.34-6.88,4.13-18.27,12.9-19.24A19.6,19.6,0,0,1,441.19,378.45Z" transform="translate(-6.95 -9.11)"/><path class="cls-3" d="M367.43,292.7h9.12c1,2.4,1.1,47.46,0,50.47-2.41,0-5,.13-7.49-.09-.66-.06-1.38-1.13-1.78-1.88a5.06,5.06,0,0,1-.13-2.11q0-21.36,0-42.73C367.14,295.24,367.31,294.11,367.43,292.7Z" transform="translate(-6.95 -9.11)"/><path class="cls-3" d="M369,516.09c-3.07,0-5.71.13-8.33-.09-.65,0-1.5-1.14-1.72-1.9a12.77,12.77,0,0,1-.14-3.45q0-20.73,0-41.44c0-3.27.16-3.45,3.47-3.5,1.7,0,3.39,0,5.08.08a9.59,9.59,0,0,1,1.6.48C369,482.63,368.93,499.12,369,516.09Z" transform="translate(-6.95 -9.11)"/><path class="cls-2" d="M251.71,18.69c-2-.57-3.9-1.11-5.84-1.7-1.53-.47-3-1-4.55-1.51-.76-.23-1.56-.31-2.74-.53.58,3.71,1.13,7.27,1.78,11.45a30,30,0,0,1-3.52-1.24c-7.14-3.72-14.26-7.51-21.39-11.25a45.73,45.73,0,0,1-4.21-2.08c-1.71-1.12-3.3-.59-4.77.16-9.26,4.75-18.48,9.6-27.72,14.41-.06,0-.17,0-.68-.17.79-5.18,1.59-10.41,2.4-15.75l-2.64-.64c1.75-.07,3.51-.2,5.26-.2,7.74,0,15.49-.1,23.22,0a128.7,128.7,0,0,1,42.34,7.53C249.7,17.61,250.69,18.19,251.71,18.69Z" transform="translate(-6.95 -9.11)"/><path class="cls-2" d="M103.14,24.46l-.55,2.38c-3.84-2-7.38-3.74-10.89-5.56-5.4-2.81-10.84-5.56-16.18-8.51-3.64-2-6.8-.78-10,.92-7.12,3.74-14.27,7.43-21.4,11.16-1,.52-2,1.13-3,1.69l-.71-.23C41.23,21,42,15.73,42.88,10.07H39.53c-9.36,0-18.71,0-28.07,0a35.28,35.28,0,0,0-4.19.53C8.19,10.2,9.11,9.4,10,9.4c11.39,0,22.77.12,34.16.21,5.69.05,11.39,0,17.08.21a82.09,82.09,0,0,1,38,11c1.91,1.07,3.68,2.39,5.52,3.59l-1.68,0c-.07-.08-.15-.15.13.14Z" transform="translate(-6.95 -9.11)"/><path class="cls-1" d="M307.58,64.63c.11.59.22,1.18.37,2a82,82,0,0,0-9.21-1.13c-4.28-.07-6.14-2.25-7.77-6-3.27-7.56-7.26-14.81-10.9-22.21-.32-.66-1.64-1.7.29-2.16l.54.42,1.54,1.22,1.69,1.4.94.76,0,0,.59.48c4.92,5,10,9.84,14.7,15,2.58,2.86,4.5,6.32,6.71,9.51l.45.62Z" transform="translate(-6.95 -9.11)"/><path class="cls-2" d="M346.46,221.5l-5.16-3.84c-5.26,2.76-10.37,5.38-15.4,8.17a5.56,5.56,0,0,0-2.14,2.58c-2.64,6.11-5.19,12.27-7.72,18.44-.51,1.27-.78,2.64-1.28,4.36,1.32.09,2.17.18,3,.18,14.08,0,28.16,0,42.24.06,2.37,0,3.28-1,4.39-3,2.43-4.23,1.32-7.16-2.11-10.2-4.19-3.72-8-7.86-11.94-11.88a14.13,14.13,0,0,1-1.54-2.34c1.32,1.16,2.71,2.26,3.95,3.51,4.28,4.28,8.46,8.66,12.78,12.89,1.55,1.53,1.91,2.92,1,5-3.64,8-1.64,6.77-10.39,6.82-12.55.06-25.11,0-37.67,0-1.47,0-2.94-.15-5.16-.27,5.72-15.4,12.49-29.7,18.52-44.59a13,13,0,0,1,2,1.2q6,5.88,11.95,11.83A5.56,5.56,0,0,1,346.46,221.5Z" transform="translate(-6.95 -9.11)"/><path class="cls-2" d="M310.76,192.43l1.38-4.08-15.84-16,.16-.79c2.08-.32,4.16-.67,6.24-1,4.27-.62,8.53-1.63,12.81-1.73s6.6-2,7.74-5.85c-.91,2.94-1.58,6-2.76,8.81-2.62,6.32-5.48,12.54-8.3,18.78A9.91,9.91,0,0,1,310.76,192.43Z" transform="translate(-6.95 -9.11)"/><path class="cls-2" d="M162,187.7a16.65,16.65,0,0,1,.49,2.76q0,28.74,0,57.48v3.46H166q21.25,0,42.51,0a16.74,16.74,0,0,1,2.77.48,15.53,15.53,0,0,1-2.33.32q-22.29,0-44.59,0c-.77,0-1.54-.11-2.47-.19-.06-1-.15-1.73-.15-2.51q0-29.91,0-59.81A13.19,13.19,0,0,1,162,187.7Z" transform="translate(-6.95 -9.11)"/><path class="cls-2" d="M7.18,249.71a4.19,4.19,0,0,0,3.59,1.73c15.07-.08,30.14-.06,45.22-.08-.62.31-1.23.88-1.84.88q-22,.06-44.1,0C8.49,252.23,6.55,252.35,7.18,249.71Z" transform="translate(-6.95 -9.11)"/><path class="cls-2" d="M162.24,10.34a28.22,28.22,0,0,1,.27,2.89q0,21.48,0,43A13.85,13.85,0,0,1,162,58.7a14.57,14.57,0,0,1-.33-2.05q0-21.91,0-43.82A12.24,12.24,0,0,1,162.24,10.34Z" transform="translate(-6.95 -9.11)"/><path class="cls-2" d="M435.24,56.63c-1.31-2.66-2.76-5.26-3.91-8q-7.4-17.51-14.62-35.06a23.91,23.91,0,0,1-.85-3.28c1.41,3,2.9,6.06,4.2,9.15q7.31,17.31,14.48,34.65A21.32,21.32,0,0,1,435.24,56.63Z" transform="translate(-6.95 -9.11)"/><path class="cls-2" d="M162,132.58a6.68,6.68,0,0,1,.47,1.69q0,12.48,0,25a7,7,0,0,1-.48,1.69,2.3,2.3,0,0,1-.3-.71q0-13.46,0-26.92A1.93,1.93,0,0,1,162,132.58Z" transform="translate(-6.95 -9.11)"/><path class="cls-2" d="M445.45,149.63c1.2,2.41,2.49,4.78,3.56,7.25,2.34,5.43,4.58,10.91,6.83,16.38.43,1.05.68,2.16,1,3.25-.3-.31-.72-.56-.87-.93q-5.18-12.33-10.29-24.68A6.63,6.63,0,0,1,445.45,149.63Z" transform="translate(-6.95 -9.11)"/><path class="cls-2" d="M122.72,40.55a3.06,3.06,0,0,1-.93-.43q-4.87-4.82-9.7-9.7a3.07,3.07,0,0,1-.44-.93A39.65,39.65,0,0,1,122.72,40.55Z" transform="translate(-6.95 -9.11)"/><path class="cls-2" d="M327.32,139a13,13,0,0,1-.43-2.27q-.06-5.74,0-11.49a12.88,12.88,0,0,1,.44-2.26Q327.32,131,327.32,139Z" transform="translate(-6.95 -9.11)"/><path class="cls-2" d="M240.09,247.22l9.45-3.13Z" transform="translate(-6.95 -9.11)"/><path class="cls-2" d="M111.29,29.21l-6.05-4.54Z" transform="translate(-6.95 -9.11)"/><path class="cls-2" d="M323.24,98.92c-.84-2.63-1.69-5.26-2.53-7.89C321.55,93.66,322.4,96.29,323.24,98.92Z" transform="translate(-6.95 -9.11)"/><path class="cls-2" d="M174.57,9.84l-7.31.23-4.91.17c.29-.2.57-.58.85-.58C167,9.69,170.78,9.78,174.57,9.84Z" transform="translate(-6.95 -9.11)"/><path class="cls-2" d="M258.49,21.71l-6.63-3Z" transform="translate(-6.95 -9.11)"/><path class="cls-1" d="M392.89,177.7l-1.56-.42,3.09-2.7.4.2c-.36.92-.71,1.84-1.07,2.75Z" transform="translate(-6.95 -9.11)"/><path class="cls-2" d="M268.81,27.25l-4.61-2.72Z" transform="translate(-6.95 -9.11)"/><path class="cls-2" d="M253.47,242.52l4.67-2.13Z" transform="translate(-6.95 -9.11)"/><path class="cls-2" d="M284,223.92l3.4-3Z" transform="translate(-6.95 -9.11)"/><path class="cls-2" d="M326.46,114.44l-.72-4.34Z" transform="translate(-6.95 -9.11)"/><path class="cls-2" d="M296.42,211.91l2.84-3.22Z" transform="translate(-6.95 -9.11)"/><path class="cls-2" d="M291.53,217.11l2.62-2.68Z" transform="translate(-6.95 -9.11)"/><path class="cls-2" d="M231.61,249.41l3.69-.83Z" transform="translate(-6.95 -9.11)"/><path class="cls-2" d="M263.14,237.88,266.6,236Z" transform="translate(-6.95 -9.11)"/><path class="cls-2" d="M127.3,143.4c.63-1,1.25-1.9,1.87-2.85C128.55,141.5,127.93,142.45,127.3,143.4Z" transform="translate(-6.95 -9.11)"/><path class="cls-2" d="M324.8,105.33c-.23-1.08-.46-2.16-.7-3.25C324.34,103.17,324.57,104.25,324.8,105.33Z" transform="translate(-6.95 -9.11)"/><path class="cls-2" d="M327.09,119.78c-.13-.9-.25-1.8-.38-2.69C326.84,118,327,118.88,327.09,119.78Z" transform="translate(-6.95 -9.11)"/><path class="cls-2" d="M216,251.65c.75-1.26,1.7-1,2.7-.36Z" transform="translate(-6.95 -9.11)"/><path class="cls-2" d="M281.31,226.12c.77-.66,1.55-1.31,2.33-2C282.86,224.81,282.08,225.46,281.31,226.12Z" transform="translate(-6.95 -9.11)"/><path class="cls-2" d="M236.34,248.31l2.72-.77Z" transform="translate(-6.95 -9.11)"/><path class="cls-2" d="M212.87,251.9l2.11-.07Z" transform="translate(-6.95 -9.11)"/><path class="cls-2" d="M326.72,144.84c.1-.72.21-1.45.32-2.17C326.93,143.39,326.82,144.12,326.72,144.84Z" transform="translate(-6.95 -9.11)"/><path class="cls-2" d="M325.69,152.34c.1-.72.2-1.45.29-2.17C325.89,150.89,325.79,151.62,325.69,152.34Z" transform="translate(-6.95 -9.11)"/><path class="cls-2" d="M279.16,227.69l2.1-1.53Z" transform="translate(-6.95 -9.11)"/><path class="cls-2" d="M259.37,239.88l2.38-1.23Z" transform="translate(-6.95 -9.11)"/><path class="cls-2" d="M268,235.23l2.33-1.4Z" transform="translate(-6.95 -9.11)"/><path class="cls-2" d="M415.69,10l-1.68.48.8-1.38Z" transform="translate(-6.95 -9.11)"/><path class="cls-2" d="M325.6,109c-.16-.7-.32-1.4-.49-2.1C325.28,107.61,325.44,108.31,325.6,109Z" transform="translate(-6.95 -9.11)"/><path class="cls-2" d="M301.81,205.53l1.39-1.83Z" transform="translate(-6.95 -9.11)"/><path class="cls-2" d="M348,223.07l-1.43-1.47Z" transform="translate(-6.95 -9.11)"/><path class="cls-2" d="M260.64,22.77l-1.78-.89Z" transform="translate(-6.95 -9.11)"/><path class="cls-2" d="M227.84,250.18l2.12-.48Z" transform="translate(-6.95 -9.11)"/><path class="cls-2" d="M282.44,36.77l-1.54-1.22Z" transform="translate(-6.95 -9.11)"/><path class="cls-2" d="M306.1,199.65l1.16-1.69Z" transform="translate(-6.95 -9.11)"/><path class="cls-2" d="M275.46,230.45l1.5-1.08Z" transform="translate(-6.95 -9.11)"/><path class="cls-2" d="M303.9,202.77l1-1.19Z" transform="translate(-6.95 -9.11)"/><path class="cls-2" d="M325,155.37c.11-.49.22-1,.34-1.47C325.26,154.39,325.15,154.88,325,155.37Z" transform="translate(-6.95 -9.11)"/><path class="cls-2" d="M324.1,159.84l.24-1.12Z" transform="translate(-6.95 -9.11)"/><path class="cls-2" d="M104.73,165.7l1.22-.89Z" transform="translate(-6.95 -9.11)"/><path class="cls-2" d="M270.64,233.64l1.26-.89Z" transform="translate(-6.95 -9.11)"/><path class="cls-2" d="M323.53,162l.36-1.11Z" transform="translate(-6.95 -9.11)"/><path class="cls-2" d="M289.9,218.68l1.09-1Z" transform="translate(-6.95 -9.11)"/><path class="cls-2" d="M272.25,232.56l1.27-.87Z" transform="translate(-6.95 -9.11)"/><path class="cls-2" d="M262.42,23.67,261,22.93Z" transform="translate(-6.95 -9.11)"/><path class="cls-2" d="M270.24,28.13,269,27.34Z" transform="translate(-6.95 -9.11)"/><path class="cls-2" d="M271.9,29.17l-1.28-.83Z" transform="translate(-6.95 -9.11)"/><path class="cls-2" d="M300.65,207l.92-1.14Z" transform="translate(-6.95 -9.11)"/><path class="cls-2" d="M250.81,243.65l1.41-.61Z" transform="translate(-6.95 -9.11)"/><path class="cls-2" d="M319.6,87.66l-.57-1.4Z" transform="translate(-6.95 -9.11)"/><path class="cls-2" d="M307.65,197.43l.85-1.22Z" transform="translate(-6.95 -9.11)"/><path class="cls-2" d="M326.21,149.13c.06-.35.11-.7.17-1.06Z" transform="translate(-6.95 -9.11)"/><path class="cls-2" d="M323.85,101.05c-.11-.37-.21-.74-.32-1.11Z" transform="translate(-6.95 -9.11)"/><path class="cls-2" d="M277,229.31l1.19-.91Z" transform="translate(-6.95 -9.11)"/><path class="cls-2" d="M320.49,90.27l-.57-1.63Z" transform="translate(-6.95 -9.11)"/><path class="cls-2" d="M285.07,38.93l-.94-.76Z" transform="translate(-6.95 -9.11)"/><path class="cls-2" d="M309.32,194.87c.18-.28.36-.56.53-.84Z" transform="translate(-6.95 -9.11)"/><path class="cls-2" d="M223.05,250.9l.52-.08Z" transform="translate(-6.95 -9.11)"/><path class="cls-2" d="M105.94,164.82l.71-.47Z" transform="translate(-6.95 -9.11)"/><path class="cls-2" d="M348.82,224.06l-.51-.59Z" transform="translate(-6.95 -9.11)"/><path class="cls-2" d="M307.54,64.61l-.45-.62Z" transform="translate(-6.95 -9.11)"/><path class="cls-2" d="M285.68,39.43l-.59-.48Z" transform="translate(-6.95 -9.11)"/><path class="cls-2" d="M7.29,125v.54a1.82,1.82,0,0,1-.11-.38S7.25,125.05,7.29,125Z" transform="translate(-6.95 -9.11)"/><path class="cls-2" d="M264.14,24.51a.38.38,0,0,1-.42-.19Z" transform="translate(-6.95 -9.11)"/><path class="cls-2" d="M300.16,207.61l.5-.63Z" transform="translate(-6.95 -9.11)"/><path class="cls-2" d="M56,250.31v0Z" transform="translate(-6.95 -9.11)"/><path class="cls-2" d="M82.82,62.38a61.35,61.35,0,0,0-7.32-4.19c-4.07-1.67-8.32-2.9-12.49-4.31.38-.14.8-.44,1.15-.37a47.53,47.53,0,0,1,17.09,6.9A8.11,8.11,0,0,1,82.82,62.38Z" transform="translate(-6.95 -9.11)"/><path class="cls-2" d="M90.9,119.2a56.24,56.24,0,0,0,2.84-5.37c1.5-3.69,2.79-7.47,4.17-11.21a18.1,18.1,0,0,1-.61,3.94c-1.42,3.67-3,7.3-4.61,10.89C92.36,118.16,91.51,118.62,90.9,119.2Z" transform="translate(-6.95 -9.11)"/><path class="cls-2" d="M98,87.58l-3-9.67C96.84,80.86,98.21,84,98,87.58Z" transform="translate(-6.95 -9.11)"/><path class="cls-2" d="M64.09,135.83l8.53-2.3C70,135.19,67.28,136.35,64.09,135.83Z" transform="translate(-6.95 -9.11)"/><path class="cls-2" d="M79.62,129.9l4.84-3.68A6,6,0,0,1,79.62,129.9Z" transform="translate(-6.95 -9.11)"/><path class="cls-2" d="M98.66,93.77l-.48-4.62Z" transform="translate(-6.95 -9.11)"/><path class="cls-2" d="M98.23,100.51l.36-3.73Z" transform="translate(-6.95 -9.11)"/><path class="cls-2" d="M85.11,125.69,88,122.8A3,3,0,0,1,85.11,125.69Z" transform="translate(-6.95 -9.11)"/><path class="cls-2" d="M59.82,136.42l3.24-.42C62.14,137.39,61,137,59.82,136.42Z" transform="translate(-6.95 -9.11)"/><path class="cls-2" d="M56,134.18l1.09,2.26C55.47,136.53,55.23,136,56,134.18Z" transform="translate(-6.95 -9.11)"/><path class="cls-2" d="M76.16,131.89l2.41-1.32Z" transform="translate(-6.95 -9.11)"/><path class="cls-2" d="M72.89,133.43l2.48-1.16Z" transform="translate(-6.95 -9.11)"/><path class="cls-2" d="M88.76,121.9l1-1.18Z" transform="translate(-6.95 -9.11)"/><path class="cls-2" d="M88,122.82l.72-.89Z" transform="translate(-6.95 -9.11)"/><path class="cls-2" d="M90.17,120.19l.54-.69Z" transform="translate(-6.95 -9.11)"/><path class="cls-2" d="M84.33,63.63l-.62-.53Z" transform="translate(-6.95 -9.11)"/><path class="cls-2" d="M58.74,53.74l-.56,0Z" transform="translate(-6.95 -9.11)"/><path class="cls-2" d="M57.13,53.77l-.54.12Z" transform="translate(-6.95 -9.11)"/><path class="cls-2" d="M84.49,126.18l.51-.42Z" transform="translate(-6.95 -9.11)"/><path class="cls-2" d="M281,121.33l-.22-1.6C280.84,120.27,280.91,120.8,281,121.33Z" transform="translate(-6.95 -9.11)"/><path class="cls-2" d="M280.39,118.12c0-.35-.07-.71-.11-1.07C280.32,117.41,280.36,117.77,280.39,118.12Z" transform="translate(-6.95 -9.11)"/><path class="cls-2" d="M244.44,66.17l-1-.56Z" transform="translate(-6.95 -9.11)"/><path class="cls-2" d="M243.39,65.58l-.63-.39Z" transform="translate(-6.95 -9.11)"/><path class="cls-2" d="M242.78,65.21l-.76-.42Z" transform="translate(-6.95 -9.11)"/><path class="cls-2" d="M238.55,63l-.81-.36Z" transform="translate(-6.95 -9.11)"/><path class="cls-1" d="M390,95.06c-1.85,10.84-3.79,22.15-5.83,34.09,4.09-2.19,7.66-4.11,11.24-6q6.8-3.6,13.62-7.17c1.26-.66,2.51-1.32,3.74-2,3.15-1.76,4.31-1.5,6.8,1.76l-23.06,55.44c-2.64-.24-5.17-.39-7.68-.73-7.36-1-14.69-2.25-22.07-3-3.52-.36-5.24-2.23-6.51-5.11-1.19-2.66-2.42-5.31-3.76-7.89a4.93,4.93,0,0,1-.05-4.56c4.5-10.74,8.88-21.52,13.35-32.27,3.85-9.27,7.76-18.52,11.66-27.77a21.61,21.61,0,0,1,1.24-2.21Z" transform="translate(-6.95 -9.11)"/><path class="cls-1" d="M435.5,123.46c-.08-.07-.16-.13-.08-.07s0,0,.07.09Z" transform="translate(-6.95 -9.11)"/><path class="cls-1" d="M103.14,24.46l.14.13c-.28-.29-.2-.22-.13-.14Z" transform="translate(-6.95 -9.11)"/></svg>