<svg id="Layer_1" data-name="Layer 1" xmlns="http://www.w3.org/2000/svg" viewBox="0 0 528.98 205.86"><defs><style>.cls-1{fill:#bd0001;}.cls-2{fill:#086aad;}.cls-3{fill:#8abecb;}</style></defs><title>PeoplesActionLogo</title><g id="ndgyMF"><path class="cls-1" d="M148.77,213.42l-13.13-37.76h-19l-13,37.71H79.88l34.19-98.7h24.22l34.25,98.75Z" transform="translate(-10.75 -8.05)"/><path class="cls-1" d="M226,154.47c-1.26-3.51-2-7-3.7-10-3.4-6-9.73-8.64-16.38-7.38A16.4,16.4,0,0,0,193.47,150a52.21,52.21,0,0,0-.41,8.58c0,6.4-.28,12.84.35,19.19.79,8,7.91,14,15.67,14.09,7.32.09,14.3-5.94,15.74-13.63.24-1.29.39-2.59.58-3.91a3.82,3.82,0,0,1,.66-.13h21.53c-.38,2.9-.59,5.72-1.12,8.48-2.93,15.31-16.3,28.46-31,30.79-21.37,3.37-38.62-11.2-43.3-28.92-1.65-6.25-1.35-12.56-1.34-18.87,0-7.27-.54-14.57,1.33-21.76,4.47-17.15,20.38-29.57,37.76-29.33,15.84.22,30.64,11.65,35.7,27.9,1.18,3.79,1.47,7.86,2.22,12Z" transform="translate(-10.75 -8.05)"/><path class="cls-1" d="M272.68,136.75H250.16V114.68H317v22h-22.1v76.69h-22.2Z" transform="translate(-10.75 -8.05)"/><path class="cls-1" d="M343.7,213.39H321.93V114.7H343.7Z" transform="translate(-10.75 -8.05)"/><path class="cls-1" d="M350.45,163.73c.61-6.5.48-13.17,2-19.45,3.71-15.57,17.59-27.76,32.36-29.37,17.75-1.94,34,8.36,40.48,25.57a38.66,38.66,0,0,1,2.65,14.87c-.23,7.72.08,15.48-.47,23.18-1.15,15.93-14.71,31.41-29.57,34.47-21.29,4.39-38.86-8.65-44.74-26.27A48.12,48.12,0,0,1,351,170c.06-2.07,0-4.13,0-6.19Zm21.05-.92c.28,4.94.24,8.57.72,12.12,1,7.8,7.94,14.82,15,15.6,8.82,1,16.84-4.73,19-13.94,1.81-7.82,1.5-15.83.26-23.67a17.85,17.85,0,0,0-9.43-13c-9.52-5.3-21.46.25-24.29,11.51C371.74,155.55,371.8,159.89,371.5,162.81Z" transform="translate(-10.75 -8.05)"/><path class="cls-1" d="M456.87,114.62l27.57,54.7.58-.19V114.58h22.06V213.4H484.73q-13.68-27.08-27.45-54.34l-.52.07v54.2H434.51V114.62Z" transform="translate(-10.75 -8.05)"/><path class="cls-2" d="M222.31,59.55c-.58,6-.58,13.13-2.05,19.89-3.23,14.84-17.55,27.9-31.72,29.65-23.23,2.86-38.88-12.41-43.27-28.68a57.59,57.59,0,0,1-1.82-13.72c-.17-8.29-.61-16.72.54-24.88,2.26-16,16.11-30.51,32.49-33.06,22.67-3.55,40.58,12.88,44.21,31C221.92,45.87,221.76,52.29,222.31,59.55ZM201,58.5c0-2.43.15-4.87,0-7.28A18.82,18.82,0,0,0,184,33.92c-8.47-.84-16.54,4.94-19,13.66-2,7.26-1.74,14.59-.13,21.85a18.25,18.25,0,0,0,15.83,14.26c7.5.86,14.45-3.22,18.2-10.32C201.42,68.61,201.13,63.56,201,58.5Z" transform="translate(-10.75 -8.05)"/><path class="cls-2" d="M139.8,86.94V109H78V8.51h61.67V30.87H100.83V47.42h28.22V70.15H100.84V86.94Z" transform="translate(-10.75 -8.05)"/><path class="cls-2" d="M413.71,30.91h-38.8V47.49h28.5V70.12H374.9v16.7h38.81V109H352.4V8.47h61.31Z" transform="translate(-10.75 -8.05)"/><path class="cls-2" d="M507.49,39.25h-22.7l-.49-1.94c-1.3-5-5.82-7.53-11-6.05a8.52,8.52,0,0,0-5.52,10.93c1.12,3.39,4.27,5.36,8.74,5.45,12.52.26,21.66,6.16,27.4,17,8.44,16,0,35.5-16.19,42.36S453.3,105,447.42,90.52c-2.25-5.54-2.87-8.18-2.49-12.08h22.23c.22.82.39,1.61.64,2.37a8.56,8.56,0,0,0,10.59,5.53c4.87-1.63,7.33-6.35,5.75-11-1.09-3.21-3.7-5-7.5-5C465.93,70.11,457,66,450.73,57.36c-15.28-21.14.62-45.25,19.23-48.6A31.71,31.71,0,0,1,506.4,32.58C506.88,34.69,507.11,36.86,507.49,39.25Z" transform="translate(-10.75 -8.05)"/><path class="cls-2" d="M10.75,8.37c11.64,0,23.21-.87,34.59.24C58,9.84,66.72,17.41,71.11,29.52c6.87,19-7,38.64-25.14,41-4,.53-8.23.08-12.61.08v38.44H10.75Zm19,42.78c4.63,0,9.05.22,13.44-.06,5.58-.37,9.89-5.18,10.25-10.92.4-6.34-2.78-11.42-8.56-12.32-4.94-.77-10-.55-15.13-.78Z" transform="translate(-10.75 -8.05)"/><path class="cls-2" d="M228.74,109V8.37h2.4c9.44,0,18.88.14,28.32,0,16.07-.3,31.35,13.27,31.16,31.43a30.91,30.91,0,0,1-32,31c-2.41-.12-4.82,0-7.46,0V109Zm18.73-81.62V51.62c4.41,0,8.51.1,12.62,0a11.17,11.17,0,0,0,9.23-5.21c5-7.32.82-18.11-7.52-18.91C257.15,27,252.42,27.39,247.47,27.39Z" transform="translate(-10.75 -8.05)"/><path class="cls-2" d="M318.62,87h26.83V109H296.23V8.52h22.39Z" transform="translate(-10.75 -8.05)"/><path class="cls-2" d="M421.94,43.19l6.72-12h-8.44a5.29,5.29,0,0,1-.21-.91c0-7.21,0-14.42,0-21.79h22.19c0,7.3,0,14.56,0,21.83a4.12,4.12,0,0,1-.67,1.82c-2.05,3.65-4.13,7.28-6.26,11Z" transform="translate(-10.75 -8.05)"/></g><rect class="cls-3" x="513.21" width="15.76" height="205.32"/></svg>