<svg id="Layer_1" data-name="Layer 1" xmlns="http://www.w3.org/2000/svg" viewBox="0 0 312.96 56.88"><defs><style>.cls-1{fill:#fefefd;}.cls-2{fill:#f69420;}.cls-3{fill:#fdcd0b;}</style></defs><title>Presente Logo</title><path class="cls-1" d="M322.28,59.6c0,1.28,0,2.55,0,3.82,0,.42-.08.56-.5.48a3.87,3.87,0,0,0-.59,0q-155.38,0-310.77,0c-.35,0-.81.28-1.08-.22,3.64,0,7.28,0,10.92,0,.8,0,1-.23,1-1,0-2.15,0-4.3,0-6.44V51.43c1.36,2.29,3.37,3,5.84,2.84,1.23-.07,2.47,0,3.71,0a7.08,7.08,0,0,0,7-6.92q.08-12,0-24a7,7,0,0,0-5.86-6.74,29.24,29.24,0,0,0-4.18-.18c-2.63-.12-5,.23-6.4,3a6.67,6.67,0,0,1-.09-1.75c.12-1-.22-1.29-1.24-1.27-3.56.05-7.12,0-10.68,0,0-2.91,0-5.81,0-8.71,0-.52.1-.71.62-.6a2.46,2.46,0,0,0,.47,0h190.9c.22,2.9,0,5.8.1,8.69,0,.56-.28.66-.75.65-1,0-2,0-3,0-.73,0-1,.19-1,.93.05,1.71,0,3.42,0,5.13,0,1.11-.46,2.53.18,3.23s2.12.15,3.22.23h.24c.85-.14,1.07.24,1.06,1.06,0,4.77,0,9.54,0,14.31,0,2.22-.51,2.84-2.74,3.26a7.07,7.07,0,0,1-3,0,4.4,4.4,0,0,1-3.5-4.37c0-5.53,0-11.06,0-16.58a7,7,0,0,0-6.28-7.11c-1.42-.18-2.87-.07-4.31-.13-2.58-.12-4.73.54-5.91,3.14a9,9,0,0,1-.08-2.05c.11-.92-.27-1.12-1.15-1.11-3.11.05-6.24.07-9.35,0-1.14,0-1.48.24-1.47,1.42.06,8.59,0,17.18,0,25.77,0,.67.06,1.19-.95,1.18-5.88,0-11.76,0-17.63,0a2.19,2.19,0,0,1-2.3-1.56,12,12,0,0,1-.14-2c-.11-.88.2-1.16,1.12-1.15,4.76.05,9.52,0,14.28.05,1,0,1.19-.29,1.18-1.21,0-4.93,0-9.86,0-14.79,0-4.45-2.85-7.52-7.31-7.62-4.63-.11-9.28-.11-13.91,0a7.06,7.06,0,0,0-7.27,7.14q0,11.74,0,23.5A7,7,0,0,0,138,54.26c12.12,0,24.23,0,36.35,0,1.12,0,1.29-.38,1.29-1.37,0-7.87,0-15.75,0-23.62a9.51,9.51,0,0,1,0-1.31,2.34,2.34,0,0,1,2.8-1.95,2.3,2.3,0,0,1,1.79,2.48c0,6.08,0,12.17,0,18.25a7.18,7.18,0,0,0,7.55,7.49h8.76a9.09,9.09,0,0,0,6.25-2,.56.56,0,0,1,.9,0,7.28,7.28,0,0,0,5.6,2c1.16,0,2.32,0,3.48,0,3.78,0,7.25-.65,9.51-4.17,1.39,2.55,3.4,4.11,6.24,4.14,6.92.08,13.84,0,20.76,0,.73,0,1-.23.95-1,0-2.46-.06-4.93,0-7.39,0-1-.32-1.17-1.22-1.17-4.28,0-8.56,0-12.84,0a2.31,2.31,0,0,1-2.57-2.49c0-.32,0-.64,0-1-.14-1,.21-1.29,1.23-1.28,4.76.05,9.52,0,14.28.05.91,0,1.14-.25,1.13-1.14,0-4.89,0-9.78,0-14.67s-3-7.81-7.86-7.84c-3.16,0-6.32,0-9.48,0a35.18,35.18,0,0,0-5,.12,7,7,0,0,0-6.15,7.09c0,5.85,0,11.69,0,17.54,0,1.91-.37,2.47-2.19,3.16a6.21,6.21,0,0,1-4.68-.07,2.15,2.15,0,0,1-1.53-2.06c0-5.17,0-10.34,0-15.51,0-.66.25-.8.84-.78,1,0,2,0,3,0,.73,0,1-.18,1-.93,0-2.5-.06-5,0-7.51,0-1-.32-1.16-1.18-1.09s-1.76,0-2.63,0-1-.25-1-1c0-2.78,0-5.57,0-8.35q53.92,0,107.87,0c.89,0,1.1.2,1.1,1.09,0,7.52,0,15,0,22.55a53.79,53.79,0,0,1-6.22.07c-.92,0-1.36.21-1.2,1.18,0,.13,0,.32-.25.34a3.38,3.38,0,0,0-3.38-1.5c-.56,0-1.12,0-1.68,0-3,0-4.86,1.64-4.91,4.62-.09,4.69-.05,9.38,0,14.06,0,2,.84,3.68,2.76,4.19,2.53.66,5.24,1.25,7.48-1.25v2.37c0,.82,0,1.62-.93,2s-1.39-.23-2-.83v1.17c0,1,0,1.9,0,2.86a2.75,2.75,0,0,0,2.88,2.72c1,0,2.08,0,3.11,0a4.2,4.2,0,0,0,3.79-2.31C321.9,60.15,321.88,59.74,322.28,59.6Zm-222-5.34q9.9,0,19.8,0A7.07,7.07,0,0,0,127.45,47c0-3-.09-5.89,0-8.83a7.17,7.17,0,0,0-6.78-7.5,2.81,2.81,0,0,1-1.61-.39,2.24,2.24,0,0,1-1-2.61A2.27,2.27,0,0,1,120.46,26c2,0,4-.05,6,0,.76,0,1-.18,1-1-.06-2.5-.06-5,0-7.51,0-.87-.29-1.05-1.1-1.05-4.16,0-8.32,0-12.48,0a11.74,11.74,0,0,0-1.67.13,7,7,0,0,0-6.11,6.63q-.18,5.13,0,10.26a7,7,0,0,0,5.47,6.46c.7.16,1.44.13,2.13.28a2.16,2.16,0,0,1,1.79,2.45c-.11,1.33-1.08,2.1-2.69,2.1H88.46c-2.8,0-3.43-.68-3.51-3.43,0-1.1.36-1.3,1.37-1.29,4.75.05,9.51,0,14.27,0,.85,0,1.08-.24,1.08-1.07,0-5,0-10,0-15a7.16,7.16,0,0,0-7.31-7.51c-4.64-.11-9.28-.08-13.92,0A7.31,7.31,0,0,0,73.1,24.1c.16,7.55.05,15.11.05,22.66,0,4.56,3,7.5,7.6,7.5ZM53.41,19.2c0-.65,0-1.3,0-1.95s-.21-.81-.83-.81q-5.16,0-10.31,0c-.64,0-.83.23-.82.83,0,1.23,0,2.47,0,3.7q0,16,0,32.07c0,.85.1,1.27,1.14,1.25,3.27-.07,6.55,0,9.83,0,.81,0,1-.29,1-1.05,0-3.13,0-6.27,0-9.41,0-5.09,0-10.18,0-15.26A2.33,2.33,0,0,1,55.77,26a2.45,2.45,0,0,1,2.29,2.69c0,2.7,0,5.41,0,8.11,0,.74.15,1,1,1q5-.06,10,0c.8,0,1-.27,1-1,0-4.37,0-8.74,0-13.11a7.09,7.09,0,0,0-6.53-7.14c-1.22-.12-2.47,0-3.71-.08C57.21,16.34,54.93,16.73,53.41,19.2ZM264.06,42.49c0,2.3,0,4.61,0,6.91a4.41,4.41,0,0,0,4.7,4.71q4.08,0,8.15,0a4.41,4.41,0,0,0,4.71-4.71q0-7,0-13.94A4.37,4.37,0,0,0,277,30.83c-2.76,0-5.51,0-8.27,0a4.36,4.36,0,0,0-4.64,4.63C264.05,37.8,264.06,40.15,264.06,42.49Zm27.77-10c-.11-1.7-.11-1.7-1.5-1.7-1.72,0-3.44,0-5.16,0-.61,0-.82.18-.82.81q0,10.85,0,21.71c0,.64.22.8.82.79,1.76,0,3.53-.07,5.28,0,1,0,1.36-.18,1.34-1.28-.06-4.81,0-9.62,0-14.43,0-1,.33-1.69,1.37-1.71s1.41.73,1.4,1.69c0,1.55,0,3.1,0,4.65,0,.6.16.86.81.84q2.88,0,5.76,0c.61,0,.85-.15.84-.8,0-2.7,0-5.41,0-8.11a4.31,4.31,0,0,0-4.15-4.16c-.79,0-1.6,0-2.39,0A3.47,3.47,0,0,0,291.83,32.53ZM257.41,54.11a3.33,3.33,0,0,0,3.34-3.34,3.32,3.32,0,0,0-6.63-.05A3.35,3.35,0,0,0,257.41,54.11Z" transform="translate(-9.34 -7.08)"/><path class="cls-2" d="M213.33,7.11c0,2.78,0,5.57,0,8.35,0,.76.19,1.07,1,1s1.76,0,2.63,0,1.2.14,1.18,1.09c-.07,2.5-.05,5,0,7.51,0,.75-.22,1-1,.93-1,0-2,0-3,0-.59,0-.85.12-.84.78,0,5.17,0,10.34,0,15.51a2.15,2.15,0,0,0,1.53,2.06,6.21,6.21,0,0,0,4.68.07c1.82-.69,2.19-1.25,2.19-3.16,0-5.85,0-11.69,0-17.54a7,7,0,0,1,6.15-7.09,35.18,35.18,0,0,1,5-.12c3.16,0,6.32,0,9.48,0,4.84,0,7.85,3,7.86,7.84s0,9.78,0,14.67c0,.89-.22,1.14-1.13,1.14-4.76-.05-9.52,0-14.28-.05-1,0-1.37.31-1.23,1.28,0,.31,0,.63,0,1a2.31,2.31,0,0,0,2.57,2.49c4.28,0,8.56,0,12.84,0,.9,0,1.25.17,1.22,1.17-.07,2.46,0,4.93,0,7.39,0,.73-.22,1-.95,1-6.92,0-13.84,0-20.76,0-2.84,0-4.85-1.59-6.24-4.14-2.26,3.52-5.73,4.2-9.51,4.17-1.16,0-2.32,0-3.48,0a7.28,7.28,0,0,1-5.6-2,.56.56,0,0,0-.9,0,9.09,9.09,0,0,1-6.25,2h-8.76a7.18,7.18,0,0,1-7.55-7.49c0-6.08,0-12.17,0-18.25A2.3,2.3,0,0,0,178.46,26a2.34,2.34,0,0,0-2.8,1.95,9.51,9.51,0,0,0,0,1.31c0,7.87,0,15.75,0,23.62,0,1-.17,1.37-1.29,1.37-12.12,0-24.23,0-36.35,0a7,7,0,0,1-7.25-7.14q0-11.74,0-23.5A7.06,7.06,0,0,1,138,16.48c4.63-.11,9.28-.11,13.91,0,4.46.1,7.31,3.17,7.31,7.62,0,4.93,0,9.86,0,14.79,0,.92-.21,1.22-1.18,1.21-4.76-.05-9.52,0-14.28-.05-.92,0-1.23.27-1.12,1.15a12,12,0,0,0,.14,2,2.19,2.19,0,0,0,2.3,1.56c5.87,0,11.75,0,17.63,0,1,0,.95-.51.95-1.18,0-8.59,0-17.18,0-25.77,0-1.18.33-1.45,1.47-1.42,3.11.08,6.24.06,9.35,0,.88,0,1.26.19,1.15,1.11a9,9,0,0,0,.08,2.05c1.18-2.6,3.33-3.26,5.91-3.14,1.44.06,2.89-.05,4.31.13a7,7,0,0,1,6.28,7.11c0,5.52,0,11.05,0,16.58a4.4,4.4,0,0,0,3.5,4.37,7.07,7.07,0,0,0,3,0c2.23-.42,2.74-1,2.74-3.26,0-4.77,0-9.54,0-14.31,0-.82-.21-1.2-1.06-1.06h-.24c-1.1-.08-2.56.48-3.22-.23s-.16-2.12-.18-3.23c0-1.71,0-3.42,0-5.13,0-.74.23-1,1-.93,1,0,2,0,3,0,.47,0,.76-.09.75-.65-.07-2.89.12-5.79-.1-8.69ZM145,30.63c2.37,0,2.37,0,2.3-2.07a2.41,2.41,0,0,0-2.4-2.58c-1.54,0-2.27,1.21-2.32,3.49-.05,2,1.41.87,2.19,1.16A.59.59,0,0,0,145,30.63Zm90.92,0c2.62,0,2.62,0,2.32-2.51l0-.24A2.41,2.41,0,0,0,235.91,26a2.28,2.28,0,0,0-2.22,1.94C233.26,30.39,233.43,30.59,236,30.59Z" transform="translate(-9.34 -7.08)"/><path class="cls-2" d="M9.35,16.42c3.56,0,7.12.06,10.68,0,1,0,1.36.3,1.24,1.27a6.67,6.67,0,0,0,.09,1.75c1.36-2.77,3.77-3.12,6.4-3a29.24,29.24,0,0,1,4.18.18,7,7,0,0,1,5.86,6.74q.08,12,0,24a7.08,7.08,0,0,1-7,6.92c-1.24,0-2.48-.06-3.71,0-2.47.15-4.48-.55-5.84-2.84v4.81c0,2.14,0,4.29,0,6.44,0,.77-.2,1-1,1-3.64,0-7.28,0-10.92,0ZM25.91,35.48c0-2.26,0-4.53,0-6.8,0-1.61-.89-2.65-2.26-2.7s-2.38,1-2.39,2.68q0,6.73,0,13.48c0,1.61.92,2.63,2.3,2.63a2.37,2.37,0,0,0,2.35-2.61C25.92,39.94,25.91,37.71,25.91,35.48Z" transform="translate(-9.34 -7.08)"/><path class="cls-3" d="M322.28,59.6c-.4.14-.38.55-.54.83A4.2,4.2,0,0,1,318,62.74c-1,0-2.07,0-3.11,0A2.75,2.75,0,0,1,312,60c0-1,0-1.91,0-2.86V56c.59.6,1.1,1.19,2,.83s.94-1.18.93-2V52.45c-2.24,2.5-4.95,1.91-7.48,1.25-1.92-.51-2.75-2.24-2.76-4.19,0-4.68-.08-9.37,0-14.06.05-3,1.9-4.62,4.91-4.62.56,0,1.12,0,1.68,0a3.38,3.38,0,0,1,3.38,1.5c.29,0,.27-.21.25-.34-.16-1,.28-1.19,1.2-1.18a53.79,53.79,0,0,0,6.22-.07Zm-7.41-17.16v-4c0-1-.4-1.67-1.44-1.67S312,37.45,312,38.4q0,4.07,0,8.11c0,1,.37,1.66,1.44,1.66s1.42-.73,1.43-1.67Z" transform="translate(-9.34 -7.08)"/><path class="cls-2" d="M100.3,54.26H80.75c-4.63,0-7.6-2.94-7.6-7.5,0-7.55.11-15.11-.05-22.66a7.31,7.31,0,0,1,7.31-7.63c4.64-.07,9.28-.1,13.92,0A7.16,7.16,0,0,1,101.64,24c0,5,0,10,0,15,0,.83-.23,1.08-1.08,1.07-4.76,0-9.52,0-14.27,0-1,0-1.4.19-1.37,1.29.08,2.75.71,3.43,3.51,3.43h24.36c1.61,0,2.58-.77,2.69-2.1a2.16,2.16,0,0,0-1.79-2.45c-.69-.15-1.43-.12-2.13-.28a7,7,0,0,1-5.47-6.46q-.18-5.13,0-10.26a7,7,0,0,1,6.11-6.63,11.74,11.74,0,0,1,1.67-.13c4.16,0,8.32,0,12.48,0,.81,0,1.12.18,1.1,1.05-.06,2.5-.06,5,0,7.51,0,.81-.26,1-1,1-2-.05-4,0-6,0a2.27,2.27,0,0,0-2.35,1.68,2.24,2.24,0,0,0,1,2.61,2.81,2.81,0,0,0,1.61.39,7.17,7.17,0,0,1,6.78,7.5c-.12,2.94,0,5.88,0,8.83a7.07,7.07,0,0,1-7.35,7.27Q110.2,54.28,100.3,54.26Zm-13-23.63c2.76-.06,2.34.47,2.36-2.14A2.38,2.38,0,0,0,87.36,26c-1.6,0-2.36,1.2-2.39,3.56,0,1.9,1.39.78,2.13,1.08A.65.65,0,0,0,87.34,30.63Z" transform="translate(-9.34 -7.08)"/><path class="cls-2" d="M53.41,19.2c1.52-2.47,3.8-2.86,6.31-2.75,1.24.05,2.49,0,3.71.08A7.09,7.09,0,0,1,70,23.67c0,4.37,0,8.74,0,13.11,0,.76-.21,1-1,1q-5-.06-10,0c-.83,0-1-.29-1-1,0-2.7,0-5.41,0-8.11A2.45,2.45,0,0,0,55.77,26a2.33,2.33,0,0,0-2.35,2.58c0,5.08,0,10.17,0,15.26,0,3.14,0,6.28,0,9.41,0,.76-.19,1.06-1,1.05-3.28,0-6.56-.06-9.83,0-1,0-1.14-.4-1.14-1.25q0-16,0-32.07c0-1.23,0-2.47,0-3.7,0-.6.18-.84.82-.83q5.14,0,10.31,0c.62,0,.87.18.83.81S53.41,18.55,53.41,19.2Z" transform="translate(-9.34 -7.08)"/><path class="cls-3" d="M264.06,42.49c0-2.34,0-4.69,0-7a4.36,4.36,0,0,1,4.64-4.63c2.76,0,5.51,0,8.27,0a4.37,4.37,0,0,1,4.65,4.63q0,7,0,13.94a4.41,4.41,0,0,1-4.71,4.71q-4.07,0-8.15,0a4.41,4.41,0,0,1-4.7-4.71C264.05,47.1,264.06,44.79,264.06,42.49Zm7.34-.09c0,1.39,0,2.78,0,4.17,0,.91.38,1.57,1.37,1.6s1.49-.67,1.49-1.62c0-2.74,0-5.48,0-8.22a1.45,1.45,0,0,0-1.39-1.62c-.85-.07-1.46.61-1.48,1.64C271.38,39.7,271.4,41.05,271.4,42.4Z" transform="translate(-9.34 -7.08)"/><path class="cls-3" d="M291.83,32.53a3.47,3.47,0,0,1,3.52-1.71c.79,0,1.6,0,2.39,0A4.31,4.31,0,0,1,301.89,35c.07,2.7,0,5.41,0,8.11,0,.65-.23.81-.84.8q-2.88,0-5.76,0c-.65,0-.82-.24-.81-.84,0-1.55,0-3.1,0-4.65,0-1-.34-1.7-1.4-1.69s-1.38.72-1.37,1.71c0,4.81,0,9.62,0,14.43,0,1.1-.32,1.33-1.34,1.28-1.75-.08-3.52,0-5.28,0-.6,0-.83-.15-.82-.79q0-10.86,0-21.71c0-.63.21-.83.82-.81,1.72,0,3.44,0,5.16,0C291.72,30.83,291.72,30.83,291.83,32.53Z" transform="translate(-9.34 -7.08)"/><path class="cls-3" d="M257.41,54.11a3.35,3.35,0,0,1-3.29-3.39,3.32,3.32,0,0,1,6.63.05A3.33,3.33,0,0,1,257.41,54.11Z" transform="translate(-9.34 -7.08)"/><path class="cls-1" d="M145,30.63a.59.59,0,0,1-.23,0c-.78-.29-2.24.83-2.19-1.16,0-2.28.78-3.47,2.32-3.49a2.41,2.41,0,0,1,2.4,2.58C147.41,30.63,147.41,30.63,145,30.63Z" transform="translate(-9.34 -7.08)"/><path class="cls-1" d="M236,30.59c-2.53,0-2.7-.2-2.27-2.66A2.28,2.28,0,0,1,235.91,26a2.41,2.41,0,0,1,2.34,1.85l0,.24C238.58,30.59,238.58,30.59,236,30.59Z" transform="translate(-9.34 -7.08)"/><path class="cls-1" d="M25.91,35.48c0,2.23,0,4.46,0,6.68a2.37,2.37,0,0,1-2.35,2.61c-1.38,0-2.29-1-2.3-2.63q0-6.75,0-13.48c0-1.66,1-2.72,2.39-2.68s2.25,1.09,2.26,2.7C25.92,31,25.91,33.22,25.91,35.48Z" transform="translate(-9.34 -7.08)"/><path class="cls-1" d="M314.87,42.44V46.5c0,.94-.35,1.67-1.43,1.67S312,47.46,312,46.51q0-4,0-8.11c0-.95.38-1.68,1.43-1.68s1.44.71,1.44,1.67Z" transform="translate(-9.34 -7.08)"/><path class="cls-1" d="M87.34,30.63a.65.65,0,0,1-.24,0c-.74-.3-2.16.82-2.13-1.08,0-2.36.79-3.57,2.39-3.56a2.38,2.38,0,0,1,2.34,2.5C89.68,31.1,90.1,30.57,87.34,30.63Z" transform="translate(-9.34 -7.08)"/><path class="cls-1" d="M271.4,42.4c0-1.35,0-2.7,0-4,0-1,.63-1.71,1.48-1.64a1.45,1.45,0,0,1,1.39,1.62c0,2.74,0,5.48,0,8.22,0,1-.41,1.65-1.49,1.62s-1.37-.69-1.37-1.6C271.4,45.18,271.4,43.79,271.4,42.4Z" transform="translate(-9.34 -7.08)"/></svg>