<svg id="Layer_1" data-name="Layer 1" xmlns="http://www.w3.org/2000/svg" viewBox="0 0 583.65 216.36"><defs><style>.cls-1{fill:#f69422;}.cls-2{fill:#be2436;}</style></defs><title>PresenteActionLogo</title><path class="cls-1" d="M509.91,328.2v11.94c0,9.18.07,18.36,0,27.54a5.08,5.08,0,0,0,3.44,5.24,15,15,0,0,0,15.17-1.76,4,4,0,0,0,1.77-3.62c-.07-14.82,0-29.64,0-44.46,0-10.17,7.34-17.79,17.49-17.89q16.95-.18,33.88,0c10.11.11,17.57,7.81,17.58,17.89q0,18.51,0,37v2.63H559.26c0,2.65-.3,5.14.08,7.52.41,2.57,2.86,3.93,6.1,3.93H599v23.07h-2.82c-15.2,0-30.41-.21-45.61.09-8.37.16-14.86-2.4-19-10.32a18.93,18.93,0,0,1-15.16,9.61,126.18,126.18,0,0,1-21.38.16c-3.39-.29-6.59-2.84-10.3-4.56-4.65,4.4-11.07,5.25-17.88,5.06-6.09-.17-12.21-.33-18.29,0-10.12.6-19.07-7.16-18.9-18.92.21-14.59.06-29.19,0-43.78,0-3.66-2-6-5.17-6.18a5.37,5.37,0,0,0-6,5.34c-.09,2.41,0,4.82,0,7.23v56.24h-2.85c-29.14,0-58.27-.19-87.4.11-9.18.1-18.77-6.32-18.77-18.43,0-18.43-.08-36.86,0-55.29.07-11.22,7.66-18.48,18.93-18.48,10.77,0,21.53,0,32.3,0a17.54,17.54,0,0,1,17.36,13.11,18.07,18.07,0,0,1,.61,4.44c.05,12.57,0,25.13.06,37.69,0,1.86-.49,2.44-2.39,2.43-11.67-.09-23.34,0-35,0h-2.7a57.26,57.26,0,0,0,.06,7.08c.34,2.75,2.82,4.31,6.28,4.31h42c.74,0,1.47-.06,2.47-.1V305.34a14.71,14.71,0,0,1,1.51-.17c8.51,0,17,0,25.52,0,1.63,0,2.1.56,2,2.09a22,22,0,0,0,.35,5.63c.12-.23.23-.46.34-.7a11.1,11.1,0,0,1,10.26-6.92,106.77,106.77,0,0,1,14.2.31,16.63,16.63,0,0,1,14.72,15.29c.39,8,.27,16.08.32,24.13,0,6.09.33,12.21-.09,18.27-.37,5.38,4.64,10.88,10.59,10.9a24.66,24.66,0,0,0,7.1-1c2.8-.86,4.8-1.93,4.73-6.32-.21-11.89-.08-23.78-.08-35.66v-2.74H469.76v-23.2H481V282.54h28.93v22.61h11.23V328.2ZM338.63,339.61h11.12a55.44,55.44,0,0,0-.05-6.59,5.62,5.62,0,0,0-11-.18A63.53,63.53,0,0,0,338.63,339.61Zm231.62.05c0-.79.11-1.38.12-2a40.33,40.33,0,0,0,0-4.26,5.63,5.63,0,0,0-5-5c-2.69-.3-5.5,1.17-5.94,3.69s-.09,5-.09,7.53Z" transform="translate(-15.53 -282.54)"/><path class="cls-1" d="M301.52,328.32c-5.06,0-9.94,0-14.82,0a20,20,0,0,0-3.37.22,5.51,5.51,0,0,0-4.51,5.45,5.35,5.35,0,0,0,4.19,5.43c1.53.33,3.15.25,4.69.54a17.43,17.43,0,0,1,14,16.83q0,11.73,0,23.46a17.12,17.12,0,0,1-17,17q-48.78.06-97.55,0A17.25,17.25,0,0,1,170,380.18q-.14-28.87,0-57.77a17.5,17.5,0,0,1,17.6-17.22q16.93-.18,33.87,0c10.23.09,17.59,7.68,17.71,18.3.13,12.41,0,24.83.07,37.24,0,1.76-.63,2.1-2.24,2.1-11.89-.06-23.79,0-35.68-.08-2,0-2.53.57-2.51,2.54.08,7.57,1.34,8.89,9,8.89,19.42,0,38.84,0,58.26-.05a9.45,9.45,0,0,0,4.63-1.26,5.09,5.09,0,0,0,2-6,5.43,5.43,0,0,0-5.38-4,17.37,17.37,0,0,1-10.3-3.49,17.07,17.07,0,0,1-7.09-14.16c-.06-7.3,0-14.6,0-21.89,0-10.1,7.32-17.9,17.43-18.1,11.14-.22,22.28,0,33.42,0a5.44,5.44,0,0,1,.82.17ZM198.86,339.58h11.25c0-2.17.16-4.19,0-6.18a5.31,5.31,0,0,0-5.83-5,5.56,5.56,0,0,0-5.38,5.33C198.78,335.62,198.86,337.49,198.86,339.58Z" transform="translate(-15.53 -282.54)"/><path class="cls-1" d="M15.53,305.28H44.11v8.52a48.5,48.5,0,0,1,3-4.74,10.7,10.7,0,0,1,8.35-3.84,120.56,120.56,0,0,1,14,.29A16.75,16.75,0,0,1,84.4,321.59q.25,29.66,0,59.33c-.08,8.85-7.86,16.17-16.7,16.32-3.39.06-6.78-.13-10.16,0-6.3.32-10.73-2.19-13.23-8.81v31.77H15.53Zm40.09,46.16c0-5.71.06-11.42,0-17.12-.05-3.81-2.57-6.13-6.15-5.87-3.11.23-5.17,2.66-5.18,6.22q0,16.44,0,32.88c0,3.95,2.16,6.52,5.54,6.63s5.78-2.44,5.81-6.52C55.65,362.25,55.63,356.84,55.62,351.44Z" transform="translate(-15.53 -282.54)"/><path class="cls-1" d="M122.07,397.14H93.53V305.36h28.4v8.31c.32-.27.54-.36.6-.52,2.24-5.71,6.62-8.09,12.55-8,4.13.07,8.29-.05,12.39.36,7.81.77,14.56,7.77,14.71,15.54.22,11.87.06,23.75.06,35.83H133.58v-2.39c0-6.32,0-12.63,0-18.95a13,13,0,0,0-.34-3.12,5.63,5.63,0,0,0-10.76-.07,14.14,14.14,0,0,0-.39,3.56q0,29.22,0,58.43Z" transform="translate(-15.53 -282.54)"/><path class="cls-2" d="M423.15,461.46v36.15H410.6V440c3.65,0,7.31-.08,11,.08.69,0,1.45,1,2,1.62q12.48,16.29,24.9,32.64a4,4,0,0,1,.35.81l.51-.31V440.07h12.6v57.71c-3.46,0-7,.07-10.45-.08-.6,0-1.26-.94-1.74-1.56Q437.36,480,425,463.87C424.55,463.22,424,462.59,423.15,461.46Z" transform="translate(-15.53 -282.54)"/><path class="cls-2" d="M373.27,498.86c-17.55,0-30.57-12.86-30.57-30.17,0-16.76,13.59-29.84,30.92-29.78s30.6,13,30.57,30S390.78,498.86,373.27,498.86Zm17.46-29.63c.2-10.09-7.3-18.19-17.08-18.43a17.31,17.31,0,0,0-17.44,16.54c-.6,12.82,8.88,19.51,16.45,19.62C383,487.1,390.52,479.8,390.73,469.23Z" transform="translate(-15.53 -282.54)"/><path class="cls-2" d="M213.69,497.79c-4,0-8,.06-12-.06-.57,0-1.35-.8-1.62-1.41q-2.1-4.74-3.93-9.59a2.5,2.5,0,0,0-2.74-2c-6.78.11-13.55.1-20.33,0a2.48,2.48,0,0,0-2.8,1.89c-1.15,3.18-2.57,6.26-3.74,9.43a2.35,2.35,0,0,1-2.67,1.74c-3.61-.1-7.22,0-11.17,0,1.76-4.18,3.42-8.17,5.11-12.14,6.26-14.7,12.55-29.4,18.75-44.13.66-1.58,1.45-2.16,3.15-2.07,2.7.14,5.42,0,8.12.08a2.49,2.49,0,0,1,1.87,1.08q12.12,28.31,24.1,56.65C213.84,497.32,213.78,497.41,213.69,497.79Zm-23-24.38-7.53-18.33c-2.61,6.39-5,12.25-7.46,18.33Z" transform="translate(-15.53 -282.54)"/><path class="cls-2" d="M268.32,448.05l-8.11,9.33c-4.84-4.26-10.06-7.19-16.61-6.42a15.56,15.56,0,0,0-10.49,5.55A19.68,19.68,0,0,0,234,482.3c6.65,6.8,16.2,6.12,26.27-1.74l8.34,7.79c-9.3,12.52-30.55,14.18-43.18,3.47s-13.58-31.53-2.21-43.63C235.54,435.12,258.46,436.73,268.32,448.05Z" transform="translate(-15.53 -282.54)"/><path class="cls-2" d="M269.89,440h47.82v11.73H300.3v45.91H287.44V451.9H269.89Z" transform="translate(-15.53 -282.54)"/><path class="cls-2" d="M335.78,497.73H323.24V440h12.54Z" transform="translate(-15.53 -282.54)"/></svg>