<svg id="Layer_1" data-name="Layer 1" xmlns="http://www.w3.org/2000/svg" viewBox="0 0 1041.84 315"><defs><style>.cls-1{fill:#1a6fb0;}.cls-2{fill:#2b9d3c;}.cls-3{fill:#ffffff;fill-rule:evenodd;}</style></defs><title>ProgressivesUniteLogo</title><path class="cls-1" d="M173.37,281.13A111.68,111.68,0,0,1,158,261.92l-6.36,6.36a48.46,48.46,0,0,1-68.53-68.53L171,111.86a48.45,48.45,0,1,1,68.52,68.53l-19.29,19.29a32.86,32.86,0,0,0,34.5,34.53l19.31-19.3A97.27,97.27,0,1,0,136.51,77.34l-87.9,87.89A97.28,97.28,0,1,0,186.19,302.79l6.3-6.31A112.82,112.82,0,0,1,173.37,281.13Z" transform="translate(-20.16 -16.28)"/><path class="cls-2" d="M438.24,113.56a96.69,96.69,0,0,1-28.5,68.78l-87.89,87.89A97.28,97.28,0,0,1,184.27,132.67l19.4-19.4c.54,0,1.08-.07,1.63-.07a32.9,32.9,0,0,1,32.91,32.91c0,.59-.05,1.16-.08,1.74h0l-19.34,19.33a48.46,48.46,0,0,0,68.54,68.52l87.88-87.89a48.45,48.45,0,1,0-68.52-68.53l-6.23,6.23h0a114.16,114.16,0,0,0-15.4-19.17A112.93,112.93,0,0,0,266,51l6.21-6.22a97.28,97.28,0,0,1,166.07,68.79Z" transform="translate(-20.16 -16.28)"/><path class="cls-3" d="M1045.17,34c-.89-1.51-2.31-2.23-4.54-2.23-3.74,0-6,2.23-6,6.86,0,13.27,27.34,6.59,27.34,29,0,14.42-8,20.21-21.73,20.21-10.86,0-20.92-3.3-20.92-16.56v-4.1h14.42V69.4c0,4.8,1.34,8.45,6.5,8.45s6.77-3.91,6.77-7.56c0-13.71-27.33-6.06-27.33-29.83,0-10.15,5.43-18.7,20.83-18.7,15,0,20.3,7.57,20.3,17.36v1.52h-14.42C1046.42,37.61,1046.06,35.38,1045.17,34ZM974,23h36.78V35.12H989V47.85h20.48V60H989V74.47h22.79V86.58H974ZM933.77,86.58,919.8,23h16l7.57,49.15h.18L951.23,23h16L952.83,86.58ZM897.89,23h15V86.58h-15ZM866.71,87.83c-10.87,0-20.93-3.3-20.93-16.56v-4.1h14.43V69.4c0,4.8,1.33,8.45,6.5,8.45s6.76-3.91,6.76-7.56c0-13.71-27.33-6.06-27.33-29.83,0-10.15,5.43-18.7,20.83-18.7,15,0,20.3,7.57,20.3,17.36v1.52H872.85c0-3-.36-5.26-1.25-6.68s-2.31-2.23-4.54-2.23c-3.74,0-6,2.23-6,6.86,0,13.27,27.33,6.59,27.33,29C888.43,82,880.42,87.83,866.71,87.83Zm-49.8,0c-10.86,0-20.92-3.3-20.92-16.56v-4.1h14.42V69.4c0,4.8,1.34,8.45,6.5,8.45s6.77-3.91,6.77-7.56c0-13.71-27.34-6.06-27.34-29.83,0-10.15,5.44-18.7,20.84-18.7,15,0,20.3,7.57,20.3,17.36v1.52H823.05c0-3-.35-5.26-1.24-6.68s-2.32-2.23-4.54-2.23c-3.74,0-6,2.23-6,6.86,0,13.27,27.34,6.59,27.34,29C838.64,82,830.62,87.83,816.91,87.83ZM750.68,23h36.77V35.12H765.64V47.85h20.48V60H765.64V74.47h22.79V86.58H750.68ZM724.11,73.67c0-11-1.51-13.35-6.23-13.35h-5.7V86.58h-15V23h25.11c12.74,0,17.1,7.83,17.1,16.56,0,9.26-3.74,13.8-10.69,15.49v.18c9.53,1.34,10.07,7.3,10.24,15.85.27,12.55.72,13.8,2.85,14.69v.8H725.72C724.56,84.44,724.11,80.88,724.11,73.67Zm-7.39-40.16h-4.54v16.3h4.63c6.06,0,7.66-4.54,7.66-8.28C724.47,36.72,722.69,33.51,716.72,33.51Zm-40.66,47h-.17c-2.32,5.69-7.93,7.3-13.72,7.3-15.93,0-18.61-11.85-18.61-31.7,0-20.84,1.43-34.37,22.62-34.37,19.32,0,20.12,13.36,20.12,20.57H671.88c0-4.1-.45-10.6-6-10.6-6.14,0-6.85,6.24-6.85,23.15,0,17.37.89,23,6.85,23,5.08,0,6.86-4.63,6.86-13.35v-2h-7v-10h20.93v34.1H676.42Zm-63.6,7.3c-19.68,0-22.35-12.82-22.35-33s2.67-33,22.35-33c21.19,0,22.35,15.4,22.35,33S633.65,87.83,612.46,87.83Zm-.09-56.1c-5.88,0-6.77,5.61-6.77,23.06s.89,23.06,6.77,23.06c6,0,6.94-5.6,6.94-23.06S618.42,31.73,612.37,31.73ZM565,73.67c0-11-1.51-13.35-6.23-13.35H553V86.58h-15V23h25.11c12.73,0,17.09,7.83,17.09,16.56,0,9.26-3.74,13.8-10.68,15.49v.18c9.53,1.34,10.06,7.3,10.24,15.85.27,12.55.71,13.8,2.85,14.69v.8H566.57C565.41,84.44,565,80.88,565,73.67Zm-7.39-40.16H553v16.3h4.63c6.05,0,7.66-4.54,7.66-8.28C565.33,36.72,563.54,33.51,557.58,33.51ZM507.39,61.74H500.8V86.58H485.85V23H509c15.76,0,18.79,11.39,18.79,19.32C527.78,53.73,522.35,61.74,507.39,61.74Zm-2.76-27.69H500.8V50.7h4.1c6,0,7.39-3.74,7.39-8C512.29,37.79,510.69,34.05,504.63,34.05Z" transform="translate(-20.16 -16.28)"/><path class="cls-3" d="M1052.57,202.16v9.49H967.35V112h84v9.49H978.3v33.78h70.42v9.5H978.3v37.41Zm-168.06,9.49h-11V121.47H832.13V112h93.81v9.49H884.51ZM780.09,112H791v99.67H780.09ZM641.57,126.5h-.29v85.15H630.33V112H643.5l73.83,85.15h.29V112h11v99.67H715.85ZM533.42,214.16c-41.88,0-47.2-22.89-47.2-41V112h10.95v61.14c0,26.1,17.9,31.55,36.25,31.55s36.24-5.45,36.24-31.55V112h11v61.14C580.61,191.27,575.29,214.16,533.42,214.16Z" transform="translate(-20.16 -16.28)"/><path class="cls-3" d="M994.1,327.49c-47.38,0-62.24-21.59-62.24-47.78s14.86-47.79,62.24-47.79,62.24,21.59,62.24,47.79S1041.48,327.49,994.1,327.49Zm0-84.51c-36.83,0-39.41,25.8-39.41,36.73s2.58,36.72,39.41,36.72,39.41-25.8,39.41-36.72S1030.93,243,994.1,243Zm-118,18.17c0-13.3-14.86-18.17-32.3-18.17-26.92,0-38.34,9.08-39,22H783.24c0-19.35,18.09-33,59.23-33,38.76,0,56.42,12.64,56.42,29.36,0,32.12-73.22,30.8-90.67,52h90.67v12.11H780.44C784.75,282.6,876.06,287.87,876.06,261.15ZM696.43,327.49c-47.38,0-62.24-21.59-62.24-47.78s14.86-47.79,62.24-47.79,62.24,21.59,62.24,47.79S743.81,327.49,696.43,327.49Zm0-84.51C659.6,243,657,268.78,657,279.71s2.58,36.72,39.41,36.72,39.41-25.8,39.41-36.72S733.26,243,696.43,243Zm-118,18.17c0-13.3-14.86-18.17-32.3-18.17-26.93,0-38.34,9.08-39,22H485.57c0-19.35,18.09-33,59.22-33,38.77,0,56.43,12.64,56.43,29.36,0,32.12-73.23,30.8-90.67,52h90.67v12.11H482.77C487.07,282.6,578.39,287.87,578.39,261.15Z" transform="translate(-20.16 -16.28)"/></svg>