<svg id="Layer_1" data-name="Layer 1" xmlns="http://www.w3.org/2000/svg" viewBox="0 0 492.49 151.69"><defs><style>.cls-1{fill:#fdfdfd;}.cls-2{fill:#e21500;}.cls-3{fill:#001559;}.cls-4{fill:#ec3215;}</style></defs><title>ProgressAmericaLogo</title><path class="cls-1" d="M393.92,155.57H4.27V3.88H496.75V155.57H406.23c1.38-.34,2.75-.71,4.15-1,12.3-2.56,21.27-16.72,18.12-28.5H409.43c-.28,2-.44,3.75-.8,5.5-1,5-3.81,7.08-8.89,6.8-4.29-.23-7-2.32-7.62-7.19a151,151,0,0,1-.75-18.3,24.54,24.54,0,0,1,1.57-7.86c1.27-3.63,3.67-4.71,8.55-4.53,3.53.13,5.65,1.61,6.69,5.05.64,2.16.92,4.43,1.36,6.63H429c-.22-2.56-.37-4.92-.64-7.27-1.32-11.57-7.65-18.85-18.83-20.8a57.6,57.6,0,0,0-14.19-.55c-12.67,1-20,7.27-22.85,19.61a70.44,70.44,0,0,0,.39,34c2.35,9,7.94,15,17.22,17.3C391.37,154.77,392.64,155.19,393.92,155.57ZM92.13,115.24l.7-.06c2.37,7.63,4.72,15.27,7.11,22.9,1.62,5.19,3.28,10.37,4.94,15.6,5.46,0,10.7.07,15.94-.08.68,0,1.68-1.07,2-1.85,2.87-8.16,5.61-16.36,8.39-24.55,1.53-4.49,3.07-9,4.73-13.81v40h17V85.84c-7.24,0-14.37.07-21.49-.06-1.85,0-2.5.63-3,2.28-4.08,13.09-8.26,26.14-12.41,39.21-.25.78-.54,1.55-1,2.92-.48-1.48-.74-2.24-1-3-4-13-8-26.06-11.88-39.12-.51-1.7-1.2-2.3-3-2.26-6.06.12-12.13,0-18.19,0H76.79v67.52H92.13Zm233.4,14c5-2.42,7.39-6.57,8.16-11.68a55.35,55.35,0,0,0-.23-18.78c-1.12-5.85-4.53-9.71-10.24-11.35a33.89,33.89,0,0,0-8.17-1.56c-11-.34-21.94-.44-32.91-.62-1.54,0-3.07,0-4.7,0v68.07h19.82V132.41c2.67,0,5.12.12,7.56,0,1.61-.11,2.26.53,2.81,1.94q3.42,8.77,7.07,17.48c.31.72,1.23,1.69,1.88,1.7,6.86.12,13.72.08,20.9.08Zm-296.06-44L4.4,153.52c6.74,0,13,0,19.19-.07a2.63,2.63,0,0,0,1.85-1.58c1-3.15,1.8-6.38,2.68-9.64,6.19,0,12.17,0,18.15.07.57,0,1.42.92,1.61,1.57a62.38,62.38,0,0,1,1.81,7.37c.31,1.78,1,2.4,2.91,2.33,4.17-.16,8.35,0,12.53,0H72.3c.06-.4.1-.49.07-.55Q60.52,119.76,48.59,86.6a2.52,2.52,0,0,0-1.9-1.28C41,85.22,35.39,85.26,29.47,85.26Zm466.9,68.17c-.21-.83-.33-1.53-.57-2.19q-11.51-32.16-23-64.31a2.15,2.15,0,0,0-2.47-1.7c-4.75.08-9.51.13-14.26,0-1.93-.06-2.84.48-3.52,2.36-7.66,21.09-15.43,42.14-23.16,63.2-.3.82-.5,1.67-.82,2.75,6.66,0,13,0,19.41-.08.53,0,1.31-1,1.52-1.7,1-3.1,1.73-6.25,2.57-9.35h19.46c.95,3.78,1.86,7.4,2.78,11ZM195.71,38.24c0-19.17-13.47-32.82-32.43-32.86S130.77,19,130.69,38.12s13.52,33,32.59,33S195.72,57.44,195.71,38.24Zm52.21,9.49c-2.57,5.4-6.65,7.41-11.85,7.63-6.16.27-11.42-1.54-14.6-7.13C218.1,42.32,218,36,220.55,29.81a14,14,0,0,1,12.6-9.13c5.71-.44,10.76.94,13.93,6.31.29.49.92,1.1,1.41,1.11,5,.08,9.94,0,15.16,0a25.21,25.21,0,0,0-9.89-16.39C236.52-1,205.3,6.42,202.37,33.69c-1.36,12.68,2,23.74,13.07,31s23.27,7.89,35.24,1.89C262,60.93,266.32,47.54,264.3,33.9H234.7V47.73Zm-120.66,22a24.9,24.9,0,0,0-1.51-4.11c-3.67-6.08-7.44-12.1-11.17-18.13.87-.78,1.63-1.4,2.32-2.09,6.93-7,8.58-15.29,5.51-24.39-3-8.9-9.64-13.77-18.94-14.22-9.49-.45-19-.2-28.52-.25a12.83,12.83,0,0,0-1.58.21V69.59h16.1V51.24c2.3,0,4.34.09,6.37,0A2.92,2.92,0,0,1,98.9,53c2.84,5,5.79,10,8.79,15a3.3,3.3,0,0,0,2.09,1.59C115.35,69.77,120.91,69.71,127.26,69.71ZM316.71,47.43l1.4-1.15a23.16,23.16,0,0,0,6.8-24.53c-2.78-8.8-9.62-14.42-19.19-15-7.52-.44-15.07-.2-22.61-.25-2.52,0-5,0-7.59,0v63h16.21V51.24c2.12,0,4.08.12,6,0,1.73-.15,2.63.55,3.45,2,2.79,5,5.7,9.9,8.64,14.81.4.68,1.2,1.59,1.84,1.6,5.71.13,11.43.08,17.71.08a23.19,23.19,0,0,0-1.45-4.08C324.26,59.55,320.49,53.54,316.71,47.43Zm-96.19,81.06V85.06H163.31v43.43ZM441.42,50.4c.05,6.73,2.6,11.87,7.86,15.54,6.48,4.53,13.81,5.75,21.53,4.89,7-.78,13.41-3.12,18.05-8.8a17.26,17.26,0,0,0-8.7-27.81c-2.36-.65-4.8-1-7.21-1.46-3.94-.7-8-1-11.8-2.12-4-1.17-4.56-5.63-1.4-8.35,5.14-4.42,13.28-2.58,15.78,3.53H490.7c-.19-8.83-4.54-14.7-12.34-18A29.86,29.86,0,0,0,454.23,8c-7.28,3.15-11.42,8.69-11.94,16.81-.58,9.12,3.82,16.14,12.56,18.69,4,1.18,8.36,1.38,12.54,2.1a32.06,32.06,0,0,1,6.89,1.53c3.19,1.33,3.39,5,.63,7.11-3.73,2.84-12,2.86-15.6-.06a21.6,21.6,0,0,1-1.93-2.46c-.46-.52-1.09-1.23-1.65-1.25C451.06,50.35,446.4,50.4,441.42,50.4Zm-7.5-24.47a17.88,17.88,0,0,0-4.12-12.22c-8.59-10.39-29.06-11.07-38.89-1.28s-5.88,27.11,7.42,31.1c3.95,1.18,8.21,1.34,12.31,2a32,32,0,0,1,6.89,1.5c3.22,1.34,3.45,5,.72,7.12-5.45,4.26-15,2.31-18.14-3.58H384.67c.18,6.31,2.53,11.28,7.42,15,9.9,7.56,27.72,7.24,37.26-.71,6-5,7.59-11.59,6.11-19-1.4-7-6.4-10.37-12.85-11.93-3.25-.78-6.62-1.09-9.92-1.67a55.62,55.62,0,0,1-8.39-1.67,4.66,4.66,0,0,1-1.85-7.77c4.64-5.06,14-3.32,16.35,3.08ZM12.64,6.78V69.54H28.78v-16c4.43,0,8.67.05,12.91,0A20.16,20.16,0,0,0,55.91,47.8c7.68-7.41,9.48-20.19,4.23-29.89C56.66,11.5,51.27,7.28,44,6.91,33.67,6.39,23.26,6.78,12.64,6.78ZM353.09,20.94h23V6.65H336.89v63h40.16V55.23h-23.9V44.3h21.19V29.76H353.09Zm-189.76,119V154.2H264.85V139.91Zm199.39,13.51v-68H343v68ZM264.94,85H232.19V99.71h32.75Zm-.08,42.27V112.49H232.2v14.77Z" transform="translate(-4.27 -3.88)"/><path class="cls-2" d="M393.92,155.57c-1.28-.38-2.55-.8-3.84-1.12-9.28-2.26-14.87-8.3-17.22-17.3a70.44,70.44,0,0,1-.39-34c2.84-12.34,10.18-18.58,22.85-19.61a57.6,57.6,0,0,1,14.19.55c11.18,2,17.51,9.23,18.83,20.8.27,2.35.42,4.71.64,7.27H409.54c-.44-2.2-.72-4.47-1.36-6.63-1-3.44-3.16-4.92-6.69-5.05-4.88-.18-7.28.9-8.55,4.53a24.54,24.54,0,0,0-1.57,7.86,151,151,0,0,0,.75,18.3c.58,4.87,3.33,7,7.62,7.19,5.08.28,7.87-1.82,8.89-6.8.36-1.75.52-3.54.8-5.5H428.5c3.15,11.78-5.82,25.94-18.12,28.5-1.4.29-2.77.66-4.15,1Z" transform="translate(-4.27 -3.88)"/><path class="cls-2" d="M92.13,115.24v38.12H76.79V85.84h4.06c6.06,0,12.13.07,18.19,0,1.82,0,2.51.56,3,2.26,3.89,13.06,7.9,26.09,11.88,39.12.23.78.49,1.54,1,3,.48-1.37.77-2.14,1-2.92,4.15-13.07,8.33-26.12,12.41-39.21.52-1.65,1.17-2.31,3-2.28,7.12.13,14.25.06,21.49.06v67.55h-17v-40c-1.66,4.84-3.2,9.32-4.73,13.81-2.78,8.19-5.52,16.39-8.39,24.55-.27.78-1.27,1.83-2,1.85-5.24.15-10.48.08-15.94.08-1.66-5.23-3.32-10.41-4.94-15.6-2.39-7.63-4.74-15.27-7.11-22.9l-.64-1.52-.36.1Z" transform="translate(-4.27 -3.88)"/><path class="cls-2" d="M325.53,129.26l12,24.3c-7.18,0-14,0-20.9-.08-.65,0-1.57-1-1.88-1.7q-3.65-8.7-7.07-17.48c-.55-1.41-1.2-2.05-2.81-1.94-2.44.17-4.89,0-7.56,0v20.92H277.44V85.26c1.63,0,3.16,0,4.7,0,11,.18,21.94.28,32.91.62a33.89,33.89,0,0,1,8.17,1.56c5.71,1.64,9.12,5.5,10.24,11.35a55.35,55.35,0,0,1,.23,18.78C332.92,122.69,330.56,126.84,325.53,129.26Zm-28.24-12c4.39-.29,8.53-.43,12.63-.89a5,5,0,0,0,4.65-4.93c.29-3.43.94-7.1-2.41-9.68a3,3,0,0,0-.88-.43c-4.59-1.47-9.27-1-14-1Z" transform="translate(-4.27 -3.88)"/><path class="cls-2" d="M29.47,85.26c5.92,0,11.57,0,17.22.06a2.52,2.52,0,0,1,1.9,1.28q12,33.15,23.78,66.37c0,.06,0,.15-.07.55H65.13c-4.18,0-8.36-.11-12.53,0-1.87.07-2.6-.55-2.91-2.33a62.38,62.38,0,0,0-1.81-7.37c-.19-.65-1-1.56-1.61-1.57-6-.12-12-.07-18.15-.07-.88,3.26-1.67,6.49-2.68,9.64a2.63,2.63,0,0,1-1.85,1.58c-6.22.12-12.45.07-19.19.07Zm14.2,41.46c-1.72-7-3.4-13.88-5.08-20.75H38c-1.87,6.85-3.75,13.71-5.68,20.75Z" transform="translate(-4.27 -3.88)"/><path class="cls-2" d="M496.37,153.43h-22c-.92-3.64-1.83-7.26-2.78-11H452.09c-.84,3.1-1.62,6.25-2.57,9.35-.21.68-1,1.69-1.52,1.7-6.37.12-12.75.08-19.41.08.32-1.08.52-1.93.82-2.75,7.73-21.06,15.5-42.11,23.16-63.2.68-1.88,1.59-2.42,3.52-2.36,4.75.15,9.51.1,14.26,0a2.15,2.15,0,0,1,2.47,1.7q11.43,32.17,23,64.31C496,151.9,496.16,152.6,496.37,153.43Zm-33.8-47.63H462q-2.84,10.41-5.68,20.84h11.3C465.93,119.54,464.25,112.67,462.57,105.8Z" transform="translate(-4.27 -3.88)"/><path class="cls-3" d="M195.71,38.24c0,19.2-13.45,32.83-32.43,32.86s-32.67-13.72-32.59-33S144.32,5.34,163.28,5.38,195.71,19.07,195.71,38.24ZM179,40.14c.07-7-1.39-11.64-5.39-15.06a15.24,15.24,0,0,0-15.88-2.79c-5.65,2-8.84,6.29-9.86,12.13-1.52,8.73,2,16.41,8.79,19.48C167.72,58.89,179,51,179,40.14Z" transform="translate(-4.27 -3.88)"/><path class="cls-3" d="M247.92,47.73H234.7V33.9h29.6c2,13.64-2.28,27-13.62,32.71-12,6-24.06,5.5-35.24-1.89s-14.43-18.35-13.07-31C205.3,6.42,236.52-1,253.76,11.76a25.21,25.21,0,0,1,9.89,16.39c-5.22,0-10.19,0-15.16,0-.49,0-1.12-.62-1.41-1.11-3.17-5.37-8.22-6.75-13.93-6.31a14,14,0,0,0-12.6,9.13c-2.52,6.23-2.45,12.51.92,18.42,3.18,5.59,8.44,7.4,14.6,7.13C241.27,55.14,245.35,53.13,247.92,47.73Z" transform="translate(-4.27 -3.88)"/><path class="cls-3" d="M127.26,69.71c-6.35,0-11.91.06-17.48-.07a3.3,3.3,0,0,1-2.09-1.59c-3-5-6-10-8.79-15a2.92,2.92,0,0,0-3.06-1.83c-2,.13-4.07,0-6.37,0V69.59H73.37V6.73A12.83,12.83,0,0,1,75,6.52c9.51.05,19-.2,28.52.25,9.3.45,15.94,5.32,18.94,14.22,3.07,9.1,1.42,17.41-5.51,24.39-.69.69-1.45,1.31-2.32,2.09,3.73,6,7.5,12.05,11.17,18.13A24.9,24.9,0,0,1,127.26,69.71ZM89.57,36.46c3.9,0,7.65,0,11.41,0s6.21-2.6,6.6-6.55c.44-4.41-1.49-8.16-5.12-8.54-4.25-.45-8.59-.11-12.89-.11Z" transform="translate(-4.27 -3.88)"/><path class="cls-3" d="M316.71,47.43c3.78,6.11,7.55,12.12,11.22,18.2a23.19,23.19,0,0,1,1.45,4.08c-6.28,0-12,.05-17.71-.08-.64,0-1.44-.92-1.84-1.6-2.94-4.91-5.85-9.83-8.64-14.81-.82-1.47-1.72-2.17-3.45-2-1.93.16-3.89,0-6,0V69.53H275.52v-63c2.55,0,5.07,0,7.59,0,7.54,0,15.09-.19,22.61.25,9.57.57,16.41,6.19,19.19,15a23.16,23.16,0,0,1-6.8,24.53Zm-24.93-11c3.86,0,7.6,0,11.33,0s6.35-2.74,6.67-6.76c.35-4.46-1.83-8.17-5.56-8.48-4.1-.35-8.26-.08-12.44-.08Z" transform="translate(-4.27 -3.88)"/><path class="cls-3" d="M163.31,85.06v43.43h57.21V85.06Zm37.15,33.68-8.13-5.91-8.13,5.91,3.1-9.56-8.13-5.91h10.05l3.11-9.56,3.11,9.56h10.05l-8.14,5.91Z" transform="translate(-4.27 -3.88)"/><path class="cls-3" d="M441.42,50.4c5,0,9.64,0,14.31.05.56,0,1.19.73,1.65,1.25a21.6,21.6,0,0,0,1.93,2.46c3.65,2.92,11.87,2.9,15.6.06,2.76-2.1,2.56-5.78-.63-7.11a32.06,32.06,0,0,0-6.89-1.53c-4.18-.72-8.5-.92-12.54-2.1-8.74-2.55-13.14-9.57-12.56-18.69C442.81,16.67,447,11.13,454.23,8a29.86,29.86,0,0,1,24.13-.12c7.8,3.26,12.15,9.13,12.34,18H475.53c-2.5-6.11-10.64-7.95-15.78-3.53-3.16,2.72-2.59,7.18,1.4,8.35C465,31.77,469,32.06,473,32.76c2.41.43,4.85.81,7.21,1.46A17.26,17.26,0,0,1,488.86,62c-4.64,5.68-11,8-18.05,8.8-7.72.86-15.05-.36-21.53-4.89C444,62.27,441.47,57.13,441.42,50.4Z" transform="translate(-4.27 -3.88)"/><path class="cls-3" d="M433.92,25.93H418.8c-2.31-6.4-11.71-8.14-16.35-3.08a4.66,4.66,0,0,0,1.85,7.77,55.62,55.62,0,0,0,8.39,1.67c3.3.58,6.67.89,9.92,1.67,6.45,1.56,11.45,4.91,12.85,11.93,1.48,7.43-.07,14-6.11,19-9.54,8-27.36,8.27-37.26.71-4.89-3.72-7.24-8.69-7.42-15h15.44c3.15,5.89,12.69,7.84,18.14,3.58,2.73-2.13,2.5-5.78-.72-7.12a32,32,0,0,0-6.89-1.5c-4.1-.71-8.36-.87-12.31-2-13.3-4-17.32-21.24-7.42-31.1s30.3-9.11,38.89,1.28A17.88,17.88,0,0,1,433.92,25.93Z" transform="translate(-4.27 -3.88)"/><path class="cls-3" d="M12.64,6.78c10.62,0,21-.39,31.4.13,7.23.37,12.62,4.59,16.1,11,5.25,9.7,3.45,22.48-4.23,29.89a20.16,20.16,0,0,1-14.22,5.69c-4.24.07-8.48,0-12.91,0v16H12.64ZM28.87,38.9c4.08,0,8,.22,11.9-.12A7.09,7.09,0,0,0,45,36.33c2.6-3.09,2.9-8.68.53-11.95a7.72,7.72,0,0,0-4.6-3.13c-3.94-.46-8-.15-12.06-.15Z" transform="translate(-4.27 -3.88)"/><path class="cls-3" d="M353.09,20.94v8.82h21.25V44.3H353.15V55.23h23.9V69.6H336.89V6.65h39.23V20.94Z" transform="translate(-4.27 -3.88)"/><path class="cls-2" d="M163.33,139.91H264.85V154.2H163.33Z" transform="translate(-4.27 -3.88)"/><path class="cls-4" d="M362.72,153.42H343v-68h19.71Z" transform="translate(-4.27 -3.88)"/><path class="cls-2" d="M264.94,85V99.71H232.19V85Z" transform="translate(-4.27 -3.88)"/><path class="cls-2" d="M264.86,127.26H232.2V112.49h32.66Z" transform="translate(-4.27 -3.88)"/><path class="cls-4" d="M92.13,115.24l-.3-1.48.36-.1.64,1.52Z" transform="translate(-4.27 -3.88)"/></svg>