<svg id="Layer_1" data-name="Layer 1" xmlns="http://www.w3.org/2000/svg" viewBox="0 0 529.84 128.42"><defs><style>.cls-1{fill:#aad05e;}.cls-2{fill:#67cdcd;}</style></defs><title>RootsActionLogo</title><path class="cls-1" d="M37.47,72.35c0-3.46,0-6.73,0-10,0-1.19-.3-1.62-1.54-1.56-2.07.1-4.15.05-6.23,0-.84,0-1.27.15-1.43,1.12-.53,3.18-1.18,6.34-1.84,9.5-.07.35-.53.87-.82.88-3.67.06-7.33,0-11.28,0C18.27,51.91,22.14,31.63,26,11.24h1.21c7.23,0,14.46-.13,21.68.06a31.38,31.38,0,0,1,8.32,1.4c5.23,1.62,7.68,5,7.5,10.46A70,70,0,0,1,63.3,34.88a126.8,126.8,0,0,1-3.6,13.37,19.86,19.86,0,0,1-4.78,7.52,12.26,12.26,0,0,1-5.57,3.35c-.73.22-.81.55-.76,1.2.31,3.66.6,7.31.84,11,0,.34-.35,1-.55,1C45.22,72.37,41.55,72.35,37.47,72.35ZM30.32,51.4a2.63,2.63,0,0,0,.53.14c3.47,0,6.95.15,10.41-.06a8.69,8.69,0,0,0,8.2-6.14,55.11,55.11,0,0,0,2.29-8.15,105.25,105.25,0,0,0,1.53-11.45c.21-2.7-1.39-4.52-4-5.2a13.36,13.36,0,0,0-2.95-.41c-2.91-.07-5.83,0-8.74-.09-1,0-1.35.38-1.52,1.31-1.23,6.54-2.51,13.06-3.76,19.59C31.62,44.42,31,47.89,30.32,51.4Z" transform="translate(-8.7 -11.2)"/><path class="cls-2" d="M281.08,11.24c0,1.56,0,2.92,0,4.27q.12,18.09.25,36.18.07,9.77.21,19.52c0,.88-.22,1.16-1.13,1.16-11.63,0-23.25,0-34.87,0-.28,0-.55,0-1-.09.17-.55.28-1,.45-1.5q8.94-22.9,17.9-45.8c1.64-4.2,3.31-8.39,4.9-12.6a1.52,1.52,0,0,1,1.74-1.15c3.4.06,6.79,0,10.19,0Zm-11,19.87-14.8,38.61c.25.16.31.24.38.24,4.55,0,9.1,0,13.65,0,.21,0,.59-.49.6-.75.06-2.71,0-5.42.06-8.13,0-4.63.09-9.26.1-13.89C270.1,41.93,270.09,36.67,270.09,31.11Z" transform="translate(-8.7 -11.2)"/><path class="cls-2" d="M474.25,72.15c.43-2.29.87-4.59,1.3-6.89,1-5.08,2-10.15,2.83-15.26.55-3.61-1.46-6-4.92-6.22-3.94-.29-7.36.72-10,3.74a49,49,0,0,0-4.7,5.71,13,13,0,0,0-1.25,4.41c-.93,4.61-1.77,9.23-2.68,13.84-.06.32-.47.83-.72.83-3.55.06-7.09,0-10.8,0,.44-2.33.84-4.5,1.25-6.68,1.83-9.67,3.68-19.33,5.48-29,.15-.84.46-1.18,1.31-1.17,2.47,0,4.95,0,7.42,0,.94,0,1.17.38,1.12,1.22-.15,2.54-.27,5.08-.41,7.63l.32.34a3.18,3.18,0,0,1,.36-.84c3.72-4.23,7.79-8,13.62-8.89a30.72,30.72,0,0,1,8.67-.08c4.58.64,7.48,4.55,7.66,9.36a52.7,52.7,0,0,1-1.42,12.2c-1,5-1.94,10-2.88,15-.09.52-.14.91-.82.9-3.43,0-6.87,0-10.3,0C474.56,72.33,474.46,72.24,474.25,72.15Z" transform="translate(-8.7 -11.2)"/><path class="cls-1" d="M146.64,72.35c.45-2.37.91-4.46,1.22-6.58.67-4.44,1.27-8.89,1.86-13.35a7.69,7.69,0,0,0-.07-2c-.58-4.57-2.88-6.62-7.5-6.6a21.5,21.5,0,0,0-4.75.35c-3.87.89-5.91,3.78-7.41,7.21-2.07,4.72-2.72,9.81-3.82,14.78-.39,1.75-.68,3.52-1,5.28-.1.52-.19,1-.94,1-3.32,0-6.63,0-10,0a3.06,3.06,0,0,1-.6-.17c.28-1.62.47-3.23.84-4.81,1.23-5.27,2.28-10.61,3.87-15.77,2.09-6.79,6.18-12.2,12.88-15.06a27,27,0,0,1,8.09-1.9,33.85,33.85,0,0,1,12.58.9c5.53,1.63,8.89,6.81,9.3,12.64.33,4.59-.43,9.06-1.14,13.54-.52,3.26-1.17,6.51-1.81,9.75-.06.33-.47.83-.72.84C154,72.36,150.45,72.35,146.64,72.35Z" transform="translate(-8.7 -11.2)"/><path class="cls-1" d="M94.72,72.35c.49-2.51,1-4.8,1.37-7.11.66-4.41,1.3-8.82,1.77-13.25a10.92,10.92,0,0,0-.59-3.75A5.26,5.26,0,0,0,92.37,44a33,33,0,0,0-7.23.3c-2.64.41-4.38,2.3-5.72,4.53-2.27,3.79-3.26,8-4.08,12.3-.66,3.49-1.39,7-2.14,10.42-.06.31-.49.77-.75.77-3.43,0-6.87,0-10.3,0a1.93,1.93,0,0,1-.46-.17c.57-2.87,1-5.77,1.73-8.62a134.73,134.73,0,0,1,3.63-13.49c2.2-6.15,6.23-11,12.4-13.54a25.61,25.61,0,0,1,8.09-1.85,47.56,47.56,0,0,1,10.6.47c6.26,1,10.08,5.4,11,11.75A39.25,39.25,0,0,1,108.59,59c-.66,4-1.42,8.08-2.08,12.13-.15.93-.51,1.24-1.47,1.22C101.69,72.31,98.34,72.35,94.72,72.35Z" transform="translate(-8.7 -11.2)"/><path class="cls-2" d="M423.33,72.35c.48-2.48,1-4.72,1.35-7,.66-4.25,1.37-8.49,1.78-12.76a10,10,0,0,0-1.15-5.67c-1.07-2-2.86-2.79-4.95-3.06a28.71,28.71,0,0,0-3.35-.09c-4.64-.07-7.76,2.27-9.74,6.29a37.05,37.05,0,0,0-3,9.64c-.77,4-1.59,8-2.41,12.06a.85.85,0,0,1-.6.54c-3.58,0-7.16,0-10.92,0,.27-1.5.46-2.87.77-4.21,1.26-5.43,2.4-10.9,3.9-16.26A24.54,24.54,0,0,1,401.32,41a21.17,21.17,0,0,1,12.87-6.24,43.75,43.75,0,0,1,11.93.18c6.63,1.08,10.91,5.64,11.71,12.33a39.56,39.56,0,0,1-.6,11.29c-.68,4.12-1.42,8.24-2.08,12.36-.16,1-.51,1.46-1.65,1.43C430.2,72.3,426.89,72.35,423.33,72.35Z" transform="translate(-8.7 -11.2)"/><path class="cls-1" d="M172,43.75H167.2c.55-2,1-3.79,1.53-5.57.92-3.18.2-2.59,3.42-2.65h1.43c.52-2.68,1-5.29,1.52-7.9s1-5.08,1.42-7.63c.13-.77.48-1,1.24-1.12,3.35-.52,6.68-1.14,10-1.72l.78-.09c-1.17,6.16-2.31,12.2-3.49,18.39.63,0,1.09.07,1.56.07,4.47,0,8.94,0,13.41,0,1.07,0,1.35.28,1,1.33-.66,2-1.25,3.95-1.82,5.95a1.17,1.17,0,0,1-1.37,1c-4.23,0-8.46,0-12.69,0-1.26,0-1.78.16-2,1.63-1,5.86-2.21,11.67-3.33,17.5-.56,2.86-1.06,5.73-1.66,8.57-.07.35-.52.88-.81.88-3.43,0-6.86,0-10.29,0-.07,0-.14-.07-.39-.22.89-4.65,1.79-9.37,2.69-14.09S171.09,48.64,172,43.75Z" transform="translate(-8.7 -11.2)"/><path class="cls-2" d="M372.47,35.51c-.83,2.74-1.53,5.14-2.31,7.52a1.24,1.24,0,0,1-.93.64c-4.48,0-9,0-13.42-.06-1.2,0-1.47.53-1.65,1.48q-2,10.81-4.08,21.61c-.31,1.6-.6,3.21-1,4.8-.08.32-.5.81-.76.81-3.47,0-7,0-10.42,0-.07,0-.13-.09-.3-.2.5-2.64,1-5.33,1.53-8Q341,54.52,342.87,45c.17-.89,0-1.37-1.07-1.32s-2.22,0-3.49,0c.08-.43.13-.84.24-1.23.57-1.95,1.18-3.89,1.72-5.85a1.25,1.25,0,0,1,1.35-1.06c1,0,2.31.18,2.95-.35s.51-1.84.7-2.82c.79-4.11,1.58-8.22,2.33-12.34.13-.77.45-1,1.22-1.11,3.5-.55,7-1.19,10.77-1.85-1.19,6.19-2.35,12.22-3.55,18.48Z" transform="translate(-8.7 -11.2)"/><path class="cls-2" d="M323.51,57.35c0-2.27,0-4.41,0-6.56a20.18,20.18,0,0,0-.38-3.55c-.51-2.29-2.26-3.45-5-3.63-6.24-.43-9.75,2.54-12.18,8.2-1.77,4.14-2.46,8.56-3.34,12.93-.44,2.22-.83,4.46-1.31,6.68-.07.34-.46.88-.7.89-3.51.06-7,0-10.72,0,.35-1.86.63-3.58,1-5.27,1-4.62,1.93-9.29,3.18-13.85,1.63-5.94,4.56-11.11,9.75-14.77a18.53,18.53,0,0,1,9.37-3.58,57,57,0,0,1,11.31.11c5.5.73,8.35,4,8.72,9.46.23,3.36-.1,6.75-.19,10.13,0,1.12-.54,1.62-1.74,1.73-2.46.24-4.89.68-7.34,1A2.93,2.93,0,0,1,323.51,57.35Z" transform="translate(-8.7 -11.2)"/><path class="cls-1" d="M228.93,51c-.12-1.49-.18-2.87-.36-4.24a3.07,3.07,0,0,0-3.06-3,14,14,0,0,0-6.27.37A6.37,6.37,0,0,0,215,48.07a12.79,12.79,0,0,0-.66,8.41c.61,2.12,2.17,3.41,3.87,4.53,3.06,2,6.23,3.86,9.3,5.86a11,11,0,0,1,4.13,4.54c.11.24.16.5.29.88-.5,0-.88.06-1.27.06-3.75,0-7.5,0-11.26,0a7.4,7.4,0,0,1-4.53-1.1c-2.07-1.4-4.35-2.52-6.35-4-4.67-3.5-6.21-8.4-5.36-14a39.32,39.32,0,0,1,2.46-9.06c2.41-5.78,7.16-8.77,13.25-9.38a59.67,59.67,0,0,1,10.61,0c5.76.46,8.3,3.14,8.57,8.6.09,1.76.1,3.51.07,5.27,0,.3-.29.81-.52.86-2.7.54-5.4,1-8.11,1.5A3.9,3.9,0,0,1,228.93,51Z" transform="translate(-8.7 -11.2)"/><path class="cls-1" d="M72.26,76.5a43.67,43.67,0,0,0-.59,4.37,47.23,47.23,0,0,0,.08,7c.37,3.17,2.12,4.87,5.34,5.39s6.72.39,9.7-1.55C89.6,89.93,90.88,87,91.9,84c.72-2.14,1.18-4.37,1.75-6.57.14-.52.25-1,1-1,3.35,0,6.71,0,10.06,0a4.54,4.54,0,0,1,.77.23c-1.11,3.64-2,7.32-3.37,10.82-2.27,5.82-6.07,10.44-12,12.8a29.89,29.89,0,0,1-7.84,2c-4.6.48-9.28.56-13.7-1.21a12.76,12.76,0,0,1-8-9.31c-1.08-4.41-.62-8.8.15-13.18.38-2.15.41-2.14,2.62-2.14h9Z" transform="translate(-8.7 -11.2)"/><path class="cls-1" d="M112.88,76.56H124.1c-.23,1.87-.57,3.66-.64,5.47a33.67,33.67,0,0,0,.17,6.19,5.51,5.51,0,0,0,5.17,5,24,24,0,0,0,6.87-.21c3.94-.77,6.16-3.71,7.48-7.25,1-2.72,1.62-5.58,2.46-8.36.1-.34.46-.86.7-.87,3.55-.05,7.1,0,10.87,0-.29,1.29-.53,2.43-.8,3.57a37,37,0,0,1-5.23,12.76,21.15,21.15,0,0,1-12.93,8.81,33.37,33.37,0,0,1-15.3.2c-6.49-1.43-10.5-6.11-11-12.75A48.74,48.74,0,0,1,112.88,76.56Z" transform="translate(-8.7 -11.2)"/><path class="cls-2" d="M433.91,76.7c-.69,2.64-1.29,5.23-2.06,7.77A27.46,27.46,0,0,1,426,95.07a22.15,22.15,0,0,1-14.55,7.22,37.12,37.12,0,0,1-12-.43,13.66,13.66,0,0,1-10.8-12.58,50.3,50.3,0,0,1,.83-12,1.12,1.12,0,0,1,.8-.74c3.46-.06,6.93,0,10.57,0-.13,1-.23,1.8-.35,2.65a27.63,27.63,0,0,0-.17,9,5.86,5.86,0,0,0,5.13,5.1,14.47,14.47,0,0,0,8.35-.69,11,11,0,0,0,6-6.79c1-2.69,1.65-5.49,2.43-8.24.15-.55.18-1.08,1-1.07,3.36,0,6.71,0,10.07,0A3.8,3.8,0,0,1,433.91,76.7Z" transform="translate(-8.7 -11.2)"/><path class="cls-2" d="M233.21,101.18c.68-1.76,1.31-3.42,2-5.07,2.44-6.24,4.9-12.47,7.32-18.72a1.16,1.16,0,0,1,1.27-.92q18.39,0,36.78,0c1,0,1.19.39,1.18,1.27q0,8.33,0,16.66c0,1.87.08,3.75.16,5.62,0,1-.33,1.26-1.35,1.23-3.55-.09-7.11-.13-10.66,0-1.17,0-1.34-.28-1.31-1.3.19-6.34.34-12.68.5-19,0-.39,0-.78,0-1.27-.44,0-.79-.09-1.13-.09-4.8,0-9.59,0-14.38,0a1.35,1.35,0,0,0-1.53,1.09c-2.37,6.6-4.81,13.19-7.21,19.79-.21.6-.43.81-1.17.8-3.19-.06-6.39,0-9.58,0A8,8,0,0,1,233.21,101.18Z" transform="translate(-8.7 -11.2)"/><path class="cls-2" d="M300.27,76.49a52.6,52.6,0,0,0-.65,5.71,36.25,36.25,0,0,0,.52,7.22c.52,2.59,2.73,4,5.38,4.08s5.28-.21,7.47-1.94a13,13,0,0,0,4-6c.78-2.13,1.5-4.29,2.17-6.46.23-.73.51-1.07,1.32-1,2.61.3,5.22.54,7.94.82a3.65,3.65,0,0,1,0,.94c-1.28,4.1-2.22,8.32-4.38,12.12a19.52,19.52,0,0,1-14.89,10.26,28.13,28.13,0,0,1-11.3-.46,12,12,0,0,1-9.21-9.63,33.41,33.41,0,0,1-.07-12.25,2.49,2.49,0,0,1,.08-.35c.2-1,.08-2.34.69-2.9s1.9-.18,2.89-.19h8Z" transform="translate(-8.7 -11.2)"/><path class="cls-1" d="M221.57,76.5h6.84c1.24,0,2.48,0,3.71,0,.32,0,.89.48.89.73-.06,7.27-1.8,14-6.81,19.51a18.48,18.48,0,0,1-11.71,5.66c-4.3.57-8.59.69-12.76-.83s-6.64-4.57-6.91-9c-.19-3,.14-6,.25-9a1.38,1.38,0,0,1,1.42-1.49c2.88-.33,5.74-.8,8.81-1.25-.14,1.17-.28,2.21-.4,3.26a13.12,13.12,0,0,0,.49,6.37,4.81,4.81,0,0,0,4.77,3.31,29.06,29.06,0,0,0,4.18-.14A8.09,8.09,0,0,0,221,88.44,16.06,16.06,0,0,0,222.37,79C222.21,78.23,221.89,77.5,221.57,76.5Z" transform="translate(-8.7 -11.2)"/><path class="cls-1" d="M177.22,76.64c-.49,2.46-1.07,4.86-1.44,7.29a12.9,12.9,0,0,0-.14,4.5c.93,4.19,4,4.85,7.48,2.88a11.13,11.13,0,0,0,2.32-2c.69-.7,1.29-1.5,2.09-2.44L189.58,91a2,2,0,0,0,.09.22c1.29,3,1.33,3-1,5.27-5.13,4.84-11.24,6.33-18,4.91a9.29,9.29,0,0,1-7-8c-.52-3.74.49-7.28,1.09-10.88.27-1.65.61-3.29.93-4.93.11-.56.21-1,1-1,3.31,0,6.62,0,9.94,0A3.56,3.56,0,0,1,177.22,76.64Z" transform="translate(-8.7 -11.2)"/><path class="cls-2" d="M348.26,76.5c-.34,1.76-.68,3.34-.94,4.94a56.54,56.54,0,0,0-.8,5.78A5.73,5.73,0,0,0,347.2,90c1.56,3.2,4.81,2.85,7.13,1.25a24,24,0,0,0,3.44-3.46c.21-.22.4-.48.69-.83a5.81,5.81,0,0,1,.57.79c.85,1.76,1.72,3.51,2.48,5.31a1.72,1.72,0,0,1-.18,1.47c-3.73,4.55-8.47,7.22-14.43,7.29a21.15,21.15,0,0,1-5.78-.64,8.91,8.91,0,0,1-6.6-8.44c-.25-3.68.61-7.21,1.27-10.77.29-1.57.58-3.14.92-4.69.06-.28.39-.7.6-.71C340.89,76.49,344.47,76.5,348.26,76.5Z" transform="translate(-8.7 -11.2)"/><path class="cls-2" d="M370.57,72.35c.42-2.24.77-4.23,1.16-6.21q2.56-13.32,5.14-26.63a7.45,7.45,0,0,1,.17-1.18c.12-.28.44-.66.68-.66,3.53,0,7.07,0,10.81,0-.23,1.3-.4,2.43-.61,3.55q-2.88,15.2-5.78,30.37c-.06.29-.45.75-.69.76C377.91,72.37,374.37,72.35,370.57,72.35Z" transform="translate(-8.7 -11.2)"/><path class="cls-1" d="M37.75,76.57h12c.14,1.59.31,3.13.41,4.67.29,4.45.54,8.9.83,13.35q.18,2.8.44,5.6c.09.85-.24,1.1-1.08,1.1-3.62,0-7.25,0-10.87,0-.9,0-1.27-.21-1.27-1.2,0-2.91-.12-5.82-.18-8.72q-.12-6.53-.23-13C37.74,77.78,37.75,77.22,37.75,76.57Z" transform="translate(-8.7 -11.2)"/><path class="cls-1" d="M8.7,101.27c1.27-6.64,2.5-13,3.72-19.31.29-1.53.54-3.06.91-4.57.08-.34.53-.85.82-.85,3.64-.06,7.27,0,10.91,0,.1,0,.21.09.46.19-.44,2.21-.9,4.42-1.33,6.64C23.1,89,22,94.61,20.9,100.24c-.08.38-.57,1-.88,1C16.29,101.29,12.56,101.27,8.7,101.27Z" transform="translate(-8.7 -11.2)"/><path class="cls-2" d="M381.05,76.66c-.53,2.77-1,5.46-1.55,8.15-.95,5-1.93,9.93-2.84,14.9-.19,1.07-.54,1.53-1.75,1.49-3-.1-6.07,0-9.1,0-.7,0-.85-.18-.73-.81.8-4.11,1.57-8.22,2.36-12.33.68-3.57,1.38-7.12,2-10.69.12-.63.32-.91,1-.91,3.36,0,6.71,0,10.07,0A3.3,3.3,0,0,1,381.05,76.66Z" transform="translate(-8.7 -11.2)"/><path class="cls-2" d="M484.85,76.49c-.43,2.25-.8,4.27-1.2,6.29-1.13,5.82-2.26,11.64-3.44,17.45-.07.35-.52.88-.81.89-3.5.06-7,0-10.73,0,.29-1.54.53-2.93.8-4.31,1.22-6.33,2.46-12.66,3.65-19,.2-1,.6-1.42,1.71-1.39C478.09,76.54,481.36,76.49,484.85,76.49Z" transform="translate(-8.7 -11.2)"/><path class="cls-2" d="M442.42,76.6h11.42c-.67,3.48-1.31,6.83-2,10.18-.86,4.41-1.74,8.82-2.56,13.23-.17.89-.44,1.23-1.46,1.19-2.87-.11-5.74,0-8.61,0h-1.54C439.3,92.84,440.86,84.71,442.42,76.6Z" transform="translate(-8.7 -11.2)"/><path class="cls-2" d="M426.9,119.31c-.12-1.33-.21-2.52-.33-3.7-.18-1.74-1.19-3-2.51-3-2.67-.16-4,.57-4.44,2.57a12.45,12.45,0,0,0-.48,2.94c0,4.67.08,9.34.22,14a6.69,6.69,0,0,0,.73,2.63,2.85,2.85,0,0,0,4.67.87,6,6,0,0,0,1.52-3,31.14,31.14,0,0,0,.1-4.54c0-.69-.28-.91-.93-.89s-1.58,0-2.59,0a26.07,26.07,0,0,1,.39-2.7c.05-.22.52-.47.8-.48,1.72-.05,3.44,0,5.15,0,.68,0,.9.28.9.94q0,6.58,0,13.17c0,.67-.21,1-.9.91a3.37,3.37,0,0,0-.84,0c-.95.14-1.44-.19-1.35-1.21a2.61,2.61,0,0,0-.11-.67l-.44-.34a8.1,8.1,0,0,1-.63,1.12c-1.55,1.93-6.11,2.33-7.79.7a7.25,7.25,0,0,1-2-3,21.26,21.26,0,0,1-.87-5.76c0-4.86,0-9.74.43-14.57.37-4,2.88-5.91,6.93-5.9a16.54,16.54,0,0,1,2.73.15c3.12.52,4.38,2,4.6,5.16.07,1,.19,2.07.16,3.1a1.25,1.25,0,0,1-.67.91A19.83,19.83,0,0,1,426.9,119.31Z" transform="translate(-8.7 -11.2)"/><path class="cls-2" d="M247.24,120c-.08-1.39-.1-2.65-.22-3.91a13.26,13.26,0,0,0-.47-2.32,1.6,1.6,0,0,0-.61-.84c-1.66-1.22-4.68-.32-5.22,1.65a17.88,17.88,0,0,0-.65,4.47c0,4.31.08,8.62.17,12.93a8.11,8.11,0,0,0,.37,2c.54,1.86,1.58,2.52,3.59,2.39,1.56-.11,2.41-1,2.62-2.85.14-1.26.2-2.54.24-3.81,0-.71.21-1.06,1-.85a4.71,4.71,0,0,0,1.19.11c2,.08,2,.08,1.74,2-.14,1.19-.23,2.38-.44,3.56-.58,3.27-2,4.64-5.31,5a14.6,14.6,0,0,1-4.38-.16c-3-.64-4.15-3-4.57-5.66a38.91,38.91,0,0,1-.46-6.19c0-4,.15-8,.46-12.06.19-2.38,1.17-4.58,3.64-5.48a12.49,12.49,0,0,1,7.65-.1c2.19.59,2.88,2.39,3.16,4.36a38.12,38.12,0,0,1,.28,4.53,1.2,1.2,0,0,1-.58,1C249.45,119.86,248.42,119.9,247.24,120Z" transform="translate(-8.7 -11.2)"/><path class="cls-2" d="M467.67,124.47c-.37,2-.74,4.1-1.09,6.15-.42,2.51-.79,5-1.26,7.54-.06.32-.57.56-.88.82-.05,0-.16,0-.24,0-2.53.06-2.45,0-2.9-2.45-.93-5.09-2-10.17-2.94-15.25-.21-1.13-.41-2.26-.64-3.56a29.77,29.77,0,0,1,3.3,0c.26,0,.6.66.66,1,.39,2.39.7,4.8,1.05,7.2a46.44,46.44,0,0,0,1.14,5.85c.76-4.68,1.51-9.35,2.29-14.15.91,0,1.74,0,2.57,0,.67,0,.86.31.95.93.63,4.29,1.3,8.58,2,12.87a3.86,3.86,0,0,0,.32.68c.4-2.59.75-4.88,1.1-7.17.31-2.08.66-4.17.91-6.26.1-.83.43-1.11,1.22-1s1.48,0,2.37,0c-.58,2.92-1.12,5.61-1.64,8.29-.78,4-1.63,7.88-2.31,11.84-.29,1.75-1.5,1-2.38,1.12s-1-.49-1.08-1.18c-.71-4.44-1.46-8.87-2.2-13.31Z" transform="translate(-8.7 -11.2)"/><path class="cls-2" d="M374.3,139c-1.3,0-2.41.06-3.51,0a1.16,1.16,0,0,1-.79-.75c-.38-2-.69-4-1-6.09h-5.4c-.35,2-.73,4-1,6-.1.66-.32.9-1,.87-.91,0-1.82,0-2.91,0,.23-1.22.41-2.26.61-3.3,1.59-8.09,3.2-16.17,4.74-24.27.24-1.24.65-1.73,2-1.66,2.54.13,2.56,0,3.07,2.58q2.57,12.64,5.1,25.28A13.32,13.32,0,0,1,374.3,139Zm-5.67-10.09c-.76-4.17-1.47-8.1-2.19-12a14.83,14.83,0,0,0-.88,3.16c-.51,2.54-1,5.07-1.5,7.61-.08.45-.45,1.22.53,1.25C365.85,128.93,367.12,128.9,368.63,128.9Z" transform="translate(-8.7 -11.2)"/><path class="cls-2" d="M267.8,128.54c-.22,2.14-.28,4.3-.69,6.4a5.46,5.46,0,0,1-5.12,4.47,13.88,13.88,0,0,1-3.47,0,5.73,5.73,0,0,1-5.12-5.64,71.11,71.11,0,0,1,.15-11.21c.31-3.31,2.69-5,6-5.05,1.71,0,3.44-.17,5,.79,2.28,1.4,2.79,3.68,2.94,6.08.1,1.39,0,2.79,0,4.19Zm-3.87,0h-.09c0-.28,0-.56,0-.84a44.75,44.75,0,0,0-.48-5.32c-.31-1.53-1.11-1.85-3.14-1.85-1.72,0-2.4.39-2.81,1.82a10.06,10.06,0,0,0-.44,2.82c0,2.82,0,5.65.18,8.47a2.91,2.91,0,0,0,3.09,3,3,3,0,0,0,3.36-2.83C263.84,132,263.82,130.25,263.93,128.5Z" transform="translate(-8.7 -11.2)"/><path class="cls-2" d="M442.74,127.53a45.24,45.24,0,0,1,.86-6c.73-2.8,2.7-4.1,5.61-4a13.81,13.81,0,0,1,4.47.48,5.36,5.36,0,0,1,3.46,5.06,96,96,0,0,1,0,10.86c-.22,3.49-2.78,5.56-6.31,5.57a14.33,14.33,0,0,1-2.86-.14,5.86,5.86,0,0,1-4.83-5.66C443,131.9,442.9,130.15,442.74,127.53Zm11,.94c-.12-1.8-.16-3.63-.37-5.44s-1.28-2.54-3.39-2.54c-1.81,0-3,.79-3,2.5-.13,3.57-.17,7.16,0,10.72.09,2,1.32,2.86,3.18,2.86a3,3,0,0,0,3.24-2.83C453.6,132,453.62,130.26,453.74,128.47Z" transform="translate(-8.7 -11.2)"/><path class="cls-2" d="M297.14,139V123.25c0-1.08-.18-2.12-1.27-2.63a3.26,3.26,0,0,0-3.5.84,5.26,5.26,0,0,0-1.56,3.85c.08,4.19,0,8.39.05,12.58,0,.79-.17,1.19-1.06,1.12s-1.66,0-2.71,0v-1.33c0-6.27,0-12.54,0-18.8,0-.9.23-1.17,1.14-1.16,2,0,2,0,2.52,2.58.22-.24.41-.42.56-.62,1.68-2.29,4.06-2.53,6.56-2.08,1.87.34,3,2.31,3,4.9,0,4.71,0,9.42,0,14.13,0,2.38,0,2.38-2.39,2.38Z" transform="translate(-8.7 -11.2)"/><path class="cls-2" d="M270.31,117.8h3.17l.41,2.37c.12,0,.28,0,.32-.09,1.39-2.15,3.41-2.82,5.88-2.64a4.05,4.05,0,0,1,3.75,3.11,16.25,16.25,0,0,1,.25,2.61c0,4.87,0,9.74,0,14.6,0,1-.34,1.27-1.3,1.25-2.47,0-2.47,0-2.47-2.44,0-4.35,0-8.7,0-13,0-1.16,0-2.4-1.33-2.93a3.28,3.28,0,0,0-3.72,1.19,5.12,5.12,0,0,0-1.27,3.49c.08,4.19,0,8.38,0,12.57,0,.87-.2,1.18-1.12,1.17-2.64,0-2.64,0-2.64-2.63V117.8Z" transform="translate(-8.7 -11.2)"/><path class="cls-2" d="M312.2,128.62c-1.4,0-2.79,0-4.19,0-.56,0-1,.13-.9.79a38.52,38.52,0,0,0,.65,4.82,3,3,0,0,0,3.32,2.35,3,3,0,0,0,2.82-2.36c0-.07,0-.15.07-.23.17-.51.25-1.41.52-1.47a5.1,5.1,0,0,1,2.22.16c.22.06.47.59.45.9a5.78,5.78,0,0,1-6.19,5.87,11.83,11.83,0,0,1-3.41-.45,5.2,5.2,0,0,1-3.47-4.11,30.37,30.37,0,0,1-.08-12.7c.65-3.24,2.67-4.79,5.95-4.7a11.46,11.46,0,0,1,4.27.75c1.95.9,2.76,2.82,2.93,4.91.13,1.51,0,3,.1,4.55,0,.75-.28,1-1,.95C314.92,128.6,313.56,128.62,312.2,128.62Zm-5.29-2.44h7.16a41.22,41.22,0,0,0-.77-4.54,2.32,2.32,0,0,0-2.54-1.56c-1.26,0-2.53.09-2.95,1.47S307.22,124.54,306.91,126.18Z" transform="translate(-8.7 -11.2)"/><path class="cls-2" d="M538.5,74.15c.49,9.14-3.85,15.69-10.71,21a1.83,1.83,0,0,1-2.76-.18c-.68-.91-.42-1.93.71-2.72,4.51-3.2,7.86-7.28,9-12.79,1.73-8.23-.28-15.4-6.59-21.16a16.74,16.74,0,0,0-2.35-1.64,2,2,0,0,1-1-2.71,1.92,1.92,0,0,1,2.76-.33c6.77,4.57,10.71,10.77,10.86,19.11C538.5,73.21,538.5,73.72,538.5,74.15Z" transform="translate(-8.7 -11.2)"/><path class="cls-2" d="M329.43,124.86c-.22-1.08-.38-1.94-.58-2.79s-.56-1.49-1.45-1.53c-1.09-.05-2.37-.42-3.07.74a6.18,6.18,0,0,0-1,2.86c-.06,3.23,0,6.46.19,9.68a2.58,2.58,0,0,0,3,2.63,2.32,2.32,0,0,0,2.25-1.65,6.48,6.48,0,0,0,.45-2.1c0-1.1.35-1.33,1.42-1.14,1.81.32,1.81.24,1.66,2.07-.43,5.26-3.85,6.32-7.9,5.72a5.26,5.26,0,0,1-4.67-5.18,93.42,93.42,0,0,1,0-11.1c.24-3.76,2.51-5.62,6.25-5.6,1.45,0,2.94-.28,4.26.73s2.61,4.52,2.07,6a.64.64,0,0,1-.39.38C331.1,124.67,330.28,124.76,329.43,124.86Z" transform="translate(-8.7 -11.2)"/><path class="cls-2" d="M385,124.84c-.19-1-.31-1.85-.54-2.69s-.56-1.61-1.63-1.64-2.47-.22-3.19,1.06a4.23,4.23,0,0,0-.65,1.89c0,3.47-.1,6.94.11,10.39a2.47,2.47,0,0,0,2.45,2.61,2.69,2.69,0,0,0,3.06-2.39c.17-.82.26-1.64.4-2.56.87.06,1.69.07,2.5.18.21,0,.55.41.53.59a20.69,20.69,0,0,1-.71,3.86,4.59,4.59,0,0,1-3.64,3.12,8.22,8.22,0,0,1-5.27-.4c-2.6-1.25-3.19-3.71-3.29-6.21a89.48,89.48,0,0,1,.16-9.69c.24-3.49,2.56-5.49,6-5.49a11.83,11.83,0,0,1,3.43.25c2.12.67,3.75,4.15,3.16,6.36a.73.73,0,0,1-.43.46C386.67,124.68,385.85,124.74,385,124.84Z" transform="translate(-8.7 -11.2)"/><path class="cls-2" d="M378,33.79l.9-6.21c.22-1.53.42-3.07.71-4.59.07-.37.48-.94.75-.95,3.5-.06,7,0,10.69,0-.11,1-.18,1.9-.3,2.79-.37,2.63-.74,5.27-1.18,7.9-.07.4-.51,1.05-.8,1.06C385.29,33.82,381.78,33.79,378,33.79Z" transform="translate(-8.7 -11.2)"/><path class="cls-2" d="M398.27,134.42a14.67,14.67,0,0,1,1.19,1.85,1.21,1.21,0,0,1-.2,1,5.55,5.55,0,0,1-6.82,1.34,4,4,0,0,1-1.86-3.56q0-6.59,0-13.18v-1.32l-1.64-.2.27-2.59c1.39.15,1.43-.68,1.38-1.66a16.17,16.17,0,0,1,0-2.87,1.46,1.46,0,0,1,.83-1,19.58,19.58,0,0,1,2.72-.48v5.93h5.21a5.35,5.35,0,0,1,.09.63c0,2.09,0,2.12-2.14,2.12-1,0-2,0-3.06,0,0,.52-.07.9-.07,1.29,0,3.83,0,7.67,0,11.5,0,.32-.09.71.06.94.44.67.87,1.59,1.51,1.8s1.29-.6,1.94-1A4.23,4.23,0,0,0,398.27,134.42Z" transform="translate(-8.7 -11.2)"/><path class="cls-2" d="M338.58,111.76c0,1.73,0,3.32,0,4.9,0,.86.28,1.12,1.1,1.08,1.35,0,2.7,0,4,0,.12.19.19.25.19.32.08,2.38.06,2.4-2.28,2.42-3,0-3,0-3,3V133a2.45,2.45,0,0,0,.06,1.06c.42.73.8,1.66,1.46,2,.91.47,1.61-.33,2.12-1.1a3.26,3.26,0,0,1,.29-.36c1.79,1.26,1.89,2.52.2,3.68a5.36,5.36,0,0,1-5.56.5c-1.73-.79-2.16-2.36-2.17-4.08q0-6.47,0-12.93c0-.74,0-1.37-1-1.3-.19,0-.6-.43-.56-.57.23-.79-.39-2.06,1.15-2.22.16,0,.38-.56.39-.87.05-1.11.07-2.23,0-3.35-.05-.83.3-1.14,1.07-1.23S337.57,111.94,338.58,111.76Z" transform="translate(-8.7 -11.2)"/><path class="cls-2" d="M527.23,74.19c0,6.26-2.88,11-7.75,14.61a1.81,1.81,0,0,1-2.56-.3,1.67,1.67,0,0,1,.51-2.47c3-2.33,5.4-5.13,6.05-9,.95-5.62-.53-10.43-5.15-14l-.85-.67c-1.05-.82-1.22-1.55-.57-2.55a2,2,0,0,1,2.57-.27,15.91,15.91,0,0,1,6.43,7.83,57,57,0,0,1,1.66,6.79Z" transform="translate(-8.7 -11.2)"/><path class="cls-2" d="M499.06,79.77a5.58,5.58,0,1,1,0-11.16,5.58,5.58,0,1,1,0,11.16Z" transform="translate(-8.7 -11.2)"/><path class="cls-2" d="M436.41,138.92h-3.58c0-.46-.05-.84-.05-1.23,0-6.26,0-12.53,0-18.79,0-.84.14-1.32,1.09-1.17s2.08-.53,2,1.16c0,.53.06,1.07.11,1.91a7.37,7.37,0,0,1,4.76-3c1-.14,1.25.14,1.13,1,0,.32,0,.64,0,1,0,1-.18,1.71-1.58,1.74-2.35,0-3.82,2.15-3.85,5.16,0,3.59,0,7.18,0,10.77Z" transform="translate(-8.7 -11.2)"/><path class="cls-2" d="M515.68,75a10.75,10.75,0,0,1-4.86,8.61c-1,.74-2.26.71-2.79-.08s-.34-1.9.79-2.72a8,8,0,0,0,0-13.24c-1.15-.83-1.41-1.8-.74-2.72a2,2,0,0,1,2.77-.08C514,67,515.68,70.27,515.68,75Z" transform="translate(-8.7 -11.2)"/><path class="cls-2" d="M476.72,138.89v-4.95h3.66v4.95Z" transform="translate(-8.7 -11.2)"/><path class="cls-2" d="M345.26,133.94c1.15,0,2.15-.05,3.13,0a1,1,0,0,1,.64.72c.07,1.15,0,2.31,0,3.47a.25.25,0,0,1,0,.12c-.62,1.45-1.87.42-2.79.69-.53.16-1,0-1-.76C345.29,136.86,345.26,135.5,345.26,133.94Z" transform="translate(-8.7 -11.2)"/><path class="cls-2" d="M400.87,134h3.64c0,1.49,0,2.95,0,4.41,0,.19-.29.53-.46.54a16.49,16.49,0,0,1-2.63,0c-.2,0-.49-.47-.5-.74C400.85,136.86,400.87,135.51,400.87,134Z" transform="translate(-8.7 -11.2)"/></svg>