<svg id="Layer_1" data-name="Layer 1" xmlns="http://www.w3.org/2000/svg" viewBox="0 0 186.01 169.82"><defs><style>.cls-1{fill:#01117c;}</style></defs><title>ssw_logo</title><path class="cls-1" d="M9.64,37.25l5.13-.77a7.74,7.74,0,0,0,1,3.92,2.89,2.89,0,0,0,2.55,1.26,3.19,3.19,0,0,0,2.38-.93,3.31,3.31,0,0,0,.92-2.44c0-1.81-1.45-4.16-4.34-7l-.5-.51a31.91,31.91,0,0,1-5.44-6.51,10.12,10.12,0,0,1-1.21-4.83,8.63,8.63,0,0,1,2.42-6.2,7.9,7.9,0,0,1,5.91-2.52A7.28,7.28,0,0,1,24,13a10.12,10.12,0,0,1,2.48,6.29l-5.25.75a7.11,7.11,0,0,0-.83-3.35,2.38,2.38,0,0,0-2.11-1,2.66,2.66,0,0,0-2.08.88,3.38,3.38,0,0,0-.79,2.35q0,3,5.06,7.92l.31.32a25.09,25.09,0,0,1,4.87,5.89,11.25,11.25,0,0,1,1.15,5.13,8.6,8.6,0,0,1-2.36,6.25,7.94,7.94,0,0,1-6,2.45,8.16,8.16,0,0,1-6.34-2.56A10.7,10.7,0,0,1,9.64,37.25Z" transform="translate(-7.95 -10.53)"/><path class="cls-1" d="M30,19.31a9,9,0,0,1,2.24-6.45,8.14,8.14,0,0,1,6.19-2.33,7.57,7.57,0,0,1,5.91,2.39,9.38,9.38,0,0,1,2.18,6.54V37.3c0,3.05-.72,5.41-2.16,7.06a7.68,7.68,0,0,1-6.12,2.48,7.58,7.58,0,0,1-6.13-2.47c-1.41-1.64-2.11-4-2.11-7.21Zm11,19.1V19a4.42,4.42,0,0,0-.69-2.71,2.84,2.84,0,0,0-4.15,0A4.42,4.42,0,0,0,35.43,19V38.41a4.49,4.49,0,0,0,.69,2.72,2.8,2.8,0,0,0,4.15,0A4.49,4.49,0,0,0,41,38.41Z" transform="translate(-7.95 -10.53)"/><path class="cls-1" d="M50.72,37.16V19.31A8.91,8.91,0,0,1,53,12.86a8.14,8.14,0,0,1,6.19-2.33,7.6,7.6,0,0,1,5.91,2.39,9.38,9.38,0,0,1,2.18,6.54v3.35H61.72V19a4.35,4.35,0,0,0-.7-2.71,2.44,2.44,0,0,0-2.07-.9,2.47,2.47,0,0,0-2.07.9,4.41,4.41,0,0,0-.7,2.71V38.41a4.49,4.49,0,0,0,.7,2.72,2.46,2.46,0,0,0,2.07.92A2.43,2.43,0,0,0,61,41.13a4.42,4.42,0,0,0,.7-2.72V33.67h5.52V37.3c0,3.05-.72,5.41-2.16,7.06A7.7,7.7,0,0,1,59,46.84a7.61,7.61,0,0,1-6.15-2.46Q50.72,41.94,50.72,37.16Z" transform="translate(-7.95 -10.53)"/><path class="cls-1" d="M71.84,46.09V11.27H77.3V46.09Z" transform="translate(-7.95 -10.53)"/><path class="cls-1" d="M80.22,46.09,86,11.27h7l5.71,34.82H93.15l-1.09-7.53H86.64l-1.15,7.53Zm7.1-12.47h4.09L89.58,19.07h-.33Z" transform="translate(-7.95 -10.53)"/><path class="cls-1" d="M101.74,46.09V11.27h5.32V41.06h8.34v5Z" transform="translate(-7.95 -10.53)"/><path class="cls-1" d="M9.64,81.08l5.13-.77a7.74,7.74,0,0,0,1,3.92,2.89,2.89,0,0,0,2.55,1.26,3.19,3.19,0,0,0,2.38-.93,3.31,3.31,0,0,0,.92-2.44c0-1.81-1.45-4.16-4.34-7l-.5-.51a31.91,31.91,0,0,1-5.44-6.51,10.12,10.12,0,0,1-1.21-4.83A8.61,8.61,0,0,1,12.56,57a7.9,7.9,0,0,1,5.91-2.52A7.28,7.28,0,0,1,24,56.85a10.1,10.1,0,0,1,2.48,6.29l-5.25.75a7.11,7.11,0,0,0-.83-3.35,2.38,2.38,0,0,0-2.11-1,2.63,2.63,0,0,0-2.08.88,3.38,3.38,0,0,0-.79,2.35q0,3,5.06,7.92l.31.31a25.3,25.3,0,0,1,4.87,5.9A11.25,11.25,0,0,1,26.85,82a8.6,8.6,0,0,1-2.36,6.25,7.94,7.94,0,0,1-6,2.45,8.2,8.2,0,0,1-6.34-2.56A10.7,10.7,0,0,1,9.64,81.08Z" transform="translate(-7.95 -10.53)"/><path class="cls-1" d="M29.92,89.92V55.1h14v5H35.29v9.13h6.23v5H35.29V84.7h8.64v5.22Z" transform="translate(-7.95 -10.53)"/><path class="cls-1" d="M46.74,81V63.14A8.91,8.91,0,0,1,49,56.69a8.14,8.14,0,0,1,6.18-2.34,7.61,7.61,0,0,1,5.92,2.4,9.37,9.37,0,0,1,2.17,6.54v3.35H57.74V62.81A4.35,4.35,0,0,0,57,60.1,2.45,2.45,0,0,0,55,59.19a2.48,2.48,0,0,0-2.07.91,4.35,4.35,0,0,0-.7,2.71V82.24A4.42,4.42,0,0,0,52.9,85a2.46,2.46,0,0,0,2.07.92A2.43,2.43,0,0,0,57,85a4.42,4.42,0,0,0,.7-2.72V77.5h5.51v3.63c0,3.05-.71,5.4-2.15,7.06A7.7,7.7,0,0,1,55,90.67a7.61,7.61,0,0,1-6.15-2.46C47.43,86.57,46.74,84.17,46.74,81Z" transform="translate(-7.95 -10.53)"/><path class="cls-1" d="M66.75,55.1h5.49v27A3.58,3.58,0,0,0,73,84.49a2.6,2.6,0,0,0,2.06.9,2.4,2.4,0,0,0,2-.89,3.69,3.69,0,0,0,.73-2.43v-27h5.46v26c0,3.07-.71,5.42-2.13,7.07A7.63,7.63,0,0,1,75,90.67a7.67,7.67,0,0,1-6.15-2.48Q66.74,85.7,66.75,81Z" transform="translate(-7.95 -10.53)"/><path class="cls-1" d="M93.11,75.28V89.92H87.74V55.1h7.87c3,0,5.09.8,6.41,2.38s2,4.15,2,7.69a14.67,14.67,0,0,1-.79,5.29,7.09,7.09,0,0,1-2.6,3.28l3.94,16.18H99L95.66,75.28Zm0-15.15V70.25h2.12a2.84,2.84,0,0,0,2.57-1.12A8.36,8.36,0,0,0,98.52,65a6.88,6.88,0,0,0-.75-3.79,3.17,3.17,0,0,0-2.74-1Z" transform="translate(-7.95 -10.53)"/><path class="cls-1" d="M107.66,89.92V55.1h5.46V89.92Z" transform="translate(-7.95 -10.53)"/><path class="cls-1" d="M117.48,60.13v-5H134v5h-5.58V89.92h-5.37V60.13Z" transform="translate(-7.95 -10.53)"/><path class="cls-1" d="M137,55.1h5.44L145.94,69h.34L149.6,55.1h5.47l-6.26,20.37V89.92h-5.37V76.12Z" transform="translate(-7.95 -10.53)"/><path class="cls-1" d="M8,99.31h8l3.71,32.11c.18,1.62.31,3.12.4,4.49s.13,2.71.13,4V141c0-.7.07-1.68.15-3,.22-4.29.4-6.86.52-7.68l4.16-31h7.12l4.46,32.07c.17,1.25.31,2.67.41,4.27s.15,3.37.15,5.32c0-.35,0-.87.08-1.57q.33-6.83.6-9.07l3.44-31h7.91l-8.43,54.18h-7l-4.57-31.44c-.17-1.22-.31-2.66-.41-4.31s-.15-3.42-.15-5.32q-.23,4.42-.39,7.08c-.12,1.78-.21,3-.29,3.56l-4.45,30.43h-7Z" transform="translate(-7.95 -10.53)"/><path class="cls-1" d="M52.53,111.82q0-6.41,3.48-10t9.63-3.63a11.82,11.82,0,0,1,9.2,3.72q3.39,3.73,3.39,10.18v27.76q0,7.13-3.35,11c-2.24,2.57-5.41,3.86-9.54,3.86s-7.35-1.28-9.53-3.84-3.28-6.3-3.28-11.22Zm17.12,29.71V111.3a6.87,6.87,0,0,0-1.08-4.22,4.41,4.41,0,0,0-6.45,0A6.87,6.87,0,0,0,61,111.3v30.23a7,7,0,0,0,1.08,4.24,4.37,4.37,0,0,0,6.45,0A7,7,0,0,0,69.65,141.53Z" transform="translate(-7.95 -10.53)"/><path class="cls-1" d="M93.66,130.7v22.79H85.3V99.31H97.56c4.59,0,7.92,1.23,10,3.71s3.08,6.45,3.08,12a23,23,0,0,1-1.24,8.24,10.9,10.9,0,0,1-4,5.1l6.15,25.18H102.8L97.63,130.7Zm0-23.56v15.73H97c1.92,0,3.26-.58,4-1.74s1.12-3.31,1.12-6.46q0-4.28-1.18-5.9c-.79-1.09-2.2-1.63-4.25-1.63Z" transform="translate(-7.95 -10.53)"/><path class="cls-1" d="M116.92,153.49V99.31h8.35v22.85q.38-1.35.66-2.19c.19-.56.35-1,.5-1.33l8.28-19.33H143l-9.29,18.51,10.38,35.67h-8.69l-7-27.24-3.07,6.14v21.1Z" transform="translate(-7.95 -10.53)"/><path class="cls-1" d="M145.38,139.73l8-1.19a12.08,12.08,0,0,0,1.58,6.08,4.49,4.49,0,0,0,4,2,5,5,0,0,0,3.71-1.44,5.17,5.17,0,0,0,1.42-3.8c0-2.83-2.25-6.47-6.74-10.95l-.79-.78q-6.6-6.6-8.47-10.14a15.8,15.8,0,0,1-1.87-7.51,13.36,13.36,0,0,1,3.77-9.65,12.25,12.25,0,0,1,9.19-3.91,11.31,11.31,0,0,1,8.66,3.61q3.38,3.62,3.86,9.8L163.48,113a10.87,10.87,0,0,0-1.29-5.21,3.71,3.71,0,0,0-3.28-1.57,4.13,4.13,0,0,0-3.24,1.37,5.3,5.3,0,0,0-1.22,3.65q0,4.73,7.87,12.33l.49.49c3.84,3.74,6.37,6.8,7.56,9.18a17.41,17.41,0,0,1,1.8,8,13.42,13.42,0,0,1-3.67,9.72,12.38,12.38,0,0,1-9.29,3.8,12.73,12.73,0,0,1-9.87-4Q145.68,146.77,145.38,139.73Z" transform="translate(-7.95 -10.53)"/><rect class="cls-1" x="0.55" y="150.83" width="185.46" height="18.99"/><circle class="cls-1" cx="177.61" cy="134.03" r="8.22"/></svg>