<svg id="Layer_1" data-name="Layer 1" xmlns="http://www.w3.org/2000/svg" viewBox="0 0 574.99 69.59"><defs><style>.cls-1{fill:#fedf20;}</style></defs><title>SunriseMovementLogo</title><path class="cls-1" d="M62.2,361.69c-.06,14.87-.16,29.74-.11,44.6A7.18,7.18,0,0,1,59.71,412c-6.4,6.19-12.65,12.53-19.41,19.26-4.94-5-9.38-10.18-14.56-14.5-5.45-4.55-7.4-9.63-7.06-16.71.62-12.76.17-25.58.17-38.38Zm-4.38,46.69L42.33,381.6v42.14ZM38.51,382.91l-.66-.3c-4.82,8.33-9.66,16.65-14.43,25a2,2,0,0,0,0,1.83c4.82,4.87,9.72,9.66,15,14.92Zm10.93-10a9,9,0,0,0-9.86-7.73c-4.48.37-8,3.72-8,7.73Zm9,3.75H45.41l13.06,10.38Zm-36,10.12c2.44-1.93,4.43-3.47,6.4-5.05s3.9-3.21,6.31-5.19H22.5Zm35.45,15,1.13-.31c-.55-3.63-.17-7.79-1.9-10.74s-5.61-4.85-8.54-7.2l-.74.8ZM32.89,384.38l-.64-.79c-3.14,2.46-7.18,4.38-9.15,7.55-1.62,2.62-.77,6.74-1,10.19l.87.21Zm25.46-11.6v-7.41H49.83c1,1.7,2.19,3.09,2.56,4.67C53.19,373.48,55.26,373.7,58.35,372.78Zm-35.89,1c2.11-.79,4.18-.93,5.05-2,1.45-1.8,2.12-4.2,3.15-6.41h-8.2Z" transform="translate(-18.64 -361.69)"/><path class="cls-1" d="M316.28,373.67c8.72-.73,8.72-.74,11.51,7,1.76,4.88,3.49,9.77,5.38,15.06,2.2-6.13,4.56-11.85,6.26-17.76,1.06-3.66,2.84-5.12,6.57-4.52a25.8,25.8,0,0,0,3.95,0v35.79h-7V386c-2.17,5.86-4.13,11.33-6.24,16.75-.65,1.67-.7,3.81-3.63,3.85s-3-2.05-3.68-3.75c-2.27-6-4.43-12-6.31-17.08v23.54h-6.78Z" transform="translate(-18.64 -361.69)"/><path class="cls-1" d="M491.92,373.46v35.85h-7.07V386c-1.22,3.34-2.28,6.24-3.35,9.13-.92,2.49-1.77,5-2.83,7.44-.75,1.75-.74,4.08-3.86,4-3-.06-2.91-2.25-3.55-3.91-2.27-5.91-4.41-11.88-6.27-16.93v23.61h-6.84V373.48a69.72,69.72,0,0,1,7.78.11c.75.09,1.62,1.44,2,2.37,2.44,6.43,4.76,12.91,7.24,19.72,2.24-6.28,4.59-12.16,6.4-18.21,1-3.25,2.54-4.54,5.86-4A33.52,33.52,0,0,0,491.92,373.46Z" transform="translate(-18.64 -361.69)"/><path class="cls-1" d="M162,409.33h-7.26V373.47a58.18,58.18,0,0,1,7.11.1,4,4,0,0,1,2.35,2.09c3.64,6.95,7.16,14,10.72,21,.23.46.49.91.87,1.6V373.67H183v35.84a56.08,56.08,0,0,1-7.1-.1c-.87-.11-1.84-1.24-2.32-2.14-3.95-7.43-7.81-14.92-11.59-22.19Z" transform="translate(-18.64 -361.69)"/><path class="cls-1" d="M559.75,409.32c-8,.66-8,.67-11.56-6.14-3.17-6.13-6.32-12.27-9.38-18.21v24.3h-7.19v-35.8a47.25,47.25,0,0,1,6.84.1,4.46,4.46,0,0,1,2.62,2.22c3.92,7.3,7.71,14.67,11.52,22v-24h7.15Z" transform="translate(-18.64 -361.69)"/><path class="cls-1" d="M192.52,373.68c5.71,0,11.17-.27,16.6.08,4.84.3,8.7,2.51,10.07,7.6s-.31,9.56-4.85,13l-1.08.78c2.62,4.7,5.16,9.27,8,14.39a76.77,76.77,0,0,1-7.69-.08,4,4,0,0,1-2.47-1.85,62.12,62.12,0,0,1-4.22-7.93c-1.17-2.78-2.87-4-6.25-3v12.66h-8.13Zm8.21,16.38c3.85-.16,7.87,1.17,10-2.69.72-1.28.61-4-.3-5-2.58-3-6.26-1.87-9.74-1.72Z" transform="translate(-18.64 -361.69)"/><path class="cls-1" d="M357.1,392.15c.09-14.39,9.28-22,21.49-18.69,5.7,1.54,9.52,5.41,10.48,10.94a36.5,36.5,0,0,1-.14,14.28c-1.89,8.13-9.09,12.39-17.48,11.49-7.66-.82-13.38-6.94-14.21-15.21C357.11,393.7,357.11,392.42,357.1,392.15Zm8-1.2A63.25,63.25,0,0,0,367,398.6a6.67,6.67,0,0,0,6.64,4.66c3.34,0,5.45-1.86,6.65-4.7a17.63,17.63,0,0,0,0-14.42,6.85,6.85,0,0,0-6.5-4.41,6.66,6.66,0,0,0-6.63,4.17A52.45,52.45,0,0,0,365.11,391Z" transform="translate(-18.64 -361.69)"/><path class="cls-1" d="M138.34,373.6h7.37c0,8.74.64,17.41-.2,25.93-.72,7.25-6,10.68-13.58,10.69-7.76,0-13.05-3.44-13.8-10.86-.84-8.42-.19-17-.19-25.7h7.78q0,7,0,14c0,3-.09,6,.1,9,.28,4.14,2.41,6.41,5.8,6.54,3.6.13,6-1.67,6.31-5.92.47-6.44.3-12.92.4-19.37C138.36,376.6,138.34,375.24,138.34,373.6Z" transform="translate(-18.64 -361.69)"/><path class="cls-1" d="M296.9,373.74v6.6H282.57V388h12.17v6.13H282.68v8.35h14.7v6.87H274.26V373.74Z" transform="translate(-18.64 -361.69)"/><path class="cls-1" d="M509.07,394.12v8.36h14.85v6.86H500.78V373.73h22.58v6.51H509.21v7.63h11.95v6.25Z" transform="translate(-18.64 -361.69)"/><path class="cls-1" d="M436.5,402.57h14.7v6.76H428.08V373.74h22.56v6.6H436.38V388h12.18v6.12H436.5Z" transform="translate(-18.64 -361.69)"/><path class="cls-1" d="M84.55,404.87l4-4.66c3.53,1.12,6.52,2.5,9.64,2.87a5.66,5.66,0,0,0,4.56-2.55c1.12-2.16-.92-3.46-2.85-4.29s-4-1.73-6.09-2.58c-6.06-2.5-8.78-6.63-7.84-11.92.85-4.79,5.68-8.6,11.48-8.95a17.27,17.27,0,0,1,13.09,4.64l-3.76,4.74c-2.5-.84-4.84-2.16-7.23-2.26-1.69-.07-4.31,1.08-5,2.44-1.14,2.23,1.28,3.28,3.12,4.07,2.56,1.1,5.16,2.09,7.71,3.22,4,1.75,6.28,4.73,6.3,9.11s-2.17,7.7-6.1,9.74C99.1,411.87,89.92,410.32,84.55,404.87Z" transform="translate(-18.64 -361.69)"/><path class="cls-1" d="M267.16,377.49,263.53,382c-3-.82-5.58-2-8.24-2.11-1.4-.07-2.88,1.65-4.32,2.56,1,1.25,1.71,2.87,3,3.67a41.54,41.54,0,0,0,6.36,2.76c6,2.5,8.43,5.78,8,10.77s-4,8.91-9.92,10.14c-6.43,1.33-12.15-.29-17.37-4.71l4.38-5.2a60.12,60.12,0,0,0,6.89,2.93,9.07,9.07,0,0,0,4.74,0,3.71,3.71,0,0,0,2.4-2.42,4.28,4.28,0,0,0-1.62-3.35,42.61,42.61,0,0,0-6.61-3c-6.88-2.88-9.7-6.95-8.56-12.47,1.1-5.34,6.61-9,13.4-8.74A16.23,16.23,0,0,1,267.16,377.49Z" transform="translate(-18.64 -361.69)"/><path class="cls-1" d="M423.67,373.62c-3.53,11.58-6.95,22.94-10.5,34.27a3,3,0,0,1-2.17,1.56c-2.65.2-5.33.08-8.2.08l-10.94-35.81h8.74l7.34,28.14c2.59-9.95,4.95-19.08,7.33-28.24Z" transform="translate(-18.64 -361.69)"/><path class="cls-1" d="M593.63,373.71v6.59H583.9v29h-8.36v-28.8h-9.68v-6.83Z" transform="translate(-18.64 -361.69)"/><path class="cls-1" d="M234.59,409.43h-7.8V373.68h7.8Z" transform="translate(-18.64 -361.69)"/></svg>