<!-- Created with Inkscape (http://www.inkscape.org/) -->
<svg xmlns:rdf="http://www.w3.org/1999/02/22-rdf-syntax-ns#" xmlns="http://www.w3.org/2000/svg" xml:space="preserve" height="179.18" width="227.81" version="1.1" xmlns:cc="http://creativecommons.org/ns#" xmlns:dc="http://purl.org/dc/elements/1.1/"><metadata><rdf:RDF><cc:Work rdf:about=""><dc:format>image/svg+xml</dc:format><dc:type rdf:resource="http://purl.org/dc/dcmitype/StillImage"/><dc:title/></cc:Work></rdf:RDF></metadata><defs/><g transform="matrix(1.25,0,0,-1.25,-423.2,922.59)"><path fill="#004b8d" d="m338.56,738.07,182.25,0,0-143.34-182.25,0z"/><path fill="#FFF" d="m487.5,600.54c0.12,0.37,0.24,0.74,0.24,0.84,0,0-1.68,0.24-3.73,0.24h-3.74v2.48,2.48h2.99,2.99v0.83,0.81h-2.99-2.99v2.38,2.38h3.54,3.54l-0.14,0.66c-0.22,1.01-0.15,1.01-4.49,0.94h-4.04l-0.1-7.29-0.1-7.26h4.36,4.36l0.22,0.63zm-23.3-0.34,0.48,0.24,0,7.22,0,7.24-0.69-0.25c-0.38-0.25-0.77-0.25-0.85-0.25-0.1,0-0.18-3.33-0.18-7.31,0-7.97-0.12-7.28,1.23-6.89zm-15.83,0.42c0.17,0.39,0.31,0.76,0.31,0.8,0,0-1.25,0.25-2.78,0.25h-2.77v6.53,6.5l-0.69-0.25-0.7-0.24-0.1-7.29-0.1-7.29h3.22,3.21l0.31,0.72zm-21.51-0.42,0.48,0.24,0,7.22c0,3.97-0.1,7.21-0.2,7.21s-0.48,0-0.85-0.24l-0.67-0.25v-7.31c0-8.07-0.12-7.39,1.23-6.99zm-55.21,7.06c0,0.25,0.52,1.13,1.15,2.34l1.13,2.15,1.1-2.23c0.6-1.25,1.09-2.28,1.09-2.33,0,0-1.01-0.24-2.24-0.24s-2.24,0.24-2.23,0.24zm-2.14-4.49,1.49,2.9,2.96,0,2.95,0,1.36-2.9c1.19-2.52,1.43-2.89,1.8-2.79,0.23,0,0.55,0.24,0.69,0.24,0.5,0,0.29,0.49-3.3,7.73l-3.57,7.22-2.32-4.64c-5.28-10.5-5.1-10.09-4.56-10.31,0.88-0.34,1-0.24,2.5,2.68zm-21.98,0.42,0,3.31,2.13,0,2.13,0,0,0.84,0,0.81-2.13,0-2.13,0,0,2.38,0,2.35,2.72,0,2.72,0-0.1,0.64c0,0.35-0.12,0.69-0.17,0.76-0.1,0.25-1.63,0.25-3.5,0.25h-3.4v-7.34-7.34h0.85,0.86v3.32zm160.79-3.11c3.14,1.42,3.65,5.22,0.97,7.14-0.4,0.27-1.54,0.76-2.53,1.05-2.22,0.64-3.02,1.33-3.02,2.5,0,2.43,2.5,3.41,4.93,1.97l1-0.62,0.48,0.47,0.47,0.49-0.56,0.54c-2.38,2.31-6.86,1.45-7.77-1.5-0.86-2.72,0.55-4.49,4.39-5.52,2.3-0.61,3.25-2.01,2.52-3.68-0.84-1.96-3.48-2.16-5.46-0.42l-0.88,0.77-0.57-0.54-0.57-0.57,0.84-0.83c1.51-1.5,4.01-2.04,5.76-1.25zm-100.55,10.03c0.1,0.25,0.43-1.59,0.86-3.83,0.44-2.21,0.9-4.54,1.03-5.2,0.22-1.13,0.27-1.18,0.85-1.18,0.34,0,0.67,0.25,0.73,0.27,0.1,0.25-2.61,14.38-2.79,14.55-0.1,0-0.17-0.24-2.99-6.52-1.17-2.63-2.18-4.71-2.25-4.64-0.1,0.24-1.23,2.63-2.56,5.67-1.34,3.04-2.48,5.47-2.54,5.4-0.1,0-0.75-3.32-1.53-7.27-1.49-7.51-1.49-7.53-0.41-7.41,0.52,0,0.55,0.25,1.5,5.06,0.53,2.75,1.01,5,1.07,5,0.1,0,0.63-1.22,1.27-2.75,0.63-1.49,1.63-3.82,2.21-5.17l1.06-2.43,2.21,5.13c1.22,2.82,2.25,5.2,2.28,5.32z"/><path fill="#FFF" d="m432.89,716.58,87.06,0,0,20.66-180.53,0,0-118.34,93.47,0z"/><path fill="#004b8d" d="m386.13,666.84-16.02-42.18-28.79,79.89,15.73,0,13.94-40.43,15.14,38.81,15.39-38.86,13.97,40.58,16.01,0-29.71-80.04z"/><path fill="#004b8d" d="m458.28,726.64c0,3.97,0.1,7.21,0.17,7.21,0.1,0,0.37,0,0.64,0.25l0.48,0.24v-7.24c0-6.4-0.1-7.24-0.34-7.36-0.97-0.34-0.94-0.54-0.94,7.12zm17.07-0.25c0,4.02,0.1,7.31,0.1,7.31s2.23-2.43,4.85-5.42l4.76-5.4,0.1,5.4,0.1,5.42,0.54,0.25c0.29,0,0.59,0.24,0.64,0,0,0,0.12-3.41,0-7.46v-7.41l-4.77,5.57c-2.63,3.04-4.86,5.57-4.96,5.59-0.13,0-0.2-2.25-0.2-5.37v-5.47l-0.53-0.25h-0.54v7.31zm-42.04,0c0,7.09,0,7.34,0.41,7.34h0.74c0.29,0.24,0.34-0.3,0.39-3.24l0.1-3.34,2.96,3.31,2.96,3.34,0.62-0.32c0.75-0.37,0.91-0.24-2.21-3.73-1.38-1.59-2.52-2.99-2.52-3.07,0,0,1.4-1.71,3.11-3.63l3.11-3.51-0.79-0.31c-0.43-0.25-0.8-0.27-0.83-0.25,0,0-1.48,1.69-3.22,3.68l-3.19,3.58-0.1-3.51c-0.1-3.46-0.1-3.53-0.53-3.65-1.06-0.27-1.02-0.59-1.02,7.19zm-19.32,0.42c1.92,0.76,1.95,3.95,0.1,5.08-0.45,0.27-1.07,0.39-1.8,0.39h-1.12v-2.9-2.87h1.07c0.59,0,1.4,0,1.8,0.3zm-0.1-4.35-2.66,3.42-0.1-3.15c-0.1-3.28-0.13-3.46-1.06-3.46h-0.48v7.24,7.22h2.08c3.5,0,5.02-1.25,5.13-4.2,0.1-2.38-0.75-3.61-2.99-4.32-0.14,0,0.7-1.25,1.95-2.82,1.21-1.5,2.16-2.75,2.12-2.8-0.19-0.24-1.03-0.51-1.18-0.51-0.1,0-1.38,1.52-2.85,3.38zm-24.91-1.42c2.34,0.79,4.06,3.17,4.06,5.62,0,5.35-6.6,8.05-10.35,4.27-4.46-4.54,0.22-11.88,6.29-9.89zm-3.91-1.69c-5.83,1.59-7.7,8.98-3.28,12.93,5.15,4.59,13.42,0.59,12.83-6.21-0.39-4.54-5.2-7.92-9.55-6.72zm-35.65,7.02-3.11,7.26,0.62,0.24c0.79,0.25,0.5,0.74,3.27-5.79,1.28-2.99,2.39-5.39,2.47-5.3,0.1,0.25,0.58,1.18,1.1,2.41l0.94,2.26-1.16,2.69c-0.63,1.5-1.24,2.92-1.34,3.17-0.16,0.39-0.11,0.49,0.32,0.59,0.76,0.24,0.81,0.24,1.93-2.5l1.03-2.41,1.06,2.5c1.07,2.51,1.3,2.78,2.06,2.31,0.25-0.24,0.1-0.74-1.02-3.24l-1.32-3.04,1.01-2.48c0.7-1.69,1.07-2.38,1.19-2.18,0.1,0.24,1.22,2.7,2.47,5.64,2.35,5.52,2.56,5.84,3.41,5.3,0.25-0.24-5.37-13.94-5.92-14.53-0.1-0.24-0.76,1.28-1.51,3.07-0.91,2.11-1.42,3.09-1.54,2.9-0.1-0.25-0.7-1.55-1.36-3.05-0.66-1.52-1.26-2.82-1.34-2.89-0.1-0.25-1.54,3.12-3.26,7.12zm158.15-7.22c-5.46,1.43-7.3,8.61-3.24,12.66,2.48,2.46,6.63,2.85,9.38,0.89l0.91-0.64-0.46-0.64-0.44-0.61-0.49,0.44c-2.71,2.48-7.92,0.96-9.17-2.65-1.75-5.1,3.6-9.96,8.2-7.44l0.87,0.47v2.01,2.04h-2.24c-2.33,0-2.41,0-2,0.91,0.25,0.54,0.26,0.54,2.99,0.54h2.74v-3.22-3.19l-1.01-0.64c-1.89-1.15-3.97-1.47-6.04-0.93z"/><path fill="#FFF" d="m467.25,627.14,0,31.95,23.48,0,0,15.9-23.48,0,0,14.25,30.93,0.37-3.31,15.02-45.97,0,0.37-79.26z"/></g></svg>
